<?xml version="1.0" encoding="UTF-8"?>
<svg width="512px" height="285px" viewBox="0 0 512 285" version="1.1" xmlns="http://www.w3.org/2000/svg" xmlns:xlink="http://www.w3.org/1999/xlink">
    <!-- Generator: Sketch 54.1 (76490) - https://sketchapp.com -->
    <title>FreshDock_logo</title>
    <desc>Created with Sketch.</desc>
    <g id="Page-1" stroke="none" stroke-width="1" fill="none" fill-rule="evenodd">
        <g id="FreshDock_logo" fill-rule="nonzero">
            <g id="Group" transform="translate(1.000000, 174.000000)">
                <polygon id="Path" fill="#76B82A" points="6.7 6.3 6.7 25.4 32 25.4 32 31.4 6.7 31.4 6.7 54.7 0.5 54.7 0.5 0.4 35 0.4 35 6.4 6.7 6.4"></polygon>
                <path d="M72.3,37.3 C71.1,37.4 69.9,37.5 68.7,37.5 L54.3,37.5 L54.3,54.6 L48,54.6 L48,0.3 L68.6,0.3 C82.2,0.3 90,7 90,18.5 C90,27.5 85.7,33.5 77.8,36.1 L90.5,54.5 L83.4,54.5 L72.3,37.3 Z M68.6,31.5 C78.4,31.5 84,27.2 84,18.7 C84,10.5 78.4,6.3 68.6,6.3 L54.2,6.3 L54.2,31.5 L68.6,31.5 Z" id="Shape" fill="#76B82A"></path>
                <polygon id="Path" fill="#76B82A" points="114.1 6.3 114.1 24.1 141.5 24.1 141.5 30.1 114.1 30.1 114.1 48.7 145.7 48.7 145.7 54.6 107.9 54.6 107.9 0.3 144.7 0.3 144.7 6.3"></polygon>
                <path d="M195.6,5.1 L193,10.9 C188.1,7.6 182.4,6.3 178,6.3 C171,6.3 166.5,8.9 166.5,13.5 C166.5,27.5 197,20.2 197,39.9 C197,49 189,54.8 177.4,54.8 C169.5,54.8 161.7,51.4 156.6,46.5 L159.4,40.9 C164.4,45.8 171.3,48.6 177.5,48.6 C185.3,48.6 190.2,45.4 190.2,40.2 C190.3,25.9 159.7,33.5 159.7,14.1 C159.7,5.6 167.2,0.1 178.5,0.1 C184.6,0.1 191.1,2.1 195.6,5.1 Z" id="Path" fill="#76B82A"></path>
                <polygon id="Path" fill="#76B82A" points="252.4 54.6 252.4 30.7 219.7 30.7 219.7 54.6 213.5 54.6 213.5 0.3 219.7 0.3 219.7 24.8 252.4 24.8 252.4 0.3 258.6 0.3 258.6 54.6"></polygon>
                <path d="M300.8,0.3 C316.6,0.3 328.7,12 328.7,27.4 C328.7,42.8 316.5,54.5 300.6,54.5 L278.9,54.5 L278.9,0.2 L300.8,0.2 L300.8,0.3 Z M285.1,48.7 L300.9,48.7 C313,48.7 322.4,39.6 322.4,27.5 C322.4,15.3 312.8,6.3 300.6,6.3 L285,6.3 L285,48.7 L285.1,48.7 Z" id="Shape" fill="#914C15"></path>
                <path d="M394.3,27.4 C394.3,42.7 381.7,54.8 365.9,54.8 C350,54.8 337.5,42.6 337.5,27.4 C337.5,12.1 350.1,0.1 365.9,0.1 C381.7,0.2 394.3,12.2 394.3,27.4 Z M343.8,27.4 C343.8,39.3 353.9,48.9 366,48.9 C378.1,48.9 388,39.4 388,27.4 C388,15.5 378.1,6 366,6 C353.8,6.1 343.8,15.5 343.8,27.4 Z" id="Shape" fill="#914C15"></path>
                <path d="M451.2,8.1 L447.5,12.8 C443.3,8.5 437.4,6 431.5,6 C419.3,6 409.4,15.5 409.4,27.4 C409.4,39.3 419.2,48.8 431.5,48.8 C437.5,48.8 443.3,46.3 447.5,42.3 L451.3,46.6 C446,51.6 438.7,55 431.1,55 C415.4,55 403,42.8 403,27.5 C403,12.3 415.6,0.3 431.3,0.3 C438.8,0.2 446,3.2 451.2,8.1 Z" id="Path" fill="#914C15"></path>
                <polygon id="Path" fill="#914C15" points="483 28.8 472.5 40.4 472.5 54.6 466.3 54.6 466.3 0.3 472.5 0.3 472.5 31.5 501.6 0.3 509 0.3 487.5 23.9 510.6 54.6 503 54.6"></polygon>
            </g>
            <g id="Group" transform="translate(0.000000, 250.000000)" fill="#914C15">
                <polygon id="Path" points="8.6 26.5 6.3 26.5 -2.84217094e-14 9.2 2.7 9.2 7.4 23.1 12.2 9.2 14.9 9.2"></polygon>
                <path d="M20.7,18.6 C20.7,22.4 22.5,24.6 25.8,24.6 C27.8,24.6 29,24 30.3,22.6 L32,24.1 C30.2,25.9 28.6,26.8 25.7,26.8 C21.1,26.8 18.1,24.1 18.1,17.9 C18.1,12.3 20.8,9 25.2,9 C29.7,9 32.3,12.2 32.3,17.4 L32.3,18.6 L20.7,18.6 Z M29.3,13.8 C28.6,12.2 27.1,11.2 25.3,11.2 C23.5,11.2 21.9,12.2 21.3,13.8 C20.9,14.8 20.8,15.3 20.8,16.7 L30,16.7 C29.7,15.2 29.7,14.7 29.3,13.8 Z" id="Shape"></path>
                <path d="M42.9,26.5 C39.9,26.5 38.5,24.5 38.5,21.9 L38.5,1.5 L41,1.5 L41,21.8 C41,23.5 41.6,24.3 43.3,24.3 L44.7,24.3 L44.7,26.5 L42.9,26.5 Z" id="Path"></path>
                <polygon id="Path" points="61.3 26.5 55.8 17.6 52.4 21.5 52.4 26.5 49.9 26.5 49.9 1.4 52.4 1.4 52.4 18.2 60.2 9.2 63.4 9.2 57.5 15.8 64.4 26.5"></polygon>
                <path d="M80.1,24.8 C78.9,26 77.2,26.8 75.1,26.8 C73,26.8 71.3,26 70.1,24.8 C68.3,23 68,20.6 68,17.9 C68,15.2 68.4,12.8 70.1,11 C71.3,9.8 73,9 75.1,9 C77.2,9 78.9,9.8 80.1,11 C81.9,12.8 82.2,15.2 82.2,17.9 C82.2,20.6 81.9,23 80.1,24.8 Z M78.3,12.5 C77.5,11.7 76.4,11.2 75.1,11.2 C73.9,11.2 72.8,11.7 72,12.5 C70.7,13.8 70.6,15.9 70.6,17.8 C70.6,19.7 70.7,21.9 72,23.1 C72.8,23.9 73.9,24.4 75.1,24.4 C76.3,24.4 77.5,23.9 78.3,23.1 C79.6,21.8 79.7,19.7 79.7,17.8 C79.7,15.9 79.6,13.8 78.3,12.5 Z" id="Shape"></path>
                <path d="M99.6,24.8 C98.4,26 96.7,26.8 94.6,26.8 C92.5,26.8 90.8,26 89.6,24.8 C87.8,23 87.5,20.6 87.5,17.9 C87.5,15.2 87.9,12.8 89.6,11 C90.8,9.8 92.5,9 94.6,9 C96.7,9 98.4,9.8 99.6,11 C101.4,12.8 101.7,15.2 101.7,17.9 C101.7,20.6 101.4,23 99.6,24.8 Z M97.8,12.5 C97,11.7 95.9,11.2 94.6,11.2 C93.4,11.2 92.3,11.7 91.5,12.5 C90.2,13.8 90.1,15.9 90.1,17.8 C90.1,19.7 90.2,21.9 91.5,23.1 C92.3,23.9 93.4,24.4 94.6,24.4 C95.8,24.4 97,23.9 97.8,23.1 C99.1,21.8 99.2,19.7 99.2,17.8 C99.2,15.9 99.1,13.8 97.8,12.5 Z" id="Shape"></path>
                <path d="M119.7,25.2 C118.8,26.1 117.2,26.7 115.5,26.7 C113.6,26.7 112,26.2 110.6,24.4 L110.6,26.5 L108.1,26.5 L108.1,1.4 L110.6,1.4 L110.6,11.1 C112,9.3 113.6,8.9 115.5,8.9 C117.3,8.9 118.8,9.5 119.7,10.4 C121.5,12.2 121.8,15 121.8,17.8 C121.8,20.6 121.5,23.5 119.7,25.2 Z M115,11.3 C111.2,11.3 110.6,14.5 110.6,17.9 C110.6,21.3 111.2,24.5 115,24.5 C118.8,24.5 119.3,21.3 119.3,17.9 C119.3,14.5 118.7,11.3 115,11.3 Z" id="Shape"></path>
                <path d="M134.8,26.8 C130.4,26.8 127.1,23.8 127.1,17.9 C127.1,12 130.4,9 134.8,9 C137.2,9 138.7,9.6 140.5,11.6 L138.8,13.2 C137.5,11.8 136.5,11.3 134.8,11.3 C133.1,11.3 131.7,12 130.8,13.3 C130,14.4 129.7,15.8 129.7,17.9 C129.7,20 130,21.4 130.8,22.5 C131.7,23.8 133.1,24.5 134.8,24.5 C136.5,24.5 137.5,24 138.8,22.5 L140.5,24.2 C138.8,26.1 137.2,26.8 134.8,26.8 Z" id="Path"></path>
                <path d="M157.3,26.5 L157.3,15.8 C157.3,12.8 155.7,11.2 153.1,11.2 C150.5,11.2 148.8,12.8 148.8,15.8 L148.8,26.5 L146.3,26.5 L146.3,1.4 L148.8,1.4 L148.8,11 C150.1,9.6 151.7,8.9 153.7,8.9 C157.6,8.9 159.9,11.4 159.9,15.3 L159.9,26.4 L157.3,26.4 L157.3,26.5 Z" id="Path"></path>
                <path d="M178,24.8 C176.8,26 175.1,26.8 173,26.8 C170.9,26.8 169.2,26 168,24.8 C166.2,23 165.9,20.6 165.9,17.9 C165.9,15.2 166.3,12.8 168,11 C169.2,9.8 170.9,9 173,9 C175.1,9 176.8,9.8 178,11 C179.8,12.8 180.1,15.2 180.1,17.9 C180.1,20.6 179.8,23 178,24.8 Z M176.2,12.5 C175.4,11.7 174.3,11.2 173,11.2 C171.8,11.2 170.7,11.7 169.9,12.5 C168.6,13.8 168.5,15.9 168.5,17.8 C168.5,19.7 168.6,21.9 169.9,23.1 C170.7,23.9 171.8,24.4 173,24.4 C174.2,24.4 175.4,23.9 176.2,23.1 C177.5,21.8 177.6,19.7 177.6,17.8 C177.6,15.9 177.5,13.8 176.2,12.5 Z" id="Shape"></path>
                <path d="M196.8,26.5 L196.8,24.4 C195.4,26.2 193.8,26.7 191.9,26.7 C190.1,26.7 188.6,26.1 187.7,25.2 C185.9,23.4 185.6,20.6 185.6,17.8 C185.6,15 186,12.2 187.7,10.4 C188.6,9.5 190.2,8.9 191.9,8.9 C193.8,8.9 195.4,9.3 196.8,11.1 L196.8,1.4 L199.3,1.4 L199.3,26.5 L196.8,26.5 L196.8,26.5 Z M192.4,11.3 C188.6,11.3 188,14.5 188,17.9 C188,21.3 188.6,24.5 192.4,24.5 C196.2,24.5 196.7,21.3 196.7,17.9 C196.7,14.5 196.2,11.3 192.4,11.3 Z" id="Shape"></path>
                <polygon id="Path" points="227.6 26.5 222.1 17.6 218.7 21.5 218.7 26.5 216.2 26.5 216.2 1.4 218.7 1.4 218.7 18.2 226.5 9.2 229.7 9.2 223.8 15.8 230.7 26.5"></polygon>
                <polygon id="Path" points="241.7 26.5 239.4 26.5 233.1 9.2 235.8 9.2 240.5 23.1 245.3 9.2 248 9.2"></polygon>
                <path d="M262,26.5 L262,24.8 C260.6,26.2 259.3,26.7 257,26.7 C254.6,26.7 253.2,26.2 252.1,25.1 C251.3,24.3 250.8,23 250.8,21.6 C250.8,18.6 252.9,16.6 256.8,16.6 L262,16.6 L262,15 C262,12.5 260.7,11.2 257.6,11.2 C255.4,11.2 254.3,11.7 253.2,13.2 L251.5,11.6 C253,9.6 254.8,9 257.6,9 C262.2,9 264.5,11 264.5,14.8 L264.5,26.6 L262,26.6 L262,26.5 Z M262,18.6 L257.1,18.6 C254.5,18.6 253.2,19.7 253.2,21.7 C253.2,23.7 254.4,24.7 257.2,24.7 C258.7,24.7 260,24.6 261.1,23.5 C261.7,22.9 262,22 262,20.5 L262,18.6 Z" id="Shape"></path>
                <path d="M275.9,26.5 C272.9,26.5 271.5,24.5 271.5,21.9 L271.5,1.5 L274,1.5 L274,21.8 C274,23.5 274.6,24.3 276.3,24.3 L277.7,24.3 L277.7,26.5 L275.9,26.5 Z" id="Path"></path>
                <path d="M282.8,4.3 L282.8,1.4 L285.6,1.4 L285.6,4.3 L282.8,4.3 Z M282.9,26.5 L282.9,9.2 L285.4,9.2 L285.4,26.5 L282.9,26.5 Z" id="Shape"></path>
                <path d="M297.5,26.5 C294.5,26.5 293.1,24.4 293.1,21.9 L293.1,11.3 L290.9,11.3 L290.9,9.4 L293.1,9.4 L293.1,4 L295.6,4 L295.6,9.4 L299.3,9.4 L299.3,11.3 L295.6,11.3 L295.6,21.9 C295.6,23.5 296.3,24.4 298,24.4 L299.3,24.4 L299.3,26.6 L297.5,26.6 L297.5,26.5 Z" id="Path"></path>
                <path d="M316.3,26.5 L316.3,15.8 C316.3,12.7 314.6,11.2 312,11.2 C309.4,11.2 307.7,12.8 307.7,15.8 L307.7,26.5 L305.2,26.5 L305.2,9.2 L307.7,9.2 L307.7,11.1 C308.9,9.7 310.6,9 312.6,9 C314.5,9 316,9.6 317,10.6 C318.2,11.8 318.8,13.4 318.8,15.4 L318.8,26.5 L316.3,26.5 Z" id="Path"></path>
                <path d="M328.2,5.6 L325.9,5.6 L329,0.2 L332,0.2 L328.2,5.6 Z M325.9,26.5 L325.9,9.2 L328.4,9.2 L328.4,26.5 L325.9,26.5 Z" id="Shape"></path>
                <path d="M342.4,26.8 C338,26.8 334.7,23.8 334.7,17.9 C334.7,12 338,9 342.4,9 C344.8,9 346.3,9.6 348.1,11.6 L346.4,13.2 C345.1,11.8 344.1,11.3 342.4,11.3 C340.7,11.3 339.3,12 338.4,13.3 C337.6,14.4 337.3,15.8 337.3,17.9 C337.3,20 337.6,21.4 338.4,22.5 C339.3,23.8 340.7,24.5 342.4,24.5 C344.1,24.5 345.1,24 346.4,22.5 L348.1,24.2 C346.3,26.1 344.8,26.8 342.4,26.8 Z" id="Path"></path>
                <path d="M364.9,26.5 L364.9,15.8 C364.9,12.8 363.3,11.2 360.7,11.2 C358.1,11.2 356.4,12.8 356.4,15.8 L356.4,26.5 L353.9,26.5 L353.9,1.4 L356.4,1.4 L356.4,11 C357.7,9.6 359.3,8.9 361.3,8.9 C365.2,8.9 367.5,11.4 367.5,15.3 L367.5,26.4 L364.9,26.4 L364.9,26.5 Z" id="Path"></path>
                <path d="M395.8,25.2 C394.9,26.1 393.3,26.7 391.6,26.7 C389.7,26.7 388.1,26.2 386.7,24.4 L386.7,34.2 L384.2,34.2 L384.2,9.1 L386.7,9.1 L386.7,11.1 C388.1,9.3 389.7,8.8 391.6,8.8 C393.4,8.8 394.9,9.4 395.8,10.3 C397.6,12.1 397.9,14.9 397.9,17.7 C397.9,20.5 397.5,23.5 395.8,25.2 Z M391,11.3 C387.2,11.3 386.6,14.5 386.6,17.9 C386.6,21.3 387.2,24.5 391,24.5 C394.8,24.5 395.3,21.3 395.3,17.9 C395.3,14.5 394.8,11.3 391,11.3 Z" id="Shape"></path>
                <path d="M415.3,24.8 C414.1,26 412.4,26.8 410.3,26.8 C408.2,26.8 406.5,26 405.3,24.8 C403.5,23 403.2,20.6 403.2,17.9 C403.2,15.2 403.6,12.8 405.3,11 C406.5,9.8 408.2,9 410.3,9 C412.4,9 414.1,9.8 415.3,11 C417.1,12.8 417.4,15.2 417.4,17.9 C417.4,20.6 417.1,23 415.3,24.8 Z M413.5,12.5 C412.7,11.7 411.6,11.2 410.3,11.2 C409.1,11.2 408,11.7 407.2,12.5 C405.9,13.8 405.8,15.9 405.8,17.8 C405.8,19.7 405.9,21.9 407.2,23.1 C408,23.9 409.1,24.4 410.3,24.4 C411.5,24.4 412.7,23.9 413.5,23.1 C414.8,21.8 414.9,19.7 414.9,17.8 C414.9,15.9 414.8,13.8 413.5,12.5 Z" id="Shape"></path>
                <path d="M428.6,26.5 C425.6,26.5 424.2,24.4 424.2,21.9 L424.2,11.3 L422,11.3 L422,9.4 L424.2,9.4 L424.2,4 L426.7,4 L426.7,9.4 L430.4,9.4 L430.4,11.3 L426.7,11.3 L426.7,21.9 C426.7,23.5 427.4,24.4 429.1,24.4 L430.4,24.4 L430.4,26.6 L428.6,26.6 L428.6,26.5 Z" id="Path"></path>
                <path d="M446,12.5 C445,11.5 444.3,11.2 443,11.2 C440.5,11.2 438.8,13.2 438.8,15.8 L438.8,26.4 L436.3,26.4 L436.3,9.1 L438.8,9.1 L438.8,11.2 C439.8,9.8 441.6,8.9 443.7,8.9 C445.4,8.9 446.6,9.3 447.9,10.5 L446,12.5 Z" id="Path"></path>
                <path d="M461.5,26.5 L461.5,24.8 C460.1,26.2 458.8,26.7 456.5,26.7 C454.1,26.7 452.7,26.2 451.6,25.1 C450.8,24.3 450.3,23 450.3,21.6 C450.3,18.6 452.4,16.6 456.3,16.6 L461.5,16.6 L461.5,15 C461.5,12.5 460.2,11.2 457.1,11.2 C454.9,11.2 453.8,11.7 452.7,13.2 L451,11.6 C452.5,9.6 454.3,9 457.1,9 C461.7,9 464,11 464,14.8 L464,26.6 L461.5,26.6 L461.5,26.5 Z M461.5,18.6 L456.6,18.6 C454,18.6 452.7,19.7 452.7,21.7 C452.7,23.7 453.9,24.7 456.7,24.7 C458.2,24.7 459.5,24.6 460.6,23.5 C461.2,22.9 461.5,22 461.5,20.5 L461.5,18.6 Z" id="Shape"></path>
                <polygon id="Path" points="476.8 26.5 474.5 26.5 468.2 9.2 470.9 9.2 475.6 23.1 480.4 9.2 483.1 9.2"></polygon>
                <path d="M487.5,4.3 L487.5,1.4 L490.3,1.4 L490.3,4.3 L487.5,4.3 Z M487.6,26.5 L487.6,9.2 L490.1,9.2 L490.1,26.5 L487.6,26.5 Z" id="Shape"></path>
                <path d="M508.5,26.5 L508.5,15.8 C508.5,12.7 506.8,11.2 504.2,11.2 C501.6,11.2 499.9,12.8 499.9,15.8 L499.9,26.5 L497.4,26.5 L497.4,9.2 L499.9,9.2 L499.9,11.1 C501.1,9.7 502.8,9 504.8,9 C506.7,9 508.2,9.6 509.2,10.6 C510.4,11.8 511,13.4 511,15.4 L511,26.5 L508.5,26.5 Z" id="Path"></path>
            </g>
            <g id="Group" transform="translate(178.000000, 0.000000)">
                <path d="M135.4,0.8 C131.3,42.8 84.1,44.6 71.1,74.8 C58.7,103.5 69.3,128 89,136.5 C90.8,137.3 92.7,137.9 94.7,138.4 C108,122.6 130.9,91.3 133.1,61.3 C137.2,90.9 118.1,116.9 99.4,139.3 C139.6,145.2 193.4,95.5 135.4,0.8 Z" id="Path" fill="#537A2C"></path>
                <g transform="translate(0.000000, 86.000000)">
                    <g fill="#FFFFFF">
                        <path d="M75.7,61.4 C68.9,61.4 61.7,59.3 54.9,55.3 C47.1,50.7 42.6,43.4 38.3,36.3 C32.2,26.4 26.5,17.1 12.3,13.8 L6.8,12.5 L12,10.1 C23.8,4.6 35.5,1.8 46.7,1.8 C71,1.8 86.9,14.4 93.6,26.3 C98.9,35.5 99.3,45.1 94.9,52.6 C94.6,53 94.3,53.5 93.9,54 L93.1,55 L93.1,55 L92.9,55.2 L92.2,56.1 L92.1,55.9 L91.7,56.3 C87.9,59.6 82,61.4 75.7,61.4 C75.7,61.4 75.7,61.4 75.7,61.4 Z" id="Path"></path>
                        <path d="M46.6,3.9 C82.9,3.9 103.7,34 93.2,51.7 C93,52.1 92.7,52.5 92.4,52.9 C84.6,42.2 74,29 54.2,24.2 C70,29.8 84.3,46.6 90.5,54.8 C87.2,57.6 81.9,59.5 75.7,59.5 C69.8,59.5 62.9,57.8 55.9,53.7 C38.2,43.2 38.4,18 12.7,12 C25,6.3 36.4,3.9 46.6,3.9 L46.6,3.9 Z M46.6,0 C35.1,0 23.1,2.8 11,8.5 L0.7,13.3 L11.8,15.9 C25.2,19 30.8,28 36.6,37.5 C41.1,44.8 45.7,52.3 53.9,57.1 C60.9,61.3 68.5,63.5 75.6,63.5 C81.9,63.5 87.5,61.9 91.7,58.9 L92.2,59.5 L94.3,56.8 L95.8,55.6 L95.6,55.3 C96,54.8 96.3,54.4 96.5,53.9 C101.3,45.8 100.8,35.5 95.2,25.7 C88.3,13.1 71.8,0 46.6,0 L46.6,0 Z" id="Shape"></path>
                    </g>
                    <path d="M54.2,24.2 C74,28.9 84.6,42.1 92.4,52.9 C92.7,52.5 93,52.1 93.2,51.7 C106.7,29 68.7,-14 12.7,12 C38.4,17.9 38.2,43.2 55.9,53.7 C70.3,62.2 84,60.3 90.5,54.9 C84.3,46.6 70,29.8 54.2,24.2 Z" id="Path" fill="#76B82A"></path>
                </g>
            </g>
        </g>
    </g>
</svg>