<svg viewBox="0 0 170 97" xmlns="http://www.w3.org/2000/svg">
	<g transform="translate(-629 -797)" fill="none" fill-rule="evenodd">
		<path fill="#E3E3E3" fill-rule="nonzero"
			  d="M797.6 855.1v-1.3l-.3-.1-.5-2.1.1-.8-.7-.5-1 .4-.6-.3-.2-.8h-1l-1.1-.7.1-.9-1.4-3.1.3-1 .5-.3-.9-.8.3-.9-.2-.6-.8-.2.2.7-.4.2-1.1-.1-1.4-.9v-.4l-1.5.1-.9-.5.4.6-.2.3-.3-.2-.3.6-.9-.8-.1-1.1-1.6-.3-.2-1h-.9l.1.3-.5.3-.5-.6-.4.1-.6-.7.2-.4-.4-.3.1-.5-1.4-.8-.7.5v.5l.1.4.4-.4.5.1v1.2l-.9-.2-.1-.3-.5.5h-.8l-.8 1.1-1.3.2-1-.9v-.6l-1.3-.3-.1-1.1-1-1.9-.9-.8h-.3l-.2.5-.6-.3-.2-.6-1.3-1.3.3-.4 2.6-.5.3-.8 1-.1.1-1.1-1-.8.7-1.7h-.3l-.5-.8-.8-.3v1.1l-1.8 1.3-.6-.5-1.1.4-1.3-.2-.9.2v.5l-.6.1-.4 1.7.4-1.7-.3-.9-.8-.2h-.6v.6l-.4.1-.2-.8.3-.9-.4-.2.3-.6-1.4.4-1.1-.6-1.2-1.2.1-.8-1.5.2-.8-.5-.1-.5-1.4-.1-1.3-.8-.6.4-1.5-1-.8.1-.6 1.3 1.3.7.9 2.9 1.4.5.4 1-.4.8.6 1-.7.6-.6-1.1-.4.8h-1.5l-.4.9h-.5l-.3-.3-.7.7-.2-.1-.7 1.8-1 .4-1 1.5-1.8-.6-1.3-1.2-.3.2.3-.2.1-.4-.7-.7v-1.9l-1.7-1.7-1.3-2.2-.9.1-.4-.4-.5-.8-.1-1.2-1.4-.1-.6.6-.4-1-.4-.1.1-.4-.3-.3-.7.1-.4-.8.4-.8.5.4-.2-.7.8-.3.1-.5h.9l.4-1 .8.4.4-.2 1-1.1-.3-.5.6-.2-.2-.8 1-.4-.6-1.1-1.9-2.2-1.5.1-.2-.3-1-.2-.4 1.5-.8.3-.4-.7-1.7-.7-.9.9-.2 1.1-.4-.1-.5.6-.9-.6.9-.6-.5-.6-.3-1.6-.8-.3-1.8.9-.6-.2-.2-1.3-1-1.8-.9.5-1.8.2-.6-.7-1.9-.9h-1.1l-.7-.1-2.4-1.1-1 1.3-.6-.1-.1-2.3-.3-.6-1.1-.4-.8-1.1-.3-1.7.6-.8-.4-.3v-.7l-.9-.3.1-.5-1.3.7-.5-.2v-1.3l-.7.3v.8l-.9.1v-.9l-1.1-.5-.1.4-.4.1-.5-.5-.9.5-.4.8.5.5.4-.3.4.7-.2 1.1-.6.7.4.7-.3.5.2 1-1 .2-1.5-.6-.1.4-.6-.5-.5.4-.5-.2-.8 2-.8.1-.6-.3-.6.2-.3-.7-.5.1-1.7-.8.4-1.5.4-.3v-1.1l-1.7.7-.4-.2.8-2.4-.9-1.1-.7.2-.1-.5-.8-.2v-1l-.2.9-.9-.5-.9.7-.8-.3-.6-.7-.7.2-.5-.6-1 .6.3.5-.1.5-.5.2v.8l.6.4 1-.3.1.5-.7.3.4.2-.2.2 2.2.8-.3 1.4-.9-.1v.4l-1.1.3-1-.4-.8.3-.2 1-3.4 1.4-.3.5-1.2.3-1-.6-.8.5-.5.7-.9-.1-.3.9.3 1h-.9l-.2.6-1.9-.3-.9.4-.4-.3-.5.6-1-.5-1.6.8-1.1-.2-.8.4.4 1.1-.7.9.3.6-.7.3-.8 1.1-1.2-.5-.7-1.2-.4-.1.1.9-1.3.7v1.1l-.8.2-.3-.7h-.8l-1.3 3.5-1.4-.1-.2-.5-1.1.7-1.4-.4-.3 2.4-1 1.2-.9.2.1.3.6.5-.6-.5-1.4-1-1.8-1.1-.2 1.1-.4-.7-1.5.7-.7 1.3-.8-.7-4 .7-.6 1.1v.8l-.5-.2-.7.5-.2.7-.8.1v1.1l-.7.3-.5.9.2.8h-.7l.1.9-.3.4.4.6-.4.4.3.4-1.1-.2-.4-.8.5-.9-1.4-1 .2-.5.5.3-.3-.7-1.4-.1v-1.3l-.4-.7-2 .2.6.5-.2.3.5.9-1 .5-.2.5.9.6.6-.1.2 1 .4-.1.2.5h.4l-.2.2.6 1-.5 1 .1 1.3.8.6.4-.1.7.8-.3.7 1.4.2.2.8.3-.3.7.9h.8l.1.4.7.1v.7l.7-.4.7.5.3.4-.7 1.1 1.8.8.2.7 1.1.4.6-.7.6-.2.9 1-.9-1-.6.2-.6.7-1.1-.4-1 1.8h-.4l.1.8h-.6l-.3 1 .2.9-1.7 1v.7l.9 1.5 1.2.7h.8l.2 2.6.8-.1.7 3.2.8.4.4-.2.2.3-.3 1.8.6.9v.7l1.3.4 1.2 1.1.6 1.9h1.6l.9.6.2-.8 2 .6.9 1.1.5.1.2 1.5h.5l.1.5.6.2.1.7.7.4-.1.5 1.5 1.2.2 1.3 1.4.9 1.3-.2 2.6 2.5.3 2.5 2.3 1.7h.3v-1h1l-.3-.6.2-1.3.7-1.2-.7 1.2-.2 1.3.3.6.8-.1.7 1.3.5-.4-.2.3 1.2 2.3h1.1l.6-.3.6 1.9.7.2.6 1.2-.1.9 1.6.3 2 2 1.2.2.8 1.2.6.1-.2.8h-.7l-.3.5.4.5.5-.1-.2.6.7.2v.5l.7-.2v.3l.5.1.4-.3 1.5.1 1.2.6.8-.1 1.3.6.2.5.6-.9.8.1-.1-.8 1.1.2.6-1.4-.3-.6.7-.2.8 1.1 1.1.1.4.4 1.2-.9.3.8.6-.1.4 1.1.9-.1.5-.7-.2-1.8.4-1.4 2-1.8v-1.7h1.8l.2.4 1.7.4.5-.4.1-.4-.7-.7.5-1.6h.3l-.3-1.2.3-.1.2-1.1-.4-2.4.5-.9v-.9h1.6l.2.6 2.2.3-.2.4.5.8-.2.7h.7l.9-.7.9.3.4-1.6.5.6 1.7-.1 1.5 1.1.7.3.3-.3.8.6.4.9.6.2.3-.6.4-.1h.1l-.5.1-.3.6 1 .4h.9l1.9 1.6.4-.2 1.1.3.6-.8 1.5-.2.4.4-.3.3.6.3.2-.3.3.7.3-.3.2.4-.3-.2v.4l.6-.2.4.7.2-.3.4.2-.2.7 1.1 1 2.7 1.2 4.3.2 1.4.3.2-.5.5.7.5-.1 1.4-1.4.3-1.2.5-.3 1.3.3.5-.6 1.3 1.2 1.8.1.4 2 1.1-.4.5.2.3.6 1.1.4.8-.4.8.2.3-.5.6.3.6 2.8-.2.7.6.3.8-1.2-.1-.8 1-1-.3-.6 1.1-2 1.1-.7.6-1.7 1.1-.6 1-1.1 2 .6.7.7.4-.1 1.1 1.1h.8l1.4-1.2 1.6 1.2.7-.1 1.1-.3.2-.5 1.2-.6-1.1-2.2-1.6-.4.3-1-1-.2-.3-.6-.4.5-.4-.3-.8.5-1-1.2-.4.3-.6-.1.2-1.1-.6-.4-1.5.1-.2-.8-.4.1v-.2l-.8.2.3-1.2-.4-1.1-1.8.7-.8-.1.1-1-.1 1 .8.1 1.8-.7.4 1.1-.3 1.2.8-.2v.2l.4-.1.2.8 1.5-.1.6.4-.2 1 .6.2.4-.3 1 1.2.8-.5.4.2.4-.4.3.6 1 .2-.3 1 1.6.4 1.1 2.2 1.4-.2 2-2.4 2.5-.2.7-3.1.5-.4 2.3-.1 1.1-.5.7-.9.5-1.3-.2-1.5.7-1.1-.2-1 .6-1.1-.2-1.1 1-.9v-.6l2-.4 2.5-1.1.9-1 .2-1.2-.1-.5.8.1.9-.6.4-1 1.4-1.2-.3-1 .8-.6.7-.1.2.5.4.1 1.5-.5 1.9.7.7-.7 1.4-.5.4-1.1z"/>
		<circle cx="44.9" cy="44.3" r="44" opacity=".37" transform="translate(672 805)" fill="#76B72E"/>
		<circle cx="23.9" cy="23.3" r="23" transform="translate(683 817)" fill="#76B72E"/>
		<path d="M.9.3h1024v2680H.9z" fill-rule="nonzero"/>
		<circle stroke="#000" stroke-width="3" cx="706.9" cy="840.3" r="37.5"/>
	</g>
</svg>
