<svg viewBox="0 0 136 76" xmlns="http://www.w3.org/2000/svg">
    <g fill-rule="nonzero" fill="none">
        <path
            d="M135 51.9c-.4-2.7-1.7-5.3-3.5-7.4-1.8-1.9-3.9-2.6-5.8-4.1-.9-.7-.6-.2-.8-.7 0 0 .2-2.5.2-3.1-.1-1.1-.3-2.2-.5-3.3-.7-3.4-2-6.8-4.1-9.6-3.7-4.9-9.2-7.2-15.1-7.7.2-4.1 1.2-10-3.8-10.5-4.4-.4-9 0-13.4 0H16.3c-2.4 0-7.3-.9-8.7 1.8-.7 1.3-.4 3.1-.4 4.4v47.8c0 1.6-.3 3.6.2 5.1 1 3.3 4.6 2.6 7.3 2.6h11.1c.5 4.8 4.6 8.7 9.5 8.8 5.1.1 9.1-3.9 9.7-8.8h49.8c.5 4.8 4.6 8.7 9.4 8.8 5.1.1 9.1-3.8 9.7-8.8h20.4c.6 0 .9-.6.9-1.1 0-4.5.6-9.5-.2-14.2z"
            fill="#DFAA58"/>
        <g fill="#1E1E1C">
            <path
                d="M110.5 62.7c-.3-5.4-4.5-9.9-10.1-9.9-5.4.1-9.8 4.5-9.9 9.9 0 5.4 4.4 9.9 9.8 10 5.6.1 9.8-4.4 10.1-9.8.1-1.3-1.9-1.6-2-.3-.2 4.1-2.9 7.6-7.1 8.1-4.7.5-8.8-3.2-8.8-7.9-.1-10.4 15.3-10.2 15.9.1.2 1.3 2.2 1.1 2.1-.2zm-71.1 0c-.3-5.4-4.5-9.9-10.1-9.8-5.4.1-9.8 4.6-9.8 9.9 0 5.4 4.4 9.9 9.8 10 5.6.1 9.8-4.4 10.1-9.8.1-1.3-1.9-1.6-2-.3-.6 10.2-15.8 10.6-15.9.2 0-10.4 15.3-10.1 15.9.1.1 1.2 2.1.9 2-.3z"/>
            <path
                d="M20.4 61.8h-8.7c-2.1 0-8.1 1.1-9.3-1.4-.5-1 0-3.3 0-4.3V22.6c0-5.4-1-11.9 0-17.3.6-3.5 3.2-2.6 6.2-2.6h85.6c1 0 2.7-.3 3.6 0 2.9 1 1.7 7.1 1.7 9.5 0 1.3 2 1.5 2 .2 0-4.1 1.7-11.2-3.9-11.8-4.5-.4-9.3 0-13.8 0h-74C7.3.6 2.3-.3.8 2.4.1 3.7.4 5.6.4 6.9v48.8c0 1.6-.3 3.6.2 5.2 1.1 3.4 4.7 2.7 7.6 2.7h12c1.2.2 1.5-1.8.2-1.8zm89.2 2h17.8c1.3 0 1-2-.2-2h-17.8c-1.3 0-1 2 .2 2zm-71.3 0h53.1c1.3 0 1.5-2 .2-2H38.5c-1.2 0-1.4 2-.2 2z"/>
            <path
                d="M109.6 63.8h21.9c.6 0 .9-.6.9-1.1 0-4.8.6-10-.2-14.8-.5-2.8-1.7-5.4-3.6-7.5-1.8-2-4-2.6-6-4.2-.9-.7-.6-.2-.9-.7 0 0 .2-2.5.2-3.2-.1-1.1-.3-2.2-.5-3.3-.7-3.5-2-6.9-4.2-9.8-4-5.3-10.1-7.6-16.6-7.9-.6 0-.9.6-.9 1.1v41.5c0 1.3 2 1.1 2-.2V12.2c-.3.4-.6.7-.9 1.1 13.4.6 19.2 11.2 19.4 23.5 0 .5.4.8.8.9 11.3 3.3 9.5 15.9 9.5 25.1.3-.4.6-.7.9-1.1h-21.9c-1.4.1-1.2 2.1.1 2.1z"/>
            <path
                d="M121.1 35.8h-20.5c-1.3 0-1.4 2-.1 2H121c1.3 0 1.4-2 .1-2zm-14 9h7.3c1.3 0 1.5-2 .2-2h-7.3c-1.3 0-1.5 2-.2 2z"/>
        </g>
    </g>
</svg>
