<?xml version="1.0" encoding="utf-8"?>
<!-- Generator: Adobe Illustrator 22.1.0, SVG Export Plug-In . SVG Version: 6.00 Build 0)  -->
<svg version="1.1" id="Vrstva_1" xmlns="http://www.w3.org/2000/svg" xmlns:xlink="http://www.w3.org/1999/xlink" x="0px" y="0px"
	 viewBox="0 0 1024 350" style="enable-background:new 0 0 1024 350;" xml:space="preserve">
<style type="text/css">
	.st0{clip-path:url(#SVGID_2_);}
	.st1{clip-path:url(#SVGID_4_);fill:#76B72A;}
	.st2{clip-path:url(#SVGID_6_);}
	.st3{clip-path:url(#SVGID_8_);enable-background:new    ;}
	.st4{clip-path:url(#SVGID_10_);}
	.st5{clip-path:url(#SVGID_12_);}
	.st6{clip-path:url(#SVGID_14_);fill:#76B72A;}
	.st7{clip-path:url(#SVGID_16_);}
	.st8{clip-path:url(#SVGID_18_);fill:#76B72A;}
	.st9{clip-path:url(#SVGID_20_);}
	.st10{clip-path:url(#SVGID_22_);fill:#CE91B4;}
	.st11{clip-path:url(#SVGID_24_);}
	.st12{clip-path:url(#SVGID_26_);enable-background:new    ;}
	.st13{clip-path:url(#SVGID_28_);}
	.st14{clip-path:url(#SVGID_30_);}
	.st15{clip-path:url(#SVGID_32_);fill:#1D1D1B;}
	.st16{clip-path:url(#SVGID_34_);}
	.st17{clip-path:url(#SVGID_36_);fill:#1D1D1B;}
	.st18{clip-path:url(#SVGID_38_);}
	.st19{clip-path:url(#SVGID_40_);fill:#1D1D1B;}
	.st20{clip-path:url(#SVGID_42_);}
	.st21{clip-path:url(#SVGID_44_);fill:#1D1D1B;}
	.st22{clip-path:url(#SVGID_46_);}
	.st23{clip-path:url(#SVGID_48_);enable-background:new    ;}
	.st24{clip-path:url(#SVGID_50_);}
	.st25{clip-path:url(#SVGID_52_);}
	.st26{clip-path:url(#SVGID_54_);fill:#1D1D1B;}
	.st27{clip-path:url(#SVGID_56_);}
	.st28{clip-path:url(#SVGID_58_);fill:#1D1D1B;}
	.st29{clip-path:url(#SVGID_60_);}
	.st30{clip-path:url(#SVGID_62_);fill:#1D1D1B;}
	.st31{clip-path:url(#SVGID_64_);}
	.st32{clip-path:url(#SVGID_66_);fill:#1D1D1B;}
	.st33{clip-path:url(#SVGID_68_);}
	.st34{clip-path:url(#SVGID_70_);fill:#ACDEF9;}
	.st35{clip-path:url(#SVGID_72_);}
	.st36{clip-path:url(#SVGID_74_);fill:#1D1D1B;}
	.st37{clip-path:url(#SVGID_76_);}
	.st38{clip-path:url(#SVGID_78_);fill:#1D1D1B;}
	.st39{clip-path:url(#SVGID_80_);}
	.st40{clip-path:url(#SVGID_82_);fill:#1D1D1B;}
	.st41{clip-path:url(#SVGID_84_);}
	.st42{clip-path:url(#SVGID_86_);enable-background:new    ;}
	.st43{clip-path:url(#SVGID_88_);}
	.st44{clip-path:url(#SVGID_90_);}
	.st45{clip-path:url(#SVGID_92_);fill:#1D1D1B;}
	.st46{clip-path:url(#SVGID_94_);}
	.st47{clip-path:url(#SVGID_96_);fill:#1D1D1B;}
	.st48{clip-path:url(#SVGID_98_);}
	.st49{clip-path:url(#SVGID_100_);enable-background:new    ;}
	.st50{clip-path:url(#SVGID_102_);}
	.st51{clip-path:url(#SVGID_104_);}
	.st52{clip-path:url(#SVGID_106_);fill:#1D1D1B;}
	.st53{clip-path:url(#SVGID_108_);}
	.st54{clip-path:url(#SVGID_110_);enable-background:new    ;}
	.st55{clip-path:url(#SVGID_112_);}
	.st56{clip-path:url(#SVGID_114_);}
	.st57{clip-path:url(#SVGID_116_);fill:#EF8272;}
	.st58{clip-path:url(#SVGID_118_);}
	.st59{clip-path:url(#SVGID_120_);fill:#1D1D1B;}
	.st60{clip-path:url(#SVGID_122_);}
	.st61{clip-path:url(#SVGID_124_);fill:#1D1D1B;}
	.st62{clip-path:url(#SVGID_126_);}
	.st63{clip-path:url(#SVGID_128_);fill:#1D1D1B;}
	.st64{clip-path:url(#SVGID_130_);}
	.st65{clip-path:url(#SVGID_132_);fill:#1D1D1B;}
	.st66{clip-path:url(#SVGID_134_);}
	.st67{clip-path:url(#SVGID_136_);fill:#1D1D1B;}
	.st68{clip-path:url(#SVGID_138_);}
	.st69{clip-path:url(#SVGID_140_);fill:#1D1D1B;}
	.st70{clip-path:url(#SVGID_142_);}
	.st71{clip-path:url(#SVGID_144_);fill:#1D1D1B;}
	.st72{clip-path:url(#SVGID_146_);}
	.st73{clip-path:url(#SVGID_148_);fill:#1D1D1B;}
	.st74{clip-path:url(#SVGID_150_);}
	.st75{clip-path:url(#SVGID_152_);fill:#1D1D1B;}
	.st76{clip-path:url(#SVGID_154_);}
	.st77{clip-path:url(#SVGID_156_);fill:#1D1D1B;}
	.st78{clip-path:url(#SVGID_158_);}
	.st79{clip-path:url(#SVGID_160_);fill:#1D1D1B;}
	.st80{clip-path:url(#SVGID_162_);}
	.st81{clip-path:url(#SVGID_164_);fill:#1D1D1B;}
	.st82{clip-path:url(#SVGID_166_);}
	.st83{clip-path:url(#SVGID_168_);fill:#1D1D1B;}
	.st84{clip-path:url(#SVGID_170_);}
	.st85{clip-path:url(#SVGID_172_);fill:#1D1D1B;}
	.st86{clip-path:url(#SVGID_174_);}
	.st87{clip-path:url(#SVGID_176_);fill:#1D1D1B;}
	.st88{clip-path:url(#SVGID_178_);}
	.st89{clip-path:url(#SVGID_180_);fill:#1D1D1B;}
	.st90{clip-path:url(#SVGID_182_);}
	.st91{clip-path:url(#SVGID_184_);fill:#1D1D1B;}
	.st92{clip-path:url(#SVGID_186_);}
	.st93{clip-path:url(#SVGID_188_);enable-background:new    ;}
	.st94{clip-path:url(#SVGID_190_);}
	.st95{clip-path:url(#SVGID_192_);}
	.st96{clip-path:url(#SVGID_194_);fill:#F8DEAB;}
	.st97{clip-path:url(#SVGID_196_);}
	.st98{clip-path:url(#SVGID_198_);fill:#1D1D1B;}
	.st99{clip-path:url(#SVGID_200_);}
	.st100{clip-path:url(#SVGID_202_);fill:#1D1D1B;}
	.st101{clip-path:url(#SVGID_204_);}
	.st102{clip-path:url(#SVGID_206_);fill:#1D1D1B;}
	.st103{clip-path:url(#SVGID_208_);}
	.st104{clip-path:url(#SVGID_210_);enable-background:new    ;}
	.st105{clip-path:url(#SVGID_212_);}
	.st106{clip-path:url(#SVGID_214_);}
	.st107{clip-path:url(#SVGID_216_);fill:#CE91B4;}
	.st108{clip-path:url(#SVGID_218_);}
	.st109{clip-path:url(#SVGID_220_);enable-background:new    ;}
	.st110{clip-path:url(#SVGID_222_);}
	.st111{clip-path:url(#SVGID_224_);}
	.st112{clip-path:url(#SVGID_226_);fill:#1D1D1B;}
	.st113{clip-path:url(#SVGID_228_);}
	.st114{clip-path:url(#SVGID_230_);fill:#1D1D1B;}
	.st115{clip-path:url(#SVGID_232_);}
	.st116{clip-path:url(#SVGID_234_);fill:#1D1D1B;}
	.st117{clip-path:url(#SVGID_236_);}
	.st118{clip-path:url(#SVGID_238_);fill:#1D1D1B;}
	.st119{clip-path:url(#SVGID_240_);}
	.st120{clip-path:url(#SVGID_242_);fill:#1D1D1B;}
	.st121{clip-path:url(#SVGID_244_);}
	.st122{clip-path:url(#SVGID_246_);fill:#1D1D1B;}
	.st123{clip-path:url(#SVGID_248_);}
	.st124{clip-path:url(#SVGID_250_);fill:#1D1D1B;}
	.st125{fill:none;stroke:#1D1D1B;stroke-linecap:round;stroke-linejoin:round;stroke-miterlimit:10;}
	.st126{clip-path:url(#SVGID_252_);}
	.st127{clip-path:url(#SVGID_254_);enable-background:new    ;}
	.st128{clip-path:url(#SVGID_256_);}
	.st129{clip-path:url(#SVGID_258_);}
	.st130{clip-path:url(#SVGID_260_);fill:#76B72A;}
	.st131{clip-path:url(#SVGID_262_);}
	.st132{clip-path:url(#SVGID_264_);fill:#1D1D1B;}
	.st133{clip-path:url(#SVGID_266_);}
	.st134{clip-path:url(#SVGID_268_);enable-background:new    ;}
	.st135{clip-path:url(#SVGID_270_);}
	.st136{clip-path:url(#SVGID_272_);}
	.st137{clip-path:url(#SVGID_274_);fill:#1D1D1B;}
	.st138{clip-path:url(#SVGID_276_);}
	.st139{clip-path:url(#SVGID_278_);fill:#1D1D1B;}
	.st140{clip-path:url(#SVGID_280_);}
	.st141{clip-path:url(#SVGID_282_);enable-background:new    ;}
	.st142{clip-path:url(#SVGID_284_);}
	.st143{clip-path:url(#SVGID_286_);}
	.st144{clip-path:url(#SVGID_288_);fill:#1D1D1B;}
	.st145{clip-path:url(#SVGID_290_);}
	.st146{clip-path:url(#SVGID_292_);fill:#1D1D1B;}
	.st147{clip-path:url(#SVGID_294_);}
	.st148{clip-path:url(#SVGID_296_);fill:#1D1D1B;}
	.st149{clip-path:url(#SVGID_298_);}
	.st150{clip-path:url(#SVGID_300_);fill:#1D1D1B;}
	.st151{clip-path:url(#SVGID_302_);}
	.st152{clip-path:url(#SVGID_304_);fill:#914D15;}
	.st153{clip-path:url(#SVGID_306_);}
	.st154{clip-path:url(#SVGID_308_);fill:#1D1D1B;}
	.st155{clip-path:url(#SVGID_310_);}
	.st156{clip-path:url(#SVGID_312_);fill:#1D1D1B;}
	.st157{clip-path:url(#SVGID_314_);}
	.st158{clip-path:url(#SVGID_316_);fill:#1D1D1B;}
	.st159{clip-path:url(#SVGID_318_);}
	.st160{clip-path:url(#SVGID_320_);fill:#1D1D1B;}
	.st161{clip-path:url(#SVGID_322_);}
	.st162{clip-path:url(#SVGID_324_);fill:#1D1D1B;}
	.st163{clip-path:url(#SVGID_326_);}
	.st164{clip-path:url(#SVGID_328_);fill:#1D1D1B;}
	.st165{clip-path:url(#SVGID_330_);}
	.st166{clip-path:url(#SVGID_332_);enable-background:new    ;}
	.st167{clip-path:url(#SVGID_334_);}
	.st168{clip-path:url(#SVGID_336_);}
	.st169{clip-path:url(#SVGID_338_);fill:#1D1D1B;}
	.st170{clip-path:url(#SVGID_340_);}
	.st171{clip-path:url(#SVGID_342_);fill:#1D1D1B;}
	.st172{clip-path:url(#SVGID_344_);}
	.st173{clip-path:url(#SVGID_346_);fill:#1D1D1B;}
	.st174{clip-path:url(#SVGID_348_);}
	.st175{clip-path:url(#SVGID_350_);enable-background:new    ;}
	.st176{clip-path:url(#SVGID_352_);}
	.st177{clip-path:url(#SVGID_354_);}
	.st178{clip-path:url(#SVGID_356_);fill:#1D1D1B;}
	.st179{clip-path:url(#SVGID_358_);}
	.st180{clip-path:url(#SVGID_360_);fill:#EF8272;}
	.st181{clip-path:url(#SVGID_362_);}
	.st182{clip-path:url(#SVGID_364_);fill:#1D1D1B;}
	.st183{clip-path:url(#SVGID_366_);}
	.st184{clip-path:url(#SVGID_368_);fill:#1D1D1B;}
	.st185{clip-path:url(#SVGID_370_);}
	.st186{clip-path:url(#SVGID_372_);fill:#1D1D1B;}
	.st187{clip-path:url(#SVGID_374_);}
	.st188{clip-path:url(#SVGID_376_);fill:#1D1D1B;}
	.st189{clip-path:url(#SVGID_378_);}
	.st190{clip-path:url(#SVGID_380_);fill:#1D1D1B;}
	.st191{clip-path:url(#SVGID_382_);}
	.st192{clip-path:url(#SVGID_384_);enable-background:new    ;}
	.st193{clip-path:url(#SVGID_386_);}
	.st194{clip-path:url(#SVGID_388_);}
	.st195{clip-path:url(#SVGID_390_);fill:#1D1D1B;}
	.st196{clip-path:url(#SVGID_392_);}
	.st197{clip-path:url(#SVGID_394_);fill:#1D1D1B;}
	.st198{clip-path:url(#SVGID_396_);}
	.st199{clip-path:url(#SVGID_398_);fill:#1D1D1B;}
	.st200{clip-path:url(#SVGID_400_);}
	.st201{clip-path:url(#SVGID_402_);enable-background:new    ;}
	.st202{clip-path:url(#SVGID_404_);}
	.st203{clip-path:url(#SVGID_406_);}
	.st204{clip-path:url(#SVGID_408_);fill:#1D1D1B;}
</style>
<g>
	<defs>
		<path id="SVGID_1_" d="M518.5,56.6c0,0,6.7-2.1,9.9-5.9c1.8-2.2-0.2-5.4-3-4.8l-2.8,0.5c-0.5,0.1-0.8-0.6-0.4-0.9
			c2-1.5,5-4,6.7-7.2c1.3-2.4-1.2-5.1-3.8-4.2l-4.5,2.6c-0.4,0.2-0.9-0.3-0.6-0.7c2.4-3.1,6.2-12.2-0.2-13.3
			c-6.4-1.1-6,8.7-4.8,12.4c0.1,0.4-0.5,0.7-0.8,0.4l-3.4-3.9c-2.1-1.8-5.3-0.1-5,2.6c0.5,3.5,2.4,6.9,3.8,9c0.3,0.4-0.2,1-0.7,0.7
			l-2.4-1.5c-2.4-1.5-5.4,0.9-4.4,3.5c1.7,4.7,7.3,8.9,7.3,8.9l5.5,3.9L518.5,56.6z"/>
	</defs>
	<clipPath id="SVGID_2_">
		<use xlink:href="#SVGID_1_"  style="overflow:visible;"/>
	</clipPath>
	<g class="st0">
		<defs>
			<rect id="SVGID_3_" x="1" y="-521" width="1024" height="2615"/>
		</defs>
		<clipPath id="SVGID_4_">
			<use xlink:href="#SVGID_3_"  style="overflow:visible;"/>
		</clipPath>
		
			<rect x="493.4" y="22" transform="matrix(0.1736 -0.9848 0.9848 0.1736 386.7367 542.3974)" class="st1" width="46.4" height="37.5"/>
	</g>
</g>
<g>
	<defs>
		
			<rect id="SVGID_5_" x="477.8" y="25.5" transform="matrix(0.1736 -0.9848 0.9848 0.1736 366.2416 518.5132)" width="28.5" height="30.9"/>
	</defs>
	<clipPath id="SVGID_6_">
		<use xlink:href="#SVGID_5_"  style="overflow:visible;"/>
	</clipPath>
	<g class="st2">
		<defs>
			<rect id="SVGID_7_" x="1" y="-521" width="1024" height="2615"/>
		</defs>
		<clipPath id="SVGID_8_">
			<use xlink:href="#SVGID_7_"  style="overflow:visible;"/>
		</clipPath>
		<g class="st3">
			<g>
				<defs>
					<rect id="SVGID_9_" x="475" y="22" width="34" height="35"/>
				</defs>
				<clipPath id="SVGID_10_">
					<use xlink:href="#SVGID_9_"  style="overflow:visible;"/>
				</clipPath>
				<g class="st4">
					<defs>
						<path id="SVGID_11_" d="M506.1,48.2c0,0,2.4-6.6,1.3-11.4c-0.6-2.7-4.4-3.1-5.6-0.6l-1.3,2.5c-0.2,0.5-1,0.3-1-0.2
							c0-2.5-0.2-6.4-1.7-9.6c-1.2-2.5-4.8-2.2-5.6,0.4l-0.7,5.1c-0.1,0.4-0.8,0.5-0.9,0.1c-1-3.8-6-12.3-10.8-8
							c-4.8,4.4,3.3,10,7,11.4c0.4,0.1,0.2,0.8-0.2,0.9l-5.2,0.2c-2.7,0.5-3.3,4.1-0.9,5.5c3.1,1.8,7,2.3,9.5,2.5
							c0.5,0,0.7,0.8,0.1,1l-2.6,1c-2.6,1-2.6,4.8,0.1,5.6c4.8,1.5,11.6-0.3,11.6-0.3l6.4-1.9L506.1,48.2z"/>
					</defs>
					<clipPath id="SVGID_12_">
						<use xlink:href="#SVGID_11_"  style="overflow:visible;"/>
					</clipPath>
					<g class="st5">
						<defs>
							<rect id="SVGID_13_" x="474" y="24" width="36" height="34"/>
						</defs>
						<clipPath id="SVGID_14_">
							<use xlink:href="#SVGID_13_"  style="overflow:visible;"/>
						</clipPath>
						
							<rect x="472.8" y="20.5" transform="matrix(0.1736 -0.9848 0.9848 0.1736 366.2409 518.5129)" class="st6" width="38.5" height="40.9"/>
					</g>
				</g>
			</g>
		</g>
	</g>
</g>
<g>
	<defs>
		<path id="SVGID_15_" d="M523,62.8c0,0,6.2,3.2,11.2,2.8c2.8-0.3,3.7-3.9,1.3-5.5l-2.4-1.6c-0.5-0.3-0.2-1,0.4-0.9
			c2.5,0.4,6.5,0.7,9.8-0.4c2.6-0.8,2.8-4.5,0.3-5.6l-5-1.4c-0.4-0.2-0.4-0.9,0-0.9c3.9-0.5,13.1-4.3,9.3-9.6
			c-3.7-5.3-10.4,1.9-12.2,5.4c-0.2,0.4-0.8,0.1-0.9-0.3l0.4-5.1c-0.2-2.7-3.7-3.8-5.4-1.6c-2.1,2.8-3.2,6.6-3.7,9
			c-0.1,0.5-0.9,0.5-1,0l-0.7-2.7c-0.7-2.7-4.4-3.2-5.6-0.6c-2.1,4.5-1.2,11.4-1.2,11.4l-2.3,6L523,62.8z"/>
	</defs>
	<clipPath id="SVGID_16_">
		<use xlink:href="#SVGID_15_"  style="overflow:visible;"/>
	</clipPath>
	<g class="st7">
		<defs>
			<rect id="SVGID_17_" x="1" y="-521" width="1024" height="2615"/>
		</defs>
		<clipPath id="SVGID_18_">
			<use xlink:href="#SVGID_17_"  style="overflow:visible;"/>
		</clipPath>
		
			<rect x="512.5" y="30.8" transform="matrix(0.1736 -0.9848 0.9848 0.1736 389.9534 566.071)" class="st8" width="39.5" height="39.7"/>
	</g>
</g>
<g>
	<defs>
		<path id="SVGID_19_" d="M502.6,107.3c0.5,1,0.9,2,1.4,3.1c0.4-0.2,0.9-0.3,1-0.6c0.8-1.2,1.9-1.9,3.1-2.5c2.8-1.5,5.5-3,8.3-4.5
			c1.2-0.6,2.4-1.3,3.5-2c2.7-1.6,5.3-3.2,7-6.1c0.2-0.3,0.6-0.5,0.7-0.6c0.4-2.4,0.6-4.7,0.5-6.9c-0.1-2.2-0.6-4.3-1.8-6.1
			c-1-1.5-2.1-2.9-3.2-4.2c-0.8-0.9-1.8-1.7-2.7-2.5c-1.9-1.7-3.2-3.8-4.6-6c-1.3-2-2.3-3.8-1.4-6.3c0.1-0.4,0-1.3-1-1.2
			c-0.5,0.8-0.8,1.8-1.5,2.5c-2,1.9-4,4-6.5,5.1c-1.6,0.7-2.9,2.3-4.8,2.3c-0.5,0.5-4.8,3.4-5.6,3.8c-4,1.7-6.6,5.6-6.6,10.1
			c0,3.7,0.6,7.2,2.3,10.3c0.9,1.7,1.9,3.6,3.8,4.7c0.9,0.5,1.8,1.4,2.3,2.4c0.6,1.3,2.3,1.1,2.7,2.5c0.1,0.4,1.1,0.2,0.8,1
			C501.3,105.8,502.1,106.3,502.6,107.3"/>
	</defs>
	<clipPath id="SVGID_20_">
		<use xlink:href="#SVGID_19_"  style="overflow:visible;"/>
	</clipPath>
	<g class="st9">
		<defs>
			<rect id="SVGID_21_" x="1" y="-521" width="1024" height="2615"/>
		</defs>
		<clipPath id="SVGID_22_">
			<use xlink:href="#SVGID_21_"  style="overflow:visible;"/>
		</clipPath>
		
			<rect x="478.4" y="60.3" transform="matrix(0.1736 -0.9848 0.9848 0.1736 336.1134 571.6242)" class="st10" width="60.5" height="50.4"/>
	</g>
</g>
<g>
	<defs>
		
			<rect id="SVGID_23_" x="480.3" y="63.2" transform="matrix(0.1736 -0.9848 0.9848 0.1736 335.0145 570.1553)" width="54" height="44.6"/>
	</defs>
	<clipPath id="SVGID_24_">
		<use xlink:href="#SVGID_23_"  style="overflow:visible;"/>
	</clipPath>
	<g class="st11">
		<defs>
			<rect id="SVGID_25_" x="1" y="-521" width="1024" height="2615"/>
		</defs>
		<clipPath id="SVGID_26_">
			<use xlink:href="#SVGID_25_"  style="overflow:visible;"/>
		</clipPath>
		<g class="st12">
			<g>
				<defs>
					<rect id="SVGID_27_" x="483" y="57" width="47" height="56"/>
				</defs>
				<clipPath id="SVGID_28_">
					<use xlink:href="#SVGID_27_"  style="overflow:visible;"/>
				</clipPath>
				<g class="st13">
					<defs>
						<path id="SVGID_29_" d="M514.7,61.2c-1-2.2-3.4-3.1-5.6-1.8c-1.7,1-2.7,3.2-4.1,4.6c-1.8,1.8-3.7,3.3-5.8,4.8
							c-5.6,4-11.9,7.4-14.1,14.3c-1.9,5.8,1.3,10.3,5.2,14.5c2.3,2.5,4.9,4.9,7.3,7.3c1.5,1.5,4.5,4,4.2,6.4c0,0.5,0.7,1,1.1,0.7
							c7.6-5.3,22-7.4,25.1-17.5c1.6-5-0.1-10.3-2.8-14.6c-3.8-6.2-8.4-11.4-10.6-18.4c-0.3-0.9-1.7-0.5-1.4,0.4
							c1.8,5.6,4.9,10.3,8.3,15.1c3.4,4.8,6.9,10.3,5.3,16.5c-1.4,5.4-7.2,8.4-11.8,10.8c-4.2,2.2-8.9,3.8-12.8,6.5
							c0.4,0.2,0.7,0.4,1.1,0.7c0.3-3.3-3.7-6.5-5.7-8.5c-3.8-3.7-8.5-7.5-10.8-12.4c-3.1-6.6,2.7-12.9,7.8-16.6
							c2.4-1.7,4.8-3.2,7.1-5c1.5-1.2,3-2.4,4.3-3.7c0.9-0.9,5.5-7.2,7.3-3.2C513.8,62.8,515.1,62.1,514.7,61.2"/>
					</defs>
					<clipPath id="SVGID_30_">
						<use xlink:href="#SVGID_29_"  style="overflow:visible;"/>
					</clipPath>
					<g class="st14">
						<defs>
							<rect id="SVGID_31_" x="480" y="54" width="54" height="62"/>
						</defs>
						<clipPath id="SVGID_32_">
							<use xlink:href="#SVGID_31_"  style="overflow:visible;"/>
						</clipPath>
						
							<rect x="475.3" y="58.2" transform="matrix(0.1736 -0.9848 0.9848 0.1736 335.0142 570.1554)" class="st15" width="64" height="54.6"/>
					</g>
				</g>
			</g>
		</g>
	</g>
</g>
<g>
	<defs>
		<path id="SVGID_33_" d="M509.5,68.6c1.6,3.9,3.7,7.4,6,11c2.3,3.6,5.6,8.1,4,12.7c-1.8,5.2-9.6,6.9-14.1,8.8
			c-0.3,0.1-1,0.4-1.4,0.4c1.2,0,0.3,0-0.3-0.6c-1.6-1.6-3.6-3-5.2-4.6c-2.1-2.1-5-5-5.2-8.1c-0.4-4.9,4.7-8.4,8.1-11
			c0.8-0.6-0.1-1.8-0.8-1.2c-6.1,4.6-11.7,10.3-6.3,17.7c2.1,2.9,4.8,5.4,7.6,7.6c1.1,0.9,1.7,1.6,3,1.6c2.5-0.1,6-2.1,8.1-3.2
			c2.7-1.3,5.9-3,7.4-5.6c1.7-3,1-6.8-0.4-9.8c-2.6-5.6-6.6-10.3-9-16.1C510.6,67.2,509.1,67.7,509.5,68.6"/>
	</defs>
	<clipPath id="SVGID_34_">
		<use xlink:href="#SVGID_33_"  style="overflow:visible;"/>
	</clipPath>
	<g class="st16">
		<defs>
			<rect id="SVGID_35_" x="1" y="-521" width="1024" height="2615"/>
		</defs>
		<clipPath id="SVGID_36_">
			<use xlink:href="#SVGID_35_"  style="overflow:visible;"/>
		</clipPath>
		
			<rect x="484.6" y="65.5" transform="matrix(0.1736 -0.9848 0.9848 0.1736 335.3599 570.0804)" class="st17" width="45.6" height="39.5"/>
	</g>
</g>
<g>
	<defs>
		<path id="SVGID_37_" d="M505.7,96.2c-1.9-1.9-5.9-5.2-6-7.9c-0.1-1.7,1.5-3,2.6-4.1c2.2-2.1,4.6-3.9,6.8-6
			c-0.4-0.1-0.8-0.1-1.2-0.1c1.4,2.7,3,5.2,4.3,7.9c0.8,1.5,1.7,3.3,0.9,5c-1.3,2.4-5.9,4-8.3,5.1c-0.9,0.4-0.1,1.7,0.8,1.3
			c2.8-1.3,7.9-3.1,9.1-6.2c0.5-1.4,0.1-3-0.4-4.3c-1.3-3.3-3.5-6.4-5.1-9.6c-0.2-0.4-0.8-0.5-1.2-0.1c-2.7,2.5-6,4.7-8.3,7.6
			c-0.8,1-1.6,2.2-1.5,3.6c0.1,3.3,4.4,6.8,6.5,9C505.4,98,506.4,96.9,505.7,96.2"/>
	</defs>
	<clipPath id="SVGID_38_">
		<use xlink:href="#SVGID_37_"  style="overflow:visible;"/>
	</clipPath>
	<g class="st18">
		<defs>
			<rect id="SVGID_39_" x="1" y="-521" width="1024" height="2615"/>
		</defs>
		<clipPath id="SVGID_40_">
			<use xlink:href="#SVGID_39_"  style="overflow:visible;"/>
		</clipPath>
		
			<rect x="491.5" y="73.8" transform="matrix(0.1736 -0.9848 0.9848 0.1736 332.9623 571.2752)" class="st19" width="30.8" height="27"/>
	</g>
</g>
<g>
	<defs>
		<path id="SVGID_41_" d="M517.7,54.6c3.5-1.1,10.7-3.8,11.1-8.2c0.1-1.6-0.8-3.2-2.3-3.8c-0.9-0.4-1.6-0.3-2.5-0.2
			c-0.6,0.1-1.2,0.4-1.9,0.4c-1.2,0,0,0.3,0.3,0c2-2,11.2-10.1,3.7-12.1c-1.7-0.5-3,0.5-4.4,1.3c-0.2,0.1-2.4,1.4-2.5,1.4
			c0.5,0.7,2-2.5,2.2-2.8c1.5-3.2,2.9-8.6-1-10.7c-3.8-2-7,0.8-7.7,4.4c-0.4,2-0.6,4.8,0.1,6.8c0.3,0.9,1.1,1.7,0.2,0.6
			c-0.8-1-1.6-2-2.4-2.9c-3.5-3.3-7.1,0.2-6.3,4.1c0.4,1.9,1.2,3.8,2.2,5.5c0.1,0.2,1.1,2.4,1.7,2.1c-0.2,0.1-1.3-0.8-1.6-1
			c-1.9-1-4.1-1.4-5.6,0.6c-3.1,4.1,4,10.4,7,12.6c0.8,0.6,1.8-0.5,1.1-1.1c-2.4-1.8-6.8-5.5-7.1-8.6c1.2-2.6,2.6-3.3,4-2.3l0.6,0.4
			c0.4,0.2,0.9,0.7,1.4,0.8c0.7,0.1,1.1,0.1,1.5-0.5c0.5-0.7-0.2-1.4-0.5-2c-0.8-1.6-1.7-3-2.4-4.7c-0.1-0.4-0.3-0.7-0.4-1.1
			c-0.9-2,0.2-3.4,3.3-4.1c1.9,0.8,2.1,3.9,4.4,4.1c0.2,0,0.5-0.2,0.6-0.4c0.8-1.5-0.3-3.6-0.4-5.2c-0.1-2.8,0.3-7.4,4-7.4
			c4.3,0,3.8,4.8,2.8,7.5c-0.5,1.6-2.7,4-2.5,5.6c0,0.3,0.2,0.6,0.6,0.7c1,0.2,1.1,0,2-0.4c0.7-0.3,2.9-2.2,3.6-2
			c0.8,1.4,1.5,2.7,2.3,4.1c-0.6,0.9-1.3,1.8-2.1,2.6c-0.7,0.8-1.6,1.5-2.4,2.2c-0.4,0.3-2.2,1.3-1.9,2.3c0.7,2.1,2.8,0.2,4.1,0.5
			c2.4,2.1,2.8,3.7,1.1,4.9c-0.6,0.5-1.2,0.9-1.8,1.3c-0.9,0.6-1.9,1.1-2.8,1.6c-1.2,0.6-2.4,1.1-3.6,1.4
			C516.3,53.5,516.7,54.9,517.7,54.6"/>
	</defs>
	<clipPath id="SVGID_42_">
		<use xlink:href="#SVGID_41_"  style="overflow:visible;"/>
	</clipPath>
	<g class="st20">
		<defs>
			<rect id="SVGID_43_" x="1" y="-521" width="1024" height="2615"/>
		</defs>
		<clipPath id="SVGID_44_">
			<use xlink:href="#SVGID_43_"  style="overflow:visible;"/>
		</clipPath>
		
			<rect x="493.3" y="17.1" transform="matrix(0.1736 -0.9848 0.9848 0.1736 390.1911 538.2267)" class="st21" width="45.1" height="39"/>
	</g>
</g>
<g>
	<defs>
		
			<rect id="SVGID_45_" x="498.3" y="22.1" transform="matrix(0.1736 -0.9848 0.9848 0.1736 390.2032 538.2185)" width="35" height="29"/>
	</defs>
	<clipPath id="SVGID_46_">
		<use xlink:href="#SVGID_45_"  style="overflow:visible;"/>
	</clipPath>
	<g class="st22">
		<defs>
			<rect id="SVGID_47_" x="1" y="-521" width="1024" height="2615"/>
		</defs>
		<clipPath id="SVGID_48_">
			<use xlink:href="#SVGID_47_"  style="overflow:visible;"/>
		</clipPath>
		<g class="st23">
			<g>
				<defs>
					<rect id="SVGID_49_" x="497" y="17" width="33" height="38"/>
				</defs>
				<clipPath id="SVGID_50_">
					<use xlink:href="#SVGID_49_"  style="overflow:visible;"/>
				</clipPath>
				<g class="st24">
					<defs>
						<path id="SVGID_51_" d="M517.7,54.6c3.5-1.1,10.7-3.9,11.1-8.2c0.1-1.6-0.9-3.1-2.4-3.7c-1.1-0.4-2-0.2-3.1,0
							c-0.2,0-1.5,0.4-1.5,0.3c0.3,0.5,2.3-1.5,2.6-1.7c1.7-1.6,4.4-4,4.6-6.5c0.2-2.2-1.5-4.1-3.7-4.1c-1.6,0-3.1,1.2-4.4,2
							c-0.4,0.2-0.8,0.5-1.3,0.7c-0.6,0.4,0.3,0.2,0.6-0.3c0.7-1,1.2-2.1,1.7-3.2c1.3-3.1,2.4-8.1-1.4-10c-4.2-2.2-7.2,1.3-7.8,5.2
							c-0.3,2-0.4,4.6,0.3,6.5c0.4,1.1,0.7,1.1,0,0c-0.6-0.9-1.5-2-2.4-2.8c-3.5-3.2-7,0.3-6.3,4.2c0.4,1.9,1.2,3.8,2.2,5.5
							c0,0,1.3,2.4,1.6,2c0,0-1.6-1-1.6-1c-1.9-1-4.1-1.3-5.6,0.7c-3,4.1,4.1,10.4,7,12.6c0.8,0.6,1.7-0.6,0.9-1.1
							c-0.8-0.7-1.7-1.4-2.4-2.1c-0.9-0.9-1.8-1.9-2.6-2.9c-0.3-0.4-0.6-0.8-0.8-1.2c-1.7-1.9-1-3.6,2.2-5c1.2,0.1,2.9,2.8,4.1,0.9
							c0.5-0.8-0.3-1.4-0.6-2c-0.7-1.6-1.8-3-2.4-4.7c-0.1-0.4-0.3-0.7-0.4-1.1c-1.2-2.4-0.2-3.8,3.2-4.1c1.8,0.8,2.1,4,4.3,4.2
							c0.3,0,0.6-0.1,0.8-0.4c0.7-1.5-0.3-3.6-0.4-5.3c-0.1-2.9,0.5-8,4.6-7.2c4,0.7,3,5.4,2,8c-0.6,1.6-2.5,3.5-2.3,5.1
							c0,0.3,0.3,0.6,0.6,0.7c2.2,0.5,3.6-2.3,5.5-2.5c3.1,1.5,3.6,3.2,1.6,5c-0.2,0.3-0.5,0.6-0.7,0.9c-1.1,1.4-2.5,2.4-3.8,3.6
							c-0.5,0.5-1.3,0.8-1.2,1.7c0.3,2.2,3.1,0.2,4.2,0.5c2.1,2.5,2.2,4.3,0.3,5.4c-0.3,0.2-0.5,0.4-0.8,0.6
							c-1.2,0.8-2.5,1.5-3.8,2.1c-1,0.4-2,0.8-3,1.2C516.3,53.5,516.8,54.9,517.7,54.6"/>
					</defs>
					<clipPath id="SVGID_52_">
						<use xlink:href="#SVGID_51_"  style="overflow:visible;"/>
					</clipPath>
					<g class="st25">
						<defs>
							<rect id="SVGID_53_" x="498" y="16" width="36" height="41"/>
						</defs>
						<clipPath id="SVGID_54_">
							<use xlink:href="#SVGID_53_"  style="overflow:visible;"/>
						</clipPath>
						
							<rect x="493.3" y="17.1" transform="matrix(0.1736 -0.9848 0.9848 0.1736 390.2016 538.218)" class="st26" width="45" height="39"/>
					</g>
				</g>
			</g>
		</g>
	</g>
</g>
<g>
	<defs>
		<path id="SVGID_55_" d="M522,59.7c3,1.9,14.3,7.8,15,0.7c0.1-1.3-0.4-2.3-1.3-3.2c-0.4-0.4-0.8-0.7-1.2-1c-1.3-1-0.8-0.5,0.6,0
			c2.7,0.9,8.7,1.5,10.6-1.2c1.4-1.9,0.6-4.4-1.3-5.5c-1-0.6-2.3-1-3.4-1.3c-0.3-0.1-0.7-0.2-1-0.4c-0.5-0.2-0.2,0.1-0.1,0.1
			c0.3-0.1,1.6,0.1,2.1,0c2.9-0.5,6.8-1.8,8.4-4.4c1.4-2.3,0.4-5.6-2-6.9c-3-1.7-6.6,0.7-8.9,2.6c-0.7,0.6-1.8,1.5-2.3,2.3
			c-0.3,0.5-0.6,1.8-0.3,0.8c0.4-1.4,0.6-2.9,0.8-4.4c0.2-0.9-1.2-1.4-1.4-0.4c-0.3,1.7-1.6,4.6-0.6,6.1c0.2,0.3,0.5,0.4,0.8,0.4
			c1.5-0.3,2.2-2.1,3.3-3.1c2.2-2.1,8.1-6,9.4-0.6c0.8,3.5-3.3,5.1-6.1,5.9c-1.4,0.4-3.6,0.1-4.6,1.2c-0.2,0.2-0.3,0.6-0.1,0.9
			c1,2,4,1.3,5.4,2.7c0.8,3.3-0.1,4.8-2.8,4.4c-0.4,0-0.8,0-1.2,0c-1.8,0-3.5-0.5-5.2-0.7c-0.7-0.1-1.5-0.5-2.1,0.1
			c-1.4,1.5,1.5,2.7,2.2,3.5c2.9,4-1.8,4.2-4.2,3.7c-1.6-0.4-3.1-1-4.5-1.7c-1.1-0.5-2.1-1.1-3.2-1.7C522,58,521.2,59.2,522,59.7"/>
	</defs>
	<clipPath id="SVGID_56_">
		<use xlink:href="#SVGID_55_"  style="overflow:visible;"/>
	</clipPath>
	<g class="st27">
		<defs>
			<rect id="SVGID_57_" x="1" y="-521" width="1024" height="2615"/>
		</defs>
		<clipPath id="SVGID_58_">
			<use xlink:href="#SVGID_57_"  style="overflow:visible;"/>
		</clipPath>
		
			<rect x="516.5" y="31.5" transform="matrix(0.1736 -0.9848 0.9848 0.1736 394.7103 569.0785)" class="st28" width="40" height="35.8"/>
	</g>
</g>
<g>
	<defs>
		<path id="SVGID_59_" d="M512.6,58.9l2-11.3c0.2-0.9-1.3-1.2-1.5-0.3l-2,11.3C511,59.6,512.5,59.9,512.6,58.9"/>
	</defs>
	<clipPath id="SVGID_60_">
		<use xlink:href="#SVGID_59_"  style="overflow:visible;"/>
	</clipPath>
	<g class="st29">
		<defs>
			<rect id="SVGID_61_" x="1" y="-521" width="1024" height="2615"/>
		</defs>
		<clipPath id="SVGID_62_">
			<use xlink:href="#SVGID_61_"  style="overflow:visible;"/>
		</clipPath>
		
			<rect x="501.4" y="47.4" transform="matrix(0.1736 -0.9848 0.9848 0.1736 371.5527 548.9974)" class="st30" width="22.9" height="11.5"/>
	</g>
</g>
<g>
	<defs>
		<path id="SVGID_63_" d="M501.7,54.8c-1.4,0.3-2.8,0.5-4.3,0.6c-1.2,0.1-2.4,0.1-3.5,0c-2.5-0.2-7.3-2.3-3.1-4.9
			c1.1-0.7,3.9-0.6,3.2-2.6c-0.3-0.9-2.2-0.8-2.7-0.9c-1.5-0.2-2.9-0.6-4.4-1c-2-0.7-7.1-3.4-2.2-5.5c1.8-0.8,4.4,0.8,6-0.7
			c0.3-0.3,0.3-0.6,0.1-0.9c-0.6-1.3-2.5-1.7-3.6-2.4c-2.4-1.7-6.8-5.4-3.6-8.3c3.3-3.1,6.5,1,8,3.9c0.7,1.4,0.9,3.6,2.3,4.4
			c0.2,0.1,0.6,0.2,0.8,0c1.6-1.2,1.4-4.1,1.6-5.9c0.2-0.9-1.3-1.3-1.4-0.4c-0.2,1.2-0.4,2.4-0.6,3.6c-0.3,2.5,0,0.4-0.6-0.9
			c-1.2-2.8-3.4-6.5-6.6-7.3c-2.6-0.6-5.6,1.4-6,4.1c-0.5,2.9,2,5.4,4,7.1c1.3,1,2.7,1.7,4.1,2.5c0.2,0.1,0.6-0.1-0.3-0.3
			c-0.8-0.1-1.8,0-2.7,0c-2.2,0-4.3,0.6-4.7,3.1c-0.7,3.6,3.5,5,6.2,5.7c1.4,0.4,2.8,0.6,4.2,0.8c0.5,0.1,1.2-0.6,0.3-0.1
			c-1.2,0.6-2.6,0.7-3.6,1.7c-1.9,2-0.8,5,1.6,6c3.5,1.5,8.3,0.9,12,0C503.1,56,502.7,54.6,501.7,54.8"/>
	</defs>
	<clipPath id="SVGID_64_">
		<use xlink:href="#SVGID_63_"  style="overflow:visible;"/>
	</clipPath>
	<g class="st31">
		<defs>
			<rect id="SVGID_65_" x="1" y="-521" width="1024" height="2615"/>
		</defs>
		<clipPath id="SVGID_66_">
			<use xlink:href="#SVGID_65_"  style="overflow:visible;"/>
		</clipPath>
		
			<rect x="472" y="23.6" transform="matrix(0.1736 -0.9848 0.9848 0.1736 365.6982 518.9013)" class="st32" width="40" height="35.8"/>
	</g>
</g>
<g>
	<defs>
		<path id="SVGID_67_" d="M496.8,133l-1.7-4.6c-0.3-0.8-1.2-1.3-2.1-0.9l-9.2,3.3c-0.9,0.3-1.3,1.2-1,2.1l1.7,4.6l0.2,0.7l1.6,4.3
			c0,0-5.8,7.4-2.4,16.7l2.1,5.7c0.6,1.6,1.7,3,3.2,3.9l1.1,0.7l2,5.5l-0.4,1.3c-0.6,1.7-0.6,3.5,0,5.1l2.1,5.7l8.1,22.4
			c0.6,1.6,1.6,3,3,4c0.2,0.2,0.5,0.4,0.8,0.5c1.2,0.8,2.8,0.9,4.2,0.5c1.4-0.4,2.6-1.5,3.2-2.8c0.5-1.2,1.6-2.2,2.8-2.6l1.1-0.4
			l1.1-0.4c1.3-0.5,2.7-0.4,3.9,0.2c1.3,0.6,2.9,0.7,4.2,0.1c1.4-0.6,2.4-1.7,2.9-3.1c0.1-0.4,0.2-0.7,0.3-1.1
			c0.3-1.6,0.2-3.3-0.3-4.9l-8.1-22.4l-2.1-5.7c-0.6-1.6-1.7-3-3.2-3.9l-1.2-0.7l-2-5.5l0.4-1.3c0.6-1.7,0.6-3.4,0-5.1l-2.1-5.7
			c-3.4-9.3-12.6-11.3-12.6-11.3l-1.6-4.3L496.8,133z"/>
	</defs>
	<clipPath id="SVGID_68_">
		<use xlink:href="#SVGID_67_"  style="overflow:visible;"/>
	</clipPath>
	<g class="st33">
		<defs>
			<rect id="SVGID_69_" x="1" y="-521" width="1024" height="2615"/>
		</defs>
		<clipPath id="SVGID_70_">
			<use xlink:href="#SVGID_69_"  style="overflow:visible;"/>
		</clipPath>
		
			<rect x="483.9" y="121.4" transform="matrix(0.9397 -0.342 0.342 0.9397 -27.8737 182.4467)" class="st34" width="39" height="97.6"/>
	</g>
</g>
<g>
	<defs>
		<path id="SVGID_71_" d="M488.5,172.6c3.6-0.1,7.3-1,10.7-2.2c0.9-0.3,0.6-1.8-0.3-1.4c-3.3,1.2-6.8,2.1-10.3,2.2
			C487.6,171.1,487.6,172.6,488.5,172.6"/>
	</defs>
	<clipPath id="SVGID_72_">
		<use xlink:href="#SVGID_71_"  style="overflow:visible;"/>
	</clipPath>
	<g class="st35">
		<defs>
			<rect id="SVGID_73_" x="1" y="-521" width="1024" height="2615"/>
		</defs>
		<clipPath id="SVGID_74_">
			<use xlink:href="#SVGID_73_"  style="overflow:visible;"/>
		</clipPath>
		
			<rect x="482.8" y="164.3" transform="matrix(0.9397 -0.342 0.342 0.9397 -28.6169 179.1853)" class="st36" width="22.1" height="13"/>
	</g>
</g>
<g>
	<defs>
		<path id="SVGID_75_" d="M490.7,178.5c1.9,0,3.8-0.4,5.7-0.8c0.9-0.2,0.6-1.6-0.4-1.4c-1.7,0.4-3.5,0.7-5.3,0.7
			C489.7,177,489.7,178.5,490.7,178.5"/>
	</defs>
	<clipPath id="SVGID_76_">
		<use xlink:href="#SVGID_75_"  style="overflow:visible;"/>
	</clipPath>
	<g class="st37">
		<defs>
			<rect id="SVGID_77_" x="1" y="-521" width="1024" height="2615"/>
		</defs>
		<clipPath id="SVGID_78_">
			<use xlink:href="#SVGID_77_"  style="overflow:visible;"/>
		</clipPath>
		
			<rect x="485" y="171" transform="matrix(0.9397 -0.342 0.342 0.9397 -30.8953 179.4664)" class="st38" width="16.9" height="12.6"/>
	</g>
</g>
<g>
	<defs>
		<path id="SVGID_79_" d="M484.2,143.6l4.6-1.7c0.9-0.3,0.6-1.8-0.3-1.4l-4.6,1.7C483,142.5,483.3,143.9,484.2,143.6"/>
	</defs>
	<clipPath id="SVGID_80_">
		<use xlink:href="#SVGID_79_"  style="overflow:visible;"/>
	</clipPath>
	<g class="st39">
		<defs>
			<rect id="SVGID_81_" x="1" y="-521" width="1024" height="2615"/>
		</defs>
		<clipPath id="SVGID_82_">
			<use xlink:href="#SVGID_81_"  style="overflow:visible;"/>
		</clipPath>
		
			<rect x="478.2" y="136.3" transform="matrix(0.9397 -0.342 0.342 0.9397 -19.2505 174.9233)" class="st40" width="16.4" height="11.5"/>
	</g>
</g>
<g>
	<defs>
		
			<rect id="SVGID_83_" x="487.5" y="132.5" transform="matrix(0.9397 -0.342 0.342 0.9397 -29.9656 182.9181)" width="32.3" height="87.8"/>
	</defs>
	<clipPath id="SVGID_84_">
		<use xlink:href="#SVGID_83_"  style="overflow:visible;"/>
	</clipPath>
	<g class="st41">
		<defs>
			<rect id="SVGID_85_" x="1" y="-521" width="1024" height="2615"/>
		</defs>
		<clipPath id="SVGID_86_">
			<use xlink:href="#SVGID_85_"  style="overflow:visible;"/>
		</clipPath>
		<g class="st42">
			<g>
				<defs>
					<rect id="SVGID_87_" x="479" y="132" width="53" height="91"/>
				</defs>
				<clipPath id="SVGID_88_">
					<use xlink:href="#SVGID_87_"  style="overflow:visible;"/>
				</clipPath>
				<g class="st43">
					<defs>
						<path id="SVGID_89_" d="M494.6,133.8c0.6,1.6,0.9,4.1,2.3,5.1c0.7,0.5,2,0.7,2.8,1c1.9,0.9,3.8,2.1,5.3,3.6
							c3.3,3.1,4.7,7.3,6.2,11.4c0.9,2.4,1.1,4.4,0.6,7c-0.2,1.2-0.3,1.2-0.1,2.4c0.4,1.4,0.9,3.5,1.7,4.7c0.6,1,1.6,1.3,2.5,2.1
							c2.6,2.2,3.4,6.3,4.5,9.3l5.9,16.1c0.9,2.5,1.9,5,2.7,7.5c0.7,2.2,1,4.3,0,6.4c-2.2,4.8-6.2,1.4-9.9,2
							c-1.3,0.2-2.8,0.8-3.9,1.4c-3.2,1.6-4.6,7-8.9,5.4c-3.5-1.3-4.5-5.1-5.6-8.2l-7-19.2l-1.9-5.2c-0.7-1.8-1.3-3.4-1.2-5.4
							c0.1-1.5,0.8-2.7,0.6-4.2c-0.2-1.4-1.1-3.9-1.9-5.2c-0.9-1.5-2.8-2-3.9-3.5c-2.1-3-3.6-8.3-4.1-11.8c-0.4-2.9,0-5.8,0.9-8.5
							c0.5-1.5,1.6-2.9,2.1-4.3c0.6-1.9-0.6-3.8-1.3-5.7c-0.3-0.9-1.7-0.3-1.4,0.5c0.5,1.4,1.3,2.8,1.5,4.2c0.2,0.9,0.4-0.8,0.1-0.1
							c-0.2,0.4-0.6,0.9-0.8,1.3c-2,3.6-3,7.7-2.7,11.8c0.3,3.7,1.8,7.4,3.2,10.9c0.7,1.7,1.5,3.2,3,4.4c0,0,1.9,1.1,1.9,1.2
							c0.5,0.6,0.6,1.8,0.9,2.5c0.7,1.8,1,2.6,0.8,4.1c-0.4,2.2-0.6,3.9,0.1,6.1c0.7,2.2,1.6,4.3,2.4,6.5l7.4,20.3
							c0.9,2.6,1.7,5.2,3.8,7.2c3.5,3.4,7.4,2.5,10.3-1c2.7-3.2,4.6-4.2,8.8-3.5c2.3,0.4,3.9,1,6-0.4c3.4-2.2,3.4-6.9,2.3-10.3
							c-2.2-6.6-4.8-13.2-7.2-19.8l-1.9-5.2c-0.6-1.6-1.1-3.2-1.7-4.8c-1-2.3-2.4-3.2-4-4.8c-1.2-1.2-1.9-3-2.3-4.8
							c-0.4-1.8,0.3-2.5,0.4-4.7c0.2-3.7-2-8.3-3.6-11.6c-2.1-4.3-5.8-7.6-10.1-9.6c-0.6-0.3-1.4-0.6-2-0.8c-0.4-0.1-1-0.5-0.6-0.1
							c0.4,0.4-0.4-1.7-0.6-2l-0.8-2.3C495.7,132.4,494.3,132.9,494.6,133.8"/>
					</defs>
					<clipPath id="SVGID_90_">
						<use xlink:href="#SVGID_89_"  style="overflow:visible;"/>
					</clipPath>
					<g class="st44">
						<defs>
							<rect id="SVGID_91_" x="473" y="129" width="61" height="95"/>
						</defs>
						<clipPath id="SVGID_92_">
							<use xlink:href="#SVGID_91_"  style="overflow:visible;"/>
						</clipPath>
						
							<rect x="482.5" y="127.5" transform="matrix(0.9397 -0.342 0.342 0.9397 -29.9656 182.9185)" class="st45" width="42.3" height="97.8"/>
					</g>
				</g>
			</g>
		</g>
	</g>
</g>
<g>
	<defs>
		<path id="SVGID_93_" d="M516.9,179.7c-1.8,1.4-4.4,1.7-6.3,0.4c-0.5-0.3-1.1-0.2-1.2,0.4c-0.9,3.4-4.5,4.9-7.6,2.8
			c-0.5-0.3-1.1-0.2-1.2,0.4c-0.7,2.4-2.4,3.7-5,3.8c-1,0-0.9,1.5,0.1,1.5c3.3-0.1,5.6-1.9,6.4-5c-0.4,0.1-0.8,0.3-1.2,0.4
			c3.9,2.7,8.7,1.1,10-3.6c-0.4,0.1-0.8,0.3-1.2,0.4c2.7,1.8,5.5,1.8,8.1-0.2C518.5,180.3,517.7,179.1,516.9,179.7"/>
	</defs>
	<clipPath id="SVGID_94_">
		<use xlink:href="#SVGID_93_"  style="overflow:visible;"/>
	</clipPath>
	<g class="st46">
		<defs>
			<rect id="SVGID_95_" x="1" y="-521" width="1024" height="2615"/>
		</defs>
		<clipPath id="SVGID_96_">
			<use xlink:href="#SVGID_95_"  style="overflow:visible;"/>
		</clipPath>
		
			<rect x="488.8" y="176.4" transform="matrix(0.9397 -0.342 0.342 0.9397 -32.2124 184.17)" class="st47" width="34.6" height="14.1"/>
	</g>
</g>
<g>
	<defs>
		
			<rect id="SVGID_97_" x="479.6" y="127.7" transform="matrix(0.9397 -0.342 0.342 0.9397 -15.7227 174.6328)" width="15.4" height="8.5"/>
	</defs>
	<clipPath id="SVGID_98_">
		<use xlink:href="#SVGID_97_"  style="overflow:visible;"/>
	</clipPath>
	<g class="st48">
		<defs>
			<rect id="SVGID_99_" x="1" y="-521" width="1024" height="2615"/>
		</defs>
		<clipPath id="SVGID_100_">
			<use xlink:href="#SVGID_99_"  style="overflow:visible;"/>
		</clipPath>
		<g class="st49">
			<g>
				<defs>
					<rect id="SVGID_101_" x="479" y="125" width="17" height="14"/>
				</defs>
				<clipPath id="SVGID_102_">
					<use xlink:href="#SVGID_101_"  style="overflow:visible;"/>
				</clipPath>
				<g class="st50">
					<defs>
						<path id="SVGID_103_" d="M493.9,127.5c-1.1-1.8-2.5-1.6-4.3-1l-7.2,2.6c-1.7,0.6-3.3,1.4-2.9,3.5c0.3,1.7,1.3,3.5,1.9,5.2
							c0.1,0.4,0.6,0.5,1,0.4l12.9-4.7c0.4-0.1,0.5-0.6,0.4-1L493.9,127.5c-0.3-0.9-1.7-0.3-1.4,0.6l1.8,5c0.1-0.3,0.3-0.7,0.4-1
							l-12.9,4.7c0.3,0.1,0.7,0.2,1,0.4c-0.5-1.3-1.2-2.7-1.5-4.1c-0.3-1.7,0.3-2.1,1.8-2.6l5.1-1.9c1-0.4,3.5-1.9,4.4-0.5
							C493.1,129,494.4,128.4,493.9,127.5"/>
					</defs>
					<clipPath id="SVGID_104_">
						<use xlink:href="#SVGID_103_"  style="overflow:visible;"/>
					</clipPath>
					<g class="st51">
						<defs>
							<rect id="SVGID_105_" x="478" y="125" width="19" height="14"/>
						</defs>
						<clipPath id="SVGID_106_">
							<use xlink:href="#SVGID_105_"  style="overflow:visible;"/>
						</clipPath>
						
							<rect x="474.6" y="122.7" transform="matrix(0.9397 -0.342 0.342 0.9397 -15.7226 174.6333)" class="st52" width="25.4" height="18.5"/>
					</g>
				</g>
			</g>
		</g>
	</g>
</g>
<g>
	<defs>
		<rect id="SVGID_107_" x="495.3" y="242.4" width="89.6" height="79.5"/>
	</defs>
	<clipPath id="SVGID_108_">
		<use xlink:href="#SVGID_107_"  style="overflow:visible;"/>
	</clipPath>
	<g class="st53">
		<defs>
			<rect id="SVGID_109_" x="1" y="-521" width="1024" height="2615"/>
		</defs>
		<clipPath id="SVGID_110_">
			<use xlink:href="#SVGID_109_"  style="overflow:visible;"/>
		</clipPath>
		<g class="st54">
			<g>
				<defs>
					<rect id="SVGID_111_" x="495" y="237" width="92" height="85"/>
				</defs>
				<clipPath id="SVGID_112_">
					<use xlink:href="#SVGID_111_"  style="overflow:visible;"/>
				</clipPath>
				<g class="st55">
					<defs>
						<path id="SVGID_113_" d="M584.8,280.3c-0.5-8.4-2.8-14.8-5-19.1c-2.2-4.2-6.4-6.4-9.5-10c-9.3-10.9-54.2-15.7-70,10
							c-2.5,4.1-4.8,10.7-5,19.1c-0.3,10.5,3.1,20.8,9.7,28.9c0.1,0.1,0.2,0.2,0.3,0.3c7.2,8.7,18.1,12.3,34.8,12.3
							C558.6,321.8,586.6,312.2,584.8,280.3"/>
					</defs>
					<clipPath id="SVGID_114_">
						<use xlink:href="#SVGID_113_"  style="overflow:visible;"/>
					</clipPath>
					<g class="st56">
						<defs>
							<rect id="SVGID_115_" x="495" y="242" width="90" height="80"/>
						</defs>
						<clipPath id="SVGID_116_">
							<use xlink:href="#SVGID_115_"  style="overflow:visible;"/>
						</clipPath>
						<rect x="490.3" y="237.4" class="st57" width="99.6" height="89.5"/>
					</g>
				</g>
			</g>
		</g>
	</g>
</g>
<g>
	<defs>
		<path id="SVGID_117_" d="M581.9,277.6c-0.4-5.8-1.6-11.6-4-17c-2.4-5.3-6.7-8.4-10.7-12.5c-4.1-4.1-9.6-6.1-15.2-7.4
			c-15.5-3.6-34.4-1.9-47.4,8c-17.9,13.6-17.4,41.8-3.9,58.3c11.4,14,33.7,15.3,50,11.1c8.2-2.1,16.2-6.1,22-12.4
			C579.9,298,582.4,287.9,581.9,277.6c0-0.9-1.4-0.7-1.4,0.2c0.4,9-1.5,18.1-7.2,25.2c-4.6,5.8-11.1,9.8-18.1,12.3
			c-7,2.5-14.4,3.4-21.9,3.1c-9.5-0.3-19.6-1.9-27.2-8.1c-16.4-13.5-19.2-43.2-3.4-58.1c11.4-10.8,29-13.2,44-11.1
			c6.1,0.9,13.4,2.5,18.2,6.7c3.9,3.5,8.7,7.4,11,12.1c2.8,5.5,4,11.7,4.4,17.8C580.6,278.8,582,278.5,581.9,277.6"/>
	</defs>
	<clipPath id="SVGID_118_">
		<use xlink:href="#SVGID_117_"  style="overflow:visible;"/>
	</clipPath>
	<g class="st58">
		<defs>
			<rect id="SVGID_119_" x="1" y="-521" width="1024" height="2615"/>
		</defs>
		<clipPath id="SVGID_120_">
			<use xlink:href="#SVGID_119_"  style="overflow:visible;"/>
		</clipPath>
		<rect x="486" y="234" class="st59" width="101" height="91.3"/>
	</g>
</g>
<g>
	<defs>
		<path id="SVGID_121_" d="M536.1,302c-0.7,0.4-1.2,0.9-1.5,1.6c-0.7,1.4-0.2,2.4-1.4,3.8c-1.4,1.6-2.7,1.8-4.8,2
			c-6.6,0.6-12.2-2.2-16.8-6.6c-9.1-8.9-14.3-26.1-6.3-37.2c1.2-1.6,2.7-2.8,4.6-3.4c1.2-0.4,4.6-0.8,5.9,0.1c0.2,0.2,0.1,0,0.4,0.7
			c0.3,0.7,0.3,1.8,0.5,2.6c0.1,0.7,0.3,1.4,0.4,2.1c0.1,0.6,0.1,0.8,0.2,0.3c-0.1,0.7-0.7,1.5-1,2.1c-2.6,6.5-2.1,13.8,3.4,18.6
			c1.6,1.4,10.5,8.7,12.6,3.8c-0.5,0-0.9,0-1.4,0.1c1.6,3.4,3.3,6.9,4.9,10.3c0.4,0.9,1.8,0.2,1.4-0.6c-1.6-3.4-3.3-6.9-4.9-10.3
			c-0.3-0.6-1.1-0.5-1.4,0.1c-0.8,2-6-1.3-6.8-1.8c-5.4-3.6-8.6-8.3-7.6-15c0.4-2.3,1.9-4.5,2.2-6.7c0.3-2-0.8-4.8-1.2-6.8
			c0-0.3-0.2-0.5-0.5-0.6c-7.7-2.7-13,1.8-15.6,8.9c-3.1,8.7-1,19,3.7,26.8c3.7,6.2,9.5,12,16.7,13.6c3.2,0.8,7.4,0.9,10.5-0.4
			c1.2-0.5,2.1-1.3,2.8-2.4c0.6-1,0.7-3.9,1.6-4.4C537.6,302.9,537,301.6,536.1,302"/>
	</defs>
	<clipPath id="SVGID_122_">
		<use xlink:href="#SVGID_121_"  style="overflow:visible;"/>
	</clipPath>
	<g class="st60">
		<defs>
			<rect id="SVGID_123_" x="1" y="-521" width="1024" height="2615"/>
		</defs>
		<clipPath id="SVGID_124_">
			<use xlink:href="#SVGID_123_"  style="overflow:visible;"/>
		</clipPath>
		<rect x="494.9" y="255.4" class="st61" width="47.3" height="60.7"/>
	</g>
</g>
<g>
	<defs>
		<path id="SVGID_125_" d="M508.9,282.4c-0.4,0-0.9,0.1-1.3,0.1c-0.4,0-0.7,0.5-0.6,0.9c0.1,0.4,0.4,0.7,0.9,0.6
			c0.4,0,0.9-0.1,1.3-0.1c0.4,0,0.7-0.5,0.6-0.9C509.7,282.6,509.3,282.4,508.9,282.4"/>
	</defs>
	<clipPath id="SVGID_126_">
		<use xlink:href="#SVGID_125_"  style="overflow:visible;"/>
	</clipPath>
	<g class="st62">
		<defs>
			<rect id="SVGID_127_" x="1" y="-521" width="1024" height="2615"/>
		</defs>
		<clipPath id="SVGID_128_">
			<use xlink:href="#SVGID_127_"  style="overflow:visible;"/>
		</clipPath>
		<rect x="501.9" y="277.4" class="st63" width="12.8" height="11.6"/>
	</g>
</g>
<g>
	<defs>
		<path id="SVGID_129_" d="M510.8,290c-0.4,0.2-0.8,0.4-1.2,0.6c-0.9,0.4-0.3,1.8,0.6,1.4c0.4-0.2,0.8-0.4,1.2-0.6
			C512.3,291,511.7,289.6,510.8,290"/>
	</defs>
	<clipPath id="SVGID_130_">
		<use xlink:href="#SVGID_129_"  style="overflow:visible;"/>
	</clipPath>
	<g class="st64">
		<defs>
			<rect id="SVGID_131_" x="1" y="-521" width="1024" height="2615"/>
		</defs>
		<clipPath id="SVGID_132_">
			<use xlink:href="#SVGID_131_"  style="overflow:visible;"/>
		</clipPath>
		<rect x="504.1" y="285" class="st65" width="12.7" height="12.1"/>
	</g>
</g>
<g>
	<defs>
		<path id="SVGID_133_" d="M514.8,296.4c-0.3,0.3-0.6,0.6-1,1c-0.3,0.3-0.2,0.8,0.1,1.1c0.3,0.3,0.8,0.2,1-0.1c0.3-0.3,0.6-0.6,1-1
			c0.3-0.3,0.2-0.8-0.1-1C515.5,296,515.1,296.1,514.8,296.4"/>
	</defs>
	<clipPath id="SVGID_134_">
		<use xlink:href="#SVGID_133_"  style="overflow:visible;"/>
	</clipPath>
	<g class="st66">
		<defs>
			<rect id="SVGID_135_" x="1" y="-521" width="1024" height="2615"/>
		</defs>
		<clipPath id="SVGID_136_">
			<use xlink:href="#SVGID_135_"  style="overflow:visible;"/>
		</clipPath>
		<rect x="508.7" y="291.1" class="st67" width="12.5" height="12.4"/>
	</g>
</g>
<g>
	<defs>
		<path id="SVGID_137_" d="M519.8,300.8c-0.2,0.4-0.4,0.8-0.6,1.2c-0.2,0.4,0.1,0.8,0.4,1c0.4,0.2,0.8-0.1,1-0.4
			c0.2-0.4,0.4-0.8,0.6-1.2c0.2-0.4-0.1-0.8-0.4-1C520.3,300.2,519.9,300.4,519.8,300.8"/>
	</defs>
	<clipPath id="SVGID_138_">
		<use xlink:href="#SVGID_137_"  style="overflow:visible;"/>
	</clipPath>
	<g class="st68">
		<defs>
			<rect id="SVGID_139_" x="1" y="-521" width="1024" height="2615"/>
		</defs>
		<clipPath id="SVGID_140_">
			<use xlink:href="#SVGID_139_"  style="overflow:visible;"/>
		</clipPath>
		<rect x="514.1" y="295.3" class="st69" width="12.1" height="12.7"/>
	</g>
</g>
<g>
	<defs>
		<path id="SVGID_141_" d="M526.8,302.5c0,0.5-0.1,0.9-0.1,1.4c0,0.4,0.2,0.8,0.6,0.9c0.4,0.1,0.8-0.2,0.9-0.6
			c0-0.5,0.1-0.9,0.1-1.4c0-0.4-0.2-0.8-0.6-0.9C527.3,301.9,526.8,302.1,526.8,302.5"/>
	</defs>
	<clipPath id="SVGID_142_">
		<use xlink:href="#SVGID_141_"  style="overflow:visible;"/>
	</clipPath>
	<g class="st70">
		<defs>
			<rect id="SVGID_143_" x="1" y="-521" width="1024" height="2615"/>
		</defs>
		<clipPath id="SVGID_144_">
			<use xlink:href="#SVGID_143_"  style="overflow:visible;"/>
		</clipPath>
		<rect x="521.6" y="296.9" class="st71" width="11.6" height="12.8"/>
	</g>
</g>
<g>
	<defs>
		<path id="SVGID_145_" d="M512.2,267.7c-0.4-0.2-0.8-0.3-1.3-0.5c-0.9-0.3-1.4,1.1-0.5,1.4c0.4,0.2,0.8,0.3,1.3,0.5
			C512.6,269.4,513.1,268,512.2,267.7"/>
	</defs>
	<clipPath id="SVGID_146_">
		<use xlink:href="#SVGID_145_"  style="overflow:visible;"/>
	</clipPath>
	<g class="st72">
		<defs>
			<rect id="SVGID_147_" x="1" y="-521" width="1024" height="2615"/>
		</defs>
		<clipPath id="SVGID_148_">
			<use xlink:href="#SVGID_147_"  style="overflow:visible;"/>
		</clipPath>
		<rect x="505" y="262.2" class="st73" width="12.7" height="12"/>
	</g>
</g>
<g>
	<defs>
		<path id="SVGID_149_" d="M509.4,274.8c-0.4-0.1-0.9-0.2-1.3-0.3c-0.4-0.1-0.8,0.3-0.8,0.7c0,0.4,0.3,0.7,0.7,0.8
			c0.4,0.1,0.9,0.2,1.3,0.3c0.4,0.1,0.8-0.3,0.8-0.7C510.2,275.2,509.8,274.9,509.4,274.8"/>
	</defs>
	<clipPath id="SVGID_150_">
		<use xlink:href="#SVGID_149_"  style="overflow:visible;"/>
	</clipPath>
	<g class="st74">
		<defs>
			<rect id="SVGID_151_" x="1" y="-521" width="1024" height="2615"/>
		</defs>
		<clipPath id="SVGID_152_">
			<use xlink:href="#SVGID_151_"  style="overflow:visible;"/>
		</clipPath>
		<rect x="502.3" y="269.6" class="st75" width="12.8" height="11.8"/>
	</g>
</g>
<g>
	<defs>
		<path id="SVGID_153_" d="M538.9,256.9c0.8-0.4,1.1-0.9,1.5-1.7c0.8-1.6,0.3-2.9,2-4.2c1.7-1.3,3-1.5,5.3-1.6
			c6.2-0.3,11.5,2.5,15.8,6.8c9,8.9,14.4,26.1,6.3,37.2c-1.4,1.9-3.2,3.1-5.5,3.6c-1.2,0.2-4,0.5-5-0.4c-0.4-0.4-0.7-2.2-0.9-3.3
			c-0.1-0.7-0.3-1.4-0.4-2.1c-0.1-0.6-0.1-0.7-0.2-0.3c0.1-0.7,0.7-1.5,1-2.2c2.6-6.7,2-14.1-3.8-18.9c-1.7-1.4-10.2-8.2-12.2-3.4
			c0.5-0.1,0.9-0.1,1.4-0.2c-1.6-3.4-3.3-6.9-4.9-10.3c-0.4-0.9-1.7-0.1-1.3,0.7c1.6,3.4,3.3,6.9,4.9,10.3c0.3,0.6,1.1,0.4,1.4-0.2
			c0.8-1.8,5.8,1.2,6.8,1.9c5.6,3.7,8.7,8.5,7.5,15.3c-0.4,2.2-1.9,4.4-2.2,6.5c-0.2,2,0.8,4.8,1.2,6.8c0,0.3,0.3,0.5,0.5,0.5
			c7.7,2.7,13-1.9,15.5-8.9c3.1-8.7,0.9-19-3.7-26.8c-3.8-6.5-10.1-12.5-17.8-13.8c-3-0.5-7.1-0.6-9.9,0.8c-1.1,0.6-2,1.5-2.6,2.6
			c-0.5,1-0.5,3.5-1.5,4C537.3,256,538,257.3,538.9,256.9"/>
	</defs>
	<clipPath id="SVGID_154_">
		<use xlink:href="#SVGID_153_"  style="overflow:visible;"/>
	</clipPath>
	<g class="st76">
		<defs>
			<rect id="SVGID_155_" x="1" y="-521" width="1024" height="2615"/>
		</defs>
		<clipPath id="SVGID_156_">
			<use xlink:href="#SVGID_155_"  style="overflow:visible;"/>
		</clipPath>
		<rect x="532.8" y="242.8" class="st77" width="47.3" height="60.7"/>
	</g>
</g>
<g>
	<defs>
		<path id="SVGID_157_" d="M566,276.5c0.4,0,0.9-0.1,1.3-0.1c1-0.1,0.8-1.6-0.1-1.5c-0.4,0-0.9,0.1-1.3,0.1
			C564.9,275.1,565,276.6,566,276.5"/>
	</defs>
	<clipPath id="SVGID_158_">
		<use xlink:href="#SVGID_157_"  style="overflow:visible;"/>
	</clipPath>
	<g class="st78">
		<defs>
			<rect id="SVGID_159_" x="1" y="-521" width="1024" height="2615"/>
		</defs>
		<clipPath id="SVGID_160_">
			<use xlink:href="#SVGID_159_"  style="overflow:visible;"/>
		</clipPath>
		<rect x="560.2" y="269.9" class="st79" width="12.8" height="11.6"/>
	</g>
</g>
<g>
	<defs>
		<path id="SVGID_161_" d="M564.2,268.8c0.4-0.2,0.8-0.4,1.2-0.6c0.9-0.4,0.3-1.8-0.6-1.4c-0.4,0.2-0.8,0.4-1.2,0.6
			C562.7,267.9,563.3,269.3,564.2,268.8"/>
	</defs>
	<clipPath id="SVGID_162_">
		<use xlink:href="#SVGID_161_"  style="overflow:visible;"/>
	</clipPath>
	<g class="st80">
		<defs>
			<rect id="SVGID_163_" x="1" y="-521" width="1024" height="2615"/>
		</defs>
		<clipPath id="SVGID_164_">
			<use xlink:href="#SVGID_163_"  style="overflow:visible;"/>
		</clipPath>
		<rect x="558.1" y="261.8" class="st81" width="12.7" height="12.1"/>
	</g>
</g>
<g>
	<defs>
		<path id="SVGID_165_" d="M560.1,262.5c0.3-0.3,0.6-0.6,1-1c0.3-0.3,0.2-0.8-0.1-1.1c-0.3-0.3-0.8-0.2-1.1,0.1
			c-0.3,0.3-0.6,0.6-1,1c-0.3,0.3-0.2,0.8,0.1,1.1C559.4,262.9,559.8,262.8,560.1,262.5"/>
	</defs>
	<clipPath id="SVGID_166_">
		<use xlink:href="#SVGID_165_"  style="overflow:visible;"/>
	</clipPath>
	<g class="st82">
		<defs>
			<rect id="SVGID_167_" x="1" y="-521" width="1024" height="2615"/>
		</defs>
		<clipPath id="SVGID_168_">
			<use xlink:href="#SVGID_167_"  style="overflow:visible;"/>
		</clipPath>
		<rect x="553.8" y="255.3" class="st83" width="12.5" height="12.4"/>
	</g>
</g>
<g>
	<defs>
		<path id="SVGID_169_" d="M555.2,258.1c0.2-0.4,0.4-0.8,0.6-1.2c0.2-0.4-0.1-0.8-0.4-1c-0.4-0.2-0.8,0.1-1,0.4
			c-0.2,0.4-0.4,0.8-0.6,1.2c-0.2,0.4,0.1,0.8,0.4,1C554.6,258.7,555,258.5,555.2,258.1"/>
	</defs>
	<clipPath id="SVGID_170_">
		<use xlink:href="#SVGID_169_"  style="overflow:visible;"/>
	</clipPath>
	<g class="st84">
		<defs>
			<rect id="SVGID_171_" x="1" y="-521" width="1024" height="2615"/>
		</defs>
		<clipPath id="SVGID_172_">
			<use xlink:href="#SVGID_171_"  style="overflow:visible;"/>
		</clipPath>
		<rect x="548.7" y="250.9" class="st85" width="12.1" height="12.7"/>
	</g>
</g>
<g>
	<defs>
		<path id="SVGID_173_" d="M548.2,256.3c0-0.5,0.1-0.9,0.1-1.3c0.1-1-1.4-1-1.5-0.1c0,0.5-0.1,0.9-0.1,1.3
			C546.6,257.1,548.1,257.2,548.2,256.3"/>
	</defs>
	<clipPath id="SVGID_174_">
		<use xlink:href="#SVGID_173_"  style="overflow:visible;"/>
	</clipPath>
	<g class="st86">
		<defs>
			<rect id="SVGID_175_" x="1" y="-521" width="1024" height="2615"/>
		</defs>
		<clipPath id="SVGID_176_">
			<use xlink:href="#SVGID_175_"  style="overflow:visible;"/>
		</clipPath>
		<rect x="541.7" y="249.2" class="st87" width="11.6" height="12.8"/>
	</g>
</g>
<g>
	<defs>
		<path id="SVGID_177_" d="M562.6,291.2l1.3,0.5c0.4,0.1,0.8,0.1,1-0.3c0.2-0.3,0.1-0.9-0.3-1l-1.3-0.5c-0.4-0.1-0.8-0.1-1,0.3
			C562.1,290.5,562.3,291,562.6,291.2"/>
	</defs>
	<clipPath id="SVGID_178_">
		<use xlink:href="#SVGID_177_"  style="overflow:visible;"/>
	</clipPath>
	<g class="st88">
		<defs>
			<rect id="SVGID_179_" x="1" y="-521" width="1024" height="2615"/>
		</defs>
		<clipPath id="SVGID_180_">
			<use xlink:href="#SVGID_179_"  style="overflow:visible;"/>
		</clipPath>
		<rect x="557.2" y="284.8" class="st89" width="12.7" height="11.9"/>
	</g>
</g>
<g>
	<defs>
		<path id="SVGID_181_" d="M565.4,284c0.4,0.1,0.9,0.2,1.3,0.3c0.9,0.2,1.2-1.3,0.3-1.5c-0.4-0.1-0.9-0.2-1.3-0.3
			C564.8,282.4,564.5,283.9,565.4,284"/>
	</defs>
	<clipPath id="SVGID_182_">
		<use xlink:href="#SVGID_181_"  style="overflow:visible;"/>
	</clipPath>
	<g class="st90">
		<defs>
			<rect id="SVGID_183_" x="1" y="-521" width="1024" height="2615"/>
		</defs>
		<clipPath id="SVGID_184_">
			<use xlink:href="#SVGID_183_"  style="overflow:visible;"/>
		</clipPath>
		<rect x="559.8" y="277.6" class="st91" width="12.8" height="11.8"/>
	</g>
</g>
<g>
	<defs>
		
			<rect id="SVGID_185_" x="22.9" y="41.5" transform="matrix(0.9397 -0.342 0.342 0.9397 -27.1468 16.925)" width="23.1" height="87.9"/>
	</defs>
	<clipPath id="SVGID_186_">
		<use xlink:href="#SVGID_185_"  style="overflow:visible;"/>
	</clipPath>
	<g class="st92">
		<defs>
			<rect id="SVGID_187_" x="1" y="-521" width="1024" height="2615"/>
		</defs>
		<clipPath id="SVGID_188_">
			<use xlink:href="#SVGID_187_"  style="overflow:visible;"/>
		</clipPath>
		<g class="st93">
			<g>
				<defs>
					<rect id="SVGID_189_" x="14" y="42" width="46" height="87"/>
				</defs>
				<clipPath id="SVGID_190_">
					<use xlink:href="#SVGID_189_"  style="overflow:visible;"/>
				</clipPath>
				<g class="st94">
					<defs>
						<path id="SVGID_191_" d="M42.6,75.2c-0.7-0.8-1.5-1.5-2.4-2.1c-0.8-0.5-1.5-1-2.1-1.5c-1.1-1-2-2.2-2.5-3.6
							c-3.7-9.9-8.4-17.7-9.6-19.6c-0.2-0.3-0.1-0.6,0.2-0.8c0.1-0.1,0.2-0.3,0.1-0.4c-0.4-0.9-1.2-2.6-1.2-2.8l0,0
							c0,0-0.9-2-1.9-1.7l-3.7,1.4l-3.7,1.4c-1,0.4-0.4,2.5-0.4,2.5l0,0c0,0.1,0.5,2,0.8,2.9c0,0.1,0.2,0.2,0.3,0.2
							c0.3,0,0.6,0.2,0.6,0.5c0.3,2.2,1.7,11.3,5.3,21.2c0.5,1.4,0.6,2.9,0.4,4.4c-0.1,0.7-0.3,1.6-0.6,2.5c-0.3,1-0.5,2.1-0.5,3.2
							c0,0.6,0.1,1.3,0.3,1.8l0.9,2.4l14.6,40.1c0.4,1,1.3,1.7,2.3,1.7c1.6,0.1,4.6-0.3,9.8-2.1c5.2-1.9,7.7-3.5,8.9-4.6
							c0.8-0.7,1-1.8,0.7-2.8L44.4,79.2l-0.9-2.4C43.3,76.2,43,75.7,42.6,75.2"/>
					</defs>
					<clipPath id="SVGID_192_">
						<use xlink:href="#SVGID_191_"  style="overflow:visible;"/>
					</clipPath>
					<g class="st95">
						<defs>
							<rect id="SVGID_193_" x="8" y="40" width="53" height="91"/>
						</defs>
						<clipPath id="SVGID_194_">
							<use xlink:href="#SVGID_193_"  style="overflow:visible;"/>
						</clipPath>
						
							<rect x="17.9" y="36.5" transform="matrix(0.9397 -0.342 0.342 0.9397 -27.1468 16.925)" class="st96" width="33.1" height="97.9"/>
					</g>
				</g>
			</g>
		</g>
	</g>
</g>
<g>
	<defs>
		<path id="SVGID_195_" d="M46,83.7c-1.5,0.4-2.7,0.2-3.8-0.6c-0.4-0.3-0.9,0.1-1,0.5c-0.9,2.6-4,3.6-6.2,2.2
			c-0.4-0.3-0.9,0.1-1,0.5c-0.9,2.6-4,3.6-6.2,2.2c-0.4-0.3-0.9,0.1-1,0.5c-0.4,1.5-1.3,2.4-2.6,2.9c-0.8,0.4-0.1,1.5,0.7,1.2
			c1.7-0.8,2.6-1.9,3.2-3.7l-1,0.5c3.3,2.1,7,0.6,8.2-3.1l-1,0.5c3.3,2.1,7,0.6,8.2-3.1l-1,0.5c1.6,1,3,1.2,4.9,0.7
			C47.2,84.8,46.8,83.5,46,83.7"/>
	</defs>
	<clipPath id="SVGID_196_">
		<use xlink:href="#SVGID_195_"  style="overflow:visible;"/>
	</clipPath>
	<g class="st97">
		<defs>
			<rect id="SVGID_197_" x="1" y="-521" width="1024" height="2615"/>
		</defs>
		<clipPath id="SVGID_198_">
			<use xlink:href="#SVGID_197_"  style="overflow:visible;"/>
		</clipPath>
		
			<rect x="17.8" y="80.6" transform="matrix(0.9397 -0.342 0.342 0.9397 -27.7529 17.2241)" class="st98" width="34.4" height="13.5"/>
	</g>
</g>
<g>
	<defs>
		<path id="SVGID_199_" d="M41.6,71.1c-1.2-1.3-2.5-2-3.9-3.1c-1.7-1.4-2.6-3-3.4-5c-1.4-3.4-2.8-6.7-4.4-10
			c-1.1-2.3-2.3-4.5-3.6-6.7c-0.8-1.4-0.7-1.9-1-3.2c-0.4-1.8-1.9-4.8-4-4.5c-1.6,0.2-6.4,1.8-7.6,2.9c-1.5,1.3-0.3,4.9,0.5,6.4
			c0.3,0.5,0.6,0.4,0.8,0.9c0.2,0.5,0.2,1.2,0.3,1.7c0.5,2.9,1.1,5.7,1.8,8.5c0.9,3.6,2.1,7,3.2,10.5c1.1,3.8-1,6.7-0.7,10.3
			c0.2,1.8,1,3.5,1.6,5.2c4.6,12.6,8.9,25.3,13.8,37.8c0.7,1.7,1.4,3,3.4,3.3c4.5,0.6,10.3-2.1,14.2-3.9c2.7-1.3,6.6-3,5.8-6.6
			c-0.3-1.4-1-2.9-1.5-4.2l-8.9-24.5l-3.5-9.6c-0.7-2-1.3-4.2-2.5-5.9c-0.5-0.7-1.7,0-1.2,0.7c2.2,3,3.2,7.8,4.5,11.3l7.3,20.1
			l3.1,8.5c0.4,1.2,1.3,2.7,1.5,4c0.5,4.4-9,6.7-11.8,7.6c-2.9,0.9-7.1,2.5-8.8-0.9c-2.5-4.7-3.8-10.5-5.6-15.4l-7-19.2L22,83.5
			c-0.2-0.7-0.5-1.3-0.7-2c-1-3.2,0.6-5.7,0.7-8.8c0.1-2.4-0.8-4.5-1.6-6.7c-1-3.1-1.9-6.3-2.6-9.5c-0.7-3-0.7-6.8-2.2-9.5
			c-0.4-0.8-1.7-2.6-1.4-3.8c0.3-1.3,2.5-1.6,3.8-2.1c1.6-0.6,3.4-2,4.7-0.3c0.8,1,0.7,2.4,1,3.6c0.4,1.3,1.3,2.5,2,3.8
			c1.4,2.4,2.7,4.9,3.9,7.5c1.6,3.3,2.6,6.9,4.3,10.1c1.6,2.9,4.5,4,6.7,6.3C41.3,72.8,42.2,71.8,41.6,71.1"/>
	</defs>
	<clipPath id="SVGID_200_">
		<use xlink:href="#SVGID_199_"  style="overflow:visible;"/>
	</clipPath>
	<g class="st99">
		<defs>
			<rect id="SVGID_201_" x="1" y="-521" width="1024" height="2615"/>
		</defs>
		<clipPath id="SVGID_202_">
			<use xlink:href="#SVGID_201_"  style="overflow:visible;"/>
		</clipPath>
		
			<rect x="15.6" y="31.9" transform="matrix(0.9397 -0.342 0.342 0.9397 -25.9902 16.202)" class="st100" width="34.7" height="99.8"/>
	</g>
</g>
<g>
	<defs>
		<path id="SVGID_203_" d="M14.9,49l5.1-1.8c0.8-0.3,0.4-1.6-0.4-1.3l-5.1,1.8C13.6,48,14.1,49.3,14.9,49"/>
	</defs>
	<clipPath id="SVGID_204_">
		<use xlink:href="#SVGID_203_"  style="overflow:visible;"/>
	</clipPath>
	<g class="st101">
		<defs>
			<rect id="SVGID_205_" x="1" y="-521" width="1024" height="2615"/>
		</defs>
		<clipPath id="SVGID_206_">
			<use xlink:href="#SVGID_205_"  style="overflow:visible;"/>
		</clipPath>
		
			<rect x="8.8" y="41.7" transform="matrix(0.9397 -0.342 0.342 0.9397 -15.1724 8.7448)" class="st102" width="16.7" height="11.4"/>
	</g>
</g>
<g>
	<defs>
		<rect id="SVGID_207_" x="-33.6" y="160.8" width="73.2" height="104"/>
	</defs>
	<clipPath id="SVGID_208_">
		<use xlink:href="#SVGID_207_"  style="overflow:visible;"/>
	</clipPath>
	<g class="st103">
		<defs>
			<rect id="SVGID_209_" x="1" y="-521" width="1024" height="2615"/>
		</defs>
		<clipPath id="SVGID_210_">
			<use xlink:href="#SVGID_209_"  style="overflow:visible;"/>
		</clipPath>
		<g class="st104">
			<g>
				<defs>
					<rect id="SVGID_211_" x="-36" y="160" width="79" height="110"/>
				</defs>
				<clipPath id="SVGID_212_">
					<use xlink:href="#SVGID_211_"  style="overflow:visible;"/>
				</clipPath>
				<g class="st105">
					<defs>
						<path id="SVGID_213_" d="M36.3,162.5l-14.7-1.7l-26.1,18.4l-18.3,10.4c0,0-11.3,14.3-10.7,33.6c0.6,19.2-2.2,47.3,22.5,40.7
							c24.8-6.6,40.6-9.4,42-27c1.4-17.6-2-26.1,3.4-43.2C39.7,176.4,42,166,36.3,162.5"/>
					</defs>
					<clipPath id="SVGID_214_">
						<use xlink:href="#SVGID_213_"  style="overflow:visible;"/>
					</clipPath>
					<g class="st106">
						<defs>
							<rect id="SVGID_215_" x="1" y="160" width="39" height="105"/>
						</defs>
						<clipPath id="SVGID_216_">
							<use xlink:href="#SVGID_215_"  style="overflow:visible;"/>
						</clipPath>
						<rect x="-38.6" y="155.8" class="st107" width="83.2" height="114"/>
					</g>
				</g>
			</g>
		</g>
	</g>
</g>
<g>
	<defs>
		<rect id="SVGID_217_" x="-40" y="156.7" width="78.6" height="104.1"/>
	</defs>
	<clipPath id="SVGID_218_">
		<use xlink:href="#SVGID_217_"  style="overflow:visible;"/>
	</clipPath>
	<g class="st108">
		<defs>
			<rect id="SVGID_219_" x="1" y="-521" width="1024" height="2615"/>
		</defs>
		<clipPath id="SVGID_220_">
			<use xlink:href="#SVGID_219_"  style="overflow:visible;"/>
		</clipPath>
		<g class="st109">
			<g>
				<defs>
					<rect id="SVGID_221_" x="-41" y="151" width="83" height="111"/>
				</defs>
				<clipPath id="SVGID_222_">
					<use xlink:href="#SVGID_221_"  style="overflow:visible;"/>
				</clipPath>
				<g class="st110">
					<defs>
						<path id="SVGID_223_" d="M32.3,160.5c7.7,7.5,4.7,17.4,0.4,25.9c-2.7,5.4-6.7,10.5-6.4,16.8c0.6,9.5,2.6,19,1.6,28.6
							c-0.4,4.2-1.4,8.1-4.3,11.2c-2.3,2.5-5.2,4.5-8,6.2c-7.5,4.6-16.1,7.8-24.8,9.3c-8,1.4-17.5,1.6-24.4-3.4
							c-5.2-3.8-5.5-9.2-4.5-15c0.9-5.1,1.9-10.1,2.4-15.3c1-9.9,0.3-22.4,6.9-30.5c7.3-8.9,17.8-15.3,27.4-21.6
							c4.2-2.8,8.3-5.6,12.4-8.4C17,160.5,26,155.2,32.3,160.5c0.7,0.6,1.8-0.4,1.1-1c-9-7.5-20.9,2.3-28.4,7.3
							c-9.3,6.3-19,12.1-27.5,19.4c-3.6,3.1-7.6,6.6-9.8,10.9c-2.3,4.3-2.8,9.7-3.4,14.5c-0.8,6.5-1.1,13.1-2.1,19.7
							c-0.8,5.3-2.8,10.8-2.1,16.2c1.1,8.8,10.7,12.6,18.5,13.2c9.3,0.8,18.9-1.6,27.5-5.1c7.1-2.9,15-6.8,19.8-13
							c5.8-7.5,3.9-20.1,3-28.8c-0.5-4.5-2.1-10.2-0.9-14.7c1.2-4.5,4.3-8.6,6.3-12.7c4.4-9,7-19.1-1-26.9
							C32.7,158.8,31.7,159.9,32.3,160.5"/>
					</defs>
					<clipPath id="SVGID_224_">
						<use xlink:href="#SVGID_223_"  style="overflow:visible;"/>
					</clipPath>
					<g class="st111">
						<defs>
							<rect id="SVGID_225_" x="1" y="156" width="38" height="105"/>
						</defs>
						<clipPath id="SVGID_226_">
							<use xlink:href="#SVGID_225_"  style="overflow:visible;"/>
						</clipPath>
						<rect x="-45" y="151.7" class="st112" width="88.6" height="114.1"/>
					</g>
				</g>
			</g>
		</g>
	</g>
</g>
<g>
	<defs>
		<path id="SVGID_227_" d="M4.1,172.4c-5.8,3.8-6.1,9.8-9.5,15.3c-3.5,5.7-10.2,9.2-13.2,15.2c-2.4,4.9,2.2,7.8,4.8,11.5
			c2.8,4,5.2,8.4,7.4,12.8c0.3,0.5,1,0.4,1.3-0.1c2.7-5,5.4-10.4,9-14.7c1.5-1.8,2.3-2.8,3-5.1c0.6-2,1.3-4,2.7-5.6
			c1.7-1.9,4-2.8,6.2-4.1c6.8-4,15.4-10.7,18.1-18.4c1.4-3.9,1.2-10.6-4-11.4c-5.2-0.8-10.4,3.1-15.2,4.3c-2.9,0.7-7.2,1.4-9.8,0.4
			c-0.9-0.3-1.6,1-0.7,1.3c4.8,1.9,11.1,0,15.6-1.8c3.2-1.3,10.2-5.2,12.6-0.8c1.5,2.9,0.5,7-1,9.7c-2.3,4-5.8,7.3-9.3,10.3
			c-3.6,3-7.6,4.9-11.4,7.5c-2.5,1.8-4.1,4.2-5,7.1c-0.8,2.5-1.6,3.9-3.2,5.9c-3.6,4.5-6.3,9.8-9.1,14.8c0.4,0,0.9,0,1.3-0.1
			c-1.6-3.4-3.5-6.6-5.4-9.8c-1.5-2.4-3-4.7-4.8-6.8c-2.5-3-3-4.8-0.6-8.1c3.2-4.3,7.8-7.4,11-11.7c3.9-5.4,4.1-12.4,10-16.3
			C5.7,173.1,4.9,171.8,4.1,172.4"/>
	</defs>
	<clipPath id="SVGID_228_">
		<use xlink:href="#SVGID_227_"  style="overflow:visible;"/>
	</clipPath>
	<g class="st113">
		<defs>
			<rect id="SVGID_229_" x="1" y="-521" width="1024" height="2615"/>
		</defs>
		<clipPath id="SVGID_230_">
			<use xlink:href="#SVGID_229_"  style="overflow:visible;"/>
		</clipPath>
		<rect x="-24.2" y="162.6" class="st114" width="63.9" height="69.8"/>
	</g>
</g>
<g>
	<defs>
		<path id="SVGID_231_" d="M29,193.6c-3.1,4.5-6.5,8.8-10.4,12.7c-5.4,5.3-14.3,7.9-17.9,14.9c-2.2,4.2,0.5,8.6,5.3,6.8
			c4-1.5,7.3-4.4,11.3-6c3.1-1.3,6.5-2.3,9.9-2.5c1-0.1,1-1.5,0-1.5c-5.1,0.3-10.3,2.2-14.8,4.7c-2.3,1.3-9.3,7.1-10.9,2.5
			c-1.4-4.1,5.4-8.6,8.1-10.4c2.5-1.7,5.2-3,7.5-4.9c2.2-1.9,4.2-4,6.1-6.2c2.5-2.9,4.9-6,7.2-9.2C30.8,193.6,29.5,192.8,29,193.6"
			/>
	</defs>
	<clipPath id="SVGID_232_">
		<use xlink:href="#SVGID_231_"  style="overflow:visible;"/>
	</clipPath>
	<g class="st115">
		<defs>
			<rect id="SVGID_233_" x="1" y="-521" width="1024" height="2615"/>
		</defs>
		<clipPath id="SVGID_234_">
			<use xlink:href="#SVGID_233_"  style="overflow:visible;"/>
		</clipPath>
		<rect x="-5.1" y="188.3" class="st116" width="40.5" height="45.1"/>
	</g>
</g>
<g>
	<defs>
		<path id="SVGID_235_" d="M26.8,224.4c-3.9,0.2-7.8,0.9-11.5,1.9c-2.7,0.7-5.1,1.7-7.5,3.1c-3.6,2.1-7.1,2.8-11,4
			c-3.2,0.9-5,3.4-6.9,6c-3.2,4.3-4.1,9.5-4,14.8c0,0.9,1.5,1.1,1.5,0.1c-0.1-5.3,0.8-10.3,4.1-14.5c0.8-1,1.6-2.1,2.5-3
			c2-2.2,5.1-2.3,7.9-3.1c5.5-1.6,9.9-5,15.5-6.3c3.2-0.7,6.4-1.2,9.7-1.4C28,225.8,27.7,224.4,26.8,224.4"/>
	</defs>
	<clipPath id="SVGID_236_">
		<use xlink:href="#SVGID_235_"  style="overflow:visible;"/>
	</clipPath>
	<g class="st117">
		<defs>
			<rect id="SVGID_237_" x="1" y="-521" width="1024" height="2615"/>
		</defs>
		<clipPath id="SVGID_238_">
			<use xlink:href="#SVGID_237_"  style="overflow:visible;"/>
		</clipPath>
		<rect x="-19.1" y="219.4" class="st118" width="51.7" height="40.5"/>
	</g>
</g>
<g>
	<defs>
		<path id="SVGID_239_" d="M19.6,241.8c-4.5,0.1-8.9-1.7-13.3-0.8c-5.8,1.2-7.7,6.6-8.3,11.9c-0.1,0.9,1.3,1.3,1.5,0.3
			c0.7-5.8,2.9-10.8,9.4-11c3.6-0.1,7.2,1.1,10.8,1.1C20.6,243.2,20.6,241.8,19.6,241.8"/>
	</defs>
	<clipPath id="SVGID_240_">
		<use xlink:href="#SVGID_239_"  style="overflow:visible;"/>
	</clipPath>
	<g class="st119">
		<defs>
			<rect id="SVGID_241_" x="1" y="-521" width="1024" height="2615"/>
		</defs>
		<clipPath id="SVGID_242_">
			<use xlink:href="#SVGID_241_"  style="overflow:visible;"/>
		</clipPath>
		<rect x="-7" y="235.7" class="st120" width="32.4" height="23"/>
	</g>
</g>
<g>
	<defs>
		<path id="SVGID_243_" d="M-38.7,239.2c1.4,6.7,4.7,15.4,12.6,16.1c7.3,0.6,15.2-0.2,22.4-1.3c4.7-0.7,9.5-1.7,13.9-3.5
			c5.3-2.1,10.1-5.4,12.9-10.5c1.8-3.4,3-7.7,3.7-11.5c1.8-9,1.3-18.8,1-27.9c0-1-1.5-0.7-1.5,0.2c0.4,11.9,0.7,24.4-3.4,35.8
			c-4.9,13.7-22.6,15.9-35.1,16.8c-6.7,0.5-15.8,2.6-20.5-3.4c-2.4-3.1-3.8-7.2-4.6-11C-37.4,238.1-38.9,238.3-38.7,239.2"/>
	</defs>
	<clipPath id="SVGID_244_">
		<use xlink:href="#SVGID_243_"  style="overflow:visible;"/>
	</clipPath>
	<g class="st121">
		<defs>
			<rect id="SVGID_245_" x="1" y="-521" width="1024" height="2615"/>
		</defs>
		<clipPath id="SVGID_246_">
			<use xlink:href="#SVGID_245_"  style="overflow:visible;"/>
		</clipPath>
		<rect x="-43.7" y="195" class="st122" width="76.8" height="65.5"/>
	</g>
</g>
<g>
	<defs>
		<path id="SVGID_247_" d="M33.1,162.3v3.8c0.4-0.2,0.7-0.5,1.1-0.7c-4-1.8-10.1,0.4-13.9,1.4c-1.3,0.3-3.7,1.1-3.7-0.8
			c0-0.9,0.7-1.9,1.1-2.7c0.7-1.4,1.7-2.7,2.7-3.9c0.6-0.7-0.6-1.7-1.2-0.9c-1.5,1.8-6.1,7.4-3.2,9.6c0.8,0.6,1.9,0.6,2.8,0.5
			c2.7-0.3,5.3-1.3,7.9-1.8c2-0.3,5-1,7-0.1c0.5,0.2,1.1-0.2,1.1-0.7v-3.8C34.6,161.2,33.1,161.3,33.1,162.3"/>
	</defs>
	<clipPath id="SVGID_248_">
		<use xlink:href="#SVGID_247_"  style="overflow:visible;"/>
	</clipPath>
	<g class="st123">
		<defs>
			<rect id="SVGID_249_" x="1" y="-521" width="1024" height="2615"/>
		</defs>
		<clipPath id="SVGID_250_">
			<use xlink:href="#SVGID_249_"  style="overflow:visible;"/>
		</clipPath>
		<rect x="9.9" y="153.2" class="st124" width="29.7" height="20.4"/>
	</g>
</g>
<g>
	<line class="st125" x1="17.5" y1="161.8" x2="32.9" y2="160"/>
	<line class="st125" x1="16" y1="164.8" x2="33.8" y2="162.2"/>
	<line class="st125" x1="6.8" y1="241.5" x2="1.9" y2="252.2"/>
	<line class="st125" x1="10.2" y1="241.5" x2="5.4" y2="251.3"/>
	<line class="st125" x1="13.1" y1="242.5" x2="9.7" y2="249.9"/>
	<line class="st125" x1="15.7" y1="242.5" x2="13.1" y2="248.4"/>
	<path class="st125" d="M19.6,202.1c2.4-2.3-8.7,0.2-9.3,2.9C9.8,207.7,9.7,211.6,19.6,202.1z"/>
	<line class="st125" x1="11.7" y1="203.5" x2="13.1" y2="207.5"/>
	<line class="st125" x1="13.8" y1="202.5" x2="15.7" y2="205.7"/>
	<line class="st125" x1="16" y1="202.1" x2="17.4" y2="204.1"/>
</g>
<g>
	<defs>
		<rect id="SVGID_251_" x="966.1" y="230.6" width="97.2" height="91.1"/>
	</defs>
	<clipPath id="SVGID_252_">
		<use xlink:href="#SVGID_251_"  style="overflow:visible;"/>
	</clipPath>
	<g class="st126">
		<defs>
			<rect id="SVGID_253_" x="1" y="-521" width="1024" height="2615"/>
		</defs>
		<clipPath id="SVGID_254_">
			<use xlink:href="#SVGID_253_"  style="overflow:visible;"/>
		</clipPath>
		<g class="st127">
			<g>
				<defs>
					<rect id="SVGID_255_" x="961" y="225" width="105" height="98"/>
				</defs>
				<clipPath id="SVGID_256_">
					<use xlink:href="#SVGID_255_"  style="overflow:visible;"/>
				</clipPath>
				<g class="st128">
					<defs>
						<path id="SVGID_257_" d="M1061.7,263.9c-1-1.5-3-2.5-3.7-4c-0.6-1.3-0.5-3.2-0.9-4.7c-1-3.5-2.9-6.7-5.4-9.4
							c-7-7.4-36-17.3-42.4-12.1c-4.6-7.9-26.3,1.5-29.3,4.3c-1.5,1.4-2.6,3.2-3.1,5.2c-0.5,2.2,0.2,3.3-1.5,4.9
							c-3.5,3.3-6.4,6.1-7.9,10.8c-1.5,4.9-1.1,9.9,0.8,14.6c-7.7,5,6,37,15.3,33.5c-1.2,10.2,23.6,15.3,28.7,14.7
							c1.2-0.1,2.4-0.5,3.4-1.1c1.3-0.7,2.5-2.4,3.8-2.9c1.3-0.4,3.7,0.6,5,0.7c1.7,0.1,3.5,0.1,5.2-0.1
							c12.8-1.7,29.8-33.5,27.3-39.8C1062.7,275.9,1065.2,269.3,1061.7,263.9"/>
					</defs>
					<clipPath id="SVGID_258_">
						<use xlink:href="#SVGID_257_"  style="overflow:visible;"/>
					</clipPath>
					<g class="st129">
						<defs>
							<rect id="SVGID_259_" x="966" y="230" width="59" height="92"/>
						</defs>
						<clipPath id="SVGID_260_">
							<use xlink:href="#SVGID_259_"  style="overflow:visible;"/>
						</clipPath>
						<rect x="961.1" y="225.6" class="st130" width="107.2" height="101.1"/>
					</g>
				</g>
			</g>
		</g>
	</g>
</g>
<g>
	<defs>
		<path id="SVGID_261_" d="M1033.1,271.2c-0.2,9.4-5.6,17.9-14.5,21.4c-9.1,3.6-19.6,0.9-26-6.4c-13.9-16.1,1.1-41.5,21.9-37.4
			c10.9,2.1,18.3,11.7,18.6,22.6c0,1,1.5,0.8,1.5-0.2c-0.2-10.2-6.5-19.5-16.3-22.9c-9.5-3.3-20.3-0.4-26.8,7.2
			c-6.5,7.6-7.6,18.8-2.7,27.6c5.1,9.1,15.7,14.1,26,12.1c11.5-2.2,19.6-12.3,19.8-23.8C1034.6,270.4,1033.1,270.2,1033.1,271.2"/>
	</defs>
	<clipPath id="SVGID_262_">
		<use xlink:href="#SVGID_261_"  style="overflow:visible;"/>
	</clipPath>
	<g class="st131">
		<defs>
			<rect id="SVGID_263_" x="1" y="-521" width="1024" height="2615"/>
		</defs>
		<clipPath id="SVGID_264_">
			<use xlink:href="#SVGID_263_"  style="overflow:visible;"/>
		</clipPath>
		<rect x="980.7" y="241.9" class="st132" width="58.9" height="58.8"/>
	</g>
</g>
<g>
	<defs>
		<rect id="SVGID_265_" x="962.7" y="225.7" width="59.3" height="45.8"/>
	</defs>
	<clipPath id="SVGID_266_">
		<use xlink:href="#SVGID_265_"  style="overflow:visible;"/>
	</clipPath>
	<g class="st133">
		<defs>
			<rect id="SVGID_267_" x="1" y="-521" width="1024" height="2615"/>
		</defs>
		<clipPath id="SVGID_268_">
			<use xlink:href="#SVGID_267_"  style="overflow:visible;"/>
		</clipPath>
		<g class="st134">
			<g>
				<defs>
					<rect id="SVGID_269_" x="961" y="222" width="62" height="50"/>
				</defs>
				<clipPath id="SVGID_270_">
					<use xlink:href="#SVGID_269_"  style="overflow:visible;"/>
				</clipPath>
				<g class="st135">
					<defs>
						<path id="SVGID_271_" d="M1022.1,238.3c-0.5-9.1-10.9-13-17.4-6.8l1.3,0.2c-4.4-9.1-17.5-7.5-19.3,2.6
							c0.4-0.2,0.7-0.4,1.1-0.5c-3.8-1.9-8.3-1.7-11.6,1.2c-1.3,1.2-2.4,2.7-2.9,4.4c-0.7,2.2,0,4.1-1.7,5.7
							c-3.4,3.2-6.2,5.8-7.8,10.4c-1.7,5.1-1.3,10.6,0.9,15.5c0.4,0.9,1.8,0.4,1.4-0.5c-4.2-9.5-0.9-20,8.1-25.3
							c0.2-0.1,0.4-0.4,0.3-0.7c-1.3-7.4,5.7-12.8,12.5-9.5c0.4,0.2,1-0.1,1.1-0.5c1.5-8.5,12.6-10.3,16.4-2.3
							c0.3,0.5,0.8,0.7,1.3,0.2c5.7-5.4,14.4-1.7,14.8,5.9C1020.6,239.3,1022.1,239.2,1022.1,238.3"/>
					</defs>
					<clipPath id="SVGID_272_">
						<use xlink:href="#SVGID_271_"  style="overflow:visible;"/>
					</clipPath>
					<g class="st136">
						<defs>
							<rect id="SVGID_273_" x="962" y="225" width="61" height="47"/>
						</defs>
						<clipPath id="SVGID_274_">
							<use xlink:href="#SVGID_273_"  style="overflow:visible;"/>
						</clipPath>
						<rect x="957.7" y="220.7" class="st137" width="69.3" height="55.8"/>
					</g>
				</g>
			</g>
		</g>
	</g>
</g>
<g>
	<defs>
		<path id="SVGID_275_" d="M1022.3,291.8c5.5,6.4,15.3,4.1,17.7-3.9c-0.4,0.2-0.7,0.3-1.1,0.5c9.1,4.7,18.3-4.2,14.1-13.4
			c-0.1,0.4-0.3,0.7-0.4,1.1c5.9-2.3,9-9.3,5.3-14.9c-0.8-1.3-2.3-2-3.2-3.1c-1-1.4-0.9-3.5-1.3-5.1c-0.9-3.4-2.7-6.7-5-9.3
			c-10.6-12-29.7-9.7-37.9,3.7c-0.5,0.8,0.8,1.5,1.3,0.7c7.2-11.7,23.5-14.6,33.8-5.1c2.1,1.9,3.8,4.3,5,6.9c0.7,1.4,1.2,3,1.5,4.5
			c0.2,1-0.1,3.2,0.5,4c0.4,0.6,0.5,0.3,1.3,0.9c1.8,1.4,3.2,3,3.7,5.3c1,4.4-1.5,8.4-5.6,10c-0.5,0.2-0.7,0.6-0.4,1.1
			c3.7,7.9-4.4,15.3-12,11.3c-0.4-0.2-1,0-1.1,0.5c-2.1,7-10.4,8.7-15.2,3.2C1022.7,290,1021.7,291,1022.3,291.8"/>
	</defs>
	<clipPath id="SVGID_276_">
		<use xlink:href="#SVGID_275_"  style="overflow:visible;"/>
	</clipPath>
	<g class="st138">
		<defs>
			<rect id="SVGID_277_" x="1" y="-521" width="1024" height="2615"/>
		</defs>
		<clipPath id="SVGID_278_">
			<use xlink:href="#SVGID_277_"  style="overflow:visible;"/>
		</clipPath>
		<rect x="1005.4" y="230.7" class="st139" width="59" height="69.7"/>
	</g>
</g>
<g>
	<defs>
		<rect id="SVGID_279_" x="960" y="268.3" width="86.2" height="50.5"/>
	</defs>
	<clipPath id="SVGID_280_">
		<use xlink:href="#SVGID_279_"  style="overflow:visible;"/>
	</clipPath>
	<g class="st140">
		<defs>
			<rect id="SVGID_281_" x="1" y="-521" width="1024" height="2615"/>
		</defs>
		<clipPath id="SVGID_282_">
			<use xlink:href="#SVGID_281_"  style="overflow:visible;"/>
		</clipPath>
		<g class="st141">
			<g>
				<defs>
					<rect id="SVGID_283_" x="956" y="266" width="92" height="55"/>
				</defs>
				<clipPath id="SVGID_284_">
					<use xlink:href="#SVGID_283_"  style="overflow:visible;"/>
				</clipPath>
				<g class="st142">
					<defs>
						<path id="SVGID_285_" d="M1044.5,289c2,16.3-13.3,28.9-29,23.9c-0.3-0.1-0.7,0-0.9,0.2c-4.6,6.7-14.5,4.6-15.9-3.5
							c-0.1-0.6-1-0.9-1.3-0.3c-5.2,9-18.2,3.6-15.9-6.4c0.1-0.5-0.6-1-1-0.8c-8.9,4.5-17.1-6-10.5-13.4c0.4-0.4,0-1.1-0.5-1.2
							c-9-1-10.9-13-2.8-16.5c6.4-2.8,13.7-0.3,19.2,3.3c0.8,0.5,1.7-0.7,0.9-1.2c-6.2-3.9-14.9-6.9-21.8-2.9
							c-8.7,5-5.2,17.7,4.4,18.8c-0.2-0.4-0.3-0.8-0.5-1.2c-7.6,8.6,2.1,20.8,12.3,15.7c-0.3-0.3-0.7-0.5-1-0.8
							c-2.6,11.5,12.6,17.8,18.6,7.5c-0.4-0.1-0.9-0.2-1.3-0.3c0.9,5.4,5.5,9.5,11.2,8.8c1.5-0.2,2.9-0.7,4.2-1.5
							c1-0.6,2-2.1,3.1-2.5c1.1-0.3,3.9,0.6,5,0.7c1.7,0.1,3.5,0.1,5.2-0.1c13-1.7,21.6-13.9,20-26.6
							C1045.9,287.9,1044.4,288.1,1044.5,289"/>
					</defs>
					<clipPath id="SVGID_286_">
						<use xlink:href="#SVGID_285_"  style="overflow:visible;"/>
					</clipPath>
					<g class="st143">
						<defs>
							<rect id="SVGID_287_" x="960" y="268" width="65" height="51"/>
						</defs>
						<clipPath id="SVGID_288_">
							<use xlink:href="#SVGID_287_"  style="overflow:visible;"/>
						</clipPath>
						<rect x="955" y="263.3" class="st144" width="96.2" height="60.5"/>
					</g>
				</g>
			</g>
		</g>
	</g>
</g>
<g>
	<defs>
		<path id="SVGID_289_" d="M993.3,255.2c18.8,2.7,23.3,28,6.4,36.9c-0.9,0.4-0.2,1.8,0.7,1.3c8.5-4.5,13.2-14,11-23.5
			c-2-8.8-9.3-14.9-18.1-16.2C992.5,253.6,992.4,255.1,993.3,255.2"/>
	</defs>
	<clipPath id="SVGID_290_">
		<use xlink:href="#SVGID_289_"  style="overflow:visible;"/>
	</clipPath>
	<g class="st145">
		<defs>
			<rect id="SVGID_291_" x="1" y="-521" width="1024" height="2615"/>
		</defs>
		<clipPath id="SVGID_292_">
			<use xlink:href="#SVGID_291_"  style="overflow:visible;"/>
		</clipPath>
		<rect x="987.7" y="248.7" class="st146" width="29.4" height="49.8"/>
	</g>
</g>
<g>
	<defs>
		<path id="SVGID_293_" d="M1011.5,270.9c6.5-4.3,14-5.5,21.6-3.5c0.9,0.2,1.4-1.2,0.4-1.4c-7.9-2.1-15.9-0.8-22.8,3.7
			C1010,270.1,1010.7,271.4,1011.5,270.9"/>
	</defs>
	<clipPath id="SVGID_294_">
		<use xlink:href="#SVGID_293_"  style="overflow:visible;"/>
	</clipPath>
	<g class="st147">
		<defs>
			<rect id="SVGID_295_" x="1" y="-521" width="1024" height="2615"/>
		</defs>
		<clipPath id="SVGID_296_">
			<use xlink:href="#SVGID_295_"  style="overflow:visible;"/>
		</clipPath>
		<rect x="1005.5" y="259.9" class="st148" width="33.6" height="16.1"/>
	</g>
</g>
<g>
	<defs>
		<path id="SVGID_297_" d="M1016,313.9c1-2.7,1.5-5.6,1.5-8.4c0-1-1.5-1.1-1.5-0.1c0,2.7-0.4,5.5-1.4,8
			C1014.2,314.2,1015.6,314.7,1016,313.9"/>
	</defs>
	<clipPath id="SVGID_298_">
		<use xlink:href="#SVGID_297_"  style="overflow:visible;"/>
	</clipPath>
	<g class="st149">
		<defs>
			<rect id="SVGID_299_" x="1" y="-521" width="1024" height="2615"/>
		</defs>
		<clipPath id="SVGID_300_">
			<use xlink:href="#SVGID_299_"  style="overflow:visible;"/>
		</clipPath>
		<rect x="1009.5" y="299.6" class="st150" width="13" height="19.7"/>
	</g>
</g>
<g>
	<defs>
		<path id="SVGID_301_" d="M1019.9,158.7l0.2-0.2c1.3-1.1,1.6-2.9,0.8-4.3c-6.3-11.9-16.4-18.5-20-20.6c0-1-3-5.4-4.7-5.9
			c-9.1-2.6-18.7-2.7-19.1-2.7h0c-11.2,0-23.8,7.6-23.8,8.6c-3.6,2.1-13.7,8.7-20,20.6c-0.8,1.5-0.4,3.2,0.8,4.3l0.2,0.2
			c-0.9,2.2-4,10-3.3,17.3c0.2,1.9,1.7,3.5,3.8,3.9c0.4,0.1,0.8,0.1,1.1,0.1c1.7,0,3.3-0.8,4.2-2.2c2.1-3.2,8.6-7.1,9.4-7.1
			c0.9,0,1.9-0.3,2.7-0.8c2.3-1.7,13.8-2.9,15.4-2.9h19.1c1.6,0,13.1,1.2,15.4,2.9c0.8,0.6,1.7,0.8,2.7,0.8c0.8,0,7.4,3.9,9.4,7.1
			c0.9,1.4,2.5,2.2,4.2,2.2c0.4,0,0.8,0,1.1-0.1c2.1-0.4,3.6-2,3.8-3.9C1023.9,168.7,1020.9,160.9,1019.9,158.7"/>
	</defs>
	<clipPath id="SVGID_302_">
		<use xlink:href="#SVGID_301_"  style="overflow:visible;"/>
	</clipPath>
	<g class="st151">
		<defs>
			<rect id="SVGID_303_" x="1" y="-521" width="1024" height="2615"/>
		</defs>
		<clipPath id="SVGID_304_">
			<use xlink:href="#SVGID_303_"  style="overflow:visible;"/>
		</clipPath>
		<rect x="925.9" y="120.1" class="st152" width="102.5" height="65"/>
	</g>
</g>
<g>
	<defs>
		<path id="SVGID_305_" d="M958.6,133.6h2.6c1,0,0.9-1.5-0.1-1.5h-2.6C957.6,132.1,957.7,133.6,958.6,133.6"/>
	</defs>
	<clipPath id="SVGID_306_">
		<use xlink:href="#SVGID_305_"  style="overflow:visible;"/>
	</clipPath>
	<g class="st153">
		<defs>
			<rect id="SVGID_307_" x="1" y="-521" width="1024" height="2615"/>
		</defs>
		<clipPath id="SVGID_308_">
			<use xlink:href="#SVGID_307_"  style="overflow:visible;"/>
		</clipPath>
		<rect x="952.9" y="127.1" class="st154" width="14.1" height="11.5"/>
	</g>
</g>
<g>
	<defs>
		<path id="SVGID_309_" d="M965.9,140.7h2.6c1,0,0.9-1.5-0.1-1.5h-2.6C964.9,139.2,964.9,140.7,965.9,140.7"/>
	</defs>
	<clipPath id="SVGID_310_">
		<use xlink:href="#SVGID_309_"  style="overflow:visible;"/>
	</clipPath>
	<g class="st155">
		<defs>
			<rect id="SVGID_311_" x="1" y="-521" width="1024" height="2615"/>
		</defs>
		<clipPath id="SVGID_312_">
			<use xlink:href="#SVGID_311_"  style="overflow:visible;"/>
		</clipPath>
		<rect x="960.1" y="134.2" class="st156" width="14.1" height="11.5"/>
	</g>
</g>
<g>
	<defs>
		<path id="SVGID_313_" d="M976,132.1h-2.6c-1,0-0.9,1.5,0,1.5h2.6C977,133.6,977,132.1,976,132.1"/>
	</defs>
	<clipPath id="SVGID_314_">
		<use xlink:href="#SVGID_313_"  style="overflow:visible;"/>
	</clipPath>
	<g class="st157">
		<defs>
			<rect id="SVGID_315_" x="1" y="-521" width="1024" height="2615"/>
		</defs>
		<clipPath id="SVGID_316_">
			<use xlink:href="#SVGID_315_"  style="overflow:visible;"/>
		</clipPath>
		<rect x="967.7" y="127.1" class="st158" width="14.1" height="11.5"/>
	</g>
</g>
<g>
	<defs>
		<path id="SVGID_317_" d="M980.6,140.7h2.6c1,0,1-1.5,0.1-1.5h-2.6C979.7,139.2,979.6,140.7,980.6,140.7"/>
	</defs>
	<clipPath id="SVGID_318_">
		<use xlink:href="#SVGID_317_"  style="overflow:visible;"/>
	</clipPath>
	<g class="st159">
		<defs>
			<rect id="SVGID_319_" x="1" y="-521" width="1024" height="2615"/>
		</defs>
		<clipPath id="SVGID_320_">
			<use xlink:href="#SVGID_319_"  style="overflow:visible;"/>
		</clipPath>
		<rect x="974.9" y="134.2" class="st160" width="14.1" height="11.5"/>
	</g>
</g>
<g>
	<defs>
		<path id="SVGID_321_" d="M990.8,132.1h-2.6c-1,0-1,1.5,0,1.5h2.6C991.8,133.6,991.8,132.1,990.8,132.1"/>
	</defs>
	<clipPath id="SVGID_322_">
		<use xlink:href="#SVGID_321_"  style="overflow:visible;"/>
	</clipPath>
	<g class="st161">
		<defs>
			<rect id="SVGID_323_" x="1" y="-521" width="1024" height="2615"/>
		</defs>
		<clipPath id="SVGID_324_">
			<use xlink:href="#SVGID_323_"  style="overflow:visible;"/>
		</clipPath>
		<rect x="982.5" y="127.1" class="st162" width="14.1" height="11.5"/>
	</g>
</g>
<g>
	<defs>
		<path id="SVGID_325_" d="M949.6,131.6c-5.4,3.4-10.2,7.8-14.3,12.7c-1.6,2-3.2,4.1-4.5,6.3c-1.2,1.9-3,4.3-3.3,6.5
			c-0.3,2.1,0.8,3.3,2.1,4.7c3.9,4,7.8,8,11.8,11.8c1.8,1.7,3.7,2.2,5.9,0.9c4.7-2.7,8.5-6.1,13.8-8c0.9-0.3,0.3-1.7-0.6-1.4
			c-4.1,1.4-7.8,3.6-11.3,6.1c-1.8,1.3-3.9,3.2-6.5,1.6c-0.5-0.3-1-1-1.5-1.5c-3.5-3.4-6.9-6.9-10.4-10.3c-0.3-0.3-0.9-0.7-1.1-1.1
			c-1.5-2.7,0.2-5.1,1.5-7.4c2-3.5,4.4-6.7,7.1-9.7c3.5-3.9,7.5-7.4,12-10.1C951.3,132.3,950.4,131.1,949.6,131.6"/>
	</defs>
	<clipPath id="SVGID_326_">
		<use xlink:href="#SVGID_325_"  style="overflow:visible;"/>
	</clipPath>
	<g class="st163">
		<defs>
			<rect id="SVGID_327_" x="1" y="-521" width="1024" height="2615"/>
		</defs>
		<clipPath id="SVGID_328_">
			<use xlink:href="#SVGID_327_"  style="overflow:visible;"/>
		</clipPath>
		<rect x="922.5" y="126.5" class="st164" width="44.2" height="53.7"/>
	</g>
</g>
<g>
	<defs>
		<rect id="SVGID_329_" x="949.5" y="121.7" width="50.4" height="49.5"/>
	</defs>
	<clipPath id="SVGID_330_">
		<use xlink:href="#SVGID_329_"  style="overflow:visible;"/>
	</clipPath>
	<g class="st165">
		<defs>
			<rect id="SVGID_331_" x="1" y="-521" width="1024" height="2615"/>
		</defs>
		<clipPath id="SVGID_332_">
			<use xlink:href="#SVGID_331_"  style="overflow:visible;"/>
		</clipPath>
		<g class="st166">
			<g>
				<defs>
					<rect id="SVGID_333_" x="948" y="121" width="54" height="52"/>
				</defs>
				<clipPath id="SVGID_334_">
					<use xlink:href="#SVGID_333_"  style="overflow:visible;"/>
				</clipPath>
				<g class="st167">
					<defs>
						<path id="SVGID_335_" d="M974.6,121.7c-3.1,0-6.1,0.3-9.1,0.8c-4.1,0.6-10.8,1-14,4c-3.4,3.3-1.6,7.5-0.4,11.3
							c1.9,6,3.9,12.1,5.8,18.1c1.3,4,2.2,8.6,4,12.5c1.9,4.2,9.4,2.5,13.1,2.5h5.9c2,0,5.3,0.6,7.1-0.7c2.5-1.7,3.2-7.5,4-10.1
							c2-6.3,4-12.5,6-18.8c1.2-3.8,4.1-9.2,2-13.1c-2.4-4.5-9.6-4.9-14.1-5.6C981.6,122.1,978.1,121.8,974.6,121.7
							c-1,0-0.8,1.5,0.2,1.5c2.6,0,5.2,0.3,7.8,0.6c4.6,0.6,14,0.9,15.6,6c1,3.2-1.5,8-2.4,10.9c-1.7,5.3-3.4,10.6-5.1,15.9
							c-1.1,3.4-1.8,7.7-3.5,10.9c-1.8,3.3-8.8,1.9-12,1.9h-3.9c-2.5,0-7.4,1-8.9-1.5c-1.3-2.2-1.8-5.6-2.6-8
							c-1.7-5.4-3.5-10.8-5.2-16.3c-1.1-3.4-2.6-7-3.4-10.5c-1.6-7.8,9-8.4,14.5-9.2c3-0.4,6.1-0.7,9.1-0.8
							C975.7,123.2,975.6,121.7,974.6,121.7"/>
					</defs>
					<clipPath id="SVGID_336_">
						<use xlink:href="#SVGID_335_"  style="overflow:visible;"/>
					</clipPath>
					<g class="st168">
						<defs>
							<rect id="SVGID_337_" x="949" y="121" width="51" height="51"/>
						</defs>
						<clipPath id="SVGID_338_">
							<use xlink:href="#SVGID_337_"  style="overflow:visible;"/>
						</clipPath>
						<rect x="944.5" y="116.7" class="st169" width="60.4" height="59.5"/>
					</g>
				</g>
			</g>
		</g>
	</g>
</g>
<g>
	<defs>
		<path id="SVGID_339_" d="M929.2,160.8c-1.2,2.9-2.1,5.9-2.8,8.9c-0.9,3.8-2.5,10.4-0.6,14c1.2,2.3,4.2,3.3,6.5,2.1
			c1.6-0.8,2.2-2.3,3.2-3.7c2-3.1,4.4-5.8,7.2-8.1c0.7-0.6-0.1-1.8-0.9-1.2c-2.9,2.4-5.3,5.2-7.5,8.4c-1.2,1.8-2.1,3.7-4.6,3.5
			c-3.4-0.3-3.1-4.1-3-6.6c0.2-5.7,1.6-11.5,3.8-16.7C931,160.5,929.6,159.9,929.2,160.8"/>
	</defs>
	<clipPath id="SVGID_340_">
		<use xlink:href="#SVGID_339_"  style="overflow:visible;"/>
	</clipPath>
	<g class="st170">
		<defs>
			<rect id="SVGID_341_" x="1" y="-521" width="1024" height="2615"/>
		</defs>
		<clipPath id="SVGID_342_">
			<use xlink:href="#SVGID_341_"  style="overflow:visible;"/>
		</clipPath>
		<rect x="920" y="155.3" class="st171" width="28.1" height="36"/>
	</g>
</g>
<g>
	<defs>
		<path id="SVGID_343_" d="M998.9,132.8c4.3,2.7,8.2,6.1,11.7,9.8c2.8,3.1,5.4,6.4,7.5,10c1.8,3,3.1,5.8,0.4,8.5
			c-3.4,3.4-6.8,6.8-10.2,10.2c-0.5,0.5-1,1.3-1.6,1.6c-1.8,1-4.5-0.2-6-1.3c-3.6-2.6-7.5-4.9-11.7-6.4c-0.9-0.3-1.5,1-0.6,1.4
			c5.3,1.8,9.1,5.1,13.8,8c2.2,1.3,4.1,0.8,5.9-0.9c4.1-3.7,8-7.8,11.8-11.8c1.3-1.3,2.4-2.6,2.1-4.6c-0.3-2.1-2.2-4.7-3.3-6.5
			c-1.4-2.2-2.9-4.3-4.5-6.3c-4-4.9-8.8-9.4-14.3-12.7C999,131.1,998,132.3,998.9,132.8"/>
	</defs>
	<clipPath id="SVGID_344_">
		<use xlink:href="#SVGID_343_"  style="overflow:visible;"/>
	</clipPath>
	<g class="st172">
		<defs>
			<rect id="SVGID_345_" x="1" y="-521" width="1024" height="2615"/>
		</defs>
		<clipPath id="SVGID_346_">
			<use xlink:href="#SVGID_345_"  style="overflow:visible;"/>
		</clipPath>
		<rect x="982.7" y="126.5" class="st173" width="44.2" height="53.7"/>
	</g>
</g>
<g>
	<defs>
		<rect id="SVGID_347_" x="1006.3" y="160.3" width="18.1" height="26"/>
	</defs>
	<clipPath id="SVGID_348_">
		<use xlink:href="#SVGID_347_"  style="overflow:visible;"/>
	</clipPath>
	<g class="st174">
		<defs>
			<rect id="SVGID_349_" x="1" y="-521" width="1024" height="2615"/>
		</defs>
		<clipPath id="SVGID_350_">
			<use xlink:href="#SVGID_349_"  style="overflow:visible;"/>
		</clipPath>
		<g class="st175">
			<g>
				<defs>
					<rect id="SVGID_351_" x="1005" y="159" width="21" height="28"/>
				</defs>
				<clipPath id="SVGID_352_">
					<use xlink:href="#SVGID_351_"  style="overflow:visible;"/>
				</clipPath>
				<g class="st176">
					<defs>
						<path id="SVGID_353_" d="M1018.8,161.4c2.1,5.1,3.5,10.7,3.8,16.2c0.1,2.3,0.5,5.9-2.1,7c-2.8,1.1-4.2-1.5-5.5-3.4
							c-2.2-3.1-4.6-5.9-7.5-8.4c-0.7-0.6-1.6,0.6-0.9,1.2c2.8,2.3,5.2,5.1,7.2,8.1c0.9,1.4,1.6,2.9,3.2,3.7
							c2.3,1.1,5.3,0.2,6.5-2.1c1.9-3.7,0.3-10.3-0.6-14c-0.7-3-1.6-6.1-2.8-8.9C1019.8,159.9,1018.4,160.5,1018.8,161.4"/>
					</defs>
					<clipPath id="SVGID_354_">
						<use xlink:href="#SVGID_353_"  style="overflow:visible;"/>
					</clipPath>
					<g class="st177">
						<defs>
							<rect id="SVGID_355_" x="1006" y="160" width="19" height="27"/>
						</defs>
						<clipPath id="SVGID_356_">
							<use xlink:href="#SVGID_355_"  style="overflow:visible;"/>
						</clipPath>
						<rect x="1001.3" y="155.3" class="st178" width="28.1" height="36"/>
					</g>
				</g>
			</g>
		</g>
	</g>
</g>
<g>
	<defs>
		<path id="SVGID_357_" d="M1027.6,37.1c-0.9-2.9-4-4.5-6.8-3.6l0,0c0,0-0.2,0.1-0.5,0.2c0,0,0,0-0.1,0c-0.1,0-0.2,0.1-0.3,0.1
			c-0.1,0.1-0.2,0.1-0.3,0.2c-0.1,0.1-0.2,0.1-0.2,0.2c0,0,0,0,0,0c-0.4,0.3-0.9,1.1-1.4,2.3l-1.9-3.3c-1.1-3.2-4.3-5.1-7.4-4.5
			c-1.3-2-3.8-3-6.1-2.2c-2.3,0.8-3.7,3-3.6,5.4c-2.9,1.3-4.4,4.8-3.4,8l-0.1,2.9c-0.8-0.2-1.4-0.2-2-0.2c0,0,0,0-0.1,0
			c-0.1,0-0.2,0-0.3,0c-0.1,0-0.2,0-0.4,0c-0.1,0-0.2,0-0.3,0.1c0,0,0,0-0.1,0c-0.3,0.1-0.5,0.1-0.5,0.1c-2.8,0.9-4.3,4-3.3,6.9
			c0.7,2.2,2.6,3.6,4.6,3.8c0,0.4,0.1,0.7,0.2,1.1c0.7,2.1,2.9,3.3,5,2.7c0.6-0.2,3.2,2.2,6,4.9c-1.5,2.7-1.6,6.2-0.1,9.4
			c3.2,6.3,9.3,17.2,19.4,28.1c1.8,2,4.8,1,5.1-1.7c1.6-14.8,0.2-27.1-1-34.1c-0.8-4.9-4.9-8.5-9.3-8.2c-0.1,0-0.1,0-0.2,0
			c-0.3,0-0.5,0-0.7,0.1c1.4-4.1,2.7-7.8,2.7-7.8c1,1,2.5,1.4,3.9,0.9c2.1-0.7,3.2-3,2.5-5.1c-0.1-0.4-0.3-0.7-0.5-1
			C1027.6,41.6,1028.3,39.3,1027.6,37.1 M1007.4,58.8l0.5,0.3c-0.1,0.1-0.2,0.1-0.3,0.2C1007.6,59.1,1007.5,58.9,1007.4,58.8"/>
	</defs>
	<clipPath id="SVGID_358_">
		<use xlink:href="#SVGID_357_"  style="overflow:visible;"/>
	</clipPath>
	<g class="st179">
		<defs>
			<rect id="SVGID_359_" x="1" y="-521" width="1024" height="2615"/>
		</defs>
		<clipPath id="SVGID_360_">
			<use xlink:href="#SVGID_359_"  style="overflow:visible;"/>
		</clipPath>
		<rect x="989.9" y="19.5" transform="matrix(0.9397 -0.342 0.342 0.9397 39.525 351.1112)" class="st180" width="51" height="88"/>
	</g>
</g>
<g>
	<defs>
		<path id="SVGID_361_" d="M1023,102c1.9,1.5,4.7,1.5,6-0.8c1-1.8,0.7-4.4,0.8-6.4c0.1-2.5,0.2-5,0.2-7.5c0-5-0.3-10-1-14.9
			c-0.4-3.3-0.7-7.1-1.9-10.3c-3.5-9-13.7-7.4-20.7-3.6c-7.1,3.9-7.7,10.5-3.9,17.1c5.6,9.6,12.4,18.4,20.3,26.3
			c0.6,0.6,1.6-0.2,1-0.8c-6.8-6.8-12.8-14.2-17.9-22.4c-2.1-3.4-5-7.2-4.6-11.3c0.4-5.8,6-8.5,10.9-9.9c5.2-1.5,10.7-1.2,13.4,4.3
			c1.5,3.1,1.7,7.3,2.1,10.8c0.5,4.4,0.9,8.9,0.9,13.3c0,2.9,0,5.9-0.2,8.8c-0.1,2.5-0.4,9.9-4.8,6.3
			C1023.1,100.5,1022.4,101.5,1023,102"/>
	</defs>
	<clipPath id="SVGID_362_">
		<use xlink:href="#SVGID_361_"  style="overflow:visible;"/>
	</clipPath>
	<g class="st181">
		<defs>
			<rect id="SVGID_363_" x="1" y="-521" width="1024" height="2615"/>
		</defs>
		<clipPath id="SVGID_364_">
			<use xlink:href="#SVGID_363_"  style="overflow:visible;"/>
		</clipPath>
		
			<rect x="999.7" y="50.3" transform="matrix(0.9397 -0.342 0.342 0.9397 34.1281 353.2245)" class="st182" width="38" height="59"/>
	</g>
</g>
<g>
	<defs>
		<path id="SVGID_365_" d="M1025,61l-8.3,3c-0.7,0.3-0.4,1.2,0.3,1l8.3-3C1026.1,61.7,1025.8,60.8,1025,61"/>
	</defs>
	<clipPath id="SVGID_366_">
		<use xlink:href="#SVGID_365_"  style="overflow:visible;"/>
	</clipPath>
	<g class="st183">
		<defs>
			<rect id="SVGID_367_" x="1" y="-521" width="1024" height="2615"/>
		</defs>
		<clipPath id="SVGID_368_">
			<use xlink:href="#SVGID_367_"  style="overflow:visible;"/>
		</clipPath>
		
			<rect x="1011.1" y="57.5" transform="matrix(0.9397 -0.342 0.342 0.9397 40.0325 353.0382)" class="st184" width="20" height="11"/>
	</g>
</g>
<g>
	<defs>
		<path id="SVGID_369_" d="M1027.3,64.5l-4.5,1.6c-0.8,0.3-0.4,1.2,0.4,0.9l4.5-1.6C1028.4,65.1,1028.1,64.2,1027.3,64.5"/>
	</defs>
	<clipPath id="SVGID_370_">
		<use xlink:href="#SVGID_369_"  style="overflow:visible;"/>
	</clipPath>
	<g class="st185">
		<defs>
			<rect id="SVGID_371_" x="1" y="-521" width="1024" height="2615"/>
		</defs>
		<clipPath id="SVGID_372_">
			<use xlink:href="#SVGID_371_"  style="overflow:visible;"/>
		</clipPath>
		
			<rect x="1017.2" y="60.2" transform="matrix(0.9397 -0.342 0.342 0.9397 39.3462 354.6209)" class="st186" width="16" height="11"/>
	</g>
</g>
<g>
	<defs>
		<path id="SVGID_373_" d="M1009.7,85.8l8.3-3c0.7-0.3,0.5-1.3-0.2-1l-8.3,3C1008.7,85,1008.9,86,1009.7,85.8"/>
	</defs>
	<clipPath id="SVGID_374_">
		<use xlink:href="#SVGID_373_"  style="overflow:visible;"/>
	</clipPath>
	<g class="st187">
		<defs>
			<rect id="SVGID_375_" x="1" y="-521" width="1024" height="2615"/>
		</defs>
		<clipPath id="SVGID_376_">
			<use xlink:href="#SVGID_375_"  style="overflow:visible;"/>
		</clipPath>
		
			<rect x="1003.7" y="78.3" transform="matrix(0.9397 -0.342 0.342 0.9397 32.4828 351.7602)" class="st188" width="20" height="11"/>
	</g>
</g>
<g>
	<defs>
		<path id="SVGID_377_" d="M1012.4,90.1l4.5-1.6c0.8-0.3,0.4-1.2-0.4-0.9l-4.5,1.6C1011.3,89.4,1011.7,90.4,1012.4,90.1"/>
	</defs>
	<clipPath id="SVGID_378_">
		<use xlink:href="#SVGID_377_"  style="overflow:visible;"/>
	</clipPath>
	<g class="st189">
		<defs>
			<rect id="SVGID_379_" x="1" y="-521" width="1024" height="2615"/>
		</defs>
		<clipPath id="SVGID_380_">
			<use xlink:href="#SVGID_379_"  style="overflow:visible;"/>
		</clipPath>
		
			<rect x="1006.5" y="83.3" transform="matrix(0.9397 -0.342 0.342 0.9397 30.8062 352.3311)" class="st190" width="16" height="11"/>
	</g>
</g>
<g>
	<defs>
		
			<rect id="SVGID_381_" x="984" y="41.4" transform="matrix(0.9397 -0.342 0.342 0.9397 42.7947 342.7904)" width="18.9" height="17.4"/>
	</defs>
	<clipPath id="SVGID_382_">
		<use xlink:href="#SVGID_381_"  style="overflow:visible;"/>
	</clipPath>
	<g class="st191">
		<defs>
			<rect id="SVGID_383_" x="1" y="-521" width="1024" height="2615"/>
		</defs>
		<clipPath id="SVGID_384_">
			<use xlink:href="#SVGID_383_"  style="overflow:visible;"/>
		</clipPath>
		<g class="st192">
			<g>
				<defs>
					<rect id="SVGID_385_" x="980" y="42" width="26" height="18"/>
				</defs>
				<clipPath id="SVGID_386_">
					<use xlink:href="#SVGID_385_"  style="overflow:visible;"/>
				</clipPath>
				<g class="st193">
					<defs>
						<path id="SVGID_387_" d="M989.5,42.5c-6.2,0.6-8.6,8.9-2.8,11.9c1,0.5,1.6,0.5,2.3,1.4c0.4,0.5,0.6,1.2,1,1.7
							c1.1,1.1,2.7,1.7,4.3,1.4c2-0.3,2.8-1.5,3.8-3c0.5-0.7,0-0.6,1.2-1.1c1.6-0.6,3.4-0.3,4.9,0.3c0.5,0.2,0.9-0.5,0.7-0.9
							C1001.7,48.6,996.8,42,989.5,42.5c-0.8,0.1-0.8,1.3,0,1.2c6.8-0.4,11.4,5.9,14.3,11c0.2-0.3,0.5-0.6,0.7-0.9
							c-1.9-0.7-4.4-1-6.3,0.1c-0.3,0.2-0.6,0.3-0.9,0.5c-0.5,0.5-0.6,1.8-1.2,2.2l-3.4,0.9c-1.7-0.5-2.6-1.7-2.7-3.3
							c0-0.2-0.2-0.4-0.5-0.4c-6.4-0.8-6.2-9.6,0-10.1C990.3,43.6,990.3,42.4,989.5,42.5"/>
					</defs>
					<clipPath id="SVGID_388_">
						<use xlink:href="#SVGID_387_"  style="overflow:visible;"/>
					</clipPath>
					<g class="st194">
						<defs>
							<rect id="SVGID_389_" x="981" y="38" width="25" height="24"/>
						</defs>
						<clipPath id="SVGID_390_">
							<use xlink:href="#SVGID_389_"  style="overflow:visible;"/>
						</clipPath>
						
							<rect x="979" y="36.4" transform="matrix(0.9397 -0.342 0.342 0.9397 42.7913 342.7795)" class="st195" width="28.9" height="27.4"/>
					</g>
				</g>
			</g>
		</g>
	</g>
</g>
<g>
	<defs>
		<path id="SVGID_391_" d="M1017.6,33.4c5-3.5,11.3,2.9,6.8,7.9c-0.2,0.2-0.3,0.5-0.1,0.8c1.4,2.6,0,6.9-4,5.7
			c-0.5-0.1-1-0.8-1.6-0.9c-0.4-0.1-0.8,0.1-1.3,0.2c-2.2,0.6-3.7,2.2-4.8,4.1c0.4,0.1,0.8,0.1,1.2,0.2c-1.1-6-1.7-14.1,3.8-18.2
			c0.7-0.5-0.2-1.4-0.9-0.9c-5.9,4.4-5.4,12.9-4.2,19.4c0.1,0.5,0.9,0.7,1.2,0.2c0.8-1.4,1.8-2.6,3.3-3.3c1.4-0.7,0.9-0.3,1.9,0
			c1.8,0.5,3.1,0.9,4.9-0.1c1.3-0.8,2.1-2.1,2.3-3.6c0.1-0.9-0.2-1.5-0.2-2.4c0-1.3,0.3-1.2,0.8-2.6c2.5-6.1-4.6-11.4-9.8-7.8
			C1016.4,32.7,1017,33.9,1017.6,33.4"/>
	</defs>
	<clipPath id="SVGID_392_">
		<use xlink:href="#SVGID_391_"  style="overflow:visible;"/>
	</clipPath>
	<g class="st196">
		<defs>
			<rect id="SVGID_393_" x="1" y="-521" width="1024" height="2615"/>
		</defs>
		<clipPath id="SVGID_394_">
			<use xlink:href="#SVGID_393_"  style="overflow:visible;"/>
		</clipPath>
		
			<rect x="1004.4" y="26.9" transform="matrix(0.9397 -0.342 0.342 0.9397 47.4487 350.9409)" class="st197" width="29" height="28"/>
	</g>
</g>
<g>
	<defs>
		<path id="SVGID_395_" d="M995,51.9c1.7,0.5,2.5,1.9,2.2,3.5c-0.1,0.8,1.3,0.7,1.4-0.1c0.3-2.2-1-4-3.3-4.7
			C994.5,50.5,994.1,51.7,995,51.9"/>
	</defs>
	<clipPath id="SVGID_396_">
		<use xlink:href="#SVGID_395_"  style="overflow:visible;"/>
	</clipPath>
	<g class="st198">
		<defs>
			<rect id="SVGID_397_" x="1" y="-521" width="1024" height="2615"/>
		</defs>
		<clipPath id="SVGID_398_">
			<use xlink:href="#SVGID_397_"  style="overflow:visible;"/>
		</clipPath>
		
			<rect x="990.2" y="45.2" transform="matrix(0.9397 -0.342 0.342 0.9397 41.9042 344.1156)" class="st199" width="13" height="16"/>
	</g>
</g>
<g>
	<defs>
		
			<rect id="SVGID_399_" x="988.4" y="25.2" transform="matrix(0.9397 -0.342 0.342 0.9397 49.6706 344.0894)" width="24.3" height="12"/>
	</defs>
	<clipPath id="SVGID_400_">
		<use xlink:href="#SVGID_399_"  style="overflow:visible;"/>
	</clipPath>
	<g class="st200">
		<defs>
			<rect id="SVGID_401_" x="1" y="-521" width="1024" height="2615"/>
		</defs>
		<clipPath id="SVGID_402_">
			<use xlink:href="#SVGID_401_"  style="overflow:visible;"/>
		</clipPath>
		<g class="st201">
			<g>
				<defs>
					<rect id="SVGID_403_" x="990" y="24" width="25" height="18"/>
				</defs>
				<clipPath id="SVGID_404_">
					<use xlink:href="#SVGID_403_"  style="overflow:visible;"/>
				</clipPath>
				<g class="st202">
					<defs>
						<path id="SVGID_405_" d="M1013.9,32.2c-1.4-3.1-3.7-4.4-7-4.9c-3-0.4-4.9-3-8.3-1.7c-3.6,1.3-3.1,4.5-5.3,6.7
							c-2.3,2.3-3.2,4.9-2.3,8.2c0.2,0.8,1.4,0.4,1.2-0.3c-0.9-3.2,0.2-6,3.2-7.7c0.2-0.1,0.3-0.3,0.3-0.5c0-5.1,6-7.1,9.2-3.3
							c0.1,0.2,0.4,0.2,0.6,0.1c3.2-0.6,6,0.9,7.3,3.8C1013,33.2,1014.2,32.9,1013.9,32.2"/>
					</defs>
					<clipPath id="SVGID_406_">
						<use xlink:href="#SVGID_405_"  style="overflow:visible;"/>
					</clipPath>
					<g class="st203">
						<defs>
							<rect id="SVGID_407_" x="987" y="21" width="28" height="21"/>
						</defs>
						<clipPath id="SVGID_408_">
							<use xlink:href="#SVGID_407_"  style="overflow:visible;"/>
						</clipPath>
						
							<rect x="983.4" y="20.2" transform="matrix(0.9397 -0.342 0.342 0.9397 49.6703 344.0885)" class="st204" width="34.3" height="22"/>
					</g>
				</g>
			</g>
		</g>
	</g>
</g>
</svg>
