<?xml version="1.0" encoding="utf-8"?>
<!-- Generator: Adobe Illustrator 22.1.0, SVG Export Plug-In . SVG Version: 6.00 Build 0)  -->
<svg version="1.1" id="Vrstva_1" xmlns="http://www.w3.org/2000/svg" xmlns:xlink="http://www.w3.org/1999/xlink" x="0px" y="0px"
	 viewBox="0 0 1024 350" style="enable-background:new 0 0 1024 350;" xml:space="preserve">
<style type="text/css">
	.st0{clip-path:url(#SVGID_2_);}
	.st1{clip-path:url(#SVGID_4_);fill:#76B72A;}
	.st2{clip-path:url(#SVGID_6_);}
	.st3{clip-path:url(#SVGID_8_);enable-background:new    ;}
	.st4{clip-path:url(#SVGID_10_);}
	.st5{clip-path:url(#SVGID_12_);}
	.st6{clip-path:url(#SVGID_14_);fill:#76B72A;}
	.st7{clip-path:url(#SVGID_16_);}
	.st8{clip-path:url(#SVGID_18_);fill:#76B72A;}
	.st9{clip-path:url(#SVGID_20_);}
	.st10{clip-path:url(#SVGID_22_);fill:#CE91B4;}
	.st11{clip-path:url(#SVGID_24_);}
	.st12{clip-path:url(#SVGID_26_);enable-background:new    ;}
	.st13{clip-path:url(#SVGID_28_);}
	.st14{clip-path:url(#SVGID_30_);}
	.st15{clip-path:url(#SVGID_32_);fill:#1D1D1B;}
	.st16{clip-path:url(#SVGID_34_);}
	.st17{clip-path:url(#SVGID_36_);fill:#1D1D1B;}
	.st18{clip-path:url(#SVGID_38_);}
	.st19{clip-path:url(#SVGID_40_);fill:#1D1D1B;}
	.st20{clip-path:url(#SVGID_42_);}
	.st21{clip-path:url(#SVGID_44_);fill:#1D1D1B;}
	.st22{clip-path:url(#SVGID_46_);}
	.st23{clip-path:url(#SVGID_48_);enable-background:new    ;}
	.st24{clip-path:url(#SVGID_50_);}
	.st25{clip-path:url(#SVGID_52_);}
	.st26{clip-path:url(#SVGID_54_);fill:#1D1D1B;}
	.st27{clip-path:url(#SVGID_56_);}
	.st28{clip-path:url(#SVGID_58_);fill:#1D1D1B;}
	.st29{clip-path:url(#SVGID_60_);}
	.st30{clip-path:url(#SVGID_62_);fill:#1D1D1B;}
	.st31{clip-path:url(#SVGID_64_);}
	.st32{clip-path:url(#SVGID_66_);fill:#1D1D1B;}
	.st33{clip-path:url(#SVGID_68_);}
	.st34{clip-path:url(#SVGID_70_);fill:#ACDEF9;}
	.st35{clip-path:url(#SVGID_72_);}
	.st36{clip-path:url(#SVGID_74_);fill:#1D1D1B;}
	.st37{clip-path:url(#SVGID_76_);}
	.st38{clip-path:url(#SVGID_78_);fill:#1D1D1B;}
	.st39{clip-path:url(#SVGID_80_);}
	.st40{clip-path:url(#SVGID_82_);fill:#1D1D1B;}
	.st41{clip-path:url(#SVGID_84_);}
	.st42{clip-path:url(#SVGID_86_);enable-background:new    ;}
	.st43{clip-path:url(#SVGID_88_);}
	.st44{clip-path:url(#SVGID_90_);}
	.st45{clip-path:url(#SVGID_92_);fill:#1D1D1B;}
	.st46{clip-path:url(#SVGID_94_);}
	.st47{clip-path:url(#SVGID_96_);fill:#1D1D1B;}
	.st48{clip-path:url(#SVGID_98_);}
	.st49{clip-path:url(#SVGID_100_);enable-background:new    ;}
	.st50{clip-path:url(#SVGID_102_);}
	.st51{clip-path:url(#SVGID_104_);}
	.st52{clip-path:url(#SVGID_106_);fill:#1D1D1B;}
	.st53{clip-path:url(#SVGID_108_);}
	.st54{clip-path:url(#SVGID_110_);enable-background:new    ;}
	.st55{clip-path:url(#SVGID_112_);}
	.st56{clip-path:url(#SVGID_114_);}
	.st57{clip-path:url(#SVGID_116_);fill:#EF8272;}
	.st58{clip-path:url(#SVGID_118_);}
	.st59{clip-path:url(#SVGID_120_);fill:#1D1D1B;}
	.st60{clip-path:url(#SVGID_122_);}
	.st61{clip-path:url(#SVGID_124_);fill:#1D1D1B;}
	.st62{clip-path:url(#SVGID_126_);}
	.st63{clip-path:url(#SVGID_128_);fill:#1D1D1B;}
	.st64{clip-path:url(#SVGID_130_);}
	.st65{clip-path:url(#SVGID_132_);fill:#1D1D1B;}
	.st66{clip-path:url(#SVGID_134_);}
	.st67{clip-path:url(#SVGID_136_);fill:#1D1D1B;}
	.st68{clip-path:url(#SVGID_138_);}
	.st69{clip-path:url(#SVGID_140_);fill:#1D1D1B;}
	.st70{clip-path:url(#SVGID_142_);}
	.st71{clip-path:url(#SVGID_144_);fill:#1D1D1B;}
	.st72{clip-path:url(#SVGID_146_);}
	.st73{clip-path:url(#SVGID_148_);fill:#1D1D1B;}
	.st74{clip-path:url(#SVGID_150_);}
	.st75{clip-path:url(#SVGID_152_);fill:#1D1D1B;}
	.st76{clip-path:url(#SVGID_154_);}
	.st77{clip-path:url(#SVGID_156_);fill:#1D1D1B;}
	.st78{clip-path:url(#SVGID_158_);}
	.st79{clip-path:url(#SVGID_160_);fill:#1D1D1B;}
	.st80{clip-path:url(#SVGID_162_);}
	.st81{clip-path:url(#SVGID_164_);fill:#1D1D1B;}
	.st82{clip-path:url(#SVGID_166_);}
	.st83{clip-path:url(#SVGID_168_);fill:#1D1D1B;}
	.st84{clip-path:url(#SVGID_170_);}
	.st85{clip-path:url(#SVGID_172_);fill:#1D1D1B;}
	.st86{clip-path:url(#SVGID_174_);}
	.st87{clip-path:url(#SVGID_176_);fill:#1D1D1B;}
	.st88{clip-path:url(#SVGID_178_);}
	.st89{clip-path:url(#SVGID_180_);fill:#1D1D1B;}
	.st90{clip-path:url(#SVGID_182_);}
	.st91{clip-path:url(#SVGID_184_);fill:#1D1D1B;}
	.st92{clip-path:url(#SVGID_186_);}
	.st93{clip-path:url(#SVGID_188_);enable-background:new    ;}
	.st94{clip-path:url(#SVGID_190_);}
	.st95{clip-path:url(#SVGID_192_);}
	.st96{clip-path:url(#SVGID_194_);fill:#76B72A;}
	.st97{clip-path:url(#SVGID_196_);}
	.st98{clip-path:url(#SVGID_198_);fill:#1D1D1B;}
	.st99{clip-path:url(#SVGID_200_);}
	.st100{clip-path:url(#SVGID_202_);enable-background:new    ;}
	.st101{clip-path:url(#SVGID_204_);}
	.st102{clip-path:url(#SVGID_206_);}
	.st103{clip-path:url(#SVGID_208_);fill:#1D1D1B;}
	.st104{clip-path:url(#SVGID_210_);}
	.st105{clip-path:url(#SVGID_212_);fill:#1D1D1B;}
	.st106{clip-path:url(#SVGID_214_);}
	.st107{clip-path:url(#SVGID_216_);enable-background:new    ;}
	.st108{clip-path:url(#SVGID_218_);}
	.st109{clip-path:url(#SVGID_220_);}
	.st110{clip-path:url(#SVGID_222_);fill:#1D1D1B;}
	.st111{clip-path:url(#SVGID_224_);}
	.st112{clip-path:url(#SVGID_226_);fill:#1D1D1B;}
	.st113{clip-path:url(#SVGID_228_);}
	.st114{clip-path:url(#SVGID_230_);fill:#1D1D1B;}
	.st115{clip-path:url(#SVGID_232_);}
	.st116{clip-path:url(#SVGID_234_);fill:#1D1D1B;}
	.st117{clip-path:url(#SVGID_236_);}
	.st118{clip-path:url(#SVGID_238_);fill:#914D15;}
	.st119{clip-path:url(#SVGID_240_);}
	.st120{clip-path:url(#SVGID_242_);fill:#1D1D1B;}
	.st121{clip-path:url(#SVGID_244_);}
	.st122{clip-path:url(#SVGID_246_);fill:#1D1D1B;}
	.st123{clip-path:url(#SVGID_248_);}
	.st124{clip-path:url(#SVGID_250_);fill:#1D1D1B;}
	.st125{clip-path:url(#SVGID_252_);}
	.st126{clip-path:url(#SVGID_254_);fill:#1D1D1B;}
	.st127{clip-path:url(#SVGID_256_);}
	.st128{clip-path:url(#SVGID_258_);enable-background:new    ;}
	.st129{clip-path:url(#SVGID_260_);}
	.st130{clip-path:url(#SVGID_262_);}
	.st131{clip-path:url(#SVGID_264_);fill:#1D1D1B;}
	.st132{clip-path:url(#SVGID_266_);}
	.st133{clip-path:url(#SVGID_268_);fill:#1D1D1B;}
	.st134{clip-path:url(#SVGID_270_);}
	.st135{clip-path:url(#SVGID_272_);fill:#EF8272;}
	.st136{clip-path:url(#SVGID_274_);}
	.st137{clip-path:url(#SVGID_276_);fill:#1D1D1B;}
	.st138{clip-path:url(#SVGID_278_);}
	.st139{clip-path:url(#SVGID_280_);fill:#1D1D1B;}
	.st140{clip-path:url(#SVGID_282_);}
	.st141{clip-path:url(#SVGID_284_);fill:#1D1D1B;}
	.st142{clip-path:url(#SVGID_286_);}
	.st143{clip-path:url(#SVGID_288_);fill:#1D1D1B;}
	.st144{clip-path:url(#SVGID_290_);}
	.st145{clip-path:url(#SVGID_292_);fill:#1D1D1B;}
	.st146{clip-path:url(#SVGID_294_);}
	.st147{clip-path:url(#SVGID_296_);enable-background:new    ;}
	.st148{clip-path:url(#SVGID_298_);}
	.st149{clip-path:url(#SVGID_300_);}
	.st150{clip-path:url(#SVGID_302_);fill:#1D1D1B;}
	.st151{clip-path:url(#SVGID_304_);}
	.st152{clip-path:url(#SVGID_306_);fill:#1D1D1B;}
	.st153{clip-path:url(#SVGID_308_);}
	.st154{clip-path:url(#SVGID_310_);fill:#1D1D1B;}
	.st155{clip-path:url(#SVGID_312_);}
	.st156{clip-path:url(#SVGID_314_);enable-background:new    ;}
	.st157{clip-path:url(#SVGID_316_);}
	.st158{clip-path:url(#SVGID_318_);}
	.st159{clip-path:url(#SVGID_320_);fill:#1D1D1B;}
</style>
<g>
	<defs>
		<path id="SVGID_1_" d="M970.8,64.8c0,0,6.7-2.1,9.9-5.9c1.8-2.2-0.2-5.4-3-4.8l-2.8,0.5c-0.5,0.1-0.8-0.6-0.4-0.9
			c2-1.5,5-4,6.7-7.2c1.3-2.4-1.2-5.1-3.8-4.2l-4.5,2.6c-0.4,0.2-0.9-0.3-0.6-0.7c2.4-3.1,6.2-12.2-0.2-13.3
			c-6.4-1.1-6,8.7-4.8,12.4c0.1,0.4-0.5,0.7-0.8,0.4l-3.4-3.9c-2.1-1.8-5.3-0.1-5,2.6c0.5,3.5,2.4,6.9,3.8,9c0.3,0.4-0.2,1-0.7,0.7
			l-2.4-1.5c-2.4-1.5-5.4,0.9-4.4,3.5c1.7,4.7,7.3,8.9,7.3,8.9l5.5,3.9L970.8,64.8z"/>
	</defs>
	<clipPath id="SVGID_2_">
		<use xlink:href="#SVGID_1_"  style="overflow:visible;"/>
	</clipPath>
	<g class="st0">
		<defs>
			<rect id="SVGID_3_" x="1" y="-2018" width="1024" height="2615"/>
		</defs>
		<clipPath id="SVGID_4_">
			<use xlink:href="#SVGID_3_"  style="overflow:visible;"/>
		</clipPath>
		
			<rect x="945.7" y="30.2" transform="matrix(0.1736 -0.9848 0.9848 0.1736 752.4103 994.6368)" class="st1" width="46.4" height="37.5"/>
	</g>
</g>
<g>
	<defs>
		
			<rect id="SVGID_5_" x="930.1" y="33.8" transform="matrix(0.1736 -0.9848 0.9848 0.1736 731.9108 970.7515)" width="28.5" height="30.9"/>
	</defs>
	<clipPath id="SVGID_6_">
		<use xlink:href="#SVGID_5_"  style="overflow:visible;"/>
	</clipPath>
	<g class="st2">
		<defs>
			<rect id="SVGID_7_" x="1" y="-2018" width="1024" height="2615"/>
		</defs>
		<clipPath id="SVGID_8_">
			<use xlink:href="#SVGID_7_"  style="overflow:visible;"/>
		</clipPath>
		<g class="st3">
			<g>
				<defs>
					<rect id="SVGID_9_" x="927" y="30" width="34" height="35"/>
				</defs>
				<clipPath id="SVGID_10_">
					<use xlink:href="#SVGID_9_"  style="overflow:visible;"/>
				</clipPath>
				<g class="st4">
					<defs>
						<path id="SVGID_11_" d="M958.5,56.4c0,0,2.4-6.6,1.3-11.4c-0.6-2.7-4.4-3.1-5.6-0.6l-1.3,2.5c-0.2,0.5-1,0.3-1-0.2
							c0-2.5-0.2-6.4-1.7-9.6c-1.2-2.5-4.8-2.2-5.6,0.4l-0.7,5.1c-0.1,0.4-0.8,0.5-0.9,0.1c-1-3.8-6-12.3-10.8-8
							c-4.8,4.4,3.3,10,7,11.4c0.4,0.1,0.2,0.8-0.2,0.9l-5.2,0.2c-2.7,0.5-3.3,4.1-0.9,5.5c3.1,1.8,7,2.3,9.5,2.5
							c0.5,0,0.7,0.8,0.1,1l-2.6,1c-2.6,1-2.6,4.8,0.1,5.6c4.8,1.5,11.6-0.3,11.6-0.3l6.4-1.9L958.5,56.4z"/>
					</defs>
					<clipPath id="SVGID_12_">
						<use xlink:href="#SVGID_11_"  style="overflow:visible;"/>
					</clipPath>
					<g class="st5">
						<defs>
							<rect id="SVGID_13_" x="926" y="32" width="37" height="34"/>
						</defs>
						<clipPath id="SVGID_14_">
							<use xlink:href="#SVGID_13_"  style="overflow:visible;"/>
						</clipPath>
						
							<rect x="925.1" y="28.8" transform="matrix(0.1736 -0.9848 0.9848 0.1736 731.9121 970.7516)" class="st6" width="38.5" height="40.9"/>
					</g>
				</g>
			</g>
		</g>
	</g>
</g>
<g>
	<defs>
		<path id="SVGID_15_" d="M975.3,71c0,0,6.2,3.2,11.2,2.8c2.8-0.3,3.7-3.9,1.3-5.5l-2.4-1.6c-0.5-0.3-0.2-1,0.4-0.9
			c2.5,0.4,6.5,0.7,9.8-0.4c2.6-0.8,2.8-4.5,0.3-5.6l-5-1.4c-0.4-0.2-0.4-0.9,0-0.9c3.9-0.5,13.1-4.3,9.3-9.6
			c-3.7-5.3-10.4,1.9-12.2,5.4c-0.2,0.4-0.8,0.1-0.9-0.3l0.4-5.1c-0.2-2.7-3.7-3.8-5.4-1.6c-2.1,2.8-3.2,6.6-3.7,9
			c-0.1,0.5-0.9,0.5-1,0l-0.7-2.7c-0.7-2.7-4.4-3.2-5.6-0.6c-2.1,4.5-1.2,11.4-1.2,11.4l-2.3,6L975.3,71z"/>
	</defs>
	<clipPath id="SVGID_16_">
		<use xlink:href="#SVGID_15_"  style="overflow:visible;"/>
	</clipPath>
	<g class="st7">
		<defs>
			<rect id="SVGID_17_" x="1" y="-2018" width="1024" height="2615"/>
		</defs>
		<clipPath id="SVGID_18_">
			<use xlink:href="#SVGID_17_"  style="overflow:visible;"/>
		</clipPath>
		
			<rect x="964.8" y="39" transform="matrix(0.1736 -0.9848 0.9848 0.1736 755.6245 1018.3097)" class="st8" width="39.5" height="39.7"/>
	</g>
</g>
<g>
	<defs>
		<path id="SVGID_19_" d="M954.9,115.5c0.5,1,0.9,2,1.4,3.1c0.4-0.2,0.9-0.3,1-0.6c0.8-1.2,1.9-1.9,3.1-2.5c2.8-1.5,5.5-3,8.3-4.5
			c1.2-0.6,2.4-1.3,3.5-2c2.7-1.6,5.3-3.2,7-6.1c0.2-0.3,0.6-0.5,0.7-0.6c0.4-2.4,0.6-4.7,0.5-6.9c-0.1-2.2-0.6-4.3-1.8-6.1
			c-1-1.5-2.1-2.9-3.2-4.2c-0.8-0.9-1.8-1.7-2.7-2.5c-1.9-1.7-3.2-3.8-4.6-6c-1.3-2-2.3-3.8-1.4-6.3c0.1-0.4,0-1.3-1-1.2
			c-0.5,0.8-0.8,1.8-1.5,2.5c-2,1.9-4,4-6.5,5.1c-1.6,0.7-2.9,2.3-4.8,2.3c-0.5,0.5-4.8,3.4-5.6,3.8c-4,1.7-6.6,5.6-6.6,10.1
			c0,3.7,0.6,7.2,2.3,10.3c0.9,1.7,1.9,3.6,3.8,4.7c0.9,0.5,1.8,1.4,2.3,2.4c0.6,1.3,2.3,1.1,2.7,2.5c0.1,0.4,1.1,0.2,0.8,1
			C953.6,114,954.4,114.6,954.9,115.5"/>
	</defs>
	<clipPath id="SVGID_20_">
		<use xlink:href="#SVGID_19_"  style="overflow:visible;"/>
	</clipPath>
	<g class="st9">
		<defs>
			<rect id="SVGID_21_" x="1" y="-2018" width="1024" height="2615"/>
		</defs>
		<clipPath id="SVGID_22_">
			<use xlink:href="#SVGID_21_"  style="overflow:visible;"/>
		</clipPath>
		
			<rect x="930.7" y="68.5" transform="matrix(0.1736 -0.9848 0.9848 0.1736 701.783 1023.8625)" class="st10" width="60.5" height="50.4"/>
	</g>
</g>
<g>
	<defs>
		
			<rect id="SVGID_23_" x="932.6" y="71.4" transform="matrix(0.1736 -0.9848 0.9848 0.1736 700.6858 1022.3942)" width="54" height="44.6"/>
	</defs>
	<clipPath id="SVGID_24_">
		<use xlink:href="#SVGID_23_"  style="overflow:visible;"/>
	</clipPath>
	<g class="st11">
		<defs>
			<rect id="SVGID_25_" x="1" y="-2018" width="1024" height="2615"/>
		</defs>
		<clipPath id="SVGID_26_">
			<use xlink:href="#SVGID_25_"  style="overflow:visible;"/>
		</clipPath>
		<g class="st12">
			<g>
				<defs>
					<rect id="SVGID_27_" x="935" y="66" width="48" height="55"/>
				</defs>
				<clipPath id="SVGID_28_">
					<use xlink:href="#SVGID_27_"  style="overflow:visible;"/>
				</clipPath>
				<g class="st13">
					<defs>
						<path id="SVGID_29_" d="M967,69.4c-1-2.2-3.4-3.1-5.6-1.8c-1.7,1-2.7,3.2-4.1,4.6c-1.8,1.8-3.7,3.3-5.8,4.8
							c-5.6,4-11.9,7.4-14.1,14.3c-1.9,5.8,1.3,10.3,5.2,14.5c2.3,2.5,4.9,4.9,7.3,7.3c1.5,1.5,4.5,4,4.2,6.4c0,0.5,0.7,1,1.1,0.7
							c7.6-5.3,22-7.4,25.1-17.5c1.6-5-0.1-10.3-2.8-14.6c-3.8-6.2-8.4-11.4-10.6-18.4c-0.3-0.9-1.7-0.5-1.4,0.4
							c1.8,5.6,4.9,10.3,8.3,15.1c3.4,4.8,6.9,10.3,5.3,16.5c-1.4,5.4-7.2,8.4-11.8,10.8c-4.2,2.2-8.9,3.8-12.8,6.5
							c0.4,0.2,0.7,0.4,1.1,0.7c0.3-3.3-3.7-6.5-5.7-8.5c-3.8-3.7-8.5-7.5-10.8-12.4c-3.1-6.6,2.7-12.9,7.8-16.6
							c2.4-1.7,4.8-3.2,7.1-5c1.5-1.2,3-2.4,4.3-3.7c0.9-0.9,5.5-7.2,7.3-3.2C966.1,71,967.4,70.3,967,69.4"/>
					</defs>
					<clipPath id="SVGID_30_">
						<use xlink:href="#SVGID_29_"  style="overflow:visible;"/>
					</clipPath>
					<g class="st14">
						<defs>
							<rect id="SVGID_31_" x="932" y="63" width="55" height="62"/>
						</defs>
						<clipPath id="SVGID_32_">
							<use xlink:href="#SVGID_31_"  style="overflow:visible;"/>
						</clipPath>
						
							<rect x="927.6" y="66.4" transform="matrix(0.1736 -0.9848 0.9848 0.1736 700.6877 1022.395)" class="st15" width="64" height="54.6"/>
					</g>
				</g>
			</g>
		</g>
	</g>
</g>
<g>
	<defs>
		<path id="SVGID_33_" d="M961.8,76.8c1.6,3.9,3.7,7.4,6,11c2.3,3.6,5.6,8.1,4,12.7c-1.8,5.2-9.6,6.9-14.1,8.8
			c-0.3,0.1-1,0.4-1.4,0.4c1.2,0,0.3,0-0.3-0.6c-1.6-1.6-3.6-3-5.2-4.6c-2.1-2.1-5-5-5.2-8.1c-0.4-4.9,4.7-8.4,8.1-11
			c0.8-0.6-0.1-1.8-0.8-1.2c-6.1,4.6-11.7,10.3-6.3,17.7c2.1,2.9,4.8,5.4,7.6,7.6c1.1,0.9,1.7,1.6,3,1.6c2.5-0.1,6-2.1,8.1-3.2
			c2.7-1.3,5.9-3,7.4-5.6c1.7-3,1-6.8-0.4-9.8c-2.6-5.6-6.6-10.3-9-16.1C962.9,75.4,961.5,75.9,961.8,76.8"/>
	</defs>
	<clipPath id="SVGID_34_">
		<use xlink:href="#SVGID_33_"  style="overflow:visible;"/>
	</clipPath>
	<g class="st16">
		<defs>
			<rect id="SVGID_35_" x="1" y="-2018" width="1024" height="2615"/>
		</defs>
		<clipPath id="SVGID_36_">
			<use xlink:href="#SVGID_35_"  style="overflow:visible;"/>
		</clipPath>
		
			<rect x="936.9" y="73.7" transform="matrix(0.1736 -0.9848 0.9848 0.1736 701.0295 1022.3187)" class="st17" width="45.6" height="39.5"/>
	</g>
</g>
<g>
	<defs>
		<path id="SVGID_37_" d="M958.1,104.4c-1.9-1.9-5.9-5.2-6-7.9c-0.1-1.7,1.5-3,2.6-4.1c2.2-2.1,4.6-3.9,6.8-6
			c-0.4-0.1-0.8-0.1-1.2-0.1c1.4,2.7,3,5.2,4.3,7.9c0.8,1.5,1.7,3.3,0.9,5c-1.3,2.4-5.9,4-8.3,5.1c-0.9,0.4-0.1,1.7,0.8,1.3
			c2.8-1.3,7.9-3.1,9.1-6.2c0.5-1.4,0.1-3-0.4-4.3c-1.3-3.3-3.5-6.4-5.1-9.6c-0.2-0.4-0.8-0.5-1.2-0.1c-2.7,2.5-6,4.7-8.3,7.6
			c-0.8,1-1.6,2.2-1.5,3.6c0.1,3.3,4.4,6.8,6.5,9C957.7,106.2,958.7,105.1,958.1,104.4"/>
	</defs>
	<clipPath id="SVGID_38_">
		<use xlink:href="#SVGID_37_"  style="overflow:visible;"/>
	</clipPath>
	<g class="st18">
		<defs>
			<rect id="SVGID_39_" x="1" y="-2018" width="1024" height="2615"/>
		</defs>
		<clipPath id="SVGID_40_">
			<use xlink:href="#SVGID_39_"  style="overflow:visible;"/>
		</clipPath>
		
			<rect x="943.8" y="82" transform="matrix(0.1736 -0.9848 0.9848 0.1736 698.6331 1023.5139)" class="st19" width="30.8" height="27"/>
	</g>
</g>
<g>
	<defs>
		<path id="SVGID_41_" d="M970,62.9c3.5-1.1,10.7-3.8,11.1-8.2c0.1-1.6-0.8-3.2-2.3-3.8c-0.9-0.4-1.6-0.3-2.5-0.2
			c-0.6,0.1-1.2,0.4-1.9,0.4c-1.2,0,0,0.3,0.3,0c2-2,11.2-10.1,3.7-12.1c-1.7-0.5-3,0.5-4.4,1.3c-0.2,0.1-2.4,1.4-2.5,1.4
			c0.5,0.7,2-2.5,2.2-2.8c1.5-3.2,2.9-8.6-1-10.7c-3.8-2-7,0.8-7.7,4.4c-0.4,2-0.6,4.8,0.1,6.8c0.3,0.9,1.1,1.7,0.2,0.6
			c-0.8-1-1.6-2-2.4-2.9c-3.5-3.3-7.1,0.2-6.3,4.1c0.4,1.9,1.2,3.8,2.2,5.5c0.1,0.2,1.1,2.4,1.7,2.1c-0.2,0.1-1.3-0.8-1.6-1
			c-1.9-1-4.1-1.4-5.6,0.6c-3.1,4.1,4,10.4,7,12.6c0.8,0.6,1.8-0.5,1.1-1.1c-2.4-1.8-6.8-5.5-7.1-8.6c1.2-2.6,2.6-3.3,4-2.3l0.6,0.4
			c0.4,0.2,0.9,0.7,1.4,0.8c0.7,0.1,1.1,0.1,1.5-0.5c0.5-0.7-0.2-1.4-0.5-2c-0.8-1.6-1.7-3-2.4-4.7c-0.1-0.4-0.3-0.7-0.4-1.1
			c-0.9-2,0.2-3.4,3.3-4.1c1.9,0.8,2.1,3.9,4.4,4.1c0.2,0,0.5-0.2,0.6-0.4c0.8-1.5-0.3-3.6-0.4-5.2c-0.1-2.8,0.3-7.4,4-7.4
			c4.3,0,3.8,4.8,2.8,7.5c-0.5,1.6-2.7,4-2.5,5.6c0,0.3,0.2,0.6,0.6,0.7c1,0.2,1.1,0,2-0.4c0.7-0.3,2.9-2.2,3.6-2
			c0.8,1.4,1.5,2.7,2.3,4.1c-0.6,0.9-1.3,1.8-2.1,2.6c-0.7,0.8-1.6,1.5-2.4,2.2c-0.4,0.3-2.2,1.3-1.9,2.3c0.7,2.1,2.8,0.2,4.1,0.5
			c2.4,2.1,2.8,3.7,1.1,4.9c-0.6,0.5-1.2,0.9-1.8,1.3c-0.9,0.6-1.9,1.1-2.8,1.6c-1.2,0.6-2.4,1.1-3.6,1.4
			C968.7,61.7,969,63.2,970,62.9"/>
	</defs>
	<clipPath id="SVGID_42_">
		<use xlink:href="#SVGID_41_"  style="overflow:visible;"/>
	</clipPath>
	<g class="st20">
		<defs>
			<rect id="SVGID_43_" x="1" y="-2018" width="1024" height="2615"/>
		</defs>
		<clipPath id="SVGID_44_">
			<use xlink:href="#SVGID_43_"  style="overflow:visible;"/>
		</clipPath>
		
			<rect x="945.6" y="25.3" transform="matrix(0.1737 -0.9848 0.9848 0.1737 755.8578 990.4643)" class="st21" width="45.1" height="39"/>
	</g>
</g>
<g>
	<defs>
		
			<rect id="SVGID_45_" x="950.6" y="30.3" transform="matrix(0.1736 -0.9848 0.9848 0.1736 755.8744 990.4572)" width="35" height="29"/>
	</defs>
	<clipPath id="SVGID_46_">
		<use xlink:href="#SVGID_45_"  style="overflow:visible;"/>
	</clipPath>
	<g class="st22">
		<defs>
			<rect id="SVGID_47_" x="1" y="-2018" width="1024" height="2615"/>
		</defs>
		<clipPath id="SVGID_48_">
			<use xlink:href="#SVGID_47_"  style="overflow:visible;"/>
		</clipPath>
		<g class="st23">
			<g>
				<defs>
					<rect id="SVGID_49_" x="950" y="25" width="32" height="39"/>
				</defs>
				<clipPath id="SVGID_50_">
					<use xlink:href="#SVGID_49_"  style="overflow:visible;"/>
				</clipPath>
				<g class="st24">
					<defs>
						<path id="SVGID_51_" d="M970,62.8c3.5-1.1,10.7-3.9,11.1-8.2c0.1-1.6-0.9-3.1-2.4-3.7c-1.1-0.4-2-0.2-3.1,0
							c-0.2,0-1.5,0.4-1.5,0.3c0.3,0.5,2.3-1.5,2.6-1.7c1.7-1.6,4.4-4,4.6-6.5c0.2-2.2-1.5-4.1-3.7-4.1c-1.6,0-3.1,1.2-4.4,2
							c-0.4,0.2-0.8,0.5-1.3,0.7c-0.6,0.4,0.3,0.2,0.6-0.3c0.7-1,1.2-2.1,1.7-3.2c1.3-3.1,2.4-8.1-1.4-10c-4.2-2.2-7.2,1.3-7.8,5.2
							c-0.3,2-0.4,4.6,0.3,6.5c0.4,1.1,0.7,1.1,0,0c-0.6-0.9-1.5-2-2.4-2.8c-3.5-3.2-7,0.3-6.3,4.2c0.4,1.9,1.2,3.8,2.2,5.5
							c0,0,1.3,2.4,1.6,2c0,0-1.6-1-1.6-1c-1.9-1-4.1-1.3-5.6,0.7c-3,4.1,4.1,10.4,7,12.6c0.8,0.6,1.7-0.6,0.9-1.1
							c-0.8-0.7-1.7-1.4-2.4-2.1c-0.9-0.9-1.8-1.9-2.6-2.9c-0.3-0.4-0.6-0.8-0.8-1.2c-1.7-1.9-1-3.6,2.2-5c1.2,0.1,2.9,2.8,4.1,0.9
							c0.5-0.8-0.3-1.4-0.6-2c-0.7-1.6-1.8-3-2.4-4.7c-0.1-0.4-0.3-0.7-0.4-1.1c-1.2-2.4-0.2-3.8,3.2-4.1c1.8,0.8,2.1,4,4.3,4.2
							c0.3,0,0.6-0.1,0.8-0.4c0.7-1.5-0.3-3.6-0.4-5.3c-0.1-2.9,0.5-8,4.6-7.2c4,0.7,3,5.4,2,8c-0.6,1.6-2.5,3.5-2.3,5.1
							c0,0.3,0.3,0.6,0.6,0.7c2.2,0.5,3.6-2.3,5.5-2.5c3.1,1.5,3.6,3.2,1.6,5c-0.2,0.3-0.5,0.6-0.7,0.9c-1.1,1.4-2.5,2.4-3.8,3.6
							c-0.5,0.5-1.3,0.8-1.2,1.7c0.3,2.2,3.1,0.2,4.2,0.5c2.1,2.5,2.2,4.3,0.3,5.4c-0.3,0.2-0.5,0.4-0.8,0.6
							c-1.2,0.8-2.5,1.5-3.8,2.1c-1,0.4-2,0.8-3,1.2C968.6,61.8,969.1,63.1,970,62.8"/>
					</defs>
					<clipPath id="SVGID_52_">
						<use xlink:href="#SVGID_51_"  style="overflow:visible;"/>
					</clipPath>
					<g class="st25">
						<defs>
							<rect id="SVGID_53_" x="950" y="25" width="36" height="40"/>
						</defs>
						<clipPath id="SVGID_54_">
							<use xlink:href="#SVGID_53_"  style="overflow:visible;"/>
						</clipPath>
						
							<rect x="945.6" y="25.3" transform="matrix(0.1736 -0.9848 0.9848 0.1736 755.8721 990.4564)" class="st26" width="45" height="39"/>
					</g>
				</g>
			</g>
		</g>
	</g>
</g>
<g>
	<defs>
		<path id="SVGID_55_" d="M974.3,68c3,1.9,14.3,7.8,15,0.7c0.1-1.3-0.4-2.3-1.3-3.2c-0.4-0.4-0.8-0.7-1.2-1c-1.3-1-0.8-0.5,0.6,0
			c2.7,0.9,8.7,1.5,10.6-1.2c1.4-1.9,0.6-4.4-1.3-5.5c-1-0.6-2.3-1-3.4-1.3c-0.3-0.1-0.7-0.2-1-0.4c-0.5-0.2-0.2,0.1-0.1,0.1
			c0.3-0.1,1.6,0.1,2.1,0c2.9-0.5,6.8-1.8,8.4-4.4c1.4-2.3,0.4-5.6-2-6.9c-3-1.7-6.6,0.7-8.9,2.6c-0.7,0.6-1.8,1.5-2.3,2.3
			c-0.3,0.5-0.6,1.8-0.3,0.8c0.4-1.4,0.6-2.9,0.8-4.4c0.2-0.9-1.2-1.4-1.4-0.4c-0.3,1.7-1.6,4.6-0.6,6.1c0.2,0.3,0.5,0.4,0.8,0.4
			c1.5-0.3,2.2-2.1,3.3-3.1c2.2-2.1,8.1-6,9.4-0.6c0.8,3.5-3.3,5.1-6.1,5.9c-1.4,0.4-3.6,0.1-4.6,1.2c-0.2,0.2-0.3,0.6-0.1,0.9
			c1,2,4,1.3,5.4,2.7c0.8,3.3-0.1,4.8-2.8,4.4c-0.4,0-0.8,0-1.2,0c-1.8,0-3.5-0.5-5.2-0.7c-0.7-0.1-1.5-0.5-2.1,0.1
			c-1.4,1.5,1.5,2.7,2.2,3.5c2.9,4-1.8,4.2-4.2,3.7c-1.6-0.4-3.1-1-4.5-1.7c-1.1-0.5-2.1-1.1-3.2-1.7
			C974.3,66.2,973.5,67.4,974.3,68"/>
	</defs>
	<clipPath id="SVGID_56_">
		<use xlink:href="#SVGID_55_"  style="overflow:visible;"/>
	</clipPath>
	<g class="st27">
		<defs>
			<rect id="SVGID_57_" x="1" y="-2018" width="1024" height="2615"/>
		</defs>
		<clipPath id="SVGID_58_">
			<use xlink:href="#SVGID_57_"  style="overflow:visible;"/>
		</clipPath>
		
			<rect x="968.8" y="39.7" transform="matrix(0.1737 -0.9848 0.9848 0.1737 760.3779 1021.3163)" class="st28" width="40" height="35.8"/>
	</g>
</g>
<g>
	<defs>
		<path id="SVGID_59_" d="M965,67.1l2-11.3c0.2-0.9-1.3-1.2-1.5-0.3l-2,11.3C963.3,67.8,964.8,68.1,965,67.1"/>
	</defs>
	<clipPath id="SVGID_60_">
		<use xlink:href="#SVGID_59_"  style="overflow:visible;"/>
	</clipPath>
	<g class="st29">
		<defs>
			<rect id="SVGID_61_" x="1" y="-2018" width="1024" height="2615"/>
		</defs>
		<clipPath id="SVGID_62_">
			<use xlink:href="#SVGID_61_"  style="overflow:visible;"/>
		</clipPath>
		
			<rect x="953.7" y="55.6" transform="matrix(0.1736 -0.9848 0.9848 0.1736 737.2188 1001.2348)" class="st30" width="22.9" height="11.5"/>
	</g>
</g>
<g>
	<defs>
		<path id="SVGID_63_" d="M954.1,63c-1.4,0.3-2.8,0.5-4.3,0.6c-1.2,0.1-2.4,0.1-3.5,0c-2.5-0.2-7.3-2.3-3.1-4.9
			c1.1-0.7,3.9-0.6,3.2-2.6c-0.3-0.9-2.2-0.8-2.7-0.9c-1.5-0.2-2.9-0.6-4.4-1c-2-0.7-7.1-3.4-2.2-5.5c1.8-0.8,4.4,0.8,6-0.7
			c0.3-0.3,0.3-0.6,0.1-0.9c-0.6-1.3-2.5-1.7-3.6-2.4c-2.4-1.7-6.8-5.4-3.6-8.3c3.3-3.1,6.5,1,8,3.9c0.7,1.4,0.9,3.6,2.3,4.4
			c0.2,0.1,0.6,0.2,0.8,0c1.6-1.2,1.4-4.1,1.6-5.9c0.2-0.9-1.3-1.3-1.4-0.4c-0.2,1.2-0.4,2.4-0.6,3.6c-0.3,2.5,0,0.4-0.6-0.9
			c-1.2-2.8-3.4-6.5-6.6-7.3c-2.6-0.6-5.6,1.4-6,4.1c-0.5,2.9,2,5.4,4,7.1c1.3,1,2.7,1.7,4.1,2.5c0.2,0.1,0.6-0.1-0.3-0.3
			c-0.8-0.1-1.8,0-2.7,0c-2.2,0-4.3,0.6-4.7,3.1c-0.7,3.6,3.5,5,6.2,5.7c1.4,0.4,2.8,0.6,4.2,0.8c0.5,0.1,1.2-0.6,0.3-0.1
			c-1.2,0.6-2.6,0.7-3.6,1.7c-1.9,2-0.8,5,1.6,6c3.5,1.5,8.3,0.9,12,0C955.4,64.2,955,62.8,954.1,63"/>
	</defs>
	<clipPath id="SVGID_64_">
		<use xlink:href="#SVGID_63_"  style="overflow:visible;"/>
	</clipPath>
	<g class="st31">
		<defs>
			<rect id="SVGID_65_" x="1" y="-2018" width="1024" height="2615"/>
		</defs>
		<clipPath id="SVGID_66_">
			<use xlink:href="#SVGID_65_"  style="overflow:visible;"/>
		</clipPath>
		
			<rect x="924.3" y="31.9" transform="matrix(0.1736 -0.9848 0.9848 0.1736 731.3708 971.1403)" class="st32" width="40" height="35.8"/>
	</g>
</g>
<g>
	<defs>
		<path id="SVGID_67_" d="M928.5,141.8l-1.7-4.6c-0.3-0.8-1.2-1.3-2.1-0.9l-9.2,3.3c-0.9,0.3-1.3,1.2-1,2.1l1.7,4.6l0.2,0.7l1.6,4.3
			c0,0-5.8,7.4-2.4,16.7l2.1,5.7c0.6,1.6,1.7,3,3.2,3.9l1.1,0.7l2,5.5l-0.4,1.3c-0.6,1.7-0.6,3.5,0,5.1l2.1,5.7l8.1,22.4
			c0.6,1.6,1.6,3,3,4c0.2,0.2,0.5,0.4,0.8,0.5c1.2,0.8,2.8,0.9,4.2,0.5c1.4-0.4,2.6-1.5,3.2-2.8c0.5-1.2,1.6-2.2,2.8-2.6l1.1-0.4
			l1.1-0.4c1.3-0.5,2.7-0.4,3.9,0.2c1.3,0.6,2.9,0.7,4.2,0.1c1.4-0.6,2.4-1.7,2.9-3.1c0.1-0.4,0.2-0.7,0.3-1.1
			c0.3-1.6,0.2-3.3-0.3-4.9l-8.1-22.4l-2.1-5.7c-0.6-1.6-1.7-3-3.2-3.9l-1.2-0.7l-2-5.5l0.4-1.3c0.6-1.7,0.6-3.4,0-5.1l-2.1-5.7
			c-3.4-9.3-12.6-11.3-12.6-11.3l-1.6-4.3L928.5,141.8z"/>
	</defs>
	<clipPath id="SVGID_68_">
		<use xlink:href="#SVGID_67_"  style="overflow:visible;"/>
	</clipPath>
	<g class="st33">
		<defs>
			<rect id="SVGID_69_" x="1" y="-2018" width="1024" height="2615"/>
		</defs>
		<clipPath id="SVGID_70_">
			<use xlink:href="#SVGID_69_"  style="overflow:visible;"/>
		</clipPath>
		
			<rect x="915.7" y="130.3" transform="matrix(0.9397 -0.342 0.342 0.9397 -4.8519 330.6399)" class="st34" width="39" height="97.6"/>
	</g>
</g>
<g>
	<defs>
		<path id="SVGID_71_" d="M920.3,181.4c3.6-0.1,7.3-1,10.7-2.2c0.9-0.3,0.6-1.8-0.3-1.4c-3.3,1.2-6.8,2.1-10.3,2.2
			C919.4,179.9,919.3,181.4,920.3,181.4"/>
	</defs>
	<clipPath id="SVGID_72_">
		<use xlink:href="#SVGID_71_"  style="overflow:visible;"/>
	</clipPath>
	<g class="st35">
		<defs>
			<rect id="SVGID_73_" x="1" y="-2018" width="1024" height="2615"/>
		</defs>
		<clipPath id="SVGID_74_">
			<use xlink:href="#SVGID_73_"  style="overflow:visible;"/>
		</clipPath>
		
			<rect x="914.5" y="173.1" transform="matrix(0.9397 -0.342 0.342 0.9397 -5.5953 327.3784)" class="st36" width="22.1" height="13"/>
	</g>
</g>
<g>
	<defs>
		<path id="SVGID_75_" d="M922.4,187.3c1.9,0,3.8-0.4,5.7-0.8c0.9-0.2,0.6-1.6-0.4-1.4c-1.7,0.4-3.5,0.7-5.3,0.7
			C921.5,185.8,921.5,187.3,922.4,187.3"/>
	</defs>
	<clipPath id="SVGID_76_">
		<use xlink:href="#SVGID_75_"  style="overflow:visible;"/>
	</clipPath>
	<g class="st37">
		<defs>
			<rect id="SVGID_77_" x="1" y="-2018" width="1024" height="2615"/>
		</defs>
		<clipPath id="SVGID_78_">
			<use xlink:href="#SVGID_77_"  style="overflow:visible;"/>
		</clipPath>
		
			<rect x="916.7" y="179.8" transform="matrix(0.9397 -0.342 0.342 0.9397 -7.873 327.6612)" class="st38" width="16.9" height="12.6"/>
	</g>
</g>
<g>
	<defs>
		<path id="SVGID_79_" d="M916,152.4l4.6-1.7c0.9-0.3,0.6-1.8-0.3-1.4l-4.6,1.7C914.7,151.3,915.1,152.8,916,152.4"/>
	</defs>
	<clipPath id="SVGID_80_">
		<use xlink:href="#SVGID_79_"  style="overflow:visible;"/>
	</clipPath>
	<g class="st39">
		<defs>
			<rect id="SVGID_81_" x="1" y="-2018" width="1024" height="2615"/>
		</defs>
		<clipPath id="SVGID_82_">
			<use xlink:href="#SVGID_81_"  style="overflow:visible;"/>
		</clipPath>
		
			<rect x="909.9" y="145.1" transform="matrix(0.9397 -0.342 0.342 0.9397 3.7716 323.1173)" class="st40" width="16.4" height="11.5"/>
	</g>
</g>
<g>
	<defs>
		
			<rect id="SVGID_83_" x="919.3" y="141.4" transform="matrix(0.9397 -0.342 0.342 0.9397 -6.9437 331.1117)" width="32.3" height="87.8"/>
	</defs>
	<clipPath id="SVGID_84_">
		<use xlink:href="#SVGID_83_"  style="overflow:visible;"/>
	</clipPath>
	<g class="st41">
		<defs>
			<rect id="SVGID_85_" x="1" y="-2018" width="1024" height="2615"/>
		</defs>
		<clipPath id="SVGID_86_">
			<use xlink:href="#SVGID_85_"  style="overflow:visible;"/>
		</clipPath>
		<g class="st42">
			<g>
				<defs>
					<rect id="SVGID_87_" x="911" y="141" width="53" height="91"/>
				</defs>
				<clipPath id="SVGID_88_">
					<use xlink:href="#SVGID_87_"  style="overflow:visible;"/>
				</clipPath>
				<g class="st43">
					<defs>
						<path id="SVGID_89_" d="M926.3,142.6c0.6,1.6,0.9,4.1,2.3,5.1c0.7,0.5,2,0.7,2.8,1c1.9,0.9,3.8,2.1,5.3,3.6
							c3.3,3.1,4.7,7.3,6.2,11.4c0.9,2.4,1.1,4.4,0.6,7c-0.2,1.2-0.3,1.2-0.1,2.4c0.4,1.4,0.9,3.5,1.7,4.7c0.6,1,1.6,1.3,2.5,2.1
							c2.6,2.2,3.4,6.3,4.5,9.3l5.9,16.1c0.9,2.5,1.9,5,2.7,7.5c0.7,2.2,1,4.3,0,6.4c-2.2,4.8-6.2,1.4-9.9,2
							c-1.3,0.2-2.8,0.8-3.9,1.4c-3.2,1.6-4.6,7-8.9,5.4c-3.5-1.3-4.5-5.1-5.6-8.2l-7-19.2l-1.9-5.2c-0.7-1.8-1.3-3.4-1.2-5.4
							c0.1-1.5,0.8-2.7,0.6-4.2c-0.2-1.4-1.1-3.9-1.9-5.2c-0.9-1.5-2.8-2-3.9-3.5c-2.1-3-3.6-8.3-4.1-11.8c-0.4-2.9,0-5.8,0.9-8.5
							c0.5-1.5,1.6-2.9,2.1-4.3c0.6-1.9-0.6-3.8-1.3-5.7c-0.3-0.9-1.7-0.3-1.4,0.5c0.5,1.4,1.3,2.8,1.5,4.2c0.2,0.9,0.4-0.8,0.1-0.1
							c-0.2,0.4-0.6,0.9-0.8,1.3c-2,3.6-3,7.7-2.7,11.8c0.3,3.7,1.8,7.4,3.2,10.9c0.7,1.7,1.5,3.2,3,4.4c0,0,1.9,1.1,1.9,1.2
							c0.5,0.6,0.6,1.8,0.9,2.5c0.7,1.8,1,2.6,0.8,4.1c-0.4,2.2-0.6,3.9,0.1,6.1c0.7,2.2,1.6,4.3,2.4,6.5l7.4,20.3
							c0.9,2.6,1.7,5.2,3.8,7.2c3.5,3.4,7.4,2.5,10.3-1c2.7-3.2,4.6-4.2,8.8-3.5c2.3,0.4,3.9,1,6-0.4c3.4-2.2,3.4-6.9,2.3-10.3
							c-2.2-6.6-4.8-13.2-7.2-19.8l-1.9-5.2c-0.6-1.6-1.1-3.2-1.7-4.8c-1-2.3-2.4-3.2-4-4.8c-1.2-1.2-1.9-3-2.3-4.8
							c-0.4-1.8,0.3-2.5,0.4-4.7c0.2-3.7-2-8.3-3.6-11.6c-2.1-4.3-5.8-7.6-10.1-9.6c-0.6-0.3-1.4-0.6-2-0.8c-0.4-0.1-1-0.5-0.6-0.1
							c0.4,0.4-0.4-1.7-0.6-2l-0.8-2.3C927.4,141.2,926,141.7,926.3,142.6"/>
					</defs>
					<clipPath id="SVGID_90_">
						<use xlink:href="#SVGID_89_"  style="overflow:visible;"/>
					</clipPath>
					<g class="st44">
						<defs>
							<rect id="SVGID_91_" x="905" y="138" width="61" height="95"/>
						</defs>
						<clipPath id="SVGID_92_">
							<use xlink:href="#SVGID_91_"  style="overflow:visible;"/>
						</clipPath>
						
							<rect x="914.3" y="136.4" transform="matrix(0.9397 -0.342 0.342 0.9397 -6.9434 331.1131)" class="st45" width="42.3" height="97.8"/>
					</g>
				</g>
			</g>
		</g>
	</g>
</g>
<g>
	<defs>
		<path id="SVGID_93_" d="M948.7,188.5c-1.8,1.4-4.4,1.7-6.3,0.4c-0.5-0.3-1.1-0.2-1.2,0.4c-0.9,3.4-4.5,4.9-7.6,2.8
			c-0.5-0.3-1.1-0.2-1.2,0.4c-0.7,2.4-2.4,3.7-5,3.8c-1,0-0.9,1.5,0.1,1.5c3.3-0.1,5.6-1.9,6.4-5c-0.4,0.1-0.8,0.3-1.2,0.4
			c3.9,2.7,8.7,1.1,10-3.6c-0.4,0.1-0.8,0.3-1.2,0.4c2.7,1.8,5.5,1.8,8.1-0.2C950.2,189.2,949.4,187.9,948.7,188.5"/>
	</defs>
	<clipPath id="SVGID_94_">
		<use xlink:href="#SVGID_93_"  style="overflow:visible;"/>
	</clipPath>
	<g class="st46">
		<defs>
			<rect id="SVGID_95_" x="1" y="-2018" width="1024" height="2615"/>
		</defs>
		<clipPath id="SVGID_96_">
			<use xlink:href="#SVGID_95_"  style="overflow:visible;"/>
		</clipPath>
		
			<rect x="920.6" y="185.2" transform="matrix(0.9397 -0.342 0.342 0.9397 -9.1906 332.3628)" class="st47" width="34.6" height="14.1"/>
	</g>
</g>
<g>
	<defs>
		
			<rect id="SVGID_97_" x="911.4" y="136.5" transform="matrix(0.9397 -0.342 0.342 0.9397 7.2996 322.8288)" width="15.4" height="8.5"/>
	</defs>
	<clipPath id="SVGID_98_">
		<use xlink:href="#SVGID_97_"  style="overflow:visible;"/>
	</clipPath>
	<g class="st48">
		<defs>
			<rect id="SVGID_99_" x="1" y="-2018" width="1024" height="2615"/>
		</defs>
		<clipPath id="SVGID_100_">
			<use xlink:href="#SVGID_99_"  style="overflow:visible;"/>
		</clipPath>
		<g class="st49">
			<g>
				<defs>
					<rect id="SVGID_101_" x="910" y="134" width="18" height="14"/>
				</defs>
				<clipPath id="SVGID_102_">
					<use xlink:href="#SVGID_101_"  style="overflow:visible;"/>
				</clipPath>
				<g class="st50">
					<defs>
						<path id="SVGID_103_" d="M925.7,136.4c-1.1-1.8-2.5-1.6-4.3-1l-7.2,2.6c-1.7,0.6-3.3,1.4-2.9,3.5c0.3,1.7,1.3,3.5,1.9,5.2
							c0.1,0.4,0.6,0.5,1,0.4l12.9-4.7c0.4-0.1,0.5-0.6,0.4-1L925.7,136.4c-0.3-0.9-1.7-0.3-1.4,0.6l1.8,5c0.1-0.3,0.3-0.7,0.4-1
							l-12.9,4.7c0.3,0.1,0.7,0.2,1,0.4c-0.5-1.3-1.2-2.7-1.5-4.1c-0.3-1.7,0.3-2.1,1.8-2.6l5.1-1.9c1-0.4,3.5-1.9,4.4-0.5
							C924.8,137.8,926.2,137.2,925.7,136.4"/>
					</defs>
					<clipPath id="SVGID_104_">
						<use xlink:href="#SVGID_103_"  style="overflow:visible;"/>
					</clipPath>
					<g class="st51">
						<defs>
							<rect id="SVGID_105_" x="910" y="134" width="18" height="14"/>
						</defs>
						<clipPath id="SVGID_106_">
							<use xlink:href="#SVGID_105_"  style="overflow:visible;"/>
						</clipPath>
						
							<rect x="906.4" y="131.5" transform="matrix(0.9397 -0.342 0.342 0.9397 7.2995 322.8277)" class="st52" width="25.4" height="18.5"/>
					</g>
				</g>
			</g>
		</g>
	</g>
</g>
<g>
	<defs>
		<rect id="SVGID_107_" x="947.6" y="250.6" width="89.6" height="79.5"/>
	</defs>
	<clipPath id="SVGID_108_">
		<use xlink:href="#SVGID_107_"  style="overflow:visible;"/>
	</clipPath>
	<g class="st53">
		<defs>
			<rect id="SVGID_109_" x="1" y="-2018" width="1024" height="2615"/>
		</defs>
		<clipPath id="SVGID_110_">
			<use xlink:href="#SVGID_109_"  style="overflow:visible;"/>
		</clipPath>
		<g class="st54">
			<g>
				<defs>
					<rect id="SVGID_111_" x="947" y="245" width="92" height="86"/>
				</defs>
				<clipPath id="SVGID_112_">
					<use xlink:href="#SVGID_111_"  style="overflow:visible;"/>
				</clipPath>
				<g class="st55">
					<defs>
						<path id="SVGID_113_" d="M1037.1,288.5c-0.5-8.4-2.8-14.8-5-19.1c-2.2-4.2-6.4-6.4-9.5-10c-9.3-10.9-54.2-15.7-70,10
							c-2.5,4.1-4.8,10.7-5,19.1c-0.3,10.5,3.1,20.8,9.7,28.9c0.1,0.1,0.2,0.2,0.3,0.3c7.2,8.7,18.1,12.3,34.8,12.3
							C1010.9,330.1,1038.9,320.4,1037.1,288.5"/>
					</defs>
					<clipPath id="SVGID_114_">
						<use xlink:href="#SVGID_113_"  style="overflow:visible;"/>
					</clipPath>
					<g class="st56">
						<defs>
							<rect id="SVGID_115_" x="947" y="250" width="78" height="81"/>
						</defs>
						<clipPath id="SVGID_116_">
							<use xlink:href="#SVGID_115_"  style="overflow:visible;"/>
						</clipPath>
						<rect x="942.6" y="245.6" class="st57" width="99.6" height="89.5"/>
					</g>
				</g>
			</g>
		</g>
	</g>
</g>
<g>
	<defs>
		<path id="SVGID_117_" d="M1034.2,285.9c-0.4-5.8-1.6-11.6-4-17c-2.4-5.3-6.7-8.4-10.7-12.5c-4.1-4.1-9.6-6.1-15.2-7.4
			c-15.5-3.6-34.4-1.9-47.4,8c-17.9,13.6-17.4,41.8-3.9,58.3c11.4,14,33.7,15.3,50,11.1c8.2-2.1,16.2-6.1,22-12.4
			C1032.3,306.3,1034.7,296.1,1034.2,285.9c0-0.9-1.4-0.7-1.4,0.2c0.4,9-1.5,18.1-7.2,25.2c-4.6,5.8-11.1,9.8-18.1,12.3
			c-7,2.5-14.4,3.4-21.9,3.1c-9.5-0.3-19.6-1.9-27.2-8.1c-16.4-13.5-19.2-43.2-3.4-58.1c11.4-10.8,29-13.2,44-11.1
			c6.1,0.9,13.4,2.5,18.2,6.7c3.9,3.5,8.7,7.4,11,12.1c2.8,5.5,4,11.7,4.4,17.8C1032.9,287,1034.3,286.8,1034.2,285.9"/>
	</defs>
	<clipPath id="SVGID_118_">
		<use xlink:href="#SVGID_117_"  style="overflow:visible;"/>
	</clipPath>
	<g class="st58">
		<defs>
			<rect id="SVGID_119_" x="1" y="-2018" width="1024" height="2615"/>
		</defs>
		<clipPath id="SVGID_120_">
			<use xlink:href="#SVGID_119_"  style="overflow:visible;"/>
		</clipPath>
		<rect x="938.3" y="242.2" class="st59" width="101" height="91.3"/>
	</g>
</g>
<g>
	<defs>
		<path id="SVGID_121_" d="M988.4,310.2c-0.7,0.4-1.2,0.9-1.5,1.6c-0.7,1.4-0.2,2.4-1.4,3.8c-1.4,1.6-2.7,1.8-4.8,2
			c-6.6,0.6-12.2-2.2-16.8-6.6c-9.1-8.9-14.3-26.1-6.3-37.2c1.2-1.6,2.7-2.8,4.6-3.4c1.2-0.4,4.6-0.8,5.9,0.1c0.2,0.2,0.1,0,0.4,0.7
			c0.3,0.7,0.3,1.8,0.5,2.6c0.1,0.7,0.3,1.4,0.4,2.1c0.1,0.6,0.1,0.8,0.2,0.3c-0.1,0.7-0.7,1.5-1,2.1c-2.6,6.5-2.1,13.8,3.4,18.6
			c1.6,1.4,10.5,8.7,12.6,3.8c-0.5,0-0.9,0-1.4,0.1c1.6,3.4,3.3,6.9,4.9,10.3c0.4,0.9,1.8,0.2,1.4-0.6c-1.6-3.4-3.3-6.9-4.9-10.3
			c-0.3-0.6-1.1-0.5-1.4,0.1c-0.8,2-6-1.3-6.8-1.8c-5.4-3.6-8.6-8.3-7.6-15c0.4-2.3,1.9-4.5,2.2-6.7c0.3-2-0.8-4.8-1.2-6.8
			c0-0.3-0.2-0.5-0.5-0.6c-7.7-2.7-13,1.8-15.6,8.9c-3.1,8.7-1,19,3.7,26.8c3.7,6.2,9.5,12,16.7,13.6c3.2,0.8,7.4,0.9,10.5-0.4
			c1.2-0.5,2.1-1.3,2.8-2.4c0.6-1,0.7-3.9,1.6-4.4C989.9,311.2,989.3,309.8,988.4,310.2"/>
	</defs>
	<clipPath id="SVGID_122_">
		<use xlink:href="#SVGID_121_"  style="overflow:visible;"/>
	</clipPath>
	<g class="st60">
		<defs>
			<rect id="SVGID_123_" x="1" y="-2018" width="1024" height="2615"/>
		</defs>
		<clipPath id="SVGID_124_">
			<use xlink:href="#SVGID_123_"  style="overflow:visible;"/>
		</clipPath>
		<rect x="947.2" y="263.6" class="st61" width="47.3" height="60.7"/>
	</g>
</g>
<g>
	<defs>
		<path id="SVGID_125_" d="M961.2,290.6c-0.4,0-0.9,0.1-1.3,0.1c-0.4,0-0.7,0.5-0.6,0.9c0.1,0.4,0.4,0.7,0.9,0.6
			c0.4,0,0.9-0.1,1.3-0.1c0.4,0,0.7-0.5,0.6-0.9C962,290.8,961.6,290.6,961.2,290.6"/>
	</defs>
	<clipPath id="SVGID_126_">
		<use xlink:href="#SVGID_125_"  style="overflow:visible;"/>
	</clipPath>
	<g class="st62">
		<defs>
			<rect id="SVGID_127_" x="1" y="-2018" width="1024" height="2615"/>
		</defs>
		<clipPath id="SVGID_128_">
			<use xlink:href="#SVGID_127_"  style="overflow:visible;"/>
		</clipPath>
		<rect x="954.2" y="285.6" class="st63" width="12.8" height="11.6"/>
	</g>
</g>
<g>
	<defs>
		<path id="SVGID_129_" d="M963.1,298.3c-0.4,0.2-0.8,0.4-1.2,0.6c-0.9,0.4-0.3,1.8,0.6,1.4c0.4-0.2,0.8-0.4,1.2-0.6
			C964.6,299.2,964,297.9,963.1,298.3"/>
	</defs>
	<clipPath id="SVGID_130_">
		<use xlink:href="#SVGID_129_"  style="overflow:visible;"/>
	</clipPath>
	<g class="st64">
		<defs>
			<rect id="SVGID_131_" x="1" y="-2018" width="1024" height="2615"/>
		</defs>
		<clipPath id="SVGID_132_">
			<use xlink:href="#SVGID_131_"  style="overflow:visible;"/>
		</clipPath>
		<rect x="956.4" y="293.2" class="st65" width="12.7" height="12.1"/>
	</g>
</g>
<g>
	<defs>
		<path id="SVGID_133_" d="M967.1,304.6c-0.3,0.3-0.6,0.6-1,1c-0.3,0.3-0.2,0.8,0.1,1.1c0.3,0.3,0.8,0.2,1-0.1c0.3-0.3,0.6-0.6,1-1
			c0.3-0.3,0.2-0.8-0.1-1C967.8,304.2,967.4,304.4,967.1,304.6"/>
	</defs>
	<clipPath id="SVGID_134_">
		<use xlink:href="#SVGID_133_"  style="overflow:visible;"/>
	</clipPath>
	<g class="st66">
		<defs>
			<rect id="SVGID_135_" x="1" y="-2018" width="1024" height="2615"/>
		</defs>
		<clipPath id="SVGID_136_">
			<use xlink:href="#SVGID_135_"  style="overflow:visible;"/>
		</clipPath>
		<rect x="961" y="299.4" class="st67" width="12.5" height="12.4"/>
	</g>
</g>
<g>
	<defs>
		<path id="SVGID_137_" d="M972.1,309c-0.2,0.4-0.4,0.8-0.6,1.2c-0.2,0.4,0.1,0.8,0.4,1c0.4,0.2,0.8-0.1,1-0.4
			c0.2-0.4,0.4-0.8,0.6-1.2c0.2-0.4-0.1-0.8-0.4-1C972.6,308.4,972.3,308.6,972.1,309"/>
	</defs>
	<clipPath id="SVGID_138_">
		<use xlink:href="#SVGID_137_"  style="overflow:visible;"/>
	</clipPath>
	<g class="st68">
		<defs>
			<rect id="SVGID_139_" x="1" y="-2018" width="1024" height="2615"/>
		</defs>
		<clipPath id="SVGID_140_">
			<use xlink:href="#SVGID_139_"  style="overflow:visible;"/>
		</clipPath>
		<rect x="966.5" y="303.5" class="st69" width="12.1" height="12.7"/>
	</g>
</g>
<g>
	<defs>
		<path id="SVGID_141_" d="M979.1,310.8c0,0.5-0.1,0.9-0.1,1.4c0,0.4,0.2,0.8,0.6,0.9c0.4,0.1,0.8-0.2,0.9-0.6
			c0-0.5,0.1-0.9,0.1-1.4c0-0.4-0.2-0.8-0.6-0.9C979.6,310.1,979.1,310.4,979.1,310.8"/>
	</defs>
	<clipPath id="SVGID_142_">
		<use xlink:href="#SVGID_141_"  style="overflow:visible;"/>
	</clipPath>
	<g class="st70">
		<defs>
			<rect id="SVGID_143_" x="1" y="-2018" width="1024" height="2615"/>
		</defs>
		<clipPath id="SVGID_144_">
			<use xlink:href="#SVGID_143_"  style="overflow:visible;"/>
		</clipPath>
		<rect x="974" y="305.1" class="st71" width="11.6" height="12.8"/>
	</g>
</g>
<g>
	<defs>
		<path id="SVGID_145_" d="M964.5,275.9c-0.4-0.2-0.8-0.3-1.3-0.5c-0.9-0.3-1.4,1.1-0.5,1.4c0.4,0.2,0.8,0.3,1.3,0.5
			C964.9,277.6,965.4,276.2,964.5,275.9"/>
	</defs>
	<clipPath id="SVGID_146_">
		<use xlink:href="#SVGID_145_"  style="overflow:visible;"/>
	</clipPath>
	<g class="st72">
		<defs>
			<rect id="SVGID_147_" x="1" y="-2018" width="1024" height="2615"/>
		</defs>
		<clipPath id="SVGID_148_">
			<use xlink:href="#SVGID_147_"  style="overflow:visible;"/>
		</clipPath>
		<rect x="957.3" y="270.4" class="st73" width="12.7" height="12"/>
	</g>
</g>
<g>
	<defs>
		<path id="SVGID_149_" d="M961.7,283.1c-0.4-0.1-0.9-0.2-1.3-0.3c-0.4-0.1-0.8,0.3-0.8,0.7c0,0.4,0.3,0.7,0.7,0.8
			c0.4,0.1,0.9,0.2,1.3,0.3c0.4,0.1,0.8-0.3,0.8-0.7C962.5,283.4,962.1,283.1,961.7,283.1"/>
	</defs>
	<clipPath id="SVGID_150_">
		<use xlink:href="#SVGID_149_"  style="overflow:visible;"/>
	</clipPath>
	<g class="st74">
		<defs>
			<rect id="SVGID_151_" x="1" y="-2018" width="1024" height="2615"/>
		</defs>
		<clipPath id="SVGID_152_">
			<use xlink:href="#SVGID_151_"  style="overflow:visible;"/>
		</clipPath>
		<rect x="954.6" y="277.8" class="st75" width="12.8" height="11.8"/>
	</g>
</g>
<g>
	<defs>
		<path id="SVGID_153_" d="M991.2,265.1c0.8-0.4,1.1-0.9,1.5-1.7c0.8-1.6,0.3-2.9,2-4.2c1.7-1.3,3-1.5,5.3-1.6
			c6.2-0.3,11.5,2.5,15.8,6.8c9,8.9,14.4,26.1,6.3,37.2c-1.4,1.9-3.2,3.1-5.5,3.6c-1.2,0.2-4,0.5-5.1-0.4c-0.4-0.4-0.7-2.2-0.9-3.3
			c-0.1-0.7-0.3-1.4-0.4-2.1c-0.1-0.6-0.1-0.7-0.2-0.3c0.1-0.7,0.7-1.5,1-2.2c2.6-6.7,2-14.1-3.8-18.9c-1.7-1.4-10.2-8.2-12.2-3.4
			c0.5-0.1,0.9-0.1,1.4-0.2c-1.6-3.4-3.3-6.9-4.9-10.3c-0.4-0.9-1.7-0.1-1.3,0.7c1.6,3.4,3.3,6.9,4.9,10.3c0.3,0.6,1.1,0.4,1.4-0.2
			c0.8-1.8,5.8,1.2,6.8,1.9c5.6,3.7,8.7,8.5,7.5,15.3c-0.4,2.2-1.9,4.4-2.2,6.5c-0.2,2,0.8,4.8,1.2,6.8c0,0.3,0.3,0.5,0.5,0.5
			c7.7,2.7,13-1.9,15.5-8.9c3.1-8.7,0.9-19-3.7-26.8c-3.8-6.5-10.1-12.5-17.8-13.8c-3-0.5-7.1-0.6-9.9,0.8c-1.1,0.6-2,1.5-2.6,2.6
			c-0.5,1-0.5,3.5-1.5,4C989.6,264.2,990.3,265.5,991.2,265.1"/>
	</defs>
	<clipPath id="SVGID_154_">
		<use xlink:href="#SVGID_153_"  style="overflow:visible;"/>
	</clipPath>
	<g class="st76">
		<defs>
			<rect id="SVGID_155_" x="1" y="-2018" width="1024" height="2615"/>
		</defs>
		<clipPath id="SVGID_156_">
			<use xlink:href="#SVGID_155_"  style="overflow:visible;"/>
		</clipPath>
		<rect x="985.1" y="251" class="st77" width="47.3" height="60.7"/>
	</g>
</g>
<g>
	<defs>
		<path id="SVGID_157_" d="M1018.3,284.7c0.5,0,0.9-0.1,1.3-0.1c1-0.1,0.8-1.6-0.1-1.5c-0.4,0-0.9,0.1-1.3,0.1
			C1017.2,283.3,1017.3,284.8,1018.3,284.7"/>
	</defs>
	<clipPath id="SVGID_158_">
		<use xlink:href="#SVGID_157_"  style="overflow:visible;"/>
	</clipPath>
	<g class="st78">
		<defs>
			<rect id="SVGID_159_" x="1" y="-2018" width="1024" height="2615"/>
		</defs>
		<clipPath id="SVGID_160_">
			<use xlink:href="#SVGID_159_"  style="overflow:visible;"/>
		</clipPath>
		<rect x="1012.5" y="278.1" class="st79" width="12.8" height="11.6"/>
	</g>
</g>
<g>
	<defs>
		<path id="SVGID_161_" d="M1016.5,277.1c0.4-0.2,0.8-0.4,1.2-0.6c0.9-0.4,0.3-1.8-0.6-1.4c-0.4,0.2-0.8,0.4-1.2,0.6
			C1015,276.1,1015.6,277.5,1016.5,277.1"/>
	</defs>
	<clipPath id="SVGID_162_">
		<use xlink:href="#SVGID_161_"  style="overflow:visible;"/>
	</clipPath>
	<g class="st80">
		<defs>
			<rect id="SVGID_163_" x="1" y="-2018" width="1024" height="2615"/>
		</defs>
		<clipPath id="SVGID_164_">
			<use xlink:href="#SVGID_163_"  style="overflow:visible;"/>
		</clipPath>
		<rect x="1010.4" y="270.1" class="st81" width="12.7" height="12.1"/>
	</g>
</g>
<g>
	<defs>
		<path id="SVGID_165_" d="M1012.4,270.7c0.3-0.3,0.6-0.6,1-1c0.3-0.3,0.2-0.8-0.1-1.1c-0.3-0.3-0.8-0.2-1.1,0.1
			c-0.3,0.3-0.6,0.6-1,1c-0.3,0.3-0.2,0.8,0.1,1.1C1011.7,271.1,1012.1,271,1012.4,270.7"/>
	</defs>
	<clipPath id="SVGID_166_">
		<use xlink:href="#SVGID_165_"  style="overflow:visible;"/>
	</clipPath>
	<g class="st82">
		<defs>
			<rect id="SVGID_167_" x="1" y="-2018" width="1024" height="2615"/>
		</defs>
		<clipPath id="SVGID_168_">
			<use xlink:href="#SVGID_167_"  style="overflow:visible;"/>
		</clipPath>
		<rect x="1006.1" y="263.5" class="st83" width="12.5" height="12.4"/>
	</g>
</g>
<g>
	<defs>
		<path id="SVGID_169_" d="M1007.5,266.3c0.2-0.4,0.4-0.8,0.6-1.2c0.2-0.4-0.1-0.8-0.4-1c-0.4-0.2-0.8,0.1-1,0.4
			c-0.2,0.4-0.4,0.8-0.6,1.2c-0.2,0.4,0.1,0.8,0.4,1C1006.9,266.9,1007.3,266.7,1007.5,266.3"/>
	</defs>
	<clipPath id="SVGID_170_">
		<use xlink:href="#SVGID_169_"  style="overflow:visible;"/>
	</clipPath>
	<g class="st84">
		<defs>
			<rect id="SVGID_171_" x="1" y="-2018" width="1024" height="2615"/>
		</defs>
		<clipPath id="SVGID_172_">
			<use xlink:href="#SVGID_171_"  style="overflow:visible;"/>
		</clipPath>
		<rect x="1001" y="259.1" class="st85" width="12.1" height="12.7"/>
	</g>
</g>
<g>
	<defs>
		<path id="SVGID_173_" d="M1000.5,264.5c0-0.5,0.1-0.9,0.1-1.3c0.1-1-1.4-1-1.5-0.1c0,0.5-0.1,0.9-0.1,1.3
			C998.9,265.4,1000.4,265.4,1000.5,264.5"/>
	</defs>
	<clipPath id="SVGID_174_">
		<use xlink:href="#SVGID_173_"  style="overflow:visible;"/>
	</clipPath>
	<g class="st86">
		<defs>
			<rect id="SVGID_175_" x="1" y="-2018" width="1024" height="2615"/>
		</defs>
		<clipPath id="SVGID_176_">
			<use xlink:href="#SVGID_175_"  style="overflow:visible;"/>
		</clipPath>
		<rect x="994" y="257.4" class="st87" width="11.6" height="12.8"/>
	</g>
</g>
<g>
	<defs>
		<path id="SVGID_177_" d="M1014.9,299.4l1.3,0.5c0.4,0.1,0.8,0.1,1-0.3c0.2-0.3,0.1-0.9-0.3-1l-1.3-0.5c-0.4-0.1-0.8-0.1-1,0.3
			C1014.5,298.7,1014.6,299.2,1014.9,299.4"/>
	</defs>
	<clipPath id="SVGID_178_">
		<use xlink:href="#SVGID_177_"  style="overflow:visible;"/>
	</clipPath>
	<g class="st88">
		<defs>
			<rect id="SVGID_179_" x="1" y="-2018" width="1024" height="2615"/>
		</defs>
		<clipPath id="SVGID_180_">
			<use xlink:href="#SVGID_179_"  style="overflow:visible;"/>
		</clipPath>
		<rect x="1009.6" y="293" class="st89" width="12.7" height="11.9"/>
	</g>
</g>
<g>
	<defs>
		<path id="SVGID_181_" d="M1017.7,292.3c0.4,0.1,0.9,0.2,1.3,0.3c0.9,0.2,1.2-1.3,0.3-1.5c-0.4-0.1-0.9-0.2-1.3-0.3
			C1017.1,290.6,1016.8,292.1,1017.7,292.3"/>
	</defs>
	<clipPath id="SVGID_182_">
		<use xlink:href="#SVGID_181_"  style="overflow:visible;"/>
	</clipPath>
	<g class="st90">
		<defs>
			<rect id="SVGID_183_" x="1" y="-2018" width="1024" height="2615"/>
		</defs>
		<clipPath id="SVGID_184_">
			<use xlink:href="#SVGID_183_"  style="overflow:visible;"/>
		</clipPath>
		<rect x="1012.2" y="285.8" class="st91" width="12.8" height="11.8"/>
	</g>
</g>
<g>
	<defs>
		<rect id="SVGID_185_" x="-7.9" y="225.6" width="97.2" height="91.1"/>
	</defs>
	<clipPath id="SVGID_186_">
		<use xlink:href="#SVGID_185_"  style="overflow:visible;"/>
	</clipPath>
	<g class="st92">
		<defs>
			<rect id="SVGID_187_" x="1" y="-2018" width="1024" height="2615"/>
		</defs>
		<clipPath id="SVGID_188_">
			<use xlink:href="#SVGID_187_"  style="overflow:visible;"/>
		</clipPath>
		<g class="st93">
			<g>
				<defs>
					<rect id="SVGID_189_" x="-13" y="220" width="105" height="98"/>
				</defs>
				<clipPath id="SVGID_190_">
					<use xlink:href="#SVGID_189_"  style="overflow:visible;"/>
				</clipPath>
				<g class="st94">
					<defs>
						<path id="SVGID_191_" d="M87.7,258.9c-1-1.5-3-2.5-3.7-4c-0.6-1.3-0.5-3.2-0.9-4.7c-1-3.5-2.9-6.7-5.4-9.4
							c-7-7.4-36-17.3-42.4-12.1C30.7,220.8,9,230.2,6,233c-1.5,1.4-2.6,3.2-3.1,5.2c-0.5,2.2,0.2,3.3-1.5,4.9
							c-3.5,3.3-6.4,6.1-7.9,10.8c-1.5,4.9-1.1,9.9,0.8,14.6c-7.7,5,6,37,15.3,33.5c-1.2,10.2,23.6,15.3,28.7,14.7
							c1.2-0.1,2.4-0.5,3.4-1.1c1.3-0.7,2.5-2.4,3.8-2.9c1.3-0.4,3.7,0.6,5,0.7c1.7,0.1,3.5,0.1,5.2-0.1
							c12.8-1.7,29.8-33.5,27.3-39.8C88.7,270.9,91.2,264.3,87.7,258.9"/>
					</defs>
					<clipPath id="SVGID_192_">
						<use xlink:href="#SVGID_191_"  style="overflow:visible;"/>
					</clipPath>
					<g class="st95">
						<defs>
							<rect id="SVGID_193_" x="1" y="225" width="89" height="92"/>
						</defs>
						<clipPath id="SVGID_194_">
							<use xlink:href="#SVGID_193_"  style="overflow:visible;"/>
						</clipPath>
						<rect x="-12.9" y="220.6" class="st96" width="107.2" height="101.1"/>
					</g>
				</g>
			</g>
		</g>
	</g>
</g>
<g>
	<defs>
		<path id="SVGID_195_" d="M59.1,266.2c-0.2,9.4-5.6,17.9-14.5,21.4c-9.1,3.6-19.6,0.9-26-6.4c-13.9-16.1,1.1-41.5,21.9-37.4
			c10.9,2.1,18.3,11.7,18.6,22.6c0,1,1.5,0.8,1.5-0.2c-0.2-10.2-6.5-19.5-16.3-22.9c-9.5-3.3-20.3-0.4-26.8,7.2
			c-6.5,7.6-7.6,18.8-2.7,27.6c5.1,9.1,15.7,14.1,26,12.1c11.5-2.2,19.6-12.3,19.8-23.8C60.6,265.4,59.1,265.2,59.1,266.2"/>
	</defs>
	<clipPath id="SVGID_196_">
		<use xlink:href="#SVGID_195_"  style="overflow:visible;"/>
	</clipPath>
	<g class="st97">
		<defs>
			<rect id="SVGID_197_" x="1" y="-2018" width="1024" height="2615"/>
		</defs>
		<clipPath id="SVGID_198_">
			<use xlink:href="#SVGID_197_"  style="overflow:visible;"/>
		</clipPath>
		<rect x="6.7" y="236.9" class="st98" width="58.9" height="58.8"/>
	</g>
</g>
<g>
	<defs>
		<rect id="SVGID_199_" x="-11.3" y="220.7" width="59.3" height="45.8"/>
	</defs>
	<clipPath id="SVGID_200_">
		<use xlink:href="#SVGID_199_"  style="overflow:visible;"/>
	</clipPath>
	<g class="st99">
		<defs>
			<rect id="SVGID_201_" x="1" y="-2018" width="1024" height="2615"/>
		</defs>
		<clipPath id="SVGID_202_">
			<use xlink:href="#SVGID_201_"  style="overflow:visible;"/>
		</clipPath>
		<g class="st100">
			<g>
				<defs>
					<rect id="SVGID_203_" x="-13" y="217" width="62" height="50"/>
				</defs>
				<clipPath id="SVGID_204_">
					<use xlink:href="#SVGID_203_"  style="overflow:visible;"/>
				</clipPath>
				<g class="st101">
					<defs>
						<path id="SVGID_205_" d="M48.1,233.3c-0.5-9.1-10.9-13-17.4-6.8l1.3,0.2c-4.4-9.1-17.5-7.5-19.3,2.6c0.4-0.2,0.7-0.4,1.1-0.5
							c-3.8-1.9-8.3-1.7-11.6,1.2c-1.3,1.2-2.4,2.7-2.9,4.4c-0.7,2.2,0,4.1-1.7,5.7c-3.4,3.2-6.2,5.8-7.8,10.4
							c-1.7,5.1-1.3,10.6,0.9,15.5c0.4,0.9,1.8,0.4,1.4-0.5c-4.2-9.5-0.9-20,8.1-25.3c0.2-0.1,0.4-0.4,0.3-0.7
							c-1.3-7.4,5.7-12.8,12.5-9.5c0.4,0.2,1-0.1,1.1-0.5c1.5-8.5,12.6-10.3,16.4-2.3c0.3,0.5,0.8,0.7,1.3,0.2
							c5.7-5.4,14.4-1.7,14.8,5.9C46.6,234.3,48.1,234.2,48.1,233.3"/>
					</defs>
					<clipPath id="SVGID_206_">
						<use xlink:href="#SVGID_205_"  style="overflow:visible;"/>
					</clipPath>
					<g class="st102">
						<defs>
							<rect id="SVGID_207_" x="1" y="220" width="48" height="47"/>
						</defs>
						<clipPath id="SVGID_208_">
							<use xlink:href="#SVGID_207_"  style="overflow:visible;"/>
						</clipPath>
						<rect x="-16.3" y="215.7" class="st103" width="69.3" height="55.8"/>
					</g>
				</g>
			</g>
		</g>
	</g>
</g>
<g>
	<defs>
		<path id="SVGID_209_" d="M48.3,286.8c5.5,6.4,15.3,4.1,17.7-3.9c-0.4,0.2-0.7,0.3-1.1,0.5c9.1,4.7,18.3-4.2,14.1-13.4
			c-0.1,0.4-0.3,0.7-0.4,1.1c5.9-2.3,9-9.3,5.3-14.9c-0.8-1.3-2.3-2-3.2-3.1c-1-1.4-0.9-3.5-1.3-5.1c-0.9-3.4-2.7-6.7-5-9.3
			c-10.6-12-29.7-9.7-37.9,3.7c-0.5,0.8,0.8,1.5,1.3,0.7c7.2-11.7,23.5-14.6,33.8-5.1c2.1,1.9,3.8,4.3,5,6.9c0.7,1.4,1.2,3,1.5,4.5
			c0.2,1-0.1,3.2,0.5,4c0.4,0.6,0.5,0.3,1.3,0.9c1.8,1.4,3.2,3,3.7,5.3c1,4.4-1.5,8.4-5.6,10c-0.5,0.2-0.7,0.6-0.4,1.1
			c3.7,7.9-4.4,15.3-12,11.3c-0.4-0.2-1,0-1.1,0.5c-2.1,7-10.4,8.7-15.2,3.2C48.7,285,47.7,286,48.3,286.8"/>
	</defs>
	<clipPath id="SVGID_210_">
		<use xlink:href="#SVGID_209_"  style="overflow:visible;"/>
	</clipPath>
	<g class="st104">
		<defs>
			<rect id="SVGID_211_" x="1" y="-2018" width="1024" height="2615"/>
		</defs>
		<clipPath id="SVGID_212_">
			<use xlink:href="#SVGID_211_"  style="overflow:visible;"/>
		</clipPath>
		<rect x="31.4" y="225.7" class="st105" width="59" height="69.7"/>
	</g>
</g>
<g>
	<defs>
		<rect id="SVGID_213_" x="-14" y="263.3" width="86.2" height="50.5"/>
	</defs>
	<clipPath id="SVGID_214_">
		<use xlink:href="#SVGID_213_"  style="overflow:visible;"/>
	</clipPath>
	<g class="st106">
		<defs>
			<rect id="SVGID_215_" x="1" y="-2018" width="1024" height="2615"/>
		</defs>
		<clipPath id="SVGID_216_">
			<use xlink:href="#SVGID_215_"  style="overflow:visible;"/>
		</clipPath>
		<g class="st107">
			<g>
				<defs>
					<rect id="SVGID_217_" x="-18" y="261" width="92" height="55"/>
				</defs>
				<clipPath id="SVGID_218_">
					<use xlink:href="#SVGID_217_"  style="overflow:visible;"/>
				</clipPath>
				<g class="st108">
					<defs>
						<path id="SVGID_219_" d="M70.5,284c2,16.3-13.3,28.9-29,23.9c-0.3-0.1-0.7,0-0.9,0.2c-4.6,6.7-14.5,4.6-15.9-3.5
							c-0.1-0.6-1-0.9-1.3-0.3c-5.2,9-18.2,3.6-15.9-6.4c0.1-0.5-0.6-1-1-0.8c-8.9,4.5-17.1-6-10.5-13.4c0.4-0.4,0-1.1-0.5-1.2
							c-9-1-10.9-13-2.8-16.5c6.4-2.8,13.7-0.3,19.2,3.3c0.8,0.5,1.7-0.7,0.9-1.2c-6.2-3.9-14.9-6.9-21.8-2.9
							c-8.7,5-5.2,17.7,4.4,18.8c-0.2-0.4-0.3-0.8-0.5-1.2c-7.6,8.6,2.1,20.8,12.3,15.7c-0.3-0.3-0.7-0.5-1-0.8
							c-2.6,11.5,12.6,17.8,18.6,7.5c-0.4-0.1-0.9-0.2-1.3-0.3c0.9,5.4,5.5,9.5,11.2,8.8c1.5-0.2,2.9-0.7,4.2-1.5
							c1-0.6,2-2.1,3.1-2.5c1.1-0.3,3.9,0.6,5,0.7c1.7,0.1,3.5,0.1,5.2-0.1c13-1.7,21.6-13.9,20-26.6
							C71.9,282.9,70.4,283.1,70.5,284"/>
					</defs>
					<clipPath id="SVGID_220_">
						<use xlink:href="#SVGID_219_"  style="overflow:visible;"/>
					</clipPath>
					<g class="st109">
						<defs>
							<rect id="SVGID_221_" x="1" y="263" width="72" height="51"/>
						</defs>
						<clipPath id="SVGID_222_">
							<use xlink:href="#SVGID_221_"  style="overflow:visible;"/>
						</clipPath>
						<rect x="-19" y="258.3" class="st110" width="96.2" height="60.5"/>
					</g>
				</g>
			</g>
		</g>
	</g>
</g>
<g>
	<defs>
		<path id="SVGID_223_" d="M19.3,250.2c18.8,2.7,23.3,28,6.4,36.9c-0.9,0.4-0.1,1.8,0.7,1.3c8.5-4.5,13.2-14,11-23.5
			c-2-8.8-9.3-14.9-18.1-16.2C18.5,248.6,18.4,250.1,19.3,250.2"/>
	</defs>
	<clipPath id="SVGID_224_">
		<use xlink:href="#SVGID_223_"  style="overflow:visible;"/>
	</clipPath>
	<g class="st111">
		<defs>
			<rect id="SVGID_225_" x="1" y="-2018" width="1024" height="2615"/>
		</defs>
		<clipPath id="SVGID_226_">
			<use xlink:href="#SVGID_225_"  style="overflow:visible;"/>
		</clipPath>
		<rect x="13.7" y="243.7" class="st112" width="29.4" height="49.8"/>
	</g>
</g>
<g>
	<defs>
		<path id="SVGID_227_" d="M37.5,265.9c6.5-4.3,14-5.5,21.6-3.5c0.9,0.2,1.4-1.2,0.4-1.4c-7.9-2.1-15.9-0.8-22.8,3.7
			C36,265.1,36.7,266.4,37.5,265.9"/>
	</defs>
	<clipPath id="SVGID_228_">
		<use xlink:href="#SVGID_227_"  style="overflow:visible;"/>
	</clipPath>
	<g class="st113">
		<defs>
			<rect id="SVGID_229_" x="1" y="-2018" width="1024" height="2615"/>
		</defs>
		<clipPath id="SVGID_230_">
			<use xlink:href="#SVGID_229_"  style="overflow:visible;"/>
		</clipPath>
		<rect x="31.5" y="254.9" class="st114" width="33.6" height="16.1"/>
	</g>
</g>
<g>
	<defs>
		<path id="SVGID_231_" d="M42,308.9c1-2.7,1.5-5.6,1.5-8.4c0-1-1.5-1.1-1.5-0.1c0,2.7-0.4,5.5-1.4,8
			C40.2,309.2,41.6,309.7,42,308.9"/>
	</defs>
	<clipPath id="SVGID_232_">
		<use xlink:href="#SVGID_231_"  style="overflow:visible;"/>
	</clipPath>
	<g class="st115">
		<defs>
			<rect id="SVGID_233_" x="1" y="-2018" width="1024" height="2615"/>
		</defs>
		<clipPath id="SVGID_234_">
			<use xlink:href="#SVGID_233_"  style="overflow:visible;"/>
		</clipPath>
		<rect x="35.5" y="294.6" class="st116" width="13" height="19.7"/>
	</g>
</g>
<g>
	<defs>
		<path id="SVGID_235_" d="M1069.9,152.7l0.2-0.2c1.3-1.1,1.6-2.9,0.8-4.3c-6.3-11.9-16.4-18.5-20-20.6c0-1-3-5.4-4.7-5.9
			c-9.1-2.6-18.7-2.7-19.1-2.7h0c-11.2,0-23.8,7.6-23.8,8.6c-3.6,2.1-13.7,8.7-20,20.6c-0.8,1.5-0.4,3.2,0.8,4.3l0.2,0.2
			c-0.9,2.2-4,10-3.3,17.3c0.2,1.9,1.7,3.5,3.8,3.9c0.4,0.1,0.8,0.1,1.2,0.1c1.7,0,3.3-0.8,4.2-2.2c2.1-3.2,8.6-7.1,9.4-7.1
			c0.9,0,1.9-0.3,2.7-0.8c2.3-1.7,13.8-2.9,15.4-2.9h19.1c1.6,0,13.1,1.2,15.4,2.9c0.8,0.6,1.7,0.8,2.7,0.8c0.8,0,7.4,3.9,9.4,7.1
			c0.9,1.4,2.5,2.2,4.2,2.2c0.4,0,0.8,0,1.1-0.1c2.1-0.4,3.6-2,3.8-3.9C1073.9,162.7,1070.9,154.9,1069.9,152.7"/>
	</defs>
	<clipPath id="SVGID_236_">
		<use xlink:href="#SVGID_235_"  style="overflow:visible;"/>
	</clipPath>
	<g class="st117">
		<defs>
			<rect id="SVGID_237_" x="1" y="-2018" width="1024" height="2615"/>
		</defs>
		<clipPath id="SVGID_238_">
			<use xlink:href="#SVGID_237_"  style="overflow:visible;"/>
		</clipPath>
		<rect x="975.9" y="114.1" class="st118" width="102.5" height="65"/>
	</g>
</g>
<g>
	<defs>
		<path id="SVGID_239_" d="M1008.6,127.6h2.6c1,0,0.9-1.5-0.1-1.5h-2.6C1007.6,126.1,1007.7,127.6,1008.6,127.6"/>
	</defs>
	<clipPath id="SVGID_240_">
		<use xlink:href="#SVGID_239_"  style="overflow:visible;"/>
	</clipPath>
	<g class="st119">
		<defs>
			<rect id="SVGID_241_" x="1" y="-2018" width="1024" height="2615"/>
		</defs>
		<clipPath id="SVGID_242_">
			<use xlink:href="#SVGID_241_"  style="overflow:visible;"/>
		</clipPath>
		<rect x="1002.9" y="121.1" class="st120" width="14.1" height="11.5"/>
	</g>
</g>
<g>
	<defs>
		<path id="SVGID_243_" d="M1015.9,134.7h2.6c1,0,0.9-1.5-0.1-1.5h-2.6C1014.9,133.2,1014.9,134.7,1015.9,134.7"/>
	</defs>
	<clipPath id="SVGID_244_">
		<use xlink:href="#SVGID_243_"  style="overflow:visible;"/>
	</clipPath>
	<g class="st121">
		<defs>
			<rect id="SVGID_245_" x="1" y="-2018" width="1024" height="2615"/>
		</defs>
		<clipPath id="SVGID_246_">
			<use xlink:href="#SVGID_245_"  style="overflow:visible;"/>
		</clipPath>
		<rect x="1010.1" y="128.2" class="st122" width="14.1" height="11.5"/>
	</g>
</g>
<g>
	<defs>
		<path id="SVGID_247_" d="M1026,126.1h-2.6c-1,0-0.9,1.5,0,1.5h2.6C1027,127.6,1027,126.1,1026,126.1"/>
	</defs>
	<clipPath id="SVGID_248_">
		<use xlink:href="#SVGID_247_"  style="overflow:visible;"/>
	</clipPath>
	<g class="st123">
		<defs>
			<rect id="SVGID_249_" x="1" y="-2018" width="1024" height="2615"/>
		</defs>
		<clipPath id="SVGID_250_">
			<use xlink:href="#SVGID_249_"  style="overflow:visible;"/>
		</clipPath>
		<rect x="1017.7" y="121.1" class="st124" width="14.1" height="11.5"/>
	</g>
</g>
<g>
	<defs>
		<path id="SVGID_251_" d="M999.6,125.6c-5.4,3.4-10.2,7.8-14.3,12.7c-1.6,2-3.2,4.1-4.5,6.3c-1.2,1.9-3,4.3-3.3,6.5
			c-0.3,2.1,0.8,3.3,2.1,4.7c3.9,4,7.8,8,11.8,11.8c1.8,1.7,3.7,2.2,5.9,0.9c4.7-2.7,8.5-6.1,13.8-8c0.9-0.3,0.3-1.7-0.6-1.4
			c-4.1,1.4-7.8,3.6-11.3,6.1c-1.8,1.3-3.9,3.2-6.5,1.6c-0.5-0.3-1-1-1.5-1.5c-3.5-3.4-6.9-6.9-10.4-10.3c-0.3-0.3-0.9-0.7-1.1-1.1
			c-1.5-2.7,0.2-5.1,1.5-7.4c2-3.5,4.4-6.7,7.1-9.7c3.5-3.9,7.5-7.4,12-10.1C1001.3,126.3,1000.4,125.1,999.6,125.6"/>
	</defs>
	<clipPath id="SVGID_252_">
		<use xlink:href="#SVGID_251_"  style="overflow:visible;"/>
	</clipPath>
	<g class="st125">
		<defs>
			<rect id="SVGID_253_" x="1" y="-2018" width="1024" height="2615"/>
		</defs>
		<clipPath id="SVGID_254_">
			<use xlink:href="#SVGID_253_"  style="overflow:visible;"/>
		</clipPath>
		<rect x="972.5" y="120.5" class="st126" width="44.2" height="53.7"/>
	</g>
</g>
<g>
	<defs>
		<rect id="SVGID_255_" x="999.5" y="115.7" width="50.4" height="49.5"/>
	</defs>
	<clipPath id="SVGID_256_">
		<use xlink:href="#SVGID_255_"  style="overflow:visible;"/>
	</clipPath>
	<g class="st127">
		<defs>
			<rect id="SVGID_257_" x="1" y="-2018" width="1024" height="2615"/>
		</defs>
		<clipPath id="SVGID_258_">
			<use xlink:href="#SVGID_257_"  style="overflow:visible;"/>
		</clipPath>
		<g class="st128">
			<g>
				<defs>
					<rect id="SVGID_259_" x="998" y="115" width="54" height="52"/>
				</defs>
				<clipPath id="SVGID_260_">
					<use xlink:href="#SVGID_259_"  style="overflow:visible;"/>
				</clipPath>
				<g class="st129">
					<defs>
						<path id="SVGID_261_" d="M1024.6,115.7c-3.1,0-6.1,0.3-9.1,0.8c-4.1,0.6-10.8,1-14,4c-3.4,3.3-1.6,7.5-0.4,11.3
							c1.9,6,3.9,12.1,5.8,18.1c1.3,4,2.2,8.6,4,12.5c1.9,4.2,9.4,2.5,13.1,2.5h5.9c2,0,5.3,0.6,7.1-0.7c2.5-1.7,3.2-7.5,4-10.1
							c2-6.3,4-12.5,6-18.8c1.2-3.8,4.1-9.2,2-13.1c-2.4-4.5-9.6-4.9-14.1-5.6C1031.6,116.1,1028.1,115.8,1024.6,115.7
							c-1,0-0.8,1.5,0.2,1.5c2.6,0,5.2,0.3,7.8,0.6c4.6,0.6,14,0.9,15.6,6c1,3.2-1.5,8-2.4,10.9c-1.7,5.3-3.4,10.6-5.1,15.9
							c-1.1,3.4-1.8,7.7-3.5,10.9c-1.8,3.3-8.8,1.9-12,1.9h-3.9c-2.5,0-7.4,1-8.9-1.5c-1.3-2.2-1.8-5.6-2.6-8
							c-1.7-5.4-3.5-10.8-5.2-16.3c-1.1-3.4-2.6-7-3.4-10.5c-1.6-7.8,9-8.4,14.5-9.2c3-0.4,6.1-0.7,9.1-0.8
							C1025.7,117.2,1025.6,115.7,1024.6,115.7"/>
					</defs>
					<clipPath id="SVGID_262_">
						<use xlink:href="#SVGID_261_"  style="overflow:visible;"/>
					</clipPath>
					<g class="st130">
						<defs>
							<rect id="SVGID_263_" x="999" y="115" width="26" height="51"/>
						</defs>
						<clipPath id="SVGID_264_">
							<use xlink:href="#SVGID_263_"  style="overflow:visible;"/>
						</clipPath>
						<rect x="994.5" y="110.7" class="st131" width="60.4" height="59.5"/>
					</g>
				</g>
			</g>
		</g>
	</g>
</g>
<g>
	<defs>
		<path id="SVGID_265_" d="M979.2,154.8c-1.2,2.9-2.1,5.9-2.8,8.9c-0.9,3.8-2.5,10.4-0.6,14c1.2,2.3,4.2,3.3,6.5,2.1
			c1.6-0.8,2.2-2.3,3.2-3.7c2-3.1,4.4-5.8,7.2-8.1c0.7-0.6-0.1-1.8-0.9-1.2c-2.9,2.4-5.3,5.2-7.5,8.4c-1.2,1.8-2.1,3.7-4.6,3.5
			c-3.4-0.3-3.1-4.1-3-6.6c0.2-5.7,1.6-11.5,3.8-16.7C981,154.5,979.6,153.9,979.2,154.8"/>
	</defs>
	<clipPath id="SVGID_266_">
		<use xlink:href="#SVGID_265_"  style="overflow:visible;"/>
	</clipPath>
	<g class="st132">
		<defs>
			<rect id="SVGID_267_" x="1" y="-2018" width="1024" height="2615"/>
		</defs>
		<clipPath id="SVGID_268_">
			<use xlink:href="#SVGID_267_"  style="overflow:visible;"/>
		</clipPath>
		<rect x="970" y="149.3" class="st133" width="28.1" height="36"/>
	</g>
</g>
<g>
	<defs>
		<path id="SVGID_269_" d="M33.5,120.1c-0.9-2.9-4-4.5-6.8-3.6l0,0c0,0-0.2,0.1-0.5,0.2c0,0,0,0-0.1,0c-0.1,0-0.2,0.1-0.3,0.1
			c-0.1,0.1-0.2,0.1-0.3,0.2c-0.1,0-0.2,0.1-0.2,0.2c0,0,0,0,0,0c-0.4,0.3-0.9,1.1-1.4,2.3l-1.9-3.3c-1.1-3.2-4.3-5.1-7.4-4.5
			c-1.3-2-3.8-3-6.1-2.2c-2.3,0.8-3.7,3-3.6,5.4c-2.9,1.3-4.4,4.8-3.4,8l-0.1,2.9c-0.8-0.2-1.4-0.2-2-0.2c0,0,0,0-0.1,0
			c-0.1,0-0.2,0-0.3,0c-0.1,0-0.2,0-0.4,0c-0.1,0-0.2,0-0.3,0.1c0,0,0,0-0.1,0c-0.3,0.1-0.5,0.1-0.5,0.1c-2.8,0.9-4.3,4-3.3,6.9
			c0.7,2.2,2.6,3.6,4.6,3.8c0,0.4,0.1,0.7,0.2,1.1c0.7,2.1,2.9,3.3,5,2.7c0.6-0.2,3.2,2.2,6,4.9c-1.5,2.7-1.6,6.2-0.1,9.4
			c3.2,6.3,9.3,17.2,19.4,28.1c1.8,2,4.8,1,5.1-1.7c1.6-14.8,0.2-27.1-1-34.1c-0.8-4.9-4.9-8.5-9.3-8.2c-0.1,0-0.1,0-0.2,0
			c-0.3,0-0.5,0-0.7,0.1c1.4-4.1,2.7-7.8,2.7-7.8c1,1,2.5,1.4,3.9,0.9c2.1-0.7,3.2-3,2.5-5.1c-0.1-0.4-0.3-0.7-0.5-1
			C33.6,124.6,34.3,122.3,33.5,120.1 M13.4,141.8l0.5,0.3c-0.1,0.1-0.2,0.1-0.3,0.2C13.5,142.1,13.4,141.9,13.4,141.8"/>
	</defs>
	<clipPath id="SVGID_270_">
		<use xlink:href="#SVGID_269_"  style="overflow:visible;"/>
	</clipPath>
	<g class="st134">
		<defs>
			<rect id="SVGID_271_" x="1" y="-2018" width="1024" height="2615"/>
		</defs>
		<clipPath id="SVGID_272_">
			<use xlink:href="#SVGID_271_"  style="overflow:visible;"/>
		</clipPath>
		<rect x="-4.2" y="102.5" transform="matrix(0.9397 -0.342 0.342 0.9397 -48.8123 16.128)" class="st135" width="51" height="88"/>
	</g>
</g>
<g>
	<defs>
		<path id="SVGID_273_" d="M28.9,185c1.9,1.5,4.7,1.5,6-0.8c1-1.8,0.7-4.4,0.8-6.4c0.1-2.5,0.2-5,0.2-7.5c0-5-0.3-10-1-14.9
			c-0.4-3.3-0.7-7.1-1.9-10.3c-3.5-9-13.7-7.4-20.7-3.6c-7.1,3.9-7.7,10.5-3.9,17.1c5.6,9.6,12.4,18.4,20.3,26.3
			c0.6,0.6,1.6-0.2,1-0.8c-6.8-6.8-12.8-14.2-17.9-22.4c-2.1-3.4-5-7.2-4.6-11.3c0.4-5.8,6-8.5,10.9-9.9c5.2-1.5,10.7-1.2,13.4,4.3
			c1.5,3.1,1.7,7.3,2.1,10.8c0.5,4.4,0.9,8.9,0.9,13.3c0,2.9,0,5.9-0.2,8.8c-0.1,2.5-0.4,9.9-4.8,6.3
			C29.1,183.5,28.3,184.5,28.9,185"/>
	</defs>
	<clipPath id="SVGID_274_">
		<use xlink:href="#SVGID_273_"  style="overflow:visible;"/>
	</clipPath>
	<g class="st136">
		<defs>
			<rect id="SVGID_275_" x="1" y="-2018" width="1024" height="2615"/>
		</defs>
		<clipPath id="SVGID_276_">
			<use xlink:href="#SVGID_275_"  style="overflow:visible;"/>
		</clipPath>
		<rect x="5.6" y="133.3" transform="matrix(0.9397 -0.342 0.342 0.9397 -54.209 18.2412)" class="st137" width="38" height="59"/>
	</g>
</g>
<g>
	<defs>
		<path id="SVGID_277_" d="M31,144l-8.3,3c-0.7,0.3-0.4,1.2,0.3,1l8.3-3C32,144.7,31.7,143.8,31,144"/>
	</defs>
	<clipPath id="SVGID_278_">
		<use xlink:href="#SVGID_277_"  style="overflow:visible;"/>
	</clipPath>
	<g class="st138">
		<defs>
			<rect id="SVGID_279_" x="1" y="-2018" width="1024" height="2615"/>
		</defs>
		<clipPath id="SVGID_280_">
			<use xlink:href="#SVGID_279_"  style="overflow:visible;"/>
		</clipPath>
		<rect x="17" y="140.5" transform="matrix(0.9397 -0.342 0.342 0.9397 -48.3085 18.0427)" class="st139" width="20" height="11"/>
	</g>
</g>
<g>
	<defs>
		<path id="SVGID_281_" d="M33.3,147.5l-4.5,1.6c-0.8,0.3-0.4,1.2,0.4,0.9l4.5-1.6C34.4,148.1,34,147.2,33.3,147.5"/>
	</defs>
	<clipPath id="SVGID_282_">
		<use xlink:href="#SVGID_281_"  style="overflow:visible;"/>
	</clipPath>
	<g class="st140">
		<defs>
			<rect id="SVGID_283_" x="1" y="-2018" width="1024" height="2615"/>
		</defs>
		<clipPath id="SVGID_284_">
			<use xlink:href="#SVGID_283_"  style="overflow:visible;"/>
		</clipPath>
		
			<rect x="23.2" y="143.2" transform="matrix(0.9397 -0.342 0.342 0.9397 -48.9904 19.6394)" class="st141" width="16" height="11"/>
	</g>
</g>
<g>
	<defs>
		<path id="SVGID_285_" d="M15.6,168.8l8.3-3c0.7-0.3,0.5-1.3-0.2-1l-8.3,3C14.7,168,14.9,169,15.6,168.8"/>
	</defs>
	<clipPath id="SVGID_286_">
		<use xlink:href="#SVGID_285_"  style="overflow:visible;"/>
	</clipPath>
	<g class="st142">
		<defs>
			<rect id="SVGID_287_" x="1" y="-2018" width="1024" height="2615"/>
		</defs>
		<clipPath id="SVGID_288_">
			<use xlink:href="#SVGID_287_"  style="overflow:visible;"/>
		</clipPath>
		<rect x="9.7" y="161.3" transform="matrix(0.9397 -0.342 0.342 0.9397 -55.8526 16.7839)" class="st143" width="20" height="11"/>
	</g>
</g>
<g>
	<defs>
		<path id="SVGID_289_" d="M18.4,173.1l4.5-1.6c0.8-0.3,0.4-1.2-0.4-0.9l-4.5,1.6C17.2,172.4,17.6,173.4,18.4,173.1"/>
	</defs>
	<clipPath id="SVGID_290_">
		<use xlink:href="#SVGID_289_"  style="overflow:visible;"/>
	</clipPath>
	<g class="st144">
		<defs>
			<rect id="SVGID_291_" x="1" y="-2018" width="1024" height="2615"/>
		</defs>
		<clipPath id="SVGID_292_">
			<use xlink:href="#SVGID_291_"  style="overflow:visible;"/>
		</clipPath>
		
			<rect x="12.4" y="166.3" transform="matrix(0.9397 -0.342 0.342 0.9397 -57.5298 17.3513)" class="st145" width="16" height="11"/>
	</g>
</g>
<g>
	<defs>
		
			<rect id="SVGID_293_" x="-10.1" y="124.4" transform="matrix(0.9397 -0.342 0.342 0.9397 -45.5435 7.8041)" width="18.9" height="17.4"/>
	</defs>
	<clipPath id="SVGID_294_">
		<use xlink:href="#SVGID_293_"  style="overflow:visible;"/>
	</clipPath>
	<g class="st146">
		<defs>
			<rect id="SVGID_295_" x="1" y="-2018" width="1024" height="2615"/>
		</defs>
		<clipPath id="SVGID_296_">
			<use xlink:href="#SVGID_295_"  style="overflow:visible;"/>
		</clipPath>
		<g class="st147">
			<g>
				<defs>
					<rect id="SVGID_297_" x="-14" y="125" width="26" height="18"/>
				</defs>
				<clipPath id="SVGID_298_">
					<use xlink:href="#SVGID_297_"  style="overflow:visible;"/>
				</clipPath>
				<g class="st148">
					<defs>
						<path id="SVGID_299_" d="M-4.6,125.5c-6.2,0.6-8.6,8.9-2.8,11.9c1,0.5,1.6,0.5,2.3,1.4c0.4,0.5,0.6,1.2,1,1.7
							c1.1,1.1,2.7,1.7,4.3,1.4c2-0.3,2.8-1.5,3.8-3c0.5-0.7,0-0.6,1.2-1.1c1.6-0.6,3.4-0.3,4.9,0.3c0.5,0.2,0.9-0.5,0.7-0.9
							C7.7,131.6,2.7,125-4.6,125.5c-0.8,0.1-0.8,1.3,0,1.2c6.8-0.4,11.4,5.9,14.3,11c0.2-0.3,0.5-0.6,0.7-0.9
							c-1.9-0.7-4.4-1-6.3,0.1c-0.3,0.2-0.6,0.3-0.9,0.5c-0.5,0.5-0.6,1.8-1.2,2.2l-3.4,0.9c-1.7-0.5-2.6-1.7-2.7-3.3
							c0-0.2-0.2-0.4-0.5-0.4c-6.4-0.8-6.2-9.6,0-10.1C-3.7,126.6-3.7,125.4-4.6,125.5"/>
					</defs>
					<clipPath id="SVGID_300_">
						<use xlink:href="#SVGID_299_"  style="overflow:visible;"/>
					</clipPath>
					<g class="st149">
						<defs>
							<rect id="SVGID_301_" x="1" y="121" width="11" height="24"/>
						</defs>
						<clipPath id="SVGID_302_">
							<use xlink:href="#SVGID_301_"  style="overflow:visible;"/>
						</clipPath>
						
							<rect x="-15.1" y="119.4" transform="matrix(0.9397 -0.342 0.342 0.9397 -45.5438 7.8043)" class="st150" width="28.9" height="27.4"/>
					</g>
				</g>
			</g>
		</g>
	</g>
</g>
<g>
	<defs>
		<path id="SVGID_303_" d="M23.6,116.4c5-3.5,11.3,2.9,6.8,7.9c-0.2,0.2-0.3,0.5-0.1,0.8c1.4,2.6,0,6.9-4,5.7
			c-0.5-0.1-1-0.8-1.6-0.9c-0.4-0.1-0.8,0.1-1.3,0.2c-2.2,0.6-3.7,2.2-4.8,4.1c0.4,0.1,0.8,0.1,1.2,0.2c-1.1-6-1.7-14.1,3.8-18.2
			c0.7-0.5-0.2-1.4-0.9-0.9c-5.9,4.4-5.4,12.9-4.2,19.4c0.1,0.5,0.9,0.7,1.2,0.2c0.8-1.4,1.8-2.6,3.3-3.3c1.4-0.7,0.9-0.3,1.9,0
			c1.8,0.5,3.1,0.9,4.9-0.1c1.3-0.8,2.1-2.1,2.3-3.6c0.1-0.9-0.2-1.5-0.2-2.4c0-1.3,0.3-1.2,0.8-2.6c2.5-6.1-4.6-11.4-9.8-7.8
			C22.3,115.7,22.9,116.9,23.6,116.4"/>
	</defs>
	<clipPath id="SVGID_304_">
		<use xlink:href="#SVGID_303_"  style="overflow:visible;"/>
	</clipPath>
	<g class="st151">
		<defs>
			<rect id="SVGID_305_" x="1" y="-2018" width="1024" height="2615"/>
		</defs>
		<clipPath id="SVGID_306_">
			<use xlink:href="#SVGID_305_"  style="overflow:visible;"/>
		</clipPath>
		<rect x="10.3" y="109.9" transform="matrix(0.9397 -0.342 0.342 0.9397 -40.887 15.9635)" class="st152" width="29" height="28"/>
	</g>
</g>
<g>
	<defs>
		<path id="SVGID_307_" d="M0.9,134.9c1.7,0.5,2.5,1.9,2.2,3.5c-0.1,0.8,1.3,0.7,1.4-0.1c0.3-2.2-1-4-3.3-4.7
			C0.5,133.5,0.1,134.7,0.9,134.9"/>
	</defs>
	<clipPath id="SVGID_308_">
		<use xlink:href="#SVGID_307_"  style="overflow:visible;"/>
	</clipPath>
	<g class="st153">
		<defs>
			<rect id="SVGID_309_" x="1" y="-2018" width="1024" height="2615"/>
		</defs>
		<clipPath id="SVGID_310_">
			<use xlink:href="#SVGID_309_"  style="overflow:visible;"/>
		</clipPath>
		<rect x="-3.8" y="128.2" transform="matrix(0.9397 -0.342 0.342 0.9397 -46.4316 9.139)" class="st154" width="13" height="16"/>
	</g>
</g>
<g>
	<defs>
		
			<rect id="SVGID_311_" x="-5.7" y="108.2" transform="matrix(0.9397 -0.342 0.342 0.9397 -38.6648 9.1136)" width="24.3" height="12"/>
	</defs>
	<clipPath id="SVGID_312_">
		<use xlink:href="#SVGID_311_"  style="overflow:visible;"/>
	</clipPath>
	<g class="st155">
		<defs>
			<rect id="SVGID_313_" x="1" y="-2018" width="1024" height="2615"/>
		</defs>
		<clipPath id="SVGID_314_">
			<use xlink:href="#SVGID_313_"  style="overflow:visible;"/>
		</clipPath>
		<g class="st156">
			<g>
				<defs>
					<rect id="SVGID_315_" x="-5" y="107" width="26" height="18"/>
				</defs>
				<clipPath id="SVGID_316_">
					<use xlink:href="#SVGID_315_"  style="overflow:visible;"/>
				</clipPath>
				<g class="st157">
					<defs>
						<path id="SVGID_317_" d="M19.8,115.2c-1.4-3.1-3.7-4.4-7-4.9c-3-0.4-4.9-3-8.3-1.7c-3.6,1.3-3.1,4.5-5.3,6.7
							c-2.3,2.3-3.2,4.9-2.3,8.2c0.2,0.8,1.4,0.4,1.2-0.3c-0.9-3.2,0.2-6,3.2-7.7c0.2-0.1,0.3-0.3,0.3-0.5c0-5.1,6-7.1,9.2-3.3
							c0.1,0.2,0.4,0.2,0.6,0.1c3.2-0.6,6,0.9,7.3,3.8C18.9,116.2,20.1,115.9,19.8,115.2"/>
					</defs>
					<clipPath id="SVGID_318_">
						<use xlink:href="#SVGID_317_"  style="overflow:visible;"/>
					</clipPath>
					<g class="st158">
						<defs>
							<rect id="SVGID_319_" x="1" y="104" width="19" height="21"/>
						</defs>
						<clipPath id="SVGID_320_">
							<use xlink:href="#SVGID_319_"  style="overflow:visible;"/>
						</clipPath>
						
							<rect x="-10.7" y="103.2" transform="matrix(0.9397 -0.342 0.342 0.9397 -38.6644 9.1135)" class="st159" width="34.3" height="22"/>
					</g>
				</g>
			</g>
		</g>
	</g>
</g>
</svg>
