<?xml version="1.0" encoding="utf-8"?>
<!-- Generator: Adobe Illustrator 22.1.0, SVG Export Plug-In . SVG Version: 6.00 Build 0)  -->
<svg version="1.1" id="Vrstva_1" xmlns="http://www.w3.org/2000/svg" xmlns:xlink="http://www.w3.org/1999/xlink" x="0px" y="0px"
	 viewBox="0 0 1024 350" style="enable-background:new 0 0 1024 350;" xml:space="preserve">
<style type="text/css">
	.st0{clip-path:url(#SVGID_2_);}
	.st1{clip-path:url(#SVGID_4_);fill:#76B72A;}
	.st2{clip-path:url(#SVGID_6_);}
	.st3{clip-path:url(#SVGID_8_);enable-background:new    ;}
	.st4{clip-path:url(#SVGID_10_);}
	.st5{clip-path:url(#SVGID_12_);}
	.st6{clip-path:url(#SVGID_14_);fill:#76B72A;}
	.st7{clip-path:url(#SVGID_16_);}
	.st8{clip-path:url(#SVGID_18_);fill:#76B72A;}
	.st9{clip-path:url(#SVGID_20_);}
	.st10{clip-path:url(#SVGID_22_);fill:#CE91B4;}
	.st11{clip-path:url(#SVGID_24_);}
	.st12{clip-path:url(#SVGID_26_);enable-background:new    ;}
	.st13{clip-path:url(#SVGID_28_);}
	.st14{clip-path:url(#SVGID_30_);}
	.st15{clip-path:url(#SVGID_32_);fill:#1D1D1B;}
	.st16{clip-path:url(#SVGID_34_);}
	.st17{clip-path:url(#SVGID_36_);fill:#1D1D1B;}
	.st18{clip-path:url(#SVGID_38_);}
	.st19{clip-path:url(#SVGID_40_);fill:#1D1D1B;}
	.st20{clip-path:url(#SVGID_42_);}
	.st21{clip-path:url(#SVGID_44_);fill:#1D1D1B;}
	.st22{clip-path:url(#SVGID_46_);}
	.st23{clip-path:url(#SVGID_48_);enable-background:new    ;}
	.st24{clip-path:url(#SVGID_50_);}
	.st25{clip-path:url(#SVGID_52_);}
	.st26{clip-path:url(#SVGID_54_);fill:#1D1D1B;}
	.st27{clip-path:url(#SVGID_56_);}
	.st28{clip-path:url(#SVGID_58_);fill:#1D1D1B;}
	.st29{clip-path:url(#SVGID_60_);}
	.st30{clip-path:url(#SVGID_62_);fill:#1D1D1B;}
	.st31{clip-path:url(#SVGID_64_);}
	.st32{clip-path:url(#SVGID_66_);fill:#1D1D1B;}
	.st33{clip-path:url(#SVGID_68_);}
	.st34{clip-path:url(#SVGID_70_);fill:#ACDEF9;}
	.st35{clip-path:url(#SVGID_72_);}
	.st36{clip-path:url(#SVGID_74_);fill:#1D1D1B;}
	.st37{clip-path:url(#SVGID_76_);}
	.st38{clip-path:url(#SVGID_78_);fill:#1D1D1B;}
	.st39{clip-path:url(#SVGID_80_);}
	.st40{clip-path:url(#SVGID_82_);fill:#1D1D1B;}
	.st41{clip-path:url(#SVGID_84_);}
	.st42{clip-path:url(#SVGID_86_);enable-background:new    ;}
	.st43{clip-path:url(#SVGID_88_);}
	.st44{clip-path:url(#SVGID_90_);}
	.st45{clip-path:url(#SVGID_92_);fill:#1D1D1B;}
	.st46{clip-path:url(#SVGID_94_);}
	.st47{clip-path:url(#SVGID_96_);fill:#1D1D1B;}
	.st48{clip-path:url(#SVGID_98_);}
	.st49{clip-path:url(#SVGID_100_);enable-background:new    ;}
	.st50{clip-path:url(#SVGID_102_);}
	.st51{clip-path:url(#SVGID_104_);}
	.st52{clip-path:url(#SVGID_106_);fill:#1D1D1B;}
	.st53{clip-path:url(#SVGID_108_);}
	.st54{clip-path:url(#SVGID_110_);enable-background:new    ;}
	.st55{clip-path:url(#SVGID_112_);}
	.st56{clip-path:url(#SVGID_114_);}
	.st57{clip-path:url(#SVGID_116_);fill:#EF8272;}
	.st58{clip-path:url(#SVGID_118_);}
	.st59{clip-path:url(#SVGID_120_);fill:#1D1D1B;}
	.st60{clip-path:url(#SVGID_122_);}
	.st61{clip-path:url(#SVGID_124_);fill:#1D1D1B;}
	.st62{clip-path:url(#SVGID_126_);}
	.st63{clip-path:url(#SVGID_128_);fill:#1D1D1B;}
	.st64{clip-path:url(#SVGID_130_);}
	.st65{clip-path:url(#SVGID_132_);fill:#1D1D1B;}
	.st66{clip-path:url(#SVGID_134_);}
	.st67{clip-path:url(#SVGID_136_);fill:#1D1D1B;}
	.st68{clip-path:url(#SVGID_138_);}
	.st69{clip-path:url(#SVGID_140_);fill:#1D1D1B;}
	.st70{clip-path:url(#SVGID_142_);}
	.st71{clip-path:url(#SVGID_144_);fill:#1D1D1B;}
	.st72{clip-path:url(#SVGID_146_);}
	.st73{clip-path:url(#SVGID_148_);fill:#1D1D1B;}
	.st74{clip-path:url(#SVGID_150_);}
	.st75{clip-path:url(#SVGID_152_);fill:#1D1D1B;}
	.st76{clip-path:url(#SVGID_154_);}
	.st77{clip-path:url(#SVGID_156_);fill:#1D1D1B;}
	.st78{clip-path:url(#SVGID_158_);}
	.st79{clip-path:url(#SVGID_160_);fill:#1D1D1B;}
	.st80{clip-path:url(#SVGID_162_);}
	.st81{clip-path:url(#SVGID_164_);fill:#1D1D1B;}
	.st82{clip-path:url(#SVGID_166_);}
	.st83{clip-path:url(#SVGID_168_);fill:#1D1D1B;}
	.st84{clip-path:url(#SVGID_170_);}
	.st85{clip-path:url(#SVGID_172_);fill:#1D1D1B;}
	.st86{clip-path:url(#SVGID_174_);}
	.st87{clip-path:url(#SVGID_176_);fill:#1D1D1B;}
	.st88{clip-path:url(#SVGID_178_);}
	.st89{clip-path:url(#SVGID_180_);fill:#1D1D1B;}
	.st90{clip-path:url(#SVGID_182_);}
	.st91{clip-path:url(#SVGID_184_);fill:#1D1D1B;}
	.st92{clip-path:url(#SVGID_186_);}
	.st93{clip-path:url(#SVGID_188_);enable-background:new    ;}
	.st94{clip-path:url(#SVGID_190_);}
	.st95{clip-path:url(#SVGID_192_);}
	.st96{clip-path:url(#SVGID_194_);fill:#76B72A;}
	.st97{clip-path:url(#SVGID_196_);}
	.st98{clip-path:url(#SVGID_198_);fill:#1D1D1B;}
	.st99{clip-path:url(#SVGID_200_);}
	.st100{clip-path:url(#SVGID_202_);enable-background:new    ;}
	.st101{clip-path:url(#SVGID_204_);}
	.st102{clip-path:url(#SVGID_206_);}
	.st103{clip-path:url(#SVGID_208_);fill:#1D1D1B;}
	.st104{clip-path:url(#SVGID_210_);}
	.st105{clip-path:url(#SVGID_212_);fill:#1D1D1B;}
	.st106{clip-path:url(#SVGID_214_);}
	.st107{clip-path:url(#SVGID_216_);enable-background:new    ;}
	.st108{clip-path:url(#SVGID_218_);}
	.st109{clip-path:url(#SVGID_220_);}
	.st110{clip-path:url(#SVGID_222_);fill:#1D1D1B;}
	.st111{clip-path:url(#SVGID_224_);}
	.st112{clip-path:url(#SVGID_226_);fill:#1D1D1B;}
	.st113{clip-path:url(#SVGID_228_);}
	.st114{clip-path:url(#SVGID_230_);fill:#1D1D1B;}
	.st115{clip-path:url(#SVGID_232_);}
	.st116{clip-path:url(#SVGID_234_);fill:#1D1D1B;}
	.st117{clip-path:url(#SVGID_236_);}
	.st118{clip-path:url(#SVGID_238_);fill:#914D15;}
	.st119{clip-path:url(#SVGID_240_);}
	.st120{clip-path:url(#SVGID_242_);fill:#1D1D1B;}
	.st121{clip-path:url(#SVGID_244_);}
	.st122{clip-path:url(#SVGID_246_);fill:#1D1D1B;}
	.st123{clip-path:url(#SVGID_248_);}
	.st124{clip-path:url(#SVGID_250_);fill:#1D1D1B;}
	.st125{clip-path:url(#SVGID_252_);}
	.st126{clip-path:url(#SVGID_254_);fill:#1D1D1B;}
	.st127{clip-path:url(#SVGID_256_);}
	.st128{clip-path:url(#SVGID_258_);fill:#1D1D1B;}
	.st129{clip-path:url(#SVGID_260_);}
	.st130{clip-path:url(#SVGID_262_);fill:#1D1D1B;}
	.st131{clip-path:url(#SVGID_264_);}
	.st132{clip-path:url(#SVGID_266_);enable-background:new    ;}
	.st133{clip-path:url(#SVGID_268_);}
	.st134{clip-path:url(#SVGID_270_);}
	.st135{clip-path:url(#SVGID_272_);fill:#1D1D1B;}
	.st136{clip-path:url(#SVGID_274_);}
	.st137{clip-path:url(#SVGID_276_);fill:#1D1D1B;}
	.st138{clip-path:url(#SVGID_278_);}
	.st139{clip-path:url(#SVGID_280_);fill:#1D1D1B;}
	.st140{clip-path:url(#SVGID_282_);}
	.st141{clip-path:url(#SVGID_284_);fill:#EF8272;}
	.st142{clip-path:url(#SVGID_286_);}
	.st143{clip-path:url(#SVGID_288_);fill:#1D1D1B;}
	.st144{clip-path:url(#SVGID_290_);}
	.st145{clip-path:url(#SVGID_292_);fill:#1D1D1B;}
	.st146{clip-path:url(#SVGID_294_);}
	.st147{clip-path:url(#SVGID_296_);fill:#1D1D1B;}
	.st148{clip-path:url(#SVGID_298_);}
	.st149{clip-path:url(#SVGID_300_);fill:#1D1D1B;}
	.st150{clip-path:url(#SVGID_302_);}
	.st151{clip-path:url(#SVGID_304_);fill:#1D1D1B;}
	.st152{clip-path:url(#SVGID_306_);}
	.st153{clip-path:url(#SVGID_308_);fill:#1D1D1B;}
	.st154{clip-path:url(#SVGID_310_);}
	.st155{clip-path:url(#SVGID_312_);fill:#1D1D1B;}
	.st156{clip-path:url(#SVGID_314_);}
	.st157{clip-path:url(#SVGID_316_);enable-background:new    ;}
	.st158{clip-path:url(#SVGID_318_);}
	.st159{clip-path:url(#SVGID_320_);}
	.st160{clip-path:url(#SVGID_322_);fill:#1D1D1B;}
</style>
<g>
	<defs>
		<path id="SVGID_1_" d="M953.5,59.4c0,0,6.7-2.1,9.9-5.9c1.8-2.2-0.2-5.4-3-4.8l-2.8,0.5c-0.5,0.1-0.8-0.6-0.4-0.9
			c2-1.5,5-4,6.7-7.2c1.3-2.4-1.2-5.1-3.8-4.2l-4.5,2.6c-0.4,0.2-0.9-0.3-0.6-0.7c2.4-3.1,6.2-12.2-0.2-13.3
			c-6.4-1.1-6,8.7-4.8,12.4c0.1,0.4-0.5,0.7-0.8,0.4l-3.4-3.9c-2.1-1.8-5.3-0.1-5,2.6c0.5,3.5,2.4,6.9,3.8,9c0.3,0.4-0.2,1-0.7,0.7
			l-2.4-1.5c-2.4-1.5-5.4,0.9-4.4,3.5c1.7,4.7,7.3,8.9,7.3,8.9l5.5,3.9L953.5,59.4z"/>
	</defs>
	<clipPath id="SVGID_2_">
		<use xlink:href="#SVGID_1_"  style="overflow:visible;"/>
	</clipPath>
	<g class="st0">
		<defs>
			<rect id="SVGID_3_" y="-545.5" width="1024" height="2010"/>
		</defs>
		<clipPath id="SVGID_4_">
			<use xlink:href="#SVGID_3_"  style="overflow:visible;"/>
		</clipPath>
		
			<rect x="928.4" y="24.8" transform="matrix(0.1736 -0.9848 0.9848 0.1736 743.4481 973.1004)" class="st1" width="46.4" height="37.5"/>
	</g>
</g>
<g>
	<defs>
		
			<rect id="SVGID_5_" x="912.8" y="28.3" transform="matrix(0.1736 -0.9848 0.9848 0.1736 722.9487 949.2151)" width="28.5" height="30.9"/>
	</defs>
	<clipPath id="SVGID_6_">
		<use xlink:href="#SVGID_5_"  style="overflow:visible;"/>
	</clipPath>
	<g class="st2">
		<defs>
			<rect id="SVGID_7_" y="-545.5" width="1024" height="2010"/>
		</defs>
		<clipPath id="SVGID_8_">
			<use xlink:href="#SVGID_7_"  style="overflow:visible;"/>
		</clipPath>
		<g class="st3">
			<g>
				<defs>
					<rect id="SVGID_9_" x="910" y="24.5" width="34" height="35"/>
				</defs>
				<clipPath id="SVGID_10_">
					<use xlink:href="#SVGID_9_"  style="overflow:visible;"/>
				</clipPath>
				<g class="st4">
					<defs>
						<path id="SVGID_11_" d="M941.1,51c0,0,2.4-6.6,1.3-11.4c-0.6-2.7-4.4-3.1-5.6-0.6l-1.3,2.5c-0.2,0.5-1,0.3-1-0.2
							c0-2.5-0.2-6.4-1.7-9.6c-1.2-2.5-4.8-2.2-5.6,0.4l-0.7,5.1c-0.1,0.4-0.8,0.5-0.9,0.1c-1-3.8-6-12.3-10.8-8
							c-4.8,4.4,3.3,10,7,11.4c0.4,0.1,0.2,0.8-0.2,0.9l-5.2,0.2c-2.7,0.5-3.3,4.1-0.9,5.5c3.1,1.8,7,2.3,9.5,2.5
							c0.5,0,0.7,0.8,0.1,1l-2.6,1c-2.6,1-2.6,4.8,0.1,5.6c4.8,1.5,11.6-0.3,11.6-0.3l6.4-1.9L941.1,51z"/>
					</defs>
					<clipPath id="SVGID_12_">
						<use xlink:href="#SVGID_11_"  style="overflow:visible;"/>
					</clipPath>
					<g class="st5">
						<defs>
							<rect id="SVGID_13_" x="909" y="26.5" width="36" height="35"/>
						</defs>
						<clipPath id="SVGID_14_">
							<use xlink:href="#SVGID_13_"  style="overflow:visible;"/>
						</clipPath>
						
							<rect x="907.8" y="23.3" transform="matrix(0.1736 -0.9848 0.9848 0.1736 722.9501 949.2153)" class="st6" width="38.5" height="40.9"/>
					</g>
				</g>
			</g>
		</g>
	</g>
</g>
<g>
	<defs>
		<path id="SVGID_15_" d="M958,65.5c0,0,6.2,3.2,11.2,2.8c2.8-0.3,3.7-3.9,1.3-5.5l-2.4-1.6c-0.5-0.3-0.2-1,0.4-0.9
			c2.5,0.4,6.5,0.7,9.8-0.4c2.6-0.8,2.8-4.5,0.3-5.6l-5-1.4c-0.4-0.2-0.4-0.9,0-0.9c3.9-0.5,13.1-4.3,9.3-9.6
			c-3.7-5.3-10.4,1.9-12.2,5.4c-0.2,0.4-0.8,0.1-0.9-0.3l0.4-5.1c-0.2-2.7-3.7-3.8-5.4-1.6c-2.1,2.8-3.2,6.6-3.7,9
			c-0.1,0.5-0.9,0.5-1,0l-0.7-2.7c-0.7-2.7-4.4-3.2-5.6-0.6c-2.1,4.5-1.2,11.4-1.2,11.4l-2.3,6L958,65.5z"/>
	</defs>
	<clipPath id="SVGID_16_">
		<use xlink:href="#SVGID_15_"  style="overflow:visible;"/>
	</clipPath>
	<g class="st7">
		<defs>
			<rect id="SVGID_17_" y="-545.5" width="1024" height="2010"/>
		</defs>
		<clipPath id="SVGID_18_">
			<use xlink:href="#SVGID_17_"  style="overflow:visible;"/>
		</clipPath>
		
			<rect x="947.5" y="33.6" transform="matrix(0.1736 -0.9848 0.9848 0.1736 746.6614 996.7731)" class="st8" width="39.5" height="39.7"/>
	</g>
</g>
<g>
	<defs>
		<path id="SVGID_19_" d="M937.6,110.1c0.5,1,0.9,2,1.4,3.1c0.4-0.2,0.9-0.3,1-0.6c0.8-1.2,1.9-1.9,3.1-2.5c2.8-1.5,5.5-3,8.3-4.5
			c1.2-0.6,2.4-1.3,3.5-2c2.7-1.6,5.3-3.2,7-6.1c0.2-0.3,0.6-0.5,0.7-0.6c0.4-2.4,0.6-4.7,0.5-6.9c-0.1-2.2-0.6-4.3-1.8-6.1
			c-1-1.5-2.1-2.9-3.2-4.2c-0.8-0.9-1.8-1.7-2.7-2.5c-1.9-1.7-3.2-3.8-4.6-6c-1.3-2-2.3-3.8-1.4-6.3c0.1-0.4,0-1.3-1-1.2
			c-0.5,0.8-0.8,1.8-1.5,2.5c-2,1.9-4,4-6.5,5.1c-1.6,0.7-2.9,2.3-4.8,2.3c-0.5,0.5-4.8,3.4-5.6,3.8c-4,1.7-6.6,5.6-6.6,10.1
			c0,3.7,0.6,7.2,2.3,10.3c0.9,1.7,1.9,3.6,3.8,4.7c0.9,0.5,1.8,1.4,2.3,2.4c0.6,1.3,2.3,1.1,2.7,2.5c0.1,0.4,1.1,0.2,0.8,1
			C936.3,108.6,937.1,109.1,937.6,110.1"/>
	</defs>
	<clipPath id="SVGID_20_">
		<use xlink:href="#SVGID_19_"  style="overflow:visible;"/>
	</clipPath>
	<g class="st9">
		<defs>
			<rect id="SVGID_21_" y="-545.5" width="1024" height="2010"/>
		</defs>
		<clipPath id="SVGID_22_">
			<use xlink:href="#SVGID_21_"  style="overflow:visible;"/>
		</clipPath>
		
			<rect x="913.4" y="63.1" transform="matrix(0.1736 -0.9848 0.9848 0.1736 692.8239 1002.3272)" class="st10" width="60.5" height="50.4"/>
	</g>
</g>
<g>
	<defs>
		
			<rect id="SVGID_23_" x="915.3" y="66" transform="matrix(0.1736 -0.9848 0.9848 0.1736 691.7238 1000.8578)" width="54" height="44.6"/>
	</defs>
	<clipPath id="SVGID_24_">
		<use xlink:href="#SVGID_23_"  style="overflow:visible;"/>
	</clipPath>
	<g class="st11">
		<defs>
			<rect id="SVGID_25_" y="-545.5" width="1024" height="2010"/>
		</defs>
		<clipPath id="SVGID_26_">
			<use xlink:href="#SVGID_25_"  style="overflow:visible;"/>
		</clipPath>
		<g class="st12">
			<g>
				<defs>
					<rect id="SVGID_27_" x="918" y="60.5" width="47" height="55"/>
				</defs>
				<clipPath id="SVGID_28_">
					<use xlink:href="#SVGID_27_"  style="overflow:visible;"/>
				</clipPath>
				<g class="st13">
					<defs>
						<path id="SVGID_29_" d="M949.7,64c-1-2.2-3.4-3.1-5.6-1.8c-1.7,1-2.7,3.2-4.1,4.6c-1.8,1.8-3.7,3.3-5.8,4.8
							c-5.6,4-11.9,7.4-14.1,14.3c-1.9,5.8,1.3,10.3,5.2,14.5c2.3,2.5,4.9,4.9,7.3,7.3c1.5,1.5,4.5,4,4.2,6.4c0,0.5,0.7,1,1.1,0.7
							c7.6-5.3,22-7.4,25.1-17.5c1.6-5-0.1-10.3-2.8-14.6c-3.8-6.2-8.4-11.4-10.6-18.4c-0.3-0.9-1.7-0.5-1.4,0.4
							c1.8,5.6,4.9,10.3,8.3,15.1c3.4,4.8,6.9,10.3,5.3,16.5c-1.4,5.4-7.2,8.4-11.8,10.8c-4.2,2.2-8.9,3.8-12.8,6.5
							c0.4,0.2,0.7,0.4,1.1,0.7c0.3-3.3-3.7-6.5-5.7-8.5c-3.8-3.7-8.5-7.5-10.8-12.4c-3.1-6.6,2.7-12.9,7.8-16.6
							c2.4-1.7,4.8-3.2,7.1-5c1.5-1.2,3-2.4,4.3-3.7c0.9-0.9,5.5-7.2,7.3-3.2C948.8,65.6,950.1,64.9,949.7,64"/>
					</defs>
					<clipPath id="SVGID_30_">
						<use xlink:href="#SVGID_29_"  style="overflow:visible;"/>
					</clipPath>
					<g class="st14">
						<defs>
							<rect id="SVGID_31_" x="915" y="57.5" width="54" height="62"/>
						</defs>
						<clipPath id="SVGID_32_">
							<use xlink:href="#SVGID_31_"  style="overflow:visible;"/>
						</clipPath>
						
							<rect x="910.3" y="61" transform="matrix(0.1736 -0.9848 0.9848 0.1736 691.7249 1000.8585)" class="st15" width="64" height="54.6"/>
					</g>
				</g>
			</g>
		</g>
	</g>
</g>
<g>
	<defs>
		<path id="SVGID_33_" d="M944.5,71.4c1.6,3.9,3.7,7.4,6,11c2.3,3.6,5.6,8.1,4,12.7c-1.8,5.2-9.6,6.9-14.1,8.8
			c-0.3,0.1-1,0.4-1.4,0.4c1.2,0,0.3,0-0.3-0.6c-1.6-1.6-3.6-3-5.2-4.6c-2.1-2.1-5-5-5.2-8.1c-0.4-4.9,4.7-8.4,8.1-11
			c0.8-0.6-0.1-1.8-0.8-1.2c-6.1,4.6-11.7,10.3-6.3,17.7c2.1,2.9,4.8,5.4,7.6,7.6c1.1,0.9,1.7,1.6,3,1.6c2.5-0.1,6-2.1,8.1-3.2
			c2.7-1.3,5.9-3,7.4-5.6c1.7-3,1-6.8-0.4-9.8c-2.6-5.6-6.6-10.3-9-16.1C945.6,70,944.1,70.5,944.5,71.4"/>
	</defs>
	<clipPath id="SVGID_34_">
		<use xlink:href="#SVGID_33_"  style="overflow:visible;"/>
	</clipPath>
	<g class="st16">
		<defs>
			<rect id="SVGID_35_" y="-545.5" width="1024" height="2010"/>
		</defs>
		<clipPath id="SVGID_36_">
			<use xlink:href="#SVGID_35_"  style="overflow:visible;"/>
		</clipPath>
		
			<rect x="919.6" y="68.3" transform="matrix(0.1736 -0.9848 0.9848 0.1736 692.069 1000.7828)" class="st17" width="45.6" height="39.5"/>
	</g>
</g>
<g>
	<defs>
		<path id="SVGID_37_" d="M940.7,99c-1.9-1.9-5.9-5.2-6-7.9c-0.1-1.7,1.5-3,2.6-4.1c2.2-2.1,4.6-3.9,6.8-6c-0.4-0.1-0.8-0.1-1.2-0.1
			c1.4,2.7,3,5.2,4.3,7.9c0.8,1.5,1.7,3.3,0.9,5c-1.3,2.4-5.9,4-8.3,5.1c-0.9,0.4-0.1,1.7,0.8,1.3c2.8-1.3,7.9-3.1,9.1-6.2
			c0.5-1.4,0.1-3-0.4-4.3c-1.3-3.3-3.5-6.4-5.1-9.6c-0.2-0.4-0.8-0.5-1.2-0.1c-2.7,2.5-6,4.7-8.3,7.6c-0.8,1-1.6,2.2-1.5,3.6
			c0.1,3.3,4.4,6.8,6.5,9C940.4,100.8,941.4,99.7,940.7,99"/>
	</defs>
	<clipPath id="SVGID_38_">
		<use xlink:href="#SVGID_37_"  style="overflow:visible;"/>
	</clipPath>
	<g class="st18">
		<defs>
			<rect id="SVGID_39_" y="-545.5" width="1024" height="2010"/>
		</defs>
		<clipPath id="SVGID_40_">
			<use xlink:href="#SVGID_39_"  style="overflow:visible;"/>
		</clipPath>
		
			<rect x="926.5" y="76.5" transform="matrix(0.1736 -0.9848 0.9848 0.1736 689.6714 1001.9777)" class="st19" width="30.8" height="27"/>
	</g>
</g>
<g>
	<defs>
		<path id="SVGID_41_" d="M952.7,57.4c3.5-1.1,10.7-3.8,11.1-8.2c0.1-1.6-0.8-3.2-2.3-3.8c-0.9-0.4-1.6-0.3-2.5-0.2
			c-0.6,0.1-1.2,0.4-1.9,0.4c-1.2,0,0,0.3,0.3,0c2-2,11.2-10.1,3.7-12.1c-1.7-0.5-3,0.5-4.4,1.3c-0.2,0.1-2.4,1.4-2.5,1.4
			c0.5,0.7,2-2.5,2.2-2.8c1.5-3.2,2.9-8.6-1-10.7c-3.8-2-7,0.8-7.7,4.4c-0.4,2-0.6,4.8,0.1,6.8c0.3,0.9,1.1,1.7,0.2,0.6
			c-0.8-1-1.6-2-2.4-2.9c-3.5-3.3-7.1,0.2-6.3,4.1c0.4,1.9,1.2,3.8,2.2,5.5c0.1,0.2,1.1,2.4,1.7,2.1c-0.2,0.1-1.3-0.8-1.6-1
			c-1.9-1-4.1-1.4-5.6,0.6c-3.1,4.1,4,10.4,7,12.6c0.8,0.6,1.8-0.5,1.1-1.1c-2.4-1.8-6.8-5.5-7.1-8.6c1.2-2.6,2.6-3.3,4-2.3l0.6,0.4
			c0.4,0.2,0.9,0.7,1.4,0.8c0.7,0.1,1.1,0.1,1.5-0.5c0.5-0.7-0.2-1.4-0.5-2c-0.8-1.6-1.7-3-2.4-4.7c-0.1-0.4-0.3-0.7-0.4-1.1
			c-0.9-2,0.2-3.4,3.3-4.1c1.9,0.8,2.1,3.9,4.4,4.1c0.2,0,0.5-0.2,0.6-0.4c0.8-1.5-0.3-3.6-0.4-5.2c-0.1-2.8,0.3-7.4,4-7.4
			c4.3,0,3.8,4.8,2.8,7.5c-0.5,1.6-2.7,4-2.5,5.6c0,0.3,0.2,0.6,0.6,0.7c1,0.2,1.1,0,2-0.4c0.7-0.3,2.9-2.2,3.6-2
			c0.8,1.4,1.5,2.7,2.3,4.1c-0.6,0.9-1.3,1.8-2.1,2.6c-0.7,0.8-1.6,1.5-2.4,2.2c-0.4,0.3-2.2,1.3-1.9,2.3c0.7,2.1,2.8,0.2,4.1,0.5
			c2.4,2.1,2.8,3.7,1.1,4.9c-0.6,0.5-1.2,0.9-1.8,1.3c-0.9,0.6-1.9,1.1-2.8,1.6c-1.2,0.6-2.4,1.1-3.6,1.4
			C951.3,56.3,951.7,57.7,952.7,57.4"/>
	</defs>
	<clipPath id="SVGID_42_">
		<use xlink:href="#SVGID_41_"  style="overflow:visible;"/>
	</clipPath>
	<g class="st20">
		<defs>
			<rect id="SVGID_43_" y="-545.5" width="1024" height="2010"/>
		</defs>
		<clipPath id="SVGID_44_">
			<use xlink:href="#SVGID_43_"  style="overflow:visible;"/>
		</clipPath>
		
			<rect x="928.3" y="19.9" transform="matrix(0.1736 -0.9848 0.9848 0.1736 746.8997 968.929)" class="st21" width="45.1" height="39"/>
	</g>
</g>
<g>
	<defs>
		
			<rect id="SVGID_45_" x="933.3" y="24.9" transform="matrix(0.1736 -0.9848 0.9848 0.1736 746.9122 968.9208)" width="35" height="29"/>
	</defs>
	<clipPath id="SVGID_46_">
		<use xlink:href="#SVGID_45_"  style="overflow:visible;"/>
	</clipPath>
	<g class="st22">
		<defs>
			<rect id="SVGID_47_" y="-545.5" width="1024" height="2010"/>
		</defs>
		<clipPath id="SVGID_48_">
			<use xlink:href="#SVGID_47_"  style="overflow:visible;"/>
		</clipPath>
		<g class="st23">
			<g>
				<defs>
					<rect id="SVGID_49_" x="932" y="20.5" width="33" height="38"/>
				</defs>
				<clipPath id="SVGID_50_">
					<use xlink:href="#SVGID_49_"  style="overflow:visible;"/>
				</clipPath>
				<g class="st24">
					<defs>
						<path id="SVGID_51_" d="M952.7,57.4c3.5-1.1,10.7-3.9,11.1-8.2c0.1-1.6-0.9-3.1-2.4-3.7c-1.1-0.4-2-0.2-3.1,0
							c-0.2,0-1.5,0.4-1.5,0.3c0.3,0.5,2.3-1.5,2.6-1.7c1.7-1.6,4.4-4,4.6-6.5c0.2-2.2-1.5-4.1-3.7-4.1c-1.6,0-3.1,1.2-4.4,2
							c-0.4,0.2-0.8,0.5-1.3,0.7c-0.6,0.4,0.3,0.2,0.6-0.3c0.7-1,1.2-2.1,1.7-3.2c1.3-3.1,2.4-8.1-1.4-10c-4.2-2.2-7.2,1.3-7.8,5.2
							c-0.3,2-0.4,4.6,0.3,6.5c0.4,1.1,0.7,1.1,0,0c-0.6-0.9-1.5-2-2.4-2.8c-3.5-3.2-7,0.3-6.3,4.2c0.4,1.9,1.2,3.8,2.2,5.5
							c0,0,1.3,2.4,1.6,2c0,0-1.6-1-1.6-1c-1.9-1-4.1-1.3-5.6,0.7c-3,4.1,4.1,10.4,7,12.6c0.8,0.6,1.7-0.6,0.9-1.1
							c-0.8-0.7-1.7-1.4-2.4-2.1c-0.9-0.9-1.8-1.9-2.6-2.9c-0.3-0.4-0.6-0.8-0.8-1.2c-1.7-1.9-1-3.6,2.2-5c1.2,0.1,2.9,2.8,4.1,0.9
							c0.5-0.8-0.3-1.4-0.6-2c-0.7-1.6-1.8-3-2.4-4.7c-0.1-0.4-0.3-0.7-0.4-1.1c-1.2-2.4-0.2-3.8,3.2-4.1c1.8,0.8,2.1,4,4.3,4.2
							c0.3,0,0.6-0.1,0.8-0.4c0.7-1.5-0.3-3.6-0.4-5.3c-0.1-2.9,0.5-8,4.6-7.2c4,0.7,3,5.4,2,8c-0.6,1.6-2.5,3.5-2.3,5.1
							c0,0.3,0.3,0.6,0.6,0.7c2.2,0.5,3.6-2.3,5.5-2.5c3.1,1.5,3.6,3.2,1.6,5c-0.2,0.3-0.5,0.6-0.7,0.9c-1.1,1.4-2.5,2.4-3.8,3.6
							c-0.5,0.5-1.3,0.8-1.2,1.7c0.3,2.2,3.1,0.2,4.2,0.5c2.1,2.5,2.2,4.3,0.3,5.4c-0.3,0.2-0.5,0.4-0.8,0.6
							c-1.2,0.8-2.5,1.5-3.8,2.1c-1,0.4-2,0.8-3,1.2C951.3,56.3,951.8,57.7,952.7,57.4"/>
					</defs>
					<clipPath id="SVGID_52_">
						<use xlink:href="#SVGID_51_"  style="overflow:visible;"/>
					</clipPath>
					<g class="st25">
						<defs>
							<rect id="SVGID_53_" x="933" y="19.5" width="36" height="40"/>
						</defs>
						<clipPath id="SVGID_54_">
							<use xlink:href="#SVGID_53_"  style="overflow:visible;"/>
						</clipPath>
						
							<rect x="928.3" y="19.9" transform="matrix(0.1736 -0.9848 0.9848 0.1736 746.9104 968.9203)" class="st26" width="45" height="39"/>
					</g>
				</g>
			</g>
		</g>
	</g>
</g>
<g>
	<defs>
		<path id="SVGID_55_" d="M957,62.5c3,1.9,14.3,7.8,15,0.7c0.1-1.3-0.4-2.3-1.3-3.2c-0.4-0.4-0.8-0.7-1.2-1c-1.3-1-0.8-0.5,0.6,0
			c2.7,0.9,8.7,1.5,10.6-1.2c1.4-1.9,0.6-4.4-1.3-5.5c-1-0.6-2.3-1-3.4-1.3c-0.3-0.1-0.7-0.2-1-0.4c-0.5-0.2-0.2,0.1-0.1,0.1
			c0.3-0.1,1.6,0.1,2.1,0c2.9-0.5,6.8-1.8,8.4-4.4c1.4-2.3,0.4-5.6-2-6.9c-3-1.7-6.6,0.7-8.9,2.6c-0.7,0.6-1.8,1.5-2.3,2.3
			c-0.3,0.5-0.6,1.8-0.3,0.8c0.4-1.4,0.6-2.9,0.8-4.4c0.2-0.9-1.2-1.4-1.4-0.4c-0.3,1.7-1.6,4.6-0.6,6.1c0.2,0.3,0.5,0.4,0.8,0.4
			c1.5-0.3,2.2-2.1,3.3-3.1c2.2-2.1,8.1-6,9.4-0.6c0.8,3.5-3.3,5.1-6.1,5.9c-1.4,0.4-3.6,0.1-4.6,1.2c-0.2,0.2-0.3,0.6-0.1,0.9
			c1,2,4,1.3,5.4,2.7c0.8,3.3-0.1,4.8-2.8,4.4c-0.4,0-0.8,0-1.2,0c-1.8,0-3.5-0.5-5.2-0.7c-0.7-0.1-1.5-0.5-2.1,0.1
			c-1.4,1.5,1.5,2.7,2.2,3.5c2.9,4-1.8,4.2-4.2,3.7c-1.6-0.4-3.1-1-4.5-1.7c-1.1-0.5-2.1-1.1-3.2-1.7C957,60.8,956.2,62,957,62.5"/>
	</defs>
	<clipPath id="SVGID_56_">
		<use xlink:href="#SVGID_55_"  style="overflow:visible;"/>
	</clipPath>
	<g class="st27">
		<defs>
			<rect id="SVGID_57_" y="-545.5" width="1024" height="2010"/>
		</defs>
		<clipPath id="SVGID_58_">
			<use xlink:href="#SVGID_57_"  style="overflow:visible;"/>
		</clipPath>
		
			<rect x="951.5" y="34.3" transform="matrix(0.1737 -0.9848 0.9848 0.1737 751.4158 999.78)" class="st28" width="40" height="35.8"/>
	</g>
</g>
<g>
	<defs>
		<path id="SVGID_59_" d="M947.6,61.7l2-11.3c0.2-0.9-1.3-1.2-1.5-0.3l-2,11.3C946,62.4,947.5,62.7,947.6,61.7"/>
	</defs>
	<clipPath id="SVGID_60_">
		<use xlink:href="#SVGID_59_"  style="overflow:visible;"/>
	</clipPath>
	<g class="st29">
		<defs>
			<rect id="SVGID_61_" y="-545.5" width="1024" height="2010"/>
		</defs>
		<clipPath id="SVGID_62_">
			<use xlink:href="#SVGID_61_"  style="overflow:visible;"/>
		</clipPath>
		
			<rect x="936.4" y="50.1" transform="matrix(0.1736 -0.9848 0.9848 0.1736 728.257 979.6985)" class="st30" width="22.9" height="11.5"/>
	</g>
</g>
<g>
	<defs>
		<path id="SVGID_63_" d="M936.7,57.6c-1.4,0.3-2.8,0.5-4.3,0.6c-1.2,0.1-2.4,0.1-3.5,0c-2.5-0.2-7.3-2.3-3.1-4.9
			c1.1-0.7,3.9-0.6,3.2-2.6c-0.3-0.9-2.2-0.8-2.7-0.9c-1.5-0.2-2.9-0.6-4.4-1c-2-0.7-7.1-3.4-2.2-5.5c1.8-0.8,4.4,0.8,6-0.7
			c0.3-0.3,0.3-0.6,0.1-0.9c-0.6-1.3-2.5-1.7-3.6-2.4c-2.4-1.7-6.8-5.4-3.6-8.3c3.3-3.1,6.5,1,8,3.9c0.7,1.4,0.9,3.6,2.3,4.4
			c0.2,0.1,0.6,0.2,0.8,0c1.6-1.2,1.4-4.1,1.6-5.9c0.2-0.9-1.3-1.3-1.4-0.4c-0.2,1.2-0.4,2.4-0.6,3.6c-0.3,2.5,0,0.4-0.6-0.9
			c-1.2-2.8-3.4-6.5-6.6-7.3c-2.6-0.6-5.6,1.4-6,4.1c-0.5,2.9,2,5.4,4,7.1c1.3,1,2.7,1.7,4.1,2.5c0.2,0.1,0.6-0.1-0.3-0.3
			c-0.8-0.1-1.8,0-2.7,0c-2.2,0-4.3,0.6-4.7,3.1c-0.7,3.6,3.5,5,6.2,5.7c1.4,0.4,2.8,0.6,4.2,0.8c0.5,0.1,1.2-0.6,0.3-0.1
			c-1.2,0.6-2.6,0.7-3.6,1.7c-1.9,2-0.8,5,1.6,6c3.5,1.5,8.3,0.9,12,0C938.1,58.8,937.7,57.4,936.7,57.6"/>
	</defs>
	<clipPath id="SVGID_64_">
		<use xlink:href="#SVGID_63_"  style="overflow:visible;"/>
	</clipPath>
	<g class="st31">
		<defs>
			<rect id="SVGID_65_" y="-545.5" width="1024" height="2010"/>
		</defs>
		<clipPath id="SVGID_66_">
			<use xlink:href="#SVGID_65_"  style="overflow:visible;"/>
		</clipPath>
		
			<rect x="907" y="26.4" transform="matrix(0.1736 -0.9848 0.9848 0.1736 722.409 949.6041)" class="st32" width="40" height="35.8"/>
	</g>
</g>
<g>
	<defs>
		<path id="SVGID_67_" d="M911.2,136.4l-1.7-4.6c-0.3-0.8-1.2-1.3-2.1-0.9l-9.2,3.3c-0.9,0.3-1.3,1.2-1,2.1l1.7,4.6l0.2,0.7l1.6,4.3
			c0,0-5.8,7.4-2.4,16.7l2.1,5.7c0.6,1.6,1.7,3,3.2,3.9l1.1,0.7l2,5.5l-0.4,1.3c-0.6,1.7-0.6,3.5,0,5.1l2.1,5.7l8.1,22.4
			c0.6,1.6,1.6,3,3,4c0.2,0.2,0.5,0.4,0.8,0.5c1.2,0.8,2.8,0.9,4.2,0.5c1.4-0.4,2.6-1.5,3.2-2.8c0.5-1.2,1.6-2.2,2.8-2.6l1.1-0.4
			l1.1-0.4c1.3-0.5,2.7-0.4,3.9,0.2c1.3,0.6,2.9,0.7,4.2,0.1c1.4-0.6,2.4-1.7,2.9-3.1c0.1-0.4,0.2-0.7,0.3-1.1
			c0.3-1.6,0.2-3.3-0.3-4.9l-8.1-22.4l-2.1-5.7c-0.6-1.6-1.7-3-3.2-3.9l-1.2-0.7l-2-5.5l0.4-1.3c0.6-1.7,0.6-3.4,0-5.1l-2.1-5.7
			c-3.4-9.3-12.6-11.3-12.6-11.3l-1.6-4.3L911.2,136.4z"/>
	</defs>
	<clipPath id="SVGID_68_">
		<use xlink:href="#SVGID_67_"  style="overflow:visible;"/>
	</clipPath>
	<g class="st33">
		<defs>
			<rect id="SVGID_69_" y="-545.5" width="1024" height="2010"/>
		</defs>
		<clipPath id="SVGID_70_">
			<use xlink:href="#SVGID_69_"  style="overflow:visible;"/>
		</clipPath>
		
			<rect x="898.3" y="124.8" transform="matrix(0.9397 -0.342 0.342 0.9397 -4.0396 324.391)" class="st34" width="39" height="97.6"/>
	</g>
</g>
<g>
	<defs>
		<path id="SVGID_71_" d="M903,176c3.6-0.1,7.3-1,10.7-2.2c0.9-0.3,0.6-1.8-0.3-1.4c-3.3,1.2-6.8,2.1-10.3,2.2
			C902.1,174.5,902,176,903,176"/>
	</defs>
	<clipPath id="SVGID_72_">
		<use xlink:href="#SVGID_71_"  style="overflow:visible;"/>
	</clipPath>
	<g class="st35">
		<defs>
			<rect id="SVGID_73_" y="-545.5" width="1024" height="2010"/>
		</defs>
		<clipPath id="SVGID_74_">
			<use xlink:href="#SVGID_73_"  style="overflow:visible;"/>
		</clipPath>
		
			<rect x="897.2" y="167.6" transform="matrix(0.9397 -0.342 0.342 0.9397 -4.7827 321.1312)" class="st36" width="22.1" height="13"/>
	</g>
</g>
<g>
	<defs>
		<path id="SVGID_75_" d="M905.1,181.8c1.9,0,3.8-0.4,5.7-0.8c0.9-0.2,0.6-1.6-0.4-1.4c-1.7,0.4-3.5,0.7-5.3,0.7
			C904.2,180.4,904.2,181.9,905.1,181.8"/>
	</defs>
	<clipPath id="SVGID_76_">
		<use xlink:href="#SVGID_75_"  style="overflow:visible;"/>
	</clipPath>
	<g class="st37">
		<defs>
			<rect id="SVGID_77_" y="-545.5" width="1024" height="2010"/>
		</defs>
		<clipPath id="SVGID_78_">
			<use xlink:href="#SVGID_77_"  style="overflow:visible;"/>
		</clipPath>
		
			<rect x="899.4" y="174.4" transform="matrix(0.9397 -0.342 0.342 0.9397 -7.0603 321.4144)" class="st38" width="16.9" height="12.6"/>
	</g>
</g>
<g>
	<defs>
		<path id="SVGID_79_" d="M898.7,147l4.6-1.7c0.9-0.3,0.6-1.8-0.3-1.4l-4.6,1.7C897.4,145.9,897.8,147.3,898.7,147"/>
	</defs>
	<clipPath id="SVGID_80_">
		<use xlink:href="#SVGID_79_"  style="overflow:visible;"/>
	</clipPath>
	<g class="st39">
		<defs>
			<rect id="SVGID_81_" y="-545.5" width="1024" height="2010"/>
		</defs>
		<clipPath id="SVGID_82_">
			<use xlink:href="#SVGID_81_"  style="overflow:visible;"/>
		</clipPath>
		
			<rect x="892.6" y="139.7" transform="matrix(0.9397 -0.342 0.342 0.9397 4.5841 316.8694)" class="st40" width="16.4" height="11.5"/>
	</g>
</g>
<g>
	<defs>
		
			<rect id="SVGID_83_" x="902" y="135.9" transform="matrix(0.9397 -0.342 0.342 0.9397 -6.1313 324.8627)" width="32.3" height="87.8"/>
	</defs>
	<clipPath id="SVGID_84_">
		<use xlink:href="#SVGID_83_"  style="overflow:visible;"/>
	</clipPath>
	<g class="st41">
		<defs>
			<rect id="SVGID_85_" y="-545.5" width="1024" height="2010"/>
		</defs>
		<clipPath id="SVGID_86_">
			<use xlink:href="#SVGID_85_"  style="overflow:visible;"/>
		</clipPath>
		<g class="st42">
			<g>
				<defs>
					<rect id="SVGID_87_" x="893" y="135.5" width="54" height="91"/>
				</defs>
				<clipPath id="SVGID_88_">
					<use xlink:href="#SVGID_87_"  style="overflow:visible;"/>
				</clipPath>
				<g class="st43">
					<defs>
						<path id="SVGID_89_" d="M909,137.2c0.6,1.6,0.9,4.1,2.3,5.1c0.7,0.5,2,0.7,2.8,1c1.9,0.9,3.8,2.1,5.3,3.6
							c3.3,3.1,4.7,7.3,6.2,11.4c0.9,2.4,1.1,4.4,0.6,7c-0.2,1.2-0.3,1.2-0.1,2.4c0.4,1.4,0.9,3.5,1.7,4.7c0.6,1,1.6,1.3,2.5,2.1
							c2.6,2.2,3.4,6.3,4.5,9.3l5.9,16.1c0.9,2.5,1.9,5,2.7,7.5c0.7,2.2,1,4.3,0,6.4c-2.2,4.8-6.2,1.4-9.9,2
							c-1.3,0.2-2.8,0.8-3.9,1.4c-3.2,1.6-4.6,7-8.9,5.4c-3.5-1.3-4.5-5.1-5.6-8.2l-7-19.2l-1.9-5.2c-0.7-1.8-1.3-3.4-1.2-5.4
							c0.1-1.5,0.8-2.7,0.6-4.2c-0.2-1.4-1.1-3.9-1.9-5.2c-0.9-1.5-2.8-2-3.9-3.5c-2.1-3-3.6-8.3-4.1-11.8c-0.4-2.9,0-5.8,0.9-8.5
							c0.5-1.5,1.6-2.9,2.1-4.3c0.6-1.9-0.6-3.8-1.3-5.7c-0.3-0.9-1.7-0.3-1.4,0.5c0.5,1.4,1.3,2.8,1.5,4.2c0.2,0.9,0.4-0.8,0.1-0.1
							c-0.2,0.4-0.6,0.9-0.8,1.3c-2,3.6-3,7.7-2.7,11.8c0.3,3.7,1.8,7.4,3.2,10.9c0.7,1.7,1.5,3.2,3,4.4c0,0,1.9,1.1,1.9,1.2
							c0.5,0.6,0.6,1.8,0.9,2.5c0.7,1.8,1,2.6,0.8,4.1c-0.4,2.2-0.6,3.9,0.1,6.1c0.7,2.2,1.6,4.3,2.4,6.5l7.4,20.3
							c0.9,2.6,1.7,5.2,3.8,7.2c3.5,3.4,7.4,2.5,10.3-1c2.7-3.2,4.6-4.2,8.8-3.5c2.3,0.4,3.9,1,6-0.4c3.4-2.2,3.4-6.9,2.3-10.3
							c-2.2-6.6-4.8-13.2-7.2-19.8l-1.9-5.2c-0.6-1.6-1.1-3.2-1.7-4.8c-1-2.3-2.4-3.2-4-4.8c-1.2-1.2-1.9-3-2.3-4.8
							c-0.4-1.8,0.3-2.5,0.4-4.7c0.2-3.7-2-8.3-3.6-11.6c-2.1-4.3-5.8-7.6-10.1-9.6c-0.6-0.3-1.4-0.6-2-0.8c-0.4-0.1-1-0.5-0.6-0.1
							c0.4,0.4-0.4-1.7-0.5-2l-0.8-2.3C910.1,135.8,908.7,136.3,909,137.2"/>
					</defs>
					<clipPath id="SVGID_90_">
						<use xlink:href="#SVGID_89_"  style="overflow:visible;"/>
					</clipPath>
					<g class="st44">
						<defs>
							<rect id="SVGID_91_" x="887" y="132.5" width="62" height="95"/>
						</defs>
						<clipPath id="SVGID_92_">
							<use xlink:href="#SVGID_91_"  style="overflow:visible;"/>
						</clipPath>
						
							<rect x="897" y="130.9" transform="matrix(0.9397 -0.342 0.342 0.9397 -6.1311 324.8642)" class="st45" width="42.3" height="97.8"/>
					</g>
				</g>
			</g>
		</g>
	</g>
</g>
<g>
	<defs>
		<path id="SVGID_93_" d="M931.4,183.1c-1.8,1.4-4.4,1.7-6.3,0.4c-0.5-0.3-1.1-0.2-1.2,0.4c-0.9,3.4-4.5,4.9-7.6,2.8
			c-0.5-0.3-1.1-0.2-1.2,0.4c-0.7,2.4-2.4,3.7-5,3.8c-1,0-0.9,1.5,0.1,1.5c3.3-0.1,5.6-1.9,6.4-5c-0.4,0.1-0.8,0.3-1.2,0.4
			c3.9,2.7,8.7,1.1,10-3.6c-0.4,0.1-0.8,0.3-1.2,0.4c2.7,1.8,5.5,1.8,8.1-0.2C932.9,183.7,932.1,182.5,931.4,183.1"/>
	</defs>
	<clipPath id="SVGID_94_">
		<use xlink:href="#SVGID_93_"  style="overflow:visible;"/>
	</clipPath>
	<g class="st46">
		<defs>
			<rect id="SVGID_95_" y="-545.5" width="1024" height="2010"/>
		</defs>
		<clipPath id="SVGID_96_">
			<use xlink:href="#SVGID_95_"  style="overflow:visible;"/>
		</clipPath>
		
			<rect x="903.3" y="179.8" transform="matrix(0.9397 -0.342 0.342 0.9397 -8.3783 326.114)" class="st47" width="34.6" height="14.1"/>
	</g>
</g>
<g>
	<defs>
		
			<rect id="SVGID_97_" x="894.1" y="131" transform="matrix(0.9397 -0.342 0.342 0.9397 8.1118 316.5789)" width="15.4" height="8.5"/>
	</defs>
	<clipPath id="SVGID_98_">
		<use xlink:href="#SVGID_97_"  style="overflow:visible;"/>
	</clipPath>
	<g class="st48">
		<defs>
			<rect id="SVGID_99_" y="-545.5" width="1024" height="2010"/>
		</defs>
		<clipPath id="SVGID_100_">
			<use xlink:href="#SVGID_99_"  style="overflow:visible;"/>
		</clipPath>
		<g class="st49">
			<g>
				<defs>
					<rect id="SVGID_101_" x="893" y="128.5" width="18" height="14"/>
				</defs>
				<clipPath id="SVGID_102_">
					<use xlink:href="#SVGID_101_"  style="overflow:visible;"/>
				</clipPath>
				<g class="st50">
					<defs>
						<path id="SVGID_103_" d="M908.3,130.9c-1.1-1.8-2.5-1.6-4.3-1l-7.2,2.6c-1.7,0.6-3.3,1.4-2.9,3.5c0.3,1.7,1.3,3.5,1.9,5.2
							c0.1,0.4,0.6,0.5,1,0.4l12.9-4.7c0.4-0.1,0.5-0.6,0.4-1L908.3,130.9c-0.3-0.9-1.7-0.3-1.4,0.6l1.8,5c0.1-0.3,0.3-0.7,0.4-1
							l-12.9,4.7c0.3,0.1,0.7,0.2,1,0.4c-0.5-1.3-1.2-2.7-1.5-4.1c-0.3-1.7,0.3-2.1,1.8-2.6l5.1-1.9c1-0.4,3.5-1.9,4.4-0.5
							C907.5,132.3,908.8,131.7,908.3,130.9"/>
					</defs>
					<clipPath id="SVGID_104_">
						<use xlink:href="#SVGID_103_"  style="overflow:visible;"/>
					</clipPath>
					<g class="st51">
						<defs>
							<rect id="SVGID_105_" x="893" y="128.5" width="18" height="14"/>
						</defs>
						<clipPath id="SVGID_106_">
							<use xlink:href="#SVGID_105_"  style="overflow:visible;"/>
						</clipPath>
						
							<rect x="889.1" y="126" transform="matrix(0.9397 -0.342 0.342 0.9397 8.1118 316.5787)" class="st52" width="25.4" height="18.5"/>
					</g>
				</g>
			</g>
		</g>
	</g>
</g>
<g>
	<defs>
		<rect id="SVGID_107_" x="930.3" y="245.2" width="89.6" height="79.5"/>
	</defs>
	<clipPath id="SVGID_108_">
		<use xlink:href="#SVGID_107_"  style="overflow:visible;"/>
	</clipPath>
	<g class="st53">
		<defs>
			<rect id="SVGID_109_" y="-545.5" width="1024" height="2010"/>
		</defs>
		<clipPath id="SVGID_110_">
			<use xlink:href="#SVGID_109_"  style="overflow:visible;"/>
		</clipPath>
		<g class="st54">
			<g>
				<defs>
					<rect id="SVGID_111_" x="930" y="239.5" width="92" height="86"/>
				</defs>
				<clipPath id="SVGID_112_">
					<use xlink:href="#SVGID_111_"  style="overflow:visible;"/>
				</clipPath>
				<g class="st55">
					<defs>
						<path id="SVGID_113_" d="M1019.8,283.1c-0.5-8.4-2.8-14.8-5-19.1c-2.2-4.2-6.4-6.4-9.5-10c-9.3-10.9-54.2-15.7-70,10
							c-2.5,4.1-4.8,10.7-5,19.1c-0.3,10.5,3.1,20.8,9.7,28.9c0.1,0.1,0.2,0.2,0.3,0.3c7.2,8.7,18.1,12.3,34.8,12.3
							C993.6,324.6,1021.6,314.9,1019.8,283.1"/>
					</defs>
					<clipPath id="SVGID_114_">
						<use xlink:href="#SVGID_113_"  style="overflow:visible;"/>
					</clipPath>
					<g class="st56">
						<defs>
							<rect id="SVGID_115_" x="930" y="244.5" width="90" height="81"/>
						</defs>
						<clipPath id="SVGID_116_">
							<use xlink:href="#SVGID_115_"  style="overflow:visible;"/>
						</clipPath>
						<rect x="925.3" y="240.2" class="st57" width="99.6" height="89.5"/>
					</g>
				</g>
			</g>
		</g>
	</g>
</g>
<g>
	<defs>
		<path id="SVGID_117_" d="M1016.9,280.4c-0.4-5.8-1.6-11.6-4-17c-2.4-5.3-6.7-8.4-10.7-12.5c-4.1-4.1-9.6-6.1-15.2-7.4
			c-15.5-3.6-34.4-1.9-47.4,8c-17.9,13.6-17.4,41.8-3.9,58.3c11.4,14,33.7,15.3,50,11.1c8.2-2.1,16.2-6.1,22-12.4
			C1014.9,300.8,1017.4,290.7,1016.9,280.4c0-0.9-1.4-0.7-1.4,0.2c0.4,9-1.5,18.1-7.2,25.2c-4.6,5.8-11.1,9.8-18.1,12.3
			c-7,2.5-14.4,3.4-21.9,3.1c-9.5-0.3-19.6-1.9-27.2-8.1c-16.4-13.5-19.2-43.2-3.4-58.1c11.4-10.8,29-13.2,44-11.1
			c6.1,0.9,13.4,2.5,18.2,6.7c3.9,3.5,8.7,7.4,11,12.1c2.8,5.5,4,11.7,4.4,17.8C1015.6,281.5,1017,281.3,1016.9,280.4"/>
	</defs>
	<clipPath id="SVGID_118_">
		<use xlink:href="#SVGID_117_"  style="overflow:visible;"/>
	</clipPath>
	<g class="st58">
		<defs>
			<rect id="SVGID_119_" y="-545.5" width="1024" height="2010"/>
		</defs>
		<clipPath id="SVGID_120_">
			<use xlink:href="#SVGID_119_"  style="overflow:visible;"/>
		</clipPath>
		<rect x="921" y="236.8" class="st59" width="101" height="91.3"/>
	</g>
</g>
<g>
	<defs>
		<path id="SVGID_121_" d="M971.1,304.8c-0.7,0.4-1.2,0.9-1.5,1.6c-0.7,1.4-0.2,2.4-1.4,3.8c-1.4,1.6-2.7,1.8-4.8,2
			c-6.6,0.6-12.2-2.2-16.8-6.6c-9.1-8.9-14.3-26.1-6.3-37.2c1.2-1.6,2.7-2.8,4.6-3.4c1.2-0.4,4.6-0.8,5.9,0.1c0.2,0.2,0.1,0,0.4,0.7
			c0.3,0.7,0.3,1.8,0.5,2.6c0.1,0.7,0.3,1.4,0.4,2.1c0.1,0.6,0.1,0.8,0.2,0.3c-0.1,0.7-0.7,1.5-1,2.1c-2.6,6.5-2.1,13.8,3.4,18.6
			c1.6,1.4,10.5,8.7,12.6,3.8c-0.5,0-0.9,0-1.4,0.1c1.6,3.4,3.3,6.9,4.9,10.3c0.4,0.9,1.8,0.2,1.3-0.6c-1.6-3.4-3.3-6.9-4.9-10.3
			c-0.3-0.6-1.1-0.5-1.4,0.1c-0.8,2-6-1.3-6.8-1.8c-5.4-3.6-8.6-8.3-7.6-15c0.4-2.3,1.9-4.5,2.2-6.7c0.3-2-0.8-4.8-1.2-6.8
			c0-0.3-0.2-0.5-0.5-0.6c-7.7-2.7-13,1.8-15.6,8.9c-3.1,8.7-1,19,3.7,26.8c3.7,6.2,9.5,12,16.7,13.6c3.2,0.8,7.4,0.9,10.5-0.4
			c1.2-0.5,2.1-1.3,2.8-2.4c0.6-1,0.7-3.9,1.6-4.4C972.6,305.7,972,304.4,971.1,304.8"/>
	</defs>
	<clipPath id="SVGID_122_">
		<use xlink:href="#SVGID_121_"  style="overflow:visible;"/>
	</clipPath>
	<g class="st60">
		<defs>
			<rect id="SVGID_123_" y="-545.5" width="1024" height="2010"/>
		</defs>
		<clipPath id="SVGID_124_">
			<use xlink:href="#SVGID_123_"  style="overflow:visible;"/>
		</clipPath>
		<rect x="929.9" y="258.2" class="st61" width="47.3" height="60.7"/>
	</g>
</g>
<g>
	<defs>
		<path id="SVGID_125_" d="M943.9,285.2c-0.4,0-0.9,0.1-1.3,0.1c-0.4,0-0.7,0.5-0.6,0.9c0.1,0.4,0.4,0.7,0.9,0.6
			c0.4,0,0.9-0.1,1.3-0.1c0.4,0,0.7-0.5,0.6-0.9C944.7,285.4,944.3,285.2,943.9,285.2"/>
	</defs>
	<clipPath id="SVGID_126_">
		<use xlink:href="#SVGID_125_"  style="overflow:visible;"/>
	</clipPath>
	<g class="st62">
		<defs>
			<rect id="SVGID_127_" y="-545.5" width="1024" height="2010"/>
		</defs>
		<clipPath id="SVGID_128_">
			<use xlink:href="#SVGID_127_"  style="overflow:visible;"/>
		</clipPath>
		<rect x="936.9" y="280.2" class="st63" width="12.8" height="11.6"/>
	</g>
</g>
<g>
	<defs>
		<path id="SVGID_129_" d="M945.8,292.8c-0.4,0.2-0.8,0.4-1.2,0.6c-0.9,0.4-0.3,1.8,0.6,1.4c0.4-0.2,0.8-0.4,1.2-0.6
			C947.3,293.8,946.7,292.4,945.8,292.8"/>
	</defs>
	<clipPath id="SVGID_130_">
		<use xlink:href="#SVGID_129_"  style="overflow:visible;"/>
	</clipPath>
	<g class="st64">
		<defs>
			<rect id="SVGID_131_" y="-545.5" width="1024" height="2010"/>
		</defs>
		<clipPath id="SVGID_132_">
			<use xlink:href="#SVGID_131_"  style="overflow:visible;"/>
		</clipPath>
		<rect x="939.1" y="287.8" class="st65" width="12.7" height="12.1"/>
	</g>
</g>
<g>
	<defs>
		<path id="SVGID_133_" d="M949.8,299.2c-0.3,0.3-0.6,0.6-1,1c-0.3,0.3-0.2,0.8,0.1,1.1c0.3,0.3,0.8,0.2,1-0.1c0.3-0.3,0.6-0.6,1-1
			c0.3-0.3,0.2-0.8-0.1-1C950.5,298.8,950.1,298.9,949.8,299.2"/>
	</defs>
	<clipPath id="SVGID_134_">
		<use xlink:href="#SVGID_133_"  style="overflow:visible;"/>
	</clipPath>
	<g class="st66">
		<defs>
			<rect id="SVGID_135_" y="-545.5" width="1024" height="2010"/>
		</defs>
		<clipPath id="SVGID_136_">
			<use xlink:href="#SVGID_135_"  style="overflow:visible;"/>
		</clipPath>
		<rect x="943.7" y="293.9" class="st67" width="12.5" height="12.4"/>
	</g>
</g>
<g>
	<defs>
		<path id="SVGID_137_" d="M954.8,303.6c-0.2,0.4-0.4,0.8-0.6,1.2c-0.2,0.4,0.1,0.8,0.4,1c0.4,0.2,0.8-0.1,1-0.4
			c0.2-0.4,0.4-0.8,0.6-1.2c0.2-0.4-0.1-0.8-0.4-1C955.3,303,954.9,303.2,954.8,303.6"/>
	</defs>
	<clipPath id="SVGID_138_">
		<use xlink:href="#SVGID_137_"  style="overflow:visible;"/>
	</clipPath>
	<g class="st68">
		<defs>
			<rect id="SVGID_139_" y="-545.5" width="1024" height="2010"/>
		</defs>
		<clipPath id="SVGID_140_">
			<use xlink:href="#SVGID_139_"  style="overflow:visible;"/>
		</clipPath>
		<rect x="949.1" y="298.1" class="st69" width="12.1" height="12.7"/>
	</g>
</g>
<g>
	<defs>
		<path id="SVGID_141_" d="M961.8,305.3c0,0.5-0.1,0.9-0.1,1.4c0,0.4,0.2,0.8,0.6,0.9c0.4,0.1,0.8-0.2,0.9-0.6
			c0-0.5,0.1-0.9,0.1-1.4c0-0.4-0.2-0.8-0.6-0.9C962.3,304.7,961.8,304.9,961.8,305.3"/>
	</defs>
	<clipPath id="SVGID_142_">
		<use xlink:href="#SVGID_141_"  style="overflow:visible;"/>
	</clipPath>
	<g class="st70">
		<defs>
			<rect id="SVGID_143_" y="-545.5" width="1024" height="2010"/>
		</defs>
		<clipPath id="SVGID_144_">
			<use xlink:href="#SVGID_143_"  style="overflow:visible;"/>
		</clipPath>
		<rect x="956.6" y="299.7" class="st71" width="11.6" height="12.8"/>
	</g>
</g>
<g>
	<defs>
		<path id="SVGID_145_" d="M947.2,270.5c-0.4-0.2-0.8-0.3-1.3-0.5c-0.9-0.3-1.4,1.1-0.5,1.4c0.4,0.2,0.8,0.3,1.3,0.5
			C947.6,272.2,948.1,270.8,947.2,270.5"/>
	</defs>
	<clipPath id="SVGID_146_">
		<use xlink:href="#SVGID_145_"  style="overflow:visible;"/>
	</clipPath>
	<g class="st72">
		<defs>
			<rect id="SVGID_147_" y="-545.5" width="1024" height="2010"/>
		</defs>
		<clipPath id="SVGID_148_">
			<use xlink:href="#SVGID_147_"  style="overflow:visible;"/>
		</clipPath>
		<rect x="940" y="265" class="st73" width="12.7" height="12"/>
	</g>
</g>
<g>
	<defs>
		<path id="SVGID_149_" d="M944.4,277.6c-0.4-0.1-0.9-0.2-1.3-0.3c-0.4-0.1-0.8,0.3-0.8,0.7c0,0.4,0.3,0.7,0.7,0.8
			c0.4,0.1,0.9,0.2,1.3,0.3c0.4,0.1,0.8-0.3,0.8-0.7C945.2,278,944.8,277.7,944.4,277.6"/>
	</defs>
	<clipPath id="SVGID_150_">
		<use xlink:href="#SVGID_149_"  style="overflow:visible;"/>
	</clipPath>
	<g class="st74">
		<defs>
			<rect id="SVGID_151_" y="-545.5" width="1024" height="2010"/>
		</defs>
		<clipPath id="SVGID_152_">
			<use xlink:href="#SVGID_151_"  style="overflow:visible;"/>
		</clipPath>
		<rect x="937.3" y="272.4" class="st75" width="12.8" height="11.8"/>
	</g>
</g>
<g>
	<defs>
		<path id="SVGID_153_" d="M973.9,259.7c0.8-0.4,1.1-0.9,1.5-1.7c0.8-1.6,0.3-2.9,2-4.2c1.7-1.3,3-1.5,5.3-1.6
			c6.2-0.3,11.5,2.5,15.8,6.8c9,8.9,14.4,26.1,6.3,37.2c-1.4,1.9-3.2,3.1-5.5,3.6c-1.2,0.2-4,0.5-5.1-0.4c-0.4-0.4-0.7-2.2-0.9-3.3
			c-0.1-0.7-0.3-1.4-0.4-2.1c-0.1-0.6-0.1-0.7-0.2-0.3c0.1-0.7,0.7-1.5,1-2.2c2.6-6.7,2-14.1-3.8-18.9c-1.7-1.4-10.2-8.2-12.2-3.4
			c0.5-0.1,0.9-0.1,1.4-0.2c-1.6-3.4-3.3-6.9-4.9-10.3c-0.4-0.9-1.7-0.1-1.3,0.7c1.6,3.4,3.3,6.9,4.9,10.3c0.3,0.6,1.1,0.4,1.4-0.2
			c0.8-1.8,5.8,1.2,6.8,1.9c5.6,3.7,8.7,8.5,7.5,15.3c-0.4,2.2-1.9,4.4-2.2,6.5c-0.2,2,0.8,4.8,1.2,6.8c0,0.3,0.3,0.5,0.5,0.5
			c7.7,2.7,13-1.9,15.5-8.9c3.1-8.7,0.9-19-3.7-26.8c-3.8-6.5-10.1-12.5-17.8-13.8c-3-0.5-7.1-0.6-9.9,0.8c-1.1,0.6-2,1.5-2.6,2.6
			c-0.5,1-0.5,3.5-1.5,4C972.3,258.8,973,260.1,973.9,259.7"/>
	</defs>
	<clipPath id="SVGID_154_">
		<use xlink:href="#SVGID_153_"  style="overflow:visible;"/>
	</clipPath>
	<g class="st76">
		<defs>
			<rect id="SVGID_155_" y="-545.5" width="1024" height="2010"/>
		</defs>
		<clipPath id="SVGID_156_">
			<use xlink:href="#SVGID_155_"  style="overflow:visible;"/>
		</clipPath>
		<rect x="967.8" y="245.6" class="st77" width="47.3" height="60.7"/>
	</g>
</g>
<g>
	<defs>
		<path id="SVGID_157_" d="M1001,279.3c0.4,0,0.9-0.1,1.3-0.1c1-0.1,0.8-1.6-0.1-1.5c-0.5,0-0.9,0.1-1.3,0.1
			C999.9,277.9,1000,279.4,1001,279.3"/>
	</defs>
	<clipPath id="SVGID_158_">
		<use xlink:href="#SVGID_157_"  style="overflow:visible;"/>
	</clipPath>
	<g class="st78">
		<defs>
			<rect id="SVGID_159_" y="-545.5" width="1024" height="2010"/>
		</defs>
		<clipPath id="SVGID_160_">
			<use xlink:href="#SVGID_159_"  style="overflow:visible;"/>
		</clipPath>
		<rect x="995.2" y="272.7" class="st79" width="12.8" height="11.6"/>
	</g>
</g>
<g>
	<defs>
		<path id="SVGID_161_" d="M999.2,271.6c0.4-0.2,0.8-0.4,1.2-0.6c0.9-0.4,0.3-1.8-0.6-1.4c-0.4,0.2-0.8,0.4-1.2,0.6
			C997.7,270.7,998.3,272,999.2,271.6"/>
	</defs>
	<clipPath id="SVGID_162_">
		<use xlink:href="#SVGID_161_"  style="overflow:visible;"/>
	</clipPath>
	<g class="st80">
		<defs>
			<rect id="SVGID_163_" y="-545.5" width="1024" height="2010"/>
		</defs>
		<clipPath id="SVGID_164_">
			<use xlink:href="#SVGID_163_"  style="overflow:visible;"/>
		</clipPath>
		<rect x="993.1" y="264.6" class="st81" width="12.7" height="12.1"/>
	</g>
</g>
<g>
	<defs>
		<path id="SVGID_165_" d="M995.1,265.3c0.3-0.3,0.6-0.6,1-1c0.3-0.3,0.2-0.8-0.1-1.1c-0.3-0.3-0.8-0.2-1.1,0.1
			c-0.3,0.3-0.6,0.6-1,1c-0.3,0.3-0.2,0.8,0.1,1.1C994.4,265.7,994.8,265.6,995.1,265.3"/>
	</defs>
	<clipPath id="SVGID_166_">
		<use xlink:href="#SVGID_165_"  style="overflow:visible;"/>
	</clipPath>
	<g class="st82">
		<defs>
			<rect id="SVGID_167_" y="-545.5" width="1024" height="2010"/>
		</defs>
		<clipPath id="SVGID_168_">
			<use xlink:href="#SVGID_167_"  style="overflow:visible;"/>
		</clipPath>
		<rect x="988.8" y="258.1" class="st83" width="12.5" height="12.4"/>
	</g>
</g>
<g>
	<defs>
		<path id="SVGID_169_" d="M990.2,260.9c0.2-0.4,0.4-0.8,0.6-1.2c0.2-0.4-0.1-0.8-0.4-1c-0.4-0.2-0.8,0.1-1,0.4
			c-0.2,0.4-0.4,0.8-0.6,1.2c-0.2,0.4,0.1,0.8,0.4,1C989.6,261.5,990,261.3,990.2,260.9"/>
	</defs>
	<clipPath id="SVGID_170_">
		<use xlink:href="#SVGID_169_"  style="overflow:visible;"/>
	</clipPath>
	<g class="st84">
		<defs>
			<rect id="SVGID_171_" y="-545.5" width="1024" height="2010"/>
		</defs>
		<clipPath id="SVGID_172_">
			<use xlink:href="#SVGID_171_"  style="overflow:visible;"/>
		</clipPath>
		<rect x="983.7" y="253.7" class="st85" width="12.1" height="12.7"/>
	</g>
</g>
<g>
	<defs>
		<path id="SVGID_173_" d="M983.2,259.1c0-0.5,0.1-0.9,0.1-1.3c0.1-1-1.4-1-1.5-0.1c0,0.5-0.1,0.9-0.1,1.3
			C981.6,259.9,983.1,260,983.2,259.1"/>
	</defs>
	<clipPath id="SVGID_174_">
		<use xlink:href="#SVGID_173_"  style="overflow:visible;"/>
	</clipPath>
	<g class="st86">
		<defs>
			<rect id="SVGID_175_" y="-545.5" width="1024" height="2010"/>
		</defs>
		<clipPath id="SVGID_176_">
			<use xlink:href="#SVGID_175_"  style="overflow:visible;"/>
		</clipPath>
		<rect x="976.7" y="251.9" class="st87" width="11.6" height="12.8"/>
	</g>
</g>
<g>
	<defs>
		<path id="SVGID_177_" d="M997.6,294l1.3,0.5c0.4,0.1,0.8,0.1,1-0.3c0.2-0.3,0.1-0.9-0.3-1l-1.3-0.5c-0.4-0.1-0.8-0.1-1,0.3
			C997.1,293.3,997.3,293.8,997.6,294"/>
	</defs>
	<clipPath id="SVGID_178_">
		<use xlink:href="#SVGID_177_"  style="overflow:visible;"/>
	</clipPath>
	<g class="st88">
		<defs>
			<rect id="SVGID_179_" y="-545.5" width="1024" height="2010"/>
		</defs>
		<clipPath id="SVGID_180_">
			<use xlink:href="#SVGID_179_"  style="overflow:visible;"/>
		</clipPath>
		<rect x="992.2" y="287.6" class="st89" width="12.7" height="11.9"/>
	</g>
</g>
<g>
	<defs>
		<path id="SVGID_181_" d="M1000.4,286.8c0.4,0.1,0.9,0.2,1.3,0.3c0.9,0.2,1.2-1.3,0.3-1.5c-0.4-0.1-0.9-0.2-1.3-0.3
			C999.8,285.2,999.5,286.7,1000.4,286.8"/>
	</defs>
	<clipPath id="SVGID_182_">
		<use xlink:href="#SVGID_181_"  style="overflow:visible;"/>
	</clipPath>
	<g class="st90">
		<defs>
			<rect id="SVGID_183_" y="-545.5" width="1024" height="2010"/>
		</defs>
		<clipPath id="SVGID_184_">
			<use xlink:href="#SVGID_183_"  style="overflow:visible;"/>
		</clipPath>
		<rect x="994.8" y="280.4" class="st91" width="12.8" height="11.8"/>
	</g>
</g>
<g>
	<defs>
		<rect id="SVGID_185_" x="-24.9" y="220.4" width="97.2" height="91.1"/>
	</defs>
	<clipPath id="SVGID_186_">
		<use xlink:href="#SVGID_185_"  style="overflow:visible;"/>
	</clipPath>
	<g class="st92">
		<defs>
			<rect id="SVGID_187_" y="-545.5" width="1024" height="2010"/>
		</defs>
		<clipPath id="SVGID_188_">
			<use xlink:href="#SVGID_187_"  style="overflow:visible;"/>
		</clipPath>
		<g class="st93">
			<g>
				<defs>
					<rect id="SVGID_189_" x="-30" y="215.5" width="105" height="97"/>
				</defs>
				<clipPath id="SVGID_190_">
					<use xlink:href="#SVGID_189_"  style="overflow:visible;"/>
				</clipPath>
				<g class="st94">
					<defs>
						<path id="SVGID_191_" d="M70.7,253.7c-1-1.5-3-2.5-3.7-4c-0.6-1.3-0.5-3.2-0.9-4.7c-1-3.5-2.9-6.7-5.4-9.4
							c-7-7.4-36-17.3-42.4-12.1C13.7,215.6-8,225-11,227.8c-1.5,1.4-2.6,3.2-3.1,5.2c-0.5,2.2,0.2,3.3-1.5,4.9
							c-3.5,3.3-6.4,6.1-7.9,10.8c-1.5,4.9-1.1,9.9,0.8,14.6c-7.7,5,6,37,15.3,33.5c-1.2,10.2,23.6,15.3,28.7,14.7
							c1.2-0.1,2.4-0.5,3.4-1.1c1.3-0.7,2.5-2.4,3.8-2.9c1.3-0.4,3.7,0.6,5,0.7c1.7,0.1,3.5,0.1,5.2-0.1
							c12.8-1.7,29.8-33.5,27.3-39.8C71.7,265.7,74.2,259.1,70.7,253.7"/>
					</defs>
					<clipPath id="SVGID_192_">
						<use xlink:href="#SVGID_191_"  style="overflow:visible;"/>
					</clipPath>
					<g class="st95">
						<defs>
							<rect id="SVGID_193_" y="219.5" width="73" height="92"/>
						</defs>
						<clipPath id="SVGID_194_">
							<use xlink:href="#SVGID_193_"  style="overflow:visible;"/>
						</clipPath>
						<rect x="-29.9" y="215.4" class="st96" width="107.2" height="101.1"/>
					</g>
				</g>
			</g>
		</g>
	</g>
</g>
<g>
	<defs>
		<path id="SVGID_195_" d="M42.1,261c-0.2,9.4-5.6,17.9-14.5,21.4c-9.1,3.6-19.6,0.9-26-6.4c-13.9-16.1,1.1-41.5,21.9-37.4
			c10.9,2.1,18.3,11.7,18.6,22.6c0,1,1.5,0.8,1.5-0.2c-0.2-10.2-6.5-19.5-16.3-22.9c-9.5-3.3-20.3-0.4-26.8,7.2
			c-6.5,7.6-7.6,18.8-2.7,27.6c5.1,9.1,15.7,14.1,26,12.1c11.5-2.2,19.6-12.3,19.8-23.8C43.6,260.2,42.1,260,42.1,261"/>
	</defs>
	<clipPath id="SVGID_196_">
		<use xlink:href="#SVGID_195_"  style="overflow:visible;"/>
	</clipPath>
	<g class="st97">
		<defs>
			<rect id="SVGID_197_" y="-545.5" width="1024" height="2010"/>
		</defs>
		<clipPath id="SVGID_198_">
			<use xlink:href="#SVGID_197_"  style="overflow:visible;"/>
		</clipPath>
		<rect x="-10.3" y="231.7" class="st98" width="58.9" height="58.8"/>
	</g>
</g>
<g>
	<defs>
		<rect id="SVGID_199_" x="-28.3" y="215.5" width="59.3" height="45.8"/>
	</defs>
	<clipPath id="SVGID_200_">
		<use xlink:href="#SVGID_199_"  style="overflow:visible;"/>
	</clipPath>
	<g class="st99">
		<defs>
			<rect id="SVGID_201_" y="-545.5" width="1024" height="2010"/>
		</defs>
		<clipPath id="SVGID_202_">
			<use xlink:href="#SVGID_201_"  style="overflow:visible;"/>
		</clipPath>
		<g class="st100">
			<g>
				<defs>
					<rect id="SVGID_203_" x="-30" y="211.5" width="62" height="51"/>
				</defs>
				<clipPath id="SVGID_204_">
					<use xlink:href="#SVGID_203_"  style="overflow:visible;"/>
				</clipPath>
				<g class="st101">
					<defs>
						<path id="SVGID_205_" d="M31.1,228.1c-0.5-9.1-10.9-13-17.4-6.8l1.3,0.2c-4.4-9.1-17.5-7.5-19.3,2.6c0.4-0.2,0.7-0.4,1.1-0.5
							c-3.8-1.9-8.3-1.7-11.6,1.2c-1.3,1.2-2.4,2.7-2.9,4.4c-0.7,2.2,0,4.1-1.7,5.7c-3.4,3.2-6.2,5.8-7.8,10.4
							c-1.7,5.1-1.3,10.6,0.9,15.5c0.4,0.9,1.8,0.4,1.4-0.5c-4.2-9.5-0.9-20,8.1-25.3c0.2-0.1,0.4-0.4,0.3-0.7
							c-1.3-7.4,5.7-12.8,12.5-9.5c0.4,0.2,1-0.1,1.1-0.5c1.5-8.5,12.6-10.3,16.4-2.3c0.3,0.5,0.8,0.7,1.3,0.2
							c5.7-5.4,14.4-1.7,14.8,5.9C29.6,229.1,31.1,229,31.1,228.1"/>
					</defs>
					<clipPath id="SVGID_206_">
						<use xlink:href="#SVGID_205_"  style="overflow:visible;"/>
					</clipPath>
					<g class="st102">
						<defs>
							<rect id="SVGID_207_" y="215.5" width="32" height="46"/>
						</defs>
						<clipPath id="SVGID_208_">
							<use xlink:href="#SVGID_207_"  style="overflow:visible;"/>
						</clipPath>
						<rect x="-33.3" y="210.5" class="st103" width="69.3" height="55.8"/>
					</g>
				</g>
			</g>
		</g>
	</g>
</g>
<g>
	<defs>
		<path id="SVGID_209_" d="M31.3,281.6c5.5,6.4,15.3,4.1,17.7-3.9c-0.4,0.2-0.7,0.3-1.1,0.5c9.1,4.7,18.3-4.2,14.1-13.4
			c-0.1,0.4-0.3,0.7-0.4,1.1c5.9-2.3,9-9.3,5.3-14.9c-0.8-1.3-2.3-2-3.2-3.1c-1-1.4-0.9-3.5-1.3-5.1c-0.9-3.4-2.7-6.7-5-9.3
			c-10.6-12-29.7-9.7-37.9,3.7c-0.5,0.8,0.8,1.5,1.3,0.7c7.2-11.7,23.5-14.6,33.8-5.1c2.1,1.9,3.8,4.3,5,6.9c0.7,1.4,1.2,3,1.5,4.5
			c0.2,1-0.1,3.2,0.5,4c0.4,0.6,0.5,0.3,1.3,0.9c1.8,1.4,3.2,3,3.7,5.3c1,4.4-1.5,8.4-5.6,10c-0.5,0.2-0.7,0.6-0.4,1.1
			c3.7,7.9-4.4,15.3-12,11.3c-0.4-0.2-1,0-1.1,0.5c-2.1,7-10.4,8.7-15.2,3.2C31.7,279.8,30.7,280.8,31.3,281.6"/>
	</defs>
	<clipPath id="SVGID_210_">
		<use xlink:href="#SVGID_209_"  style="overflow:visible;"/>
	</clipPath>
	<g class="st104">
		<defs>
			<rect id="SVGID_211_" y="-545.5" width="1024" height="2010"/>
		</defs>
		<clipPath id="SVGID_212_">
			<use xlink:href="#SVGID_211_"  style="overflow:visible;"/>
		</clipPath>
		<rect x="14.4" y="220.5" class="st105" width="59" height="69.7"/>
	</g>
</g>
<g>
	<defs>
		<rect id="SVGID_213_" x="-31" y="258.1" width="86.2" height="50.5"/>
	</defs>
	<clipPath id="SVGID_214_">
		<use xlink:href="#SVGID_213_"  style="overflow:visible;"/>
	</clipPath>
	<g class="st106">
		<defs>
			<rect id="SVGID_215_" y="-545.5" width="1024" height="2010"/>
		</defs>
		<clipPath id="SVGID_216_">
			<use xlink:href="#SVGID_215_"  style="overflow:visible;"/>
		</clipPath>
		<g class="st107">
			<g>
				<defs>
					<rect id="SVGID_217_" x="-35" y="255.5" width="92" height="55"/>
				</defs>
				<clipPath id="SVGID_218_">
					<use xlink:href="#SVGID_217_"  style="overflow:visible;"/>
				</clipPath>
				<g class="st108">
					<defs>
						<path id="SVGID_219_" d="M53.5,278.8c2,16.3-13.3,28.9-29,23.9c-0.3-0.1-0.7,0-0.9,0.2c-4.6,6.7-14.5,4.6-15.9-3.5
							c-0.1-0.6-1-0.9-1.3-0.3c-5.2,9-18.2,3.6-15.9-6.4c0.1-0.5-0.6-1-1-0.8c-8.9,4.5-17.1-6-10.5-13.4c0.4-0.4,0-1.1-0.5-1.2
							c-9-1-10.9-13-2.8-16.5c6.4-2.8,13.7-0.3,19.2,3.3c0.8,0.5,1.7-0.7,0.9-1.2c-6.2-3.9-14.9-6.9-21.8-2.9
							c-8.7,5-5.2,17.7,4.4,18.8c-0.2-0.4-0.3-0.8-0.5-1.2c-7.6,8.6,2.1,20.8,12.3,15.7c-0.3-0.3-0.7-0.5-1-0.8
							C-13.6,304,1.7,310.4,7.7,300c-0.4-0.1-0.9-0.2-1.3-0.3c0.9,5.4,5.5,9.5,11.2,8.8c1.5-0.2,2.9-0.7,4.2-1.5
							c1-0.6,2-2.1,3.1-2.5c1.1-0.3,3.9,0.6,5,0.7c1.7,0.1,3.5,0.1,5.2-0.1c13-1.7,21.6-13.9,20-26.6
							C54.9,277.7,53.4,277.9,53.5,278.8"/>
					</defs>
					<clipPath id="SVGID_220_">
						<use xlink:href="#SVGID_219_"  style="overflow:visible;"/>
					</clipPath>
					<g class="st109">
						<defs>
							<rect id="SVGID_221_" y="257.5" width="56" height="52"/>
						</defs>
						<clipPath id="SVGID_222_">
							<use xlink:href="#SVGID_221_"  style="overflow:visible;"/>
						</clipPath>
						<rect x="-36" y="253.1" class="st110" width="96.2" height="60.5"/>
					</g>
				</g>
			</g>
		</g>
	</g>
</g>
<g>
	<defs>
		<path id="SVGID_223_" d="M2.3,245c18.8,2.7,23.3,28,6.4,36.9c-0.9,0.4-0.1,1.8,0.7,1.3c8.5-4.5,13.2-14,11-23.5
			c-2-8.8-9.3-14.9-18.1-16.2C1.5,243.4,1.4,244.9,2.3,245"/>
	</defs>
	<clipPath id="SVGID_224_">
		<use xlink:href="#SVGID_223_"  style="overflow:visible;"/>
	</clipPath>
	<g class="st111">
		<defs>
			<rect id="SVGID_225_" y="-545.5" width="1024" height="2010"/>
		</defs>
		<clipPath id="SVGID_226_">
			<use xlink:href="#SVGID_225_"  style="overflow:visible;"/>
		</clipPath>
		<rect x="-3.3" y="238.5" class="st112" width="29.4" height="49.8"/>
	</g>
</g>
<g>
	<defs>
		<path id="SVGID_227_" d="M20.5,260.7c6.5-4.3,14-5.5,21.6-3.5c0.9,0.2,1.4-1.2,0.4-1.4c-7.9-2.1-15.9-0.8-22.8,3.7
			C19,259.9,19.7,261.2,20.5,260.7"/>
	</defs>
	<clipPath id="SVGID_228_">
		<use xlink:href="#SVGID_227_"  style="overflow:visible;"/>
	</clipPath>
	<g class="st113">
		<defs>
			<rect id="SVGID_229_" y="-545.5" width="1024" height="2010"/>
		</defs>
		<clipPath id="SVGID_230_">
			<use xlink:href="#SVGID_229_"  style="overflow:visible;"/>
		</clipPath>
		<rect x="14.5" y="249.7" class="st114" width="33.6" height="16.1"/>
	</g>
</g>
<g>
	<defs>
		<path id="SVGID_231_" d="M25,303.6c1-2.7,1.5-5.6,1.5-8.4c0-1-1.5-1.1-1.5-0.1c0,2.7-0.4,5.5-1.4,8C23.2,304,24.6,304.5,25,303.6"
			/>
	</defs>
	<clipPath id="SVGID_232_">
		<use xlink:href="#SVGID_231_"  style="overflow:visible;"/>
	</clipPath>
	<g class="st115">
		<defs>
			<rect id="SVGID_233_" y="-545.5" width="1024" height="2010"/>
		</defs>
		<clipPath id="SVGID_234_">
			<use xlink:href="#SVGID_233_"  style="overflow:visible;"/>
		</clipPath>
		<rect x="18.5" y="289.4" class="st116" width="13" height="19.7"/>
	</g>
</g>
<g>
	<defs>
		<path id="SVGID_235_" d="M1052.9,147.5l0.2-0.2c1.3-1.1,1.6-2.9,0.8-4.3c-6.3-11.9-16.4-18.5-20-20.6c0-1-3-5.4-4.7-5.9
			c-9.1-2.6-18.7-2.7-19.1-2.7h0c-11.2,0-23.8,7.6-23.8,8.6c-3.6,2.1-13.7,8.7-20,20.6c-0.8,1.5-0.4,3.2,0.8,4.3l0.2,0.2
			c-0.9,2.2-4,10-3.3,17.3c0.2,1.9,1.7,3.5,3.8,3.9c0.4,0.1,0.8,0.1,1.2,0.1c1.7,0,3.3-0.8,4.2-2.2c2.1-3.2,8.6-7.1,9.4-7.1
			c0.9,0,1.9-0.3,2.7-0.8c2.3-1.7,13.8-2.9,15.4-2.9h19.1c1.6,0,13.1,1.2,15.4,2.9c0.8,0.6,1.7,0.8,2.7,0.8c0.8,0,7.4,3.9,9.4,7.1
			c0.9,1.4,2.5,2.2,4.2,2.2c0.4,0,0.8,0,1.1-0.1c2.1-0.4,3.6-2,3.8-3.9C1056.9,157.5,1053.9,149.7,1052.9,147.5"/>
	</defs>
	<clipPath id="SVGID_236_">
		<use xlink:href="#SVGID_235_"  style="overflow:visible;"/>
	</clipPath>
	<g class="st117">
		<defs>
			<rect id="SVGID_237_" y="-545.5" width="1024" height="2010"/>
		</defs>
		<clipPath id="SVGID_238_">
			<use xlink:href="#SVGID_237_"  style="overflow:visible;"/>
		</clipPath>
		<rect x="958.9" y="108.9" class="st118" width="102.5" height="65"/>
	</g>
</g>
<g>
	<defs>
		<path id="SVGID_239_" d="M991.6,122.4h2.6c1,0,0.9-1.5-0.1-1.5h-2.6C990.6,120.9,990.7,122.4,991.6,122.4"/>
	</defs>
	<clipPath id="SVGID_240_">
		<use xlink:href="#SVGID_239_"  style="overflow:visible;"/>
	</clipPath>
	<g class="st119">
		<defs>
			<rect id="SVGID_241_" y="-545.5" width="1024" height="2010"/>
		</defs>
		<clipPath id="SVGID_242_">
			<use xlink:href="#SVGID_241_"  style="overflow:visible;"/>
		</clipPath>
		<rect x="985.9" y="115.9" class="st120" width="14.1" height="11.5"/>
	</g>
</g>
<g>
	<defs>
		<path id="SVGID_243_" d="M998.9,129.5h2.6c1,0,0.9-1.5-0.1-1.5h-2.6C997.9,128,997.9,129.5,998.9,129.5"/>
	</defs>
	<clipPath id="SVGID_244_">
		<use xlink:href="#SVGID_243_"  style="overflow:visible;"/>
	</clipPath>
	<g class="st121">
		<defs>
			<rect id="SVGID_245_" y="-545.5" width="1024" height="2010"/>
		</defs>
		<clipPath id="SVGID_246_">
			<use xlink:href="#SVGID_245_"  style="overflow:visible;"/>
		</clipPath>
		<rect x="993.1" y="123" class="st122" width="14.1" height="11.5"/>
	</g>
</g>
<g>
	<defs>
		<path id="SVGID_247_" d="M1009,120.9h-2.6c-1,0-0.9,1.5,0,1.5h2.6C1010,122.4,1010,120.9,1009,120.9"/>
	</defs>
	<clipPath id="SVGID_248_">
		<use xlink:href="#SVGID_247_"  style="overflow:visible;"/>
	</clipPath>
	<g class="st123">
		<defs>
			<rect id="SVGID_249_" y="-545.5" width="1024" height="2010"/>
		</defs>
		<clipPath id="SVGID_250_">
			<use xlink:href="#SVGID_249_"  style="overflow:visible;"/>
		</clipPath>
		<rect x="1000.7" y="115.9" class="st124" width="14.1" height="11.5"/>
	</g>
</g>
<g>
	<defs>
		<path id="SVGID_251_" d="M1013.6,129.5h2.6c1,0,1-1.5,0.1-1.5h-2.6C1012.7,128,1012.6,129.5,1013.6,129.5"/>
	</defs>
	<clipPath id="SVGID_252_">
		<use xlink:href="#SVGID_251_"  style="overflow:visible;"/>
	</clipPath>
	<g class="st125">
		<defs>
			<rect id="SVGID_253_" y="-545.5" width="1024" height="2010"/>
		</defs>
		<clipPath id="SVGID_254_">
			<use xlink:href="#SVGID_253_"  style="overflow:visible;"/>
		</clipPath>
		<rect x="1007.9" y="123" class="st126" width="14.1" height="11.5"/>
	</g>
</g>
<g>
	<defs>
		<path id="SVGID_255_" d="M1023.8,120.9h-2.6c-1,0-1,1.5,0,1.5h2.6C1024.8,122.4,1024.8,120.9,1023.8,120.9"/>
	</defs>
	<clipPath id="SVGID_256_">
		<use xlink:href="#SVGID_255_"  style="overflow:visible;"/>
	</clipPath>
	<g class="st127">
		<defs>
			<rect id="SVGID_257_" y="-545.5" width="1024" height="2010"/>
		</defs>
		<clipPath id="SVGID_258_">
			<use xlink:href="#SVGID_257_"  style="overflow:visible;"/>
		</clipPath>
		<rect x="1015.5" y="115.9" class="st128" width="14.1" height="11.5"/>
	</g>
</g>
<g>
	<defs>
		<path id="SVGID_259_" d="M982.6,120.4c-5.4,3.4-10.2,7.8-14.3,12.7c-1.6,2-3.2,4.1-4.5,6.3c-1.2,1.9-3,4.3-3.3,6.5
			c-0.3,2.1,0.8,3.3,2.1,4.7c3.9,4,7.8,8,11.8,11.8c1.8,1.7,3.7,2.2,5.9,0.9c4.7-2.7,8.5-6.1,13.8-8c0.9-0.3,0.3-1.7-0.6-1.4
			c-4.1,1.4-7.8,3.6-11.3,6.1c-1.8,1.3-3.9,3.2-6.5,1.6c-0.5-0.3-1-1-1.5-1.5c-3.5-3.4-6.9-6.9-10.4-10.3c-0.3-0.3-0.9-0.7-1.1-1.1
			c-1.5-2.7,0.2-5.1,1.5-7.4c2-3.5,4.4-6.7,7.1-9.7c3.5-3.9,7.5-7.4,12-10.1C984.3,121.1,983.4,119.9,982.6,120.4"/>
	</defs>
	<clipPath id="SVGID_260_">
		<use xlink:href="#SVGID_259_"  style="overflow:visible;"/>
	</clipPath>
	<g class="st129">
		<defs>
			<rect id="SVGID_261_" y="-545.5" width="1024" height="2010"/>
		</defs>
		<clipPath id="SVGID_262_">
			<use xlink:href="#SVGID_261_"  style="overflow:visible;"/>
		</clipPath>
		<rect x="955.5" y="115.3" class="st130" width="44.2" height="53.7"/>
	</g>
</g>
<g>
	<defs>
		<rect id="SVGID_263_" x="982.5" y="110.5" width="50.4" height="49.5"/>
	</defs>
	<clipPath id="SVGID_264_">
		<use xlink:href="#SVGID_263_"  style="overflow:visible;"/>
	</clipPath>
	<g class="st131">
		<defs>
			<rect id="SVGID_265_" y="-545.5" width="1024" height="2010"/>
		</defs>
		<clipPath id="SVGID_266_">
			<use xlink:href="#SVGID_265_"  style="overflow:visible;"/>
		</clipPath>
		<g class="st132">
			<g>
				<defs>
					<rect id="SVGID_267_" x="981" y="110.5" width="54" height="51"/>
				</defs>
				<clipPath id="SVGID_268_">
					<use xlink:href="#SVGID_267_"  style="overflow:visible;"/>
				</clipPath>
				<g class="st133">
					<defs>
						<path id="SVGID_269_" d="M1007.6,110.5c-3.1,0-6.1,0.3-9.1,0.8c-4.1,0.6-10.8,1-14,4c-3.4,3.3-1.6,7.5-0.4,11.3
							c1.9,6,3.9,12.1,5.8,18.1c1.3,4,2.2,8.6,4,12.5c1.9,4.2,9.4,2.5,13.1,2.5h5.9c2,0,5.3,0.6,7.1-0.7c2.5-1.7,3.2-7.5,4-10.1
							c2-6.3,4-12.5,6-18.8c1.2-3.8,4.1-9.2,2-13.1c-2.4-4.5-9.6-4.9-14.1-5.6C1014.6,110.9,1011.1,110.6,1007.6,110.5
							c-1,0-0.8,1.5,0.2,1.5c2.6,0,5.2,0.3,7.8,0.6c4.6,0.6,14,0.9,15.6,6c1,3.2-1.5,8-2.4,10.9c-1.7,5.3-3.4,10.6-5.1,15.9
							c-1.1,3.4-1.8,7.7-3.5,10.9c-1.8,3.3-8.8,1.9-12,1.9h-3.9c-2.5,0-7.4,1-8.9-1.5c-1.3-2.2-1.8-5.6-2.6-8
							c-1.7-5.4-3.5-10.8-5.2-16.3c-1.1-3.4-2.6-7-3.4-10.5c-1.6-7.8,9-8.4,14.5-9.2c3-0.4,6.1-0.7,9.1-0.8
							C1008.7,112,1008.6,110.5,1007.6,110.5"/>
					</defs>
					<clipPath id="SVGID_270_">
						<use xlink:href="#SVGID_269_"  style="overflow:visible;"/>
					</clipPath>
					<g class="st134">
						<defs>
							<rect id="SVGID_271_" x="982" y="110.5" width="42" height="50"/>
						</defs>
						<clipPath id="SVGID_272_">
							<use xlink:href="#SVGID_271_"  style="overflow:visible;"/>
						</clipPath>
						<rect x="977.5" y="105.5" class="st135" width="60.4" height="59.5"/>
					</g>
				</g>
			</g>
		</g>
	</g>
</g>
<g>
	<defs>
		<path id="SVGID_273_" d="M962.2,149.6c-1.2,2.9-2.1,5.9-2.8,8.9c-0.9,3.8-2.5,10.4-0.6,14c1.2,2.3,4.2,3.3,6.5,2.1
			c1.6-0.8,2.2-2.3,3.2-3.7c2-3.1,4.4-5.8,7.2-8.1c0.7-0.6-0.1-1.8-0.9-1.2c-2.9,2.4-5.3,5.2-7.5,8.4c-1.2,1.8-2.1,3.7-4.6,3.5
			c-3.4-0.3-3.1-4.1-3-6.6c0.2-5.7,1.6-11.5,3.8-16.7C964,149.3,962.6,148.7,962.2,149.6"/>
	</defs>
	<clipPath id="SVGID_274_">
		<use xlink:href="#SVGID_273_"  style="overflow:visible;"/>
	</clipPath>
	<g class="st136">
		<defs>
			<rect id="SVGID_275_" y="-545.5" width="1024" height="2010"/>
		</defs>
		<clipPath id="SVGID_276_">
			<use xlink:href="#SVGID_275_"  style="overflow:visible;"/>
		</clipPath>
		<rect x="953" y="144.1" class="st137" width="28.1" height="36"/>
	</g>
</g>
<g>
	<defs>
		<path id="SVGID_277_" d="M1031.9,121.6c4.3,2.7,8.2,6.1,11.7,9.8c2.8,3.1,5.4,6.4,7.5,10c1.8,3,3.1,5.8,0.4,8.5
			c-3.4,3.4-6.8,6.8-10.2,10.2c-0.5,0.5-1,1.3-1.6,1.6c-1.8,1-4.5-0.2-6-1.3c-3.6-2.6-7.5-4.9-11.7-6.4c-0.9-0.3-1.5,1-0.6,1.4
			c5.3,1.8,9.1,5.1,13.8,8c2.2,1.3,4.1,0.8,5.9-0.9c4.1-3.7,8-7.8,11.8-11.8c1.3-1.3,2.4-2.6,2.1-4.6c-0.3-2.1-2.2-4.7-3.3-6.5
			c-1.4-2.2-2.9-4.3-4.5-6.3c-4-4.9-8.8-9.4-14.3-12.7C1032,119.9,1031,121.1,1031.9,121.6"/>
	</defs>
	<clipPath id="SVGID_278_">
		<use xlink:href="#SVGID_277_"  style="overflow:visible;"/>
	</clipPath>
	<g class="st138">
		<defs>
			<rect id="SVGID_279_" y="-545.5" width="1024" height="2010"/>
		</defs>
		<clipPath id="SVGID_280_">
			<use xlink:href="#SVGID_279_"  style="overflow:visible;"/>
		</clipPath>
		<rect x="1015.7" y="115.3" class="st139" width="44.2" height="53.7"/>
	</g>
</g>
<g>
	<defs>
		<path id="SVGID_281_" d="M16.5,114.9c-0.9-2.9-4-4.5-6.8-3.6l0,0c0,0-0.2,0.1-0.5,0.2c0,0,0,0-0.1,0c-0.1,0-0.2,0.1-0.3,0.1
			c-0.1,0.1-0.2,0.1-0.3,0.2c-0.1,0-0.2,0.1-0.2,0.2c0,0,0,0,0,0c-0.4,0.3-0.9,1.1-1.4,2.3L5,111.1c-1.1-3.2-4.3-5.1-7.4-4.5
			c-1.3-2-3.8-3-6.1-2.2c-2.3,0.8-3.7,3-3.6,5.4c-2.9,1.3-4.4,4.8-3.4,8l-0.1,2.9c-0.8-0.2-1.4-0.2-2-0.2c0,0,0,0-0.1,0
			c-0.1,0-0.2,0-0.3,0c-0.1,0-0.2,0-0.4,0c-0.1,0-0.2,0-0.3,0.1c0,0,0,0-0.1,0c-0.3,0.1-0.5,0.1-0.5,0.1c-2.8,0.9-4.3,4-3.3,6.9
			c0.7,2.2,2.6,3.6,4.6,3.8c0,0.4,0.1,0.7,0.2,1.1c0.7,2.1,2.9,3.3,5,2.7c0.6-0.2,3.2,2.2,6,4.9c-1.5,2.7-1.6,6.2-0.1,9.4
			c3.2,6.3,9.3,17.2,19.4,28.1c1.8,2,4.8,1,5.1-1.7c1.6-14.8,0.2-27.1-1-34.1c-0.8-4.9-4.9-8.5-9.3-8.2c-0.1,0-0.1,0-0.2,0
			c-0.3,0-0.5,0-0.7,0.1c1.4-4.1,2.7-7.8,2.7-7.8c1,1,2.5,1.4,3.9,0.9c2.1-0.7,3.2-3,2.5-5.1c-0.1-0.4-0.3-0.7-0.5-1
			C16.6,119.3,17.3,117.1,16.5,114.9 M-3.6,136.5l0.5,0.3c-0.1,0.1-0.2,0.1-0.3,0.2C-3.5,136.9-3.6,136.7-3.6,136.5"/>
	</defs>
	<clipPath id="SVGID_282_">
		<use xlink:href="#SVGID_281_"  style="overflow:visible;"/>
	</clipPath>
	<g class="st140">
		<defs>
			<rect id="SVGID_283_" y="-545.5" width="1024" height="2010"/>
		</defs>
		<clipPath id="SVGID_284_">
			<use xlink:href="#SVGID_283_"  style="overflow:visible;"/>
		</clipPath>
		<rect x="-21.2" y="97.3" transform="matrix(0.9397 -0.342 0.342 0.9397 -48.058 9.9998)" class="st141" width="51" height="88"/>
	</g>
</g>
<g>
	<defs>
		<path id="SVGID_285_" d="M11.9,179.8c1.9,1.5,4.7,1.5,6-0.8c1-1.8,0.7-4.4,0.8-6.4c0.1-2.5,0.2-5,0.2-7.5c0-5-0.3-10-1-14.9
			c-0.4-3.3-0.7-7.1-1.9-10.3c-3.5-9-13.7-7.4-20.7-3.6c-7.1,3.9-7.7,10.5-3.9,17.1c5.6,9.6,12.4,18.4,20.3,26.3
			c0.6,0.6,1.6-0.2,1-0.8C6,172.1,0,164.7-5.1,156.6c-2.1-3.4-5-7.2-4.6-11.3c0.4-5.8,6-8.5,10.9-9.9c5.2-1.5,10.7-1.2,13.4,4.3
			c1.5,3.1,1.7,7.3,2.1,10.8c0.5,4.4,0.9,8.9,0.9,13.3c0,2.9,0,5.9-0.2,8.8c-0.1,2.5-0.4,9.9-4.8,6.3
			C12.1,178.3,11.3,179.3,11.9,179.8"/>
	</defs>
	<clipPath id="SVGID_286_">
		<use xlink:href="#SVGID_285_"  style="overflow:visible;"/>
	</clipPath>
	<g class="st142">
		<defs>
			<rect id="SVGID_287_" y="-545.5" width="1024" height="2010"/>
		</defs>
		<clipPath id="SVGID_288_">
			<use xlink:href="#SVGID_287_"  style="overflow:visible;"/>
		</clipPath>
		
			<rect x="-11.4" y="128.1" transform="matrix(0.9397 -0.342 0.342 0.9397 -53.4549 12.1132)" class="st143" width="38" height="59"/>
	</g>
</g>
<g>
	<defs>
		<path id="SVGID_289_" d="M14,138.8l-8.3,3c-0.7,0.3-0.4,1.2,0.3,1l8.3-3C15,139.5,14.7,138.6,14,138.8"/>
	</defs>
	<clipPath id="SVGID_290_">
		<use xlink:href="#SVGID_289_"  style="overflow:visible;"/>
	</clipPath>
	<g class="st144">
		<defs>
			<rect id="SVGID_291_" y="-545.5" width="1024" height="2010"/>
		</defs>
		<clipPath id="SVGID_292_">
			<use xlink:href="#SVGID_291_"  style="overflow:visible;"/>
		</clipPath>
		<rect x="0" y="135.3" transform="matrix(0.9397 -0.342 0.342 0.9397 -47.554 11.9145)" class="st145" width="20" height="11"/>
	</g>
</g>
<g>
	<defs>
		<path id="SVGID_293_" d="M16.3,142.3l-4.5,1.6c-0.8,0.3-0.4,1.2,0.4,0.9l4.5-1.6C17.4,142.9,17,142,16.3,142.3"/>
	</defs>
	<clipPath id="SVGID_294_">
		<use xlink:href="#SVGID_293_"  style="overflow:visible;"/>
	</clipPath>
	<g class="st146">
		<defs>
			<rect id="SVGID_295_" y="-545.5" width="1024" height="2010"/>
		</defs>
		<clipPath id="SVGID_296_">
			<use xlink:href="#SVGID_295_"  style="overflow:visible;"/>
		</clipPath>
		<rect x="6.2" y="138" transform="matrix(0.9397 -0.342 0.342 0.9397 -48.2359 13.5113)" class="st147" width="16" height="11"/>
	</g>
</g>
<g>
	<defs>
		<path id="SVGID_297_" d="M-1.4,163.6l8.3-3c0.7-0.3,0.5-1.3-0.2-1l-8.3,3C-2.3,162.8-2.1,163.8-1.4,163.6"/>
	</defs>
	<clipPath id="SVGID_298_">
		<use xlink:href="#SVGID_297_"  style="overflow:visible;"/>
	</clipPath>
	<g class="st148">
		<defs>
			<rect id="SVGID_299_" y="-545.5" width="1024" height="2010"/>
		</defs>
		<clipPath id="SVGID_300_">
			<use xlink:href="#SVGID_299_"  style="overflow:visible;"/>
		</clipPath>
		
			<rect x="-7.3" y="156.1" transform="matrix(0.9397 -0.342 0.342 0.9397 -55.0981 10.6558)" class="st149" width="20" height="11"/>
	</g>
</g>
<g>
	<defs>
		<path id="SVGID_301_" d="M1.4,167.9l4.5-1.6c0.8-0.3,0.4-1.2-0.4-0.9L1,167C0.2,167.2,0.6,168.2,1.4,167.9"/>
	</defs>
	<clipPath id="SVGID_302_">
		<use xlink:href="#SVGID_301_"  style="overflow:visible;"/>
	</clipPath>
	<g class="st150">
		<defs>
			<rect id="SVGID_303_" y="-545.5" width="1024" height="2010"/>
		</defs>
		<clipPath id="SVGID_304_">
			<use xlink:href="#SVGID_303_"  style="overflow:visible;"/>
		</clipPath>
		
			<rect x="-4.6" y="161.1" transform="matrix(0.9397 -0.342 0.342 0.9397 -56.7764 11.2236)" class="st151" width="16" height="11"/>
	</g>
</g>
<g>
	<defs>
		<path id="SVGID_305_" d="M6.6,111.2c5-3.5,11.3,2.9,6.8,7.9c-0.2,0.2-0.3,0.5-0.1,0.8c1.4,2.6,0,6.9-4,5.7c-0.5-0.1-1-0.8-1.6-0.9
			c-0.4-0.1-0.8,0.1-1.3,0.2c-2.2,0.6-3.7,2.2-4.8,4.1c0.4,0.1,0.8,0.1,1.2,0.2c-1.1-6-1.7-14.1,3.8-18.2c0.7-0.5-0.2-1.4-0.9-0.9
			c-5.9,4.4-5.4,12.9-4.2,19.4c0.1,0.5,0.9,0.7,1.2,0.2c0.8-1.4,1.8-2.6,3.3-3.3c1.4-0.7,0.9-0.3,1.9,0c1.8,0.5,3.1,0.9,4.9-0.1
			c1.3-0.8,2.1-2.1,2.3-3.6c0.1-0.9-0.2-1.5-0.2-2.4c0-1.3,0.3-1.2,0.8-2.6c2.5-6.1-4.6-11.4-9.8-7.8C5.3,110.5,5.9,111.7,6.6,111.2
			"/>
	</defs>
	<clipPath id="SVGID_306_">
		<use xlink:href="#SVGID_305_"  style="overflow:visible;"/>
	</clipPath>
	<g class="st152">
		<defs>
			<rect id="SVGID_307_" y="-545.5" width="1024" height="2010"/>
		</defs>
		<clipPath id="SVGID_308_">
			<use xlink:href="#SVGID_307_"  style="overflow:visible;"/>
		</clipPath>
		<rect x="-6.7" y="104.7" transform="matrix(0.9397 -0.342 0.342 0.9397 -40.1326 9.8354)" class="st153" width="29" height="28"/>
	</g>
</g>
<g>
	<defs>
		<path id="SVGID_309_" d="M-16.1,129.7c1.7,0.5,2.5,1.9,2.2,3.5c-0.1,0.8,1.3,0.7,1.4-0.1c0.3-2.2-1-4-3.3-4.7
			C-16.5,128.3-16.9,129.5-16.1,129.7"/>
	</defs>
	<clipPath id="SVGID_310_">
		<use xlink:href="#SVGID_309_"  style="overflow:visible;"/>
	</clipPath>
	<g class="st154">
		<defs>
			<rect id="SVGID_311_" y="-545.5" width="1024" height="2010"/>
		</defs>
		<clipPath id="SVGID_312_">
			<use xlink:href="#SVGID_311_"  style="overflow:visible;"/>
		</clipPath>
		<rect x="-20.8" y="123" transform="matrix(0.9397 -0.342 0.342 0.9397 -45.6762 3.0106)" class="st155" width="13" height="16"/>
	</g>
</g>
<g>
	<defs>
		
			<rect id="SVGID_313_" x="-22.7" y="103" transform="matrix(0.9397 -0.342 0.342 0.9397 -37.91 2.9853)" width="24.3" height="12"/>
	</defs>
	<clipPath id="SVGID_314_">
		<use xlink:href="#SVGID_313_"  style="overflow:visible;"/>
	</clipPath>
	<g class="st156">
		<defs>
			<rect id="SVGID_315_" y="-545.5" width="1024" height="2010"/>
		</defs>
		<clipPath id="SVGID_316_">
			<use xlink:href="#SVGID_315_"  style="overflow:visible;"/>
		</clipPath>
		<g class="st157">
			<g>
				<defs>
					<rect id="SVGID_317_" x="-22" y="101.5" width="26" height="18"/>
				</defs>
				<clipPath id="SVGID_318_">
					<use xlink:href="#SVGID_317_"  style="overflow:visible;"/>
				</clipPath>
				<g class="st158">
					<defs>
						<path id="SVGID_319_" d="M2.8,110c-1.4-3.1-3.7-4.4-7-4.9c-3-0.4-4.9-3-8.3-1.7c-3.6,1.3-3.1,4.5-5.3,6.7
							c-2.3,2.3-3.2,4.9-2.3,8.2c0.2,0.8,1.4,0.4,1.2-0.3c-0.9-3.2,0.2-6,3.2-7.7c0.2-0.1,0.3-0.3,0.3-0.5c0-5.1,6-7.1,9.2-3.3
							c0.1,0.2,0.4,0.2,0.6,0.1c3.2-0.6,6,0.9,7.3,3.8C1.9,111,3.1,110.7,2.8,110"/>
					</defs>
					<clipPath id="SVGID_320_">
						<use xlink:href="#SVGID_319_"  style="overflow:visible;"/>
					</clipPath>
					<g class="st159">
						<defs>
							<rect id="SVGID_321_" y="98.5" width="3" height="21"/>
						</defs>
						<clipPath id="SVGID_322_">
							<use xlink:href="#SVGID_321_"  style="overflow:visible;"/>
						</clipPath>
						
							<rect x="-27.7" y="98" transform="matrix(0.9397 -0.342 0.342 0.9397 -37.9103 2.9854)" class="st160" width="34.3" height="22"/>
					</g>
				</g>
			</g>
		</g>
	</g>
</g>
</svg>
