<svg viewBox="0 0 134 88"  xmlns="http://www.w3.org/2000/svg">
    <g fill-rule="nonzero" fill="none">
        <path
            d="M127.9 50.7l.2-.2c1.7-1.5 2.2-3.9 1.1-5.9-8.4-16.1-22-25-26.8-27.7 0-1.3-4-7.3-6.3-7.9C84 5.5 71 5.4 70.5 5.4c-15.1 0-32 10.2-31.9 11.6-4.8 2.8-18.4 11.7-26.8 27.7-1 2-.6 4.3 1.1 5.9l.2.2c-1.3 2.9-5.4 13.4-4.5 23.4.2 2.6 2.2 4.7 5.1 5.2.5.1 1 .2 1.5.2 2.3 0 4.4-1.1 5.6-2.9 2.8-4.3 11.5-9.6 12.6-9.6 1.3 0 2.5-.4 3.6-1.1 3.1-2.3 18.5-3.9 20.6-3.9h25.6c2.2 0 17.5 1.6 20.6 3.9 1.1.8 2.3 1.1 3.6 1.1 1.1 0 9.9 5.3 12.6 9.6 1.2 1.9 3.3 2.9 5.6 2.9.5 0 1-.1 1.5-.2 2.8-.6 4.8-2.6 5.1-5.2 1.1-10-3-20.5-4.3-23.5z"
            fill="#924E16"/>
        <g fill="#1E1E1C">
            <path
                d="M45.8 16.8h3.5c1.3 0 1.2-2-.1-2h-3.5c-1.3 0-1.2 2 .1 2zM55.5 26.4H59c1.3 0 1.2-2-.1-2h-3.5c-1.3 0-1.2 2 .1 2zM69 14.8h-3.5c-1.3 0-1.3 2 0 2H69c1.4 0 1.3-2 0-2zM75.2 26.4h3.5c1.3 0 1.4-2 .1-2h-3.5c-1.2 0-1.4 2-.1 2zM88.9 14.8h-3.5c-1.3 0-1.3 2 0 2h3.5c1.3 0 1.3-2 0-2z"/>
            <g>
                <path
                    d="M33.7 14.2C26.4 18.7 20 24.7 14.6 31.4c-2.2 2.7-4.2 5.6-6.1 8.5-1.6 2.6-4 5.8-4.4 8.8-.4 2.8 1.1 4.4 2.9 6.3 5.2 5.4 10.4 10.8 15.9 15.9 2.5 2.3 4.9 2.9 7.9 1.2 6.3-3.6 11.4-8.2 18.5-10.7 1.2-.4.4-2.3-.8-1.8-5.5 1.9-10.5 4.8-15.2 8.2-2.5 1.8-5.2 4.4-8.7 2.2-.7-.4-1.4-1.4-2-2L8.7 54.1c-.4-.4-1.2-1-1.5-1.5-2-3.6.3-6.9 2.1-9.9 2.7-4.7 5.9-9 9.6-13C23.6 24.5 29 19.7 35 16c1-.9-.2-2.5-1.3-1.8z"/>
                <path
                    d="M67.2.9c-4.1.1-8.2.5-12.3 1-5.5.8-14.5 1.3-18.7 5.4-4.6 4.5-2.2 10.1-.6 15.2 2.6 8.1 5.2 16.3 7.8 24.4 1.7 5.4 3 11.6 5.4 16.8 2.6 5.6 12.5 3.4 17.5 3.4h7.9c2.7 0 7.1.8 9.6-.9 3.4-2.3 4.3-10.1 5.4-13.6 2.7-8.4 5.4-16.9 8.1-25.3 1.6-5.1 5.5-12.4 2.7-17.7-3.2-6-12.9-6.6-18.8-7.5-4.6-.7-9.3-1.2-14-1.2-1.3 0-1.1 2 .2 2 3.5.1 7 .4 10.5.8 6.2.8 18.7 1.3 20.9 8.1 1.4 4.3-2 10.8-3.3 14.8-2.3 7.1-4.6 14.3-6.9 21.4-1.5 4.6-2.4 10.4-4.7 14.7-2.4 4.5-11.8 2.5-16.1 2.5h-5.2c-3.3 0-9.9 1.4-12-2.1-1.8-2.9-2.4-7.5-3.4-10.8-2.3-7.3-4.7-14.6-7-21.9-1.5-4.6-3.5-9.4-4.5-14.1C33.5 5.8 47.8 5 55.1 4c4.1-.6 8.2-1 12.3-1 1.3-.2 1.1-2.2-.2-2.1zM6.4 53.5c-1.6 3.9-2.8 8-3.7 12-1.1 5.1-3.3 14-.7 18.9 1.6 3.1 5.6 4.4 8.7 2.9 2.1-1.1 3-3.1 4.2-5 2.7-4.1 5.9-7.8 9.7-10.9 1-.8-.2-2.4-1.2-1.6-3.9 3.3-7.2 7.1-10 11.3-1.6 2.4-2.8 5-6.2 4.7-4.5-.4-4.2-5.5-4-8.9.3-7.7 2.1-15.5 5.1-22.6.4-1.2-1.4-2-1.9-.8z"/>
                <path
                    d="M99.7 15.8c5.8 3.6 11 8.2 15.6 13.2 3.8 4.1 7.2 8.7 10 13.5 2.4 4.1 4.2 7.8.6 11.4l-13.7 13.7c-.6.6-1.4 1.8-2.2 2.2-2.4 1.3-6-.3-8.1-1.8-4.8-3.6-10-6.6-15.7-8.6-1.2-.4-2 1.4-.8 1.8 7.1 2.5 12.2 6.9 18.5 10.7 3 1.8 5.5 1.1 7.9-1.2 5.5-5 10.7-10.5 15.9-15.9 1.7-1.8 3.3-3.5 2.9-6.3-.4-2.9-2.9-6.4-4.4-8.8-1.8-3-3.9-5.8-6.1-8.5-5.4-6.6-11.8-12.6-19.1-17.2-1.1-.5-2.4 1.1-1.3 1.8z"/>
                <path
                    d="M126.4 54.3c2.8 6.8 4.7 14.5 5 21.9.1 3.1.7 8-2.9 9.4-3.8 1.5-5.6-2-7.3-4.5-2.9-4.2-6.1-8-10-11.3-1-.8-2.2.8-1.2 1.6 3.8 3.2 7 6.8 9.7 10.9 1.2 1.9 2.1 3.9 4.2 5 3.1 1.5 7.1.2 8.7-2.8 2.6-4.9.4-13.8-.7-18.9-.9-4.1-2.1-8.2-3.7-12-.5-1.3-2.3-.5-1.8.7z"/>
            </g>
        </g>
    </g>
</svg>
