<svg viewBox="0 0 108 147" xmlns="http://www.w3.org/2000/svg">
    <g fill="none" fill-rule="evenodd">
        <path
            d="M102.9 8.6L83.2 6.3 48.3 31.1l-24.5 14S8.7 64.4 9.5 90.3c.7 25.9-3 63.8 30.2 54.9 33.1-8.9 54.3-12.7 56.2-36.5 1.8-23.7-2.7-35.3 4.5-58.3 7.1-23 10.2-37 2.5-41.8"
            fill="#CF92B5" fill-rule="nonzero"/>
        <path
            d="M97.6 6c10.3 10.1 6.3 23.5.6 34.9-3.6 7.3-9 14.2-8.5 22.6.7 12.9 3.5 25.6 2.1 38.6-.6 5.6-1.8 10.9-5.7 15.1-3.1 3.3-6.9 6-10.8 8.4-10.1 6.2-21.5 10.5-33.1 12.6-10.7 1.9-23.5 2.2-32.6-4.6-6.9-5.1-7.4-12.4-6-20.3 1.2-6.9 2.6-13.6 3.3-20.6 1.4-13.4.3-30.2 9.3-41.1C26 39.5 40 30.9 52.8 22.4c5.6-3.7 11.1-7.6 16.6-11.4 7.7-5.1 19.7-12.2 28.2-5 1 .8 2.4-.6 1.4-1.4-12-10.2-28 3-38 9.9C48.6 23 35.6 30.8 24.2 40.6c-4.9 4.2-10.1 9-13.2 14.7-3.1 5.9-3.8 13.1-4.5 19.5-1 8.8-1.4 17.7-2.8 26.5-1.1 7.1-3.7 14.6-2.8 21.8 1.5 11.8 14.3 17 24.7 17.9 12.5 1.1 25.3-2.2 36.8-6.9 9.4-3.9 20.1-9.2 26.5-17.5 7.8-10.1 5.2-27.1 4-38.9-.6-6.1-2.8-13.7-1.1-19.8 1.6-6 5.7-11.6 8.5-17.2 5.9-12.1 9.3-25.8-1.4-36.3-.8-.7-2.2.7-1.3 1.6z"
            fill="#1E1E1C" fill-rule="nonzero"/>
        <path
            d="M59.9 22c-7.7 5.1-8.1 13.2-12.7 20.6C42.5 50.3 33.6 55 29.5 63c-3.3 6.5 3 10.5 6.4 15.5 3.7 5.5 7 11.3 9.9 17.2.3.7 1.4.5 1.7-.1 3.6-6.7 7.2-14 12.1-19.9 2-2.5 3.1-3.8 4-6.9.8-2.7 1.7-5.4 3.7-7.6 2.3-2.6 5.4-3.8 8.2-5.5 9.1-5.4 20.5-14.4 24.3-24.8 1.9-5.3 1.5-14.3-5.3-15.3-6.9-1.1-13.9 4.1-20.4 5.8-3.8 1-9.6 1.9-13.2.5-1.2-.5-2.1 1.3-.9 1.8 6.4 2.5 14.9 0 20.9-2.4 4.3-1.7 13.7-7.1 16.9-1.1 2 3.9.7 9.5-1.3 13-3.1 5.3-7.8 9.9-12.4 13.8-4.8 4.1-10.2 6.6-15.2 10.1-3.4 2.4-5.4 5.7-6.7 9.5-1.1 3.3-2.1 5.3-4.3 8-4.8 6.1-8.4 13.3-12.1 20 .6 0 1.2 0 1.7-.1-2.2-4.5-4.6-9-7.3-13.2-2-3.2-4-6.3-6.5-9.1-3.4-4-4-6.5-.8-10.9 4.3-5.8 10.4-10 14.7-15.8 5.2-7.2 5.5-16.7 13.4-21.9 1-.7-.1-2.3-1.1-1.6z"
            fill="#1E1E1C" fill-rule="nonzero"/>
        <path
            d="M93.1 50.6c-4.1 6.1-8.7 11.9-13.9 17.1-7.2 7.2-19.1 10.6-23.9 20-2.9 5.6.6 11.7 7.1 9.2 5.3-2.1 9.8-5.9 15.1-8.1 4.1-1.7 8.7-3.1 13.2-3.4 1.3-.1 1.3-2.1.1-2-6.9.4-13.8 3-19.8 6.4-3 1.7-12.4 9.6-14.6 3.3-1.9-5.5 7.2-11.6 10.8-14.1 3.3-2.3 6.9-4 10-6.6 3-2.5 5.6-5.4 8.2-8.4 3.4-4 6.6-8.1 9.6-12.4.5-1-1.2-2-1.9-1zM90.2 92.2c-5.2.3-10.4 1.2-15.4 2.5-3.5 1-6.8 2.3-10 4.2-4.8 2.8-9.6 3.8-14.8 5.4-4.3 1.3-6.6 4.6-9.2 8-4.3 5.9-5.4 12.8-5.3 19.9 0 1.3 2 1.4 2 .1-.1-7.1 1.1-13.9 5.5-19.6 1-1.4 2.2-2.8 3.3-4 2.7-2.9 6.9-3.1 10.5-4.1 7.3-2.1 13.2-6.8 20.7-8.5 4.2-1 8.6-1.7 12.9-1.9 1.4-.1 1.1-2.1-.2-2z"
            fill="#1E1E1C" fill-rule="nonzero"/>
        <path
            d="M80.6 115.6c-6 .1-11.9-2.3-17.9-1.1-7.7 1.6-10.2 9-11.1 16-.2 1.3 1.8 1.7 1.9.5.9-7.8 3.9-14.6 12.6-14.8 4.9-.1 9.6 1.5 14.4 1.4 1.4 0 1.4-2 .1-2z"
            fill="#1E1E1C" fill-rule="nonzero"/>
        <path
            d="M2.6 112.1c1.9 9 6.3 20.8 16.9 21.7 9.8.8 20.3-.3 30-1.7 6.3-.9 12.6-2.3 18.6-4.7 7.1-2.8 13.6-7.2 17.2-14.1 2.4-4.6 4-10.4 5-15.5 2.3-12.2 1.8-25.3 1.3-37.7 0-1.3-2-1-2 .3.6 16.1 1 32.9-4.5 48.2-6.6 18.4-30.2 21.4-47 22.7-8.9.7-21.2 3.5-27.4-4.6-3.2-4.2-5.1-9.7-6.1-14.8-.3-1.3-2.2-1.1-2 .2z"
            fill="#1E1E1C" fill-rule="nonzero"/>
        <path
            d="M8.7 127.1c10.2 5.2 17.2-2.8 23.5-9.8 5.1-5.7 12.3-13.3 8.6-21.4C36.7 87 30.6 78.7 25 70.6 21.2 65 17.3 59.5 13.4 54c-.7-1-2.2.3-1.5 1.4C20.2 67 28.5 78.7 35.7 91c1.4 2.4 3.4 5.2 4.1 8 1 4.3-2.5 8.8-5 12-3.2 4.2-6.8 8-10.7 11.6-4.3 3.9-8.9 5.7-14.5 2.9-1-.7-2 1-.9 1.6zM18.5 46.3c-.3 5.5.2 17.5 8.5 13.1 6.8-3.6 13-11.2 16.7-17.9 2.5-4.4 2.9-10.1 2.1-15-.2-1.3-2.2-1-2 .3 1.7 10.7-4.6 19.4-12 26.5-1.6 1.5-6.2 6.2-8.8 5.1-1.7-.7-2-3.5-2.3-5-.3-2.2-.4-4.5-.3-6.8.2-1.3-1.8-1.5-1.9-.3zM98.6 8.4v5.2c.5-.3.9-.7 1.4-1-5.4-2.4-13.4.5-18.6 1.8-1.7.4-5 1.5-5-1.1 0-1.2.9-2.6 1.4-3.6 1-1.8 2.2-3.6 3.5-5.2.8-1-.7-2.3-1.6-1.3-2 2.5-8.2 10-4.3 13 1 .8 2.5.8 3.7.6 3.6-.4 7-1.8 10.6-2.4 2.7-.4 6.7-1.3 9.3-.1.7.3 1.4-.3 1.4-1V8.1c.2-1.2-1.8-1-1.8.3z"
            fill="#1E1E1C" fill-rule="nonzero"/>
        <path
            d="M23 43.1l2.2 16.1M27.3 39.4l3.1 16.5M32.2 35.6l4.3 14M39 30.7l3.1 11.4M77.8 7.8l20.5-2.5M75.7 11.8l23.9-3.5M14.7 57.4l-9.9 59.2M6.2 120.5L18.6 63M7.1 122.5L23 71.1M8.6 125.2l19.2-48.8M9.8 127.9l22.4-44.7M12.4 127.4l23.2-38.8M15.8 127.4l23.2-33M63.4 115.2l-6.5 14.4M68.1 115.2l-6.5 13.3M71.8 116.6l-4.4 9.9M75.4 116.6l-3.6 7.9M80.6 62.1c3.2-3.1-11.7.2-12.4 3.9-.7 3.7-.8 8.9 12.4-3.9zM70 64l1.8 5.4M72.8 62.6l2.6 4.3M75.7 62.1l1.9 2.6"
            stroke="#1E1E1C" stroke-linecap="round" stroke-linejoin="round"/>
    </g>
</svg>
