<svg viewBox="0 0 73 132" xmlns="http://www.w3.org/2000/svg">
    <g fill-rule="nonzero" fill="none">
        <path
            d="M72.6 33.2c.2-4.8-3.5-8.9-8.1-9h-.8-.1c-.1 0-.3 0-.5.1-.2 0-.4.1-.6.1-.1 0-.3.1-.5.1h-.1c-.7.2-1.9 1.1-3.3 2.7l-1-5.9c.2-5.4-3.6-10-8.6-10.7-.9-3.7-4-6.5-7.8-6.6-3.8-.1-7.1 2.5-8.2 6.1-5 .4-9.1 4.7-9.3 10.1L22 24.5c-1.1-.6-2-1.1-2.8-1.3h-.1c-.2-.1-.3-.1-.4-.1-.2-.1-.4-.1-.5-.1-.2 0-.3-.1-.5-.1h-.1c-.5-.1-.8-.1-.8-.1-4.6-.1-8.5 3.7-8.6 8.5-.1 3.6 1.9 6.8 4.8 8.2-.2.6-.3 1.1-.3 1.7-.1 3.6 2.6 6.6 6 6.7 1 0 3.5 5.1 6.2 10.6-3.6 3.2-5.7 8.4-5.1 13.9 1.3 11.2 4.6 30.7 13.5 52.5 1.6 4 6.5 4.1 8.4.3C52 104 56.6 84.8 58.5 73.7c1.4-7.8-2.7-15.4-9.3-17.4-.1 0-.2-.1-.3-.1-.4-.1-.8-.2-1.1-.3 4.3-5.4 8.1-10.2 8.1-10.2 1 2 3 3.4 5.3 3.5 3.4.1 6.3-2.7 6.4-6.3 0-.6 0-1.2-.2-1.8 2.9-1.2 5.1-4.3 5.2-7.9zM31.2 54.6l.5.8c-.2 0-.3.1-.5.1.1-.4 0-.6 0-.9z"
            fill="#F08372"/>
        <g fill="#1E1E1C">
            <path
                d="M31 128.3c2 3.3 6.1 4.8 9.3 2 2.4-2.2 3.5-6.2 4.7-9.1 1.6-3.7 3-7.4 4.3-11.2 2.7-7.5 4.9-15.1 6.7-22.9 1.2-5.2 2.9-11 2.8-16.5-.3-15.4-16.4-18.5-28.8-16.7-12.7 1.9-17.1 11.6-15 23.5 3.1 17.5 8.5 34.4 16 50.5.5 1.2 2.4.6 1.9-.6-6.4-13.9-11.4-28.4-14.6-43.3-1.3-6.2-3.5-13.4-.8-19.5 3.8-8.4 13.5-9.4 21.6-8.9 8.6.6 16.6 4 17.6 13.7.6 5.5-1.4 11.9-2.6 17.3-1.6 6.9-3.5 13.7-5.8 20.5-1.5 4.4-3.2 8.8-5 13.1-1.6 3.7-5.9 14.7-10.6 6.9-.7-1-2.4.1-1.7 1.2z"/>
            <path
                d="M56.9 67.3H42.4c-1.3 0-1.3 2-.1 2h14.5c1.3 0 1.4-2 .1-2zM57.3 73.8h-7.7c-1.3 0-1.2 2 .1 2h7.7c1.3 0 1.2-2-.1-2zM20.7 97.4h14.5c1.3 0 1.5-2 .3-2H21c-1.3 0-1.6 2-.3 2zM22.5 103.9h7.7c1.3 0 1.2-2-.1-2h-7.7c-1.2 0-1.2 2 .1 2zM13.4 21.4C4 18.9-4.2 30.1 2.8 37.8c1.2 1.3 2.1 1.6 2.7 3.4.3 1 .2 2.1.6 3.1 1 2.3 3.1 4 5.6 4.5 3.1.6 4.9-.8 7.3-2.4 1.2-.8.3-1 2.4-1 2.7-.1 5.2 1.4 7.1 3.1.7.6 1.7-.2 1.5-1-1.7-10.1-5.6-22.8-16.6-26.1-1.2-.4-1.9 1.5-.7 1.9C23 26.4 26.4 38.5 28 47.9c.5-.3 1-.7 1.5-1-2.5-2.2-6-3.9-9.4-3.4-.6.1-1.1.1-1.6.3-1 .5-1.8 2.4-2.9 2.7-1.9-.2-3.7-.3-5.6-.5-2.2-1.8-3-3.9-2.3-6.5 0-.3-.1-.8-.4-.9-9-4.7-4.1-17.9 5.4-15.3 1.3.3 1.9-1.5.7-1.9zM59.8 23.4c9.3-2.5 15.1 10.4 5.8 15.2-.4.2-.7.6-.6 1.1.6 4.5-3.6 10.1-8.9 6.3-.7-.5-1.1-1.7-1.8-2.1-.6-.3-1.3-.3-2-.4-3.5-.3-6.6 1.2-9.2 3.4.5.3 1.1.6 1.6.9 1.6-9.4 5-21.5 15.4-24.6 1.2-.4.4-2.2-.8-1.8-11 3.3-14.8 16.1-16.6 26.1-.1.8 1 1.5 1.6.9 1.9-1.7 4.1-2.8 6.6-3 2.5-.2 1.5.1 2.8 1 2.4 1.6 4.1 3.1 7.2 2.4 2.3-.5 4.2-1.9 5.3-4 .7-1.3.5-2.3.9-3.6.7-2 1.1-1.7 2.5-3.3 7-7.5-.7-19.2-10.3-16.6-1 .4-.7 2.4.5 2.1z"/>
            <path
                d="M16.8 37.5c2.1 1.8 2.4 4.4 1.3 6.8-.5 1.2 1.4 1.8 1.9.6 1.5-3.3.6-6.8-2.1-9.1-.9-.8-2 .9-1.1 1.7zM55.8 19.2c-.3-5.5-3.1-8.8-7.8-11.2C43.7 5.8 42.3.8 36.4.7c-6 0-7.1 5.1-11.6 7.2-4.7 2.3-7.6 5.7-7.9 11.1-.1 1.3 1.9 1.4 2 .1.3-5.4 3.7-9 9-9.9.3-.1.6-.3.7-.7 2.8-7.7 12.9-7.4 15.6.1.1.3.5.5.8.5 5.1.9 8.5 4.6 8.8 9.8.1 1.5 2.1 1.6 2 .3z"/>
        </g>
    </g>
</svg>
