<svg viewBox="0 0 141 98" xmlns="http://www.w3.org/2000/svg">
    <g fill-rule="nonzero" fill="none">
        <g fill="#1E1E1C">
            <path
                d="M20.8 13.9v13.8c0 3.6.4 4.4-3.4 7.1-2.3 1.6-3.3 2.6-3.5 5.6-.7 12.7 0 25.6 0 38.3 0 1.2.4 3.3 0 4.5-.8 2.1-3.7 1.5-4.3-.4-1-3.6 0-8.9 0-12.6 0-9.8.4-19.7 0-29.5-.2-5.6-6.3-5.7-6.9-10.9-.6-5.1 0-10.5 0-15.6 0-1.3-2-1.5-2-.2 0 5.2-.1 10.4 0 15.6 0 1.5-.1 3 .7 4.4 1.7 2.9 5.4 2.2 6.2 6.2.8 3.9 0 8.8 0 12.7v20.2c0 3.4-.4 7.1 0 10.5.5 4.3 6.3 6.1 8 1.4 1.4-3.8.2-9.6.2-13.5V48.7c0-4.6-1-9.1 2.9-12.3 2.3-1.9 3.8-2.2 4-5.7.3-5.5 0-11.1 0-16.6.1-1.3-1.9-1.5-1.9-.2z"/>
            <path
                d="M7.5 13.9v14.9c0 1.3 2 1.5 2 .2V14.1c0-1.3-2-1.5-2-.2zM14.1 14v14.9c0 1.3 2 1.3 2 0V14c0-1.3-2-1.3-2 0z"/>
        </g>
        <g fill="#1E1E1C">
            <path
                d="M132.6 58.9v22.6c0 .4.2 1.6 0 2-2.9 1.5-4.3 1.5-4.3 0v-.4c-.4-1 0-2.8 0-3.8V51.9 14c-.4.3-.9.6-1.3.9 14.5 3.6 10.8 27.6 10.8 38.6l1-1c-4.9 0-6.2 1.5-6.2 6.4 0 1.3 2 1.3 2 0 0-3 1.1-4.4 4.2-4.4.5 0 1-.4 1-1 0-12 3.8-36.6-12.2-40.6-.6-.2-1.3.3-1.3.9v58.9c0 3.6-1.9 13.6 3.2 14.7 3.9.9 5-2.7 5-5.7.1-7.7 0-15.3 0-23 .1-1.1-1.9-1.1-1.9.2z"/>
            <path d="M134.6 57V42.7c0-1.3-2-1.1-2 .2v14.3c0 1.3 2 1.1 2-.2z"/>
        </g>
        <path
            d="M26.9 49.1C27.2 30 38.6 12.7 56.5 5.7 74.8-1.4 96.1 4 108.8 19c12.7 14.9 14.6 36.9 4.5 53.8-9.8 16.4-29.2 25.3-48.1 22-22-4-37.9-23.5-38.3-45.7 0-1.3-2-1.5-2-.2.3 20.3 12.7 38.8 32.1 45.7 18.9 6.8 40.4.9 53.4-14.3 13.2-15.5 15.1-38.5 4.7-56-10.2-17.1-30.4-26.4-50-23C42 5.3 25.4 25.7 25 48.9c-.1 1.2 1.9 1.4 1.9.2z"
            fill="#1E1E1C"/>
        <circle fill="#DFDDE0" cx="78.2" cy="53.7" r="29.5"/>
        <path
            d="M44.9 48.9c.4-15.5 12.7-28.5 28.5-28.5 15.5 0 28.5 13 28.5 28.5s-13 28.5-28.5 28.5c-15.8 0-28.1-12.9-28.5-28.5 0-1.3-2-1.3-2 0 .3 12.6 7.8 24 19.7 28.5C74.8 82 89 78.2 97.1 68c17.4-21.6-2.2-54.3-29.5-49.1-14.4 2.8-24.4 15.5-24.8 30 .1 1.3 2.1 1.3 2.1 0z"
            fill="#1E1E1C"/>
        <path
            d="M72.8 66.2c.5.7 1 1.4 1.5 2.2.3-.2.6-.4.7-.6.4-1 1.2-1.7 2-2.4 1.9-1.5 3.8-3 5.7-4.6.8-.7 1.6-1.3 2.4-2 1.8-1.6 3.6-3.2 4.5-5.6.1-.3.4-.5.5-.6 0-1.9-.2-3.6-.5-5.3-.4-1.7-1-3.2-2.2-4.4-.9-1-2-1.9-3-2.8-.7-.6-1.6-1-2.4-1.5-1.7-1-2.9-2.5-4.3-3.9-1.2-1.3-2.2-2.6-1.9-4.6 0-.3-.2-1-.9-.8-.2.7-.4 1.5-.8 2.1-1.3 1.7-2.5 3.6-4.3 4.8-1.1.8-1.9 2.1-3.3 2.4-.3.5-3.2 3.2-3.8 3.6-2.8 1.8-4.2 5.2-3.7 8.6.5 2.8 1.5 5.4 3.1 7.5.9 1.2 1.9 2.5 3.5 3.1.8.3 1.6.8 2.1 1.5.6.9 1.9.6 2.4 1.6.1.3.9 0 .7.7.8.1 1.5.4 2 1"
            fill="#CF92B5"/>
        <g fill="#1E1E1C">
            <path
                d="M75.8 29.5c-3.6-4.5-6.2 2.6-8 4.9-3.6 4.6-9.4 8.1-11 13.9-1.3 4.4.1 7.5 3.4 10.5 2.1 1.9 4.5 3.5 6.8 5.1 1.8 1.2 5.5 3.1 5.9 5.5.1.4.6.7.9.4 5.1-5 15.5-8.6 16.7-16.6 1.5-9.7-10.6-16-14.5-23.5-.3-.6-1.4-.2-1.1.5 2.2 4.1 5.2 7.3 8.4 10.6 3.7 3.6 7.6 8.5 5.5 14.1-1.6 4.2-6.5 7.2-10 9.7-1.6 1.1-3.1 2.3-4.6 3.4-1.3.9.4 1.2-.7 0-4.5-4.4-13.1-7.7-15.6-13.6-2.4-5.5 2.8-10.8 6.4-14.3 1.2-1.2 2.5-2.4 3.6-3.8.7-.8 5.1-8.3 7.1-5.9.4.4 1.3-.3.8-.9z"/>
            <path
                d="M72.8 35.8C75.7 40.2 81 44 83 48.9c2.2 5.6-3.9 9.9-8.4 11.9-2.2 1-3.2-.2-5.5-1.8-1.7-1.1-3.8-2.5-4.9-4.2-2.6-4.3.8-8.2 3.6-11.3.5-.5-.3-1.4-.8-.9-3.6 3.9-7.4 8.9-3.1 13.7 1.8 2.1 6.8 6.6 9.7 6.4 1.5-.1 3.9-2.2 5.1-3 2.1-1.4 4.7-3.3 5.6-5.7 2.7-6.8-7.4-13.9-10.5-18.6-.3-.8-1.4-.3-1 .4z"/>
            <path
                d="M73.7 57.4c-1.7-1.2-4.4-2.8-5.3-4.6-1.5-2.9 4-7.6 5.5-9.6H73c1.6 2.1 7 6.7 5.4 9.7-1 1.8-3.6 3.3-5.3 4.5-.6.4.1 1.3.7.9 1.9-1.3 5.4-3.4 6.1-5.8.3-1-.1-2.1-.6-3-1.4-2.5-3.6-4.7-5.4-7-.2-.3-.7-.2-.9 0-1.7 2.3-4.1 4.5-5.4 7.1-.4.9-.8 2-.5 2.9.7 2.4 4.2 4.4 6.1 5.7.4.6 1.1-.4.5-.8z"/>
        </g>
    </g>
</svg>
