<svg viewBox="0 0 42 133" xmlns="http://www.w3.org/2000/svg">
    <g fill-rule="nonzero" fill="none">
        <path
            d="M40.7 59.2c-.5-1.5-1.3-2.9-2.3-4.1-.8-1.1-1.5-2.1-2.1-3.1-1.1-1.9-1.6-4-1.7-6.1-.1-15.4-2.7-28.4-3.4-31.6-.1-.4.2-.9.6-1 .2-.1.4-.3.4-.5 0-1.4-.3-4.2-.3-4.4 0 0-.2-3.2-1.7-3.2H18.6c-1.5 0-1.7 3.2-1.7 3.2 0 .2-.3 2.9-.3 4.4 0 .2.1.4.4.5.4.1.7.5.6 1-.7 3.2-3.3 16.2-3.4 31.6 0 2.2-.6 4.3-1.6 6.1-.5.9-1.2 2-2.1 3.1-1 1.2-1.7 2.6-2.3 4.1-.3.9-.5 1.8-.5 2.6v65.8c0 1.5.9 2.9 2.3 3.5 2.2.9 6.4 1.9 14.4 1.9s12.2-1 14.4-1.9c1.4-.6 2.3-2 2.3-3.5V61.8c.1-.8-.2-1.7-.4-2.6z"
            fill="#F8DEAB"/>
        <g fill="#1E1E1C">
            <path
                d="M35.5 75.1c-2.2-.2-3.9-1.1-4.9-2.8-.4-.6-1.2-.3-1.6.2-2.5 3.2-7.2 2.9-9.6-.2-.4-.6-1.2-.3-1.6.2-2.5 3.2-7.2 2.9-9.6-.2-.4-.6-1.2-.3-1.6.2-1.3 1.8-3 2.7-5 2.6-1.3.1-.8 2.1.4 2 2.8-.3 4.5-1.4 6.2-3.5-.5.1-1.1.1-1.6.2 3.5 4.5 9.3 4.3 12.8-.2-.5.1-1.1.1-1.6.2 3.5 4.5 9.3 4.3 12.8-.2-.5.1-1.1.1-1.6.2 1.7 2.2 3.5 3.1 6.3 3.4 1.3 0 1.4-2 .2-2.1z"/>
            <path
                d="M35.8 55.8c-1-2.4-2.4-4-3.7-6.2-1.7-2.7-2-5.4-2.2-8.5-.3-5.3-.5-10.5-1.1-15.8-.4-3.7-1-7.3-1.6-10.9-.4-2.3 0-2.9.3-4.9.4-2.7-.2-7.4-3.2-8.2-2.3-.6-9.7-.7-11.9.1-2.7 1-2.9 6.6-2.5 8.9.1.8.6.8.7 1.7.1.7-.3 1.7-.5 2.5-.8 4.1-1.4 8.3-1.8 12.5-.6 5.3-.5 10.6-.9 15.9-.4 5.7-4.7 8.6-6.1 13.7-.7 2.5-.4 5.3-.4 7.9 0 19.5-.4 39 0 58.5.1 2.7.4 4.7 3 6.1 5.9 3.1 15 2.3 21.3 1.7 4.4-.4 10.5-.8 11.2-6.1.3-2.1 0-4.4 0-6.6V80.2 65.4c0-3.1.3-6.3-.5-9.3-.3-1.2-2.3-.8-2 .4 1.5 5.2.5 12.3.5 17.6v44.1c0 1.9.4 4.3 0 6.2-1.5 6.2-15.6 4.7-19.9 4.5-4.4-.2-10.9-.2-11.6-5.6-1.1-7.6 0-16.2 0-23.9V69.7v-6.9-3c.2-4.9 3.6-7.5 5.4-11.7 1.3-3.2 1.1-6.5 1.2-9.9.2-4.8.6-9.5 1.2-14.2.6-4.5 2.4-9.7 1.8-14-.2-1.3-1-4.3 0-5.8 1.1-1.6 4.3-.9 6.2-.9 2.5 0 5.7-1 6.5 1.9.5 1.8-.3 3.6-.4 5.4-.2 2 .5 4.1.9 6.1.7 4 1.2 8.1 1.6 12.2.5 5.2.1 10.8.9 15.9.7 4.7 4.2 7.7 6 12 .3 1.1 2.1.1 1.6-1z"/>
            <path d="M10.8 10.8h7.8c1.3 0 1.4-2 .1-2h-7.8c-1.4 0-1.4 2-.1 2z"/>
        </g>
    </g>
</svg>
