<?xml version="1.0" encoding="utf-8"?>
<!-- Generator: Adobe Illustrator 22.1.0, SVG Export Plug-In . SVG Version: 6.00 Build 0)  -->
<svg version="1.1" id="Vrstva_1" xmlns="http://www.w3.org/2000/svg" xmlns:xlink="http://www.w3.org/1999/xlink" x="0px" y="0px"
	 viewBox="0 0 640 110" style="enable-background:new 0 0 640 110;" xml:space="preserve">
<style type="text/css">
	.st0{clip-path:url(#SVGID_2_);}
	.st1{clip-path:url(#SVGID_4_);fill:#76B72A;}
	.st2{clip-path:url(#SVGID_6_);}
	.st3{clip-path:url(#SVGID_8_);fill:#1D1D1B;}
	.st4{clip-path:url(#SVGID_10_);}
	.st5{clip-path:url(#SVGID_12_);fill:#1D1D1B;}
	.st6{clip-path:url(#SVGID_14_);}
	.st7{clip-path:url(#SVGID_16_);fill:#914D15;}
	.st8{clip-path:url(#SVGID_18_);}
	.st9{clip-path:url(#SVGID_20_);fill:#1D1D1B;}
	.st10{clip-path:url(#SVGID_22_);}
	.st11{clip-path:url(#SVGID_24_);fill:#1D1D1B;}
	.st12{clip-path:url(#SVGID_26_);}
	.st13{clip-path:url(#SVGID_28_);fill:#1D1D1B;}
	.st14{clip-path:url(#SVGID_30_);}
	.st15{clip-path:url(#SVGID_32_);fill:#1D1D1B;}
	.st16{clip-path:url(#SVGID_34_);}
	.st17{clip-path:url(#SVGID_36_);fill:#1D1D1B;}
	.st18{clip-path:url(#SVGID_38_);}
	.st19{clip-path:url(#SVGID_40_);enable-background:new    ;}
	.st20{clip-path:url(#SVGID_42_);}
	.st21{clip-path:url(#SVGID_44_);}
	.st22{clip-path:url(#SVGID_46_);fill:#1D1D1B;}
	.st23{clip-path:url(#SVGID_48_);}
	.st24{clip-path:url(#SVGID_50_);}
	.st25{clip-path:url(#SVGID_52_);}
	.st26{clip-path:url(#SVGID_54_);}
	.st27{clip-path:url(#SVGID_56_);}
	.st28{clip-path:url(#SVGID_58_);}
	.st29{clip-path:url(#SVGID_60_);}
	.st30{clip-path:url(#SVGID_62_);}
	.st31{clip-path:url(#SVGID_64_);}
	.st32{clip-path:url(#SVGID_66_);fill:#76B72A;}
	.st33{clip-path:url(#SVGID_68_);}
	.st34{clip-path:url(#SVGID_70_);enable-background:new    ;}
	.st35{clip-path:url(#SVGID_72_);}
	.st36{clip-path:url(#SVGID_74_);}
	.st37{clip-path:url(#SVGID_76_);fill:#76B72A;}
	.st38{clip-path:url(#SVGID_78_);}
	.st39{clip-path:url(#SVGID_80_);fill:#76B72A;}
	.st40{clip-path:url(#SVGID_82_);}
	.st41{clip-path:url(#SVGID_84_);fill:#CE91B4;}
	.st42{clip-path:url(#SVGID_86_);}
	.st43{clip-path:url(#SVGID_88_);enable-background:new    ;}
	.st44{clip-path:url(#SVGID_90_);}
	.st45{clip-path:url(#SVGID_92_);}
	.st46{clip-path:url(#SVGID_94_);fill:#1D1D1B;}
	.st47{clip-path:url(#SVGID_96_);}
	.st48{clip-path:url(#SVGID_98_);fill:#1D1D1B;}
	.st49{clip-path:url(#SVGID_100_);}
	.st50{clip-path:url(#SVGID_102_);fill:#1D1D1B;}
	.st51{clip-path:url(#SVGID_104_);}
	.st52{clip-path:url(#SVGID_106_);fill:#1D1D1B;}
	.st53{clip-path:url(#SVGID_108_);}
	.st54{clip-path:url(#SVGID_110_);enable-background:new    ;}
	.st55{clip-path:url(#SVGID_112_);}
	.st56{clip-path:url(#SVGID_114_);}
	.st57{clip-path:url(#SVGID_116_);fill:#1D1D1B;}
	.st58{clip-path:url(#SVGID_118_);}
	.st59{clip-path:url(#SVGID_120_);fill:#1D1D1B;}
	.st60{clip-path:url(#SVGID_122_);}
	.st61{clip-path:url(#SVGID_124_);fill:#1D1D1B;}
	.st62{clip-path:url(#SVGID_126_);}
	.st63{clip-path:url(#SVGID_128_);fill:#1D1D1B;}
	.st64{clip-path:url(#SVGID_130_);}
	.st65{clip-path:url(#SVGID_132_);fill:#76B72A;}
	.st66{clip-path:url(#SVGID_134_);}
	.st67{clip-path:url(#SVGID_136_);fill:#76B72A;}
	.st68{clip-path:url(#SVGID_138_);}
	.st69{clip-path:url(#SVGID_140_);fill:#76B72A;}
	.st70{clip-path:url(#SVGID_142_);}
	.st71{clip-path:url(#SVGID_144_);fill:#CE91B4;}
	.st72{clip-path:url(#SVGID_146_);}
	.st73{clip-path:url(#SVGID_148_);fill:#1D1D1B;}
	.st74{clip-path:url(#SVGID_150_);}
	.st75{clip-path:url(#SVGID_152_);fill:#1D1D1B;}
	.st76{clip-path:url(#SVGID_154_);}
	.st77{clip-path:url(#SVGID_156_);fill:#1D1D1B;}
	.st78{clip-path:url(#SVGID_158_);}
	.st79{clip-path:url(#SVGID_160_);fill:#1D1D1B;}
	.st80{clip-path:url(#SVGID_162_);}
	.st81{clip-path:url(#SVGID_164_);fill:#1D1D1B;}
	.st82{clip-path:url(#SVGID_166_);}
	.st83{clip-path:url(#SVGID_168_);fill:#1D1D1B;}
	.st84{clip-path:url(#SVGID_170_);}
	.st85{clip-path:url(#SVGID_172_);fill:#1D1D1B;}
	.st86{clip-path:url(#SVGID_174_);}
	.st87{clip-path:url(#SVGID_176_);fill:#1D1D1B;}
	.st88{clip-path:url(#SVGID_178_);}
	.st89{clip-path:url(#SVGID_180_);fill:#76B72A;}
	.st90{clip-path:url(#SVGID_182_);}
	.st91{clip-path:url(#SVGID_184_);enable-background:new    ;}
	.st92{clip-path:url(#SVGID_186_);}
	.st93{clip-path:url(#SVGID_188_);}
	.st94{clip-path:url(#SVGID_190_);fill:#76B72A;}
	.st95{clip-path:url(#SVGID_192_);}
	.st96{clip-path:url(#SVGID_194_);fill:#76B72A;}
	.st97{clip-path:url(#SVGID_196_);}
	.st98{clip-path:url(#SVGID_198_);fill:#CE91B4;}
	.st99{clip-path:url(#SVGID_200_);}
	.st100{clip-path:url(#SVGID_202_);fill:#1D1D1B;}
	.st101{clip-path:url(#SVGID_204_);}
	.st102{clip-path:url(#SVGID_206_);fill:#1D1D1B;}
	.st103{clip-path:url(#SVGID_208_);}
	.st104{clip-path:url(#SVGID_210_);fill:#1D1D1B;}
	.st105{clip-path:url(#SVGID_212_);}
	.st106{clip-path:url(#SVGID_214_);fill:#1D1D1B;}
	.st107{clip-path:url(#SVGID_216_);}
	.st108{clip-path:url(#SVGID_218_);fill:#1D1D1B;}
	.st109{clip-path:url(#SVGID_220_);}
	.st110{clip-path:url(#SVGID_222_);fill:#1D1D1B;}
	.st111{clip-path:url(#SVGID_224_);}
	.st112{clip-path:url(#SVGID_226_);fill:#1D1D1B;}
	.st113{clip-path:url(#SVGID_228_);}
	.st114{clip-path:url(#SVGID_230_);fill:#1D1D1B;}
	.st115{clip-path:url(#SVGID_232_);}
	.st116{clip-path:url(#SVGID_234_);fill:#76B72A;}
	.st117{clip-path:url(#SVGID_236_);}
	.st118{clip-path:url(#SVGID_238_);fill:#76B72A;}
	.st119{clip-path:url(#SVGID_240_);}
	.st120{clip-path:url(#SVGID_242_);fill:#76B72A;}
	.st121{clip-path:url(#SVGID_244_);}
	.st122{clip-path:url(#SVGID_246_);fill:#CE91B4;}
	.st123{clip-path:url(#SVGID_248_);}
	.st124{clip-path:url(#SVGID_250_);fill:#1D1D1B;}
	.st125{clip-path:url(#SVGID_252_);}
	.st126{clip-path:url(#SVGID_254_);fill:#1D1D1B;}
	.st127{clip-path:url(#SVGID_256_);}
	.st128{clip-path:url(#SVGID_258_);fill:#1D1D1B;}
	.st129{clip-path:url(#SVGID_260_);}
	.st130{clip-path:url(#SVGID_262_);fill:#1D1D1B;}
	.st131{clip-path:url(#SVGID_264_);}
	.st132{clip-path:url(#SVGID_266_);fill:#1D1D1B;}
	.st133{clip-path:url(#SVGID_268_);}
	.st134{clip-path:url(#SVGID_270_);enable-background:new    ;}
	.st135{clip-path:url(#SVGID_272_);}
	.st136{clip-path:url(#SVGID_274_);}
	.st137{clip-path:url(#SVGID_276_);fill:#1D1D1B;}
	.st138{clip-path:url(#SVGID_278_);}
	.st139{clip-path:url(#SVGID_280_);fill:#1D1D1B;}
	.st140{clip-path:url(#SVGID_282_);}
	.st141{clip-path:url(#SVGID_284_);fill:#1D1D1B;}
	.st142{clip-path:url(#SVGID_286_);}
	.st143{clip-path:url(#SVGID_288_);enable-background:new    ;}
	.st144{clip-path:url(#SVGID_290_);}
	.st145{clip-path:url(#SVGID_292_);}
	.st146{clip-path:url(#SVGID_294_);fill:#DB6000;}
	.st147{clip-path:url(#SVGID_296_);}
	.st148{clip-path:url(#SVGID_298_);fill:#1D1D1B;}
	.st149{clip-path:url(#SVGID_300_);}
	.st150{clip-path:url(#SVGID_302_);enable-background:new    ;}
	.st151{clip-path:url(#SVGID_304_);}
	.st152{clip-path:url(#SVGID_306_);}
	.st153{clip-path:url(#SVGID_308_);fill:#DFA958;}
	.st154{clip-path:url(#SVGID_310_);}
	.st155{clip-path:url(#SVGID_312_);fill:#1D1D1B;}
	.st156{clip-path:url(#SVGID_314_);}
	.st157{clip-path:url(#SVGID_316_);fill:#1D1D1B;}
	.st158{clip-path:url(#SVGID_318_);}
	.st159{clip-path:url(#SVGID_320_);enable-background:new    ;}
	.st160{clip-path:url(#SVGID_322_);}
	.st161{clip-path:url(#SVGID_324_);}
	.st162{clip-path:url(#SVGID_326_);fill:#1D1D1B;}
	.st163{clip-path:url(#SVGID_328_);}
	.st164{clip-path:url(#SVGID_330_);fill:#1D1D1B;}
	.st165{clip-path:url(#SVGID_332_);}
	.st166{clip-path:url(#SVGID_334_);fill:#1D1D1B;}
	.st167{clip-path:url(#SVGID_336_);}
	.st168{clip-path:url(#SVGID_338_);fill:#1D1D1B;}
	.st169{clip-path:url(#SVGID_340_);}
	.st170{clip-path:url(#SVGID_342_);fill:#1D1D1B;}
	.st171{clip-path:url(#SVGID_344_);}
	.st172{clip-path:url(#SVGID_346_);fill:#1D1D1B;}
	.st173{clip-path:url(#SVGID_348_);}
	.st174{clip-path:url(#SVGID_350_);fill:#1D1D1B;}
	.st175{clip-path:url(#SVGID_352_);}
	.st176{clip-path:url(#SVGID_354_);fill:#1D1D1B;}
	.st177{clip-path:url(#SVGID_356_);}
	.st178{clip-path:url(#SVGID_358_);fill:#1D1D1B;}
	.st179{clip-path:url(#SVGID_360_);}
	.st180{clip-path:url(#SVGID_362_);fill:#1D1D1B;}
	.st181{clip-path:url(#SVGID_364_);}
	.st182{clip-path:url(#SVGID_366_);fill:#1D1D1B;}
	.st183{clip-path:url(#SVGID_368_);}
	.st184{clip-path:url(#SVGID_370_);enable-background:new    ;}
	.st185{clip-path:url(#SVGID_372_);}
	.st186{clip-path:url(#SVGID_374_);}
	.st187{clip-path:url(#SVGID_376_);fill:#1D1D1B;}
	.st188{clip-path:url(#SVGID_378_);}
	.st189{clip-path:url(#SVGID_380_);fill:#DFDDE0;}
	.st190{clip-path:url(#SVGID_382_);}
	.st191{clip-path:url(#SVGID_384_);fill:#1D1D1B;}
	.st192{clip-path:url(#SVGID_386_);}
	.st193{clip-path:url(#SVGID_388_);fill:#CE91B4;}
	.st194{clip-path:url(#SVGID_390_);}
	.st195{clip-path:url(#SVGID_392_);fill:#1D1D1B;}
	.st196{clip-path:url(#SVGID_394_);}
	.st197{clip-path:url(#SVGID_396_);fill:#1D1D1B;}
	.st198{clip-path:url(#SVGID_398_);}
	.st199{clip-path:url(#SVGID_400_);fill:#1D1D1B;}
</style>
<g>
	<defs>
		<path id="SVGID_1_" d="M60.1,52.4c0,0,5.2-2.7,7.3-6.2c1.2-2-0.9-4.3-3.1-3.5L62,43.5c-0.4,0.2-0.8-0.4-0.5-0.7
			c1.4-1.5,3.5-4,4.4-6.8c0.7-2.2-1.7-4-3.7-2.8L59,36c-0.3,0.2-0.8-0.1-0.6-0.4c1.5-2.9,3.3-10.8-2.1-10.8c-5.4,0-3.7,7.9-2.1,10.8
			c0.2,0.3-0.3,0.6-0.6,0.4l-3.3-2.7c-2-1.2-4.4,0.7-3.7,2.8c0.9,2.8,3,5.3,4.4,6.8c0.3,0.3,0,0.8-0.5,0.7l-2.2-0.8
			c-2.2-0.8-4.3,1.5-3.1,3.5c2.1,3.6,7.3,6.2,7.3,6.2l5.1,2.4L60.1,52.4z"/>
	</defs>
	<clipPath id="SVGID_2_">
		<use xlink:href="#SVGID_1_"  style="overflow:visible;"/>
	</clipPath>
	<g class="st0">
		<defs>
			<rect id="SVGID_3_" x="-72" y="-1818" width="1024" height="2278"/>
		</defs>
		<clipPath id="SVGID_4_">
			<use xlink:href="#SVGID_3_"  style="overflow:visible;"/>
		</clipPath>
		<rect x="39.8" y="19.7" class="st1" width="32.9" height="40.1"/>
	</g>
</g>
<g>
	<defs>
		<path id="SVGID_5_" d="M59.1,50.9c2.7-1.4,8.2-4.7,7.9-8.2c-0.1-1.3-1.1-2.4-2.4-2.7c-0.8-0.2-1.4,0-2.1,0.2
			c-0.5,0.1-1,0.5-1.5,0.6c-1,0.2,0,0.2,0.3-0.1c1.4-1.9,7.7-9.8,1.3-10.4c-1.5-0.1-2.4,0.8-3.4,1.7c-0.1,0.1-1.8,1.5-1.8,1.5
			c0.5,0.5,1.3-2.3,1.4-2.6c0.7-2.8,1.2-7.4-2.4-8.5c-3.4-1.1-5.6,1.6-5.7,4.7c-0.1,1.7,0.2,4,1,5.5c0.4,0.7,1.1,1.2,0.3,0.5
			c-0.8-0.7-1.6-1.4-2.4-2c-3.3-2.2-5.8,1.2-4.6,4.3c0.6,1.5,1.6,2.9,2.6,4.2c0.1,0.2,1.2,1.8,1.7,1.4c-0.1,0.1-1.2-0.5-1.5-0.6
			c-1.7-0.6-3.6-0.6-4.5,1.3c-1.9,3.8,4.8,7.9,7.5,9.3c0.7,0.4,1.4-0.6,0.7-1c-2.2-1.2-6.4-3.5-7.1-6c0.6-2.3,1.6-3.1,2.9-2.4
			c0.2,0.1,0.4,0.1,0.5,0.2c0.4,0.1,0.9,0.5,1.3,0.5c0.6,0,0.9-0.1,1.2-0.7c0.3-0.7-0.4-1.1-0.7-1.6c-0.9-1.2-1.9-2.2-2.6-3.5
			c-0.2-0.3-0.3-0.6-0.5-0.9c-1-1.5-0.3-2.8,2.1-3.8c1.6,0.4,2.3,2.9,4.2,2.7c0.2,0,0.4-0.2,0.5-0.4c0.4-1.3-0.8-2.9-1.1-4.2
			c-0.5-2.2-0.9-6.1,2.2-6.6c3.5-0.6,3.8,3.4,3.4,5.7c-0.2,1.4-1.7,3.7-1.3,5c0.1,0.3,0.3,0.5,0.6,0.5c0.9,0.1,0.9-0.1,1.6-0.6
			c0.5-0.3,2.1-2.2,2.6-2.2c0.8,1,1.6,2,2.5,3c-0.4,0.8-0.8,1.7-1.3,2.4c-0.5,0.8-1.1,1.5-1.7,2.2c-0.3,0.3-1.6,1.4-1.2,2.1
			c0.8,1.6,2.3-0.2,3.4-0.2c2.3,1.3,2.8,2.6,1.6,3.8c-0.4,0.5-0.8,0.9-1.3,1.3c-0.7,0.6-1.4,1.2-2.1,1.7c-0.9,0.6-1.8,1.2-2.7,1.7
			C57.9,50.2,58.4,51.3,59.1,50.9"/>
	</defs>
	<clipPath id="SVGID_6_">
		<use xlink:href="#SVGID_5_"  style="overflow:visible;"/>
	</clipPath>
	<g class="st2">
		<defs>
			<rect id="SVGID_7_" x="-72" y="-1818" width="1024" height="2278"/>
		</defs>
		<clipPath id="SVGID_8_">
			<use xlink:href="#SVGID_7_"  style="overflow:visible;"/>
		</clipPath>
		<rect x="37.9" y="17" class="st3" width="34.1" height="39"/>
	</g>
</g>
<g>
	<defs>
		<path id="SVGID_9_" d="M59.2,50.9c2.7-1.4,8.3-4.7,7.9-8.3c-0.1-1.3-1.2-2.4-2.5-2.7c-0.9-0.2-1.7,0.1-2.6,0.4
			c-0.1,0.1-1.1,0.5-1.2,0.5c0.4,0.4,1.7-1.5,1.9-1.8c1.2-1.5,3-3.9,2.8-6c-0.2-1.8-1.9-3.1-3.7-2.8c-1.3,0.2-2.3,1.4-3.3,2.2
			c-0.3,0.3-0.6,0.5-0.9,0.8c-0.5,0.4,0.3,0.1,0.5-0.3c0.4-0.9,0.7-1.9,0.9-2.8c0.6-2.7,0.8-6.9-2.6-7.9c-3.8-1.1-5.8,2.1-5.7,5.4
			c0.1,1.7,0.3,3.8,1.2,5.2c0.5,0.8,0.7,0.8,0,0c-0.6-0.7-1.6-1.4-2.3-1.9c-3.4-2.1-5.7,1.3-4.5,4.4c0.6,1.5,1.6,2.9,2.6,4.2
			c0,0,1.5,1.8,1.6,1.4c0,0-1.4-0.6-1.5-0.6c-1.7-0.6-3.6-0.5-4.5,1.4c-1.9,3.8,4.9,7.9,7.6,9.3c0.7,0.4,1.3-0.7,0.6-1.1
			c-0.8-0.4-1.6-0.9-2.3-1.4c-0.9-0.6-1.8-1.3-2.6-2c-0.3-0.3-0.6-0.6-0.9-0.9c-1.7-1.3-1.3-2.8,1.1-4.4c1-0.1,2.8,1.9,3.5,0.2
			c0.3-0.7-0.4-1.1-0.8-1.6c-0.8-1.2-1.9-2.2-2.6-3.5c-0.2-0.3-0.3-0.6-0.5-0.9c-1.4-1.8-0.7-3.1,2.1-3.8c1.6,0.4,2.3,2.9,4.2,2.8
			c0.3,0,0.5-0.2,0.6-0.5c0.4-1.3-0.8-2.9-1.1-4.2c-0.5-2.4-0.8-6.5,2.7-6.5c3.4,0,3.3,3.9,2.8,6.3c-0.3,1.4-1.6,3.2-1.1,4.5
			c0.1,0.3,0.3,0.4,0.6,0.5c1.8,0.1,2.6-2.4,4.2-2.8c2.7,0.8,3.4,2,2,3.8c-0.2,0.3-0.3,0.6-0.5,0.9c-0.7,1.3-1.7,2.3-2.6,3.5
			c-0.4,0.5-1,0.9-0.7,1.6c0.6,1.7,2.6-0.2,3.5-0.2c2.1,1.7,2.4,3.2,1.1,4.4c-0.2,0.2-0.4,0.4-0.6,0.6c-0.9,0.8-1.8,1.6-2.8,2.3
			c-0.7,0.5-1.5,1-2.3,1.4C57.8,50.2,58.5,51.2,59.2,50.9"/>
	</defs>
	<clipPath id="SVGID_10_">
		<use xlink:href="#SVGID_9_"  style="overflow:visible;"/>
	</clipPath>
	<g class="st4">
		<defs>
			<rect id="SVGID_11_" x="-72" y="-1818" width="1024" height="2278"/>
		</defs>
		<clipPath id="SVGID_12_">
			<use xlink:href="#SVGID_11_"  style="overflow:visible;"/>
		</clipPath>
		<rect x="37.9" y="17" class="st5" width="34.2" height="39"/>
	</g>
</g>
<g>
	<defs>
		<path id="SVGID_13_" d="M56.9,48.1c0,0-8.8,0.1-16.9,2.6c-2.7,0.8-4.2,3.7-3.3,6.4L46,85.9c0.3,1,1.3,1.7,2.3,1.7h8.6h8.6
			c1.1,0,2-0.7,2.3-1.7l9.3-28.7c0.9-2.7-0.6-5.6-3.3-6.4C65.7,48.2,56.9,48.1,56.9,48.1"/>
	</defs>
	<clipPath id="SVGID_14_">
		<use xlink:href="#SVGID_13_"  style="overflow:visible;"/>
	</clipPath>
	<g class="st6">
		<defs>
			<rect id="SVGID_15_" x="-72" y="-1818" width="1024" height="2278"/>
		</defs>
		<clipPath id="SVGID_16_">
			<use xlink:href="#SVGID_15_"  style="overflow:visible;"/>
		</clipPath>
		<rect x="31.4" y="43.1" class="st7" width="51" height="49.4"/>
	</g>
</g>
<g>
	<defs>
		<path id="SVGID_17_" d="M40.6,57.7h2.2c0.8,0,0.7-1.2-0.1-1.2h-2.2C39.7,56.5,39.8,57.7,40.6,57.7"/>
	</defs>
	<clipPath id="SVGID_18_">
		<use xlink:href="#SVGID_17_"  style="overflow:visible;"/>
	</clipPath>
	<g class="st8">
		<defs>
			<rect id="SVGID_19_" x="-72" y="-1818" width="1024" height="2278"/>
		</defs>
		<clipPath id="SVGID_20_">
			<use xlink:href="#SVGID_19_"  style="overflow:visible;"/>
		</clipPath>
		<rect x="35" y="51.5" class="st9" width="13.4" height="11.2"/>
	</g>
</g>
<g>
	<defs>
		<path id="SVGID_21_" d="M46.7,63.6h2.2c0.8,0,0.8-1.2,0-1.2h-2.2C45.8,62.3,45.9,63.6,46.7,63.6"/>
	</defs>
	<clipPath id="SVGID_22_">
		<use xlink:href="#SVGID_21_"  style="overflow:visible;"/>
	</clipPath>
	<g class="st10">
		<defs>
			<rect id="SVGID_23_" x="-72" y="-1818" width="1024" height="2278"/>
		</defs>
		<clipPath id="SVGID_24_">
			<use xlink:href="#SVGID_23_"  style="overflow:visible;"/>
		</clipPath>
		<rect x="41" y="57.3" class="st11" width="13.4" height="11.2"/>
	</g>
</g>
<g>
	<defs>
		<path id="SVGID_25_" d="M55.1,56.5h-2.2c-0.8,0-0.8,1.2,0,1.2h2.2C55.9,57.7,55.9,56.5,55.1,56.5"/>
	</defs>
	<clipPath id="SVGID_26_">
		<use xlink:href="#SVGID_25_"  style="overflow:visible;"/>
	</clipPath>
	<g class="st12">
		<defs>
			<rect id="SVGID_27_" x="-72" y="-1818" width="1024" height="2278"/>
		</defs>
		<clipPath id="SVGID_28_">
			<use xlink:href="#SVGID_27_"  style="overflow:visible;"/>
		</clipPath>
		<rect x="47.3" y="51.5" class="st13" width="13.4" height="11.2"/>
	</g>
</g>
<g>
	<defs>
		<path id="SVGID_29_" d="M58.9,63.6h2.2c0.8,0,0.9-1.2,0.1-1.2H59C58.2,62.3,58.1,63.6,58.9,63.6"/>
	</defs>
	<clipPath id="SVGID_30_">
		<use xlink:href="#SVGID_29_"  style="overflow:visible;"/>
	</clipPath>
	<g class="st14">
		<defs>
			<rect id="SVGID_31_" x="-72" y="-1818" width="1024" height="2278"/>
		</defs>
		<clipPath id="SVGID_32_">
			<use xlink:href="#SVGID_31_"  style="overflow:visible;"/>
		</clipPath>
		<rect x="53.4" y="57.3" class="st15" width="13.4" height="11.2"/>
	</g>
</g>
<g>
	<defs>
		<path id="SVGID_33_" d="M67.5,56.5h-2.2c-0.8,0-0.8,1.2,0,1.2h2.2C68.3,57.7,68.3,56.5,67.5,56.5"/>
	</defs>
	<clipPath id="SVGID_34_">
		<use xlink:href="#SVGID_33_"  style="overflow:visible;"/>
	</clipPath>
	<g class="st16">
		<defs>
			<rect id="SVGID_35_" x="-72" y="-1818" width="1024" height="2278"/>
		</defs>
		<clipPath id="SVGID_36_">
			<use xlink:href="#SVGID_35_"  style="overflow:visible;"/>
		</clipPath>
		<rect x="59.7" y="51.5" class="st17" width="13.4" height="11.2"/>
	</g>
</g>
<g>
	<defs>
		<rect id="SVGID_37_" x="33" y="47.9" width="42.1" height="40.9"/>
	</defs>
	<clipPath id="SVGID_38_">
		<use xlink:href="#SVGID_37_"  style="overflow:visible;"/>
	</clipPath>
	<g class="st18">
		<defs>
			<rect id="SVGID_39_" x="-72" y="-1818" width="1024" height="2278"/>
		</defs>
		<clipPath id="SVGID_40_">
			<use xlink:href="#SVGID_39_"  style="overflow:visible;"/>
		</clipPath>
		<g class="st19">
			<g>
				<defs>
					<rect id="SVGID_41_" x="31" y="47" width="46" height="43"/>
				</defs>
				<clipPath id="SVGID_42_">
					<use xlink:href="#SVGID_41_"  style="overflow:visible;"/>
				</clipPath>
				<g class="st20">
					<defs>
						<path id="SVGID_43_" d="M53.9,47.9c-2.6,0-5.1,0.3-7.6,0.6c-3.4,0.5-9,0.8-11.7,3.3c-2.9,2.8-1.4,6.2-0.3,9.3
							c1.6,5,3.2,10,4.9,14.9c1.1,3.3,1.8,7.1,3.3,10.3c1.6,3.4,7.8,2.1,10.9,2.1h4.9c1.7,0,4.4,0.5,6-0.5c2.1-1.4,2.7-6.2,3.4-8.3
							c1.7-5.2,3.4-10.4,5-15.5c1-3.1,3.4-7.6,1.7-10.9c-2-3.7-8-4-11.7-4.6C59.8,48.2,56.9,47.9,53.9,47.9c-0.8,0-0.7,1.2,0.1,1.2
							c2.2,0,4.4,0.2,6.5,0.5c3.9,0.5,11.7,0.8,13,5c0.9,2.6-1.3,6.6-2,9.1c-1.4,4.4-2.8,8.8-4.3,13.2c-0.9,2.8-1.5,6.4-2.9,9
							c-1.5,2.8-7.3,1.5-10,1.5h-3.3c-2,0-6.2,0.8-7.5-1.3c-1.1-1.8-1.5-4.6-2.1-6.6c-1.5-4.5-2.9-9-4.4-13.5
							c-0.9-2.8-2.2-5.7-2.8-8.7c-1.4-6.4,7.5-7,12.1-7.6c2.5-0.3,5.1-0.6,7.6-0.6C54.9,49.1,54.7,47.9,53.9,47.9"/>
					</defs>
					<clipPath id="SVGID_44_">
						<use xlink:href="#SVGID_43_"  style="overflow:visible;"/>
					</clipPath>
					<g class="st21">
						<defs>
							<rect id="SVGID_45_" x="33" y="47" width="43" height="42"/>
						</defs>
						<clipPath id="SVGID_46_">
							<use xlink:href="#SVGID_45_"  style="overflow:visible;"/>
						</clipPath>
						<rect x="28" y="42.9" class="st22" width="52.1" height="50.9"/>
					</g>
				</g>
			</g>
		</g>
	</g>
</g>
<g>
	<g>
		<path d="M55,1c29.8,0,54,24.2,54,54s-24.2,54-54,54S1,84.8,1,55S25.2,1,55,1 M55,0C24.6,0,0,24.6,0,55s24.6,55,55,55
			s55-24.6,55-55S85.4,0,55,0L55,0z"/>
	</g>
</g>
<g>
	<defs>
		<path id="SVGID_47_" d="M110.8,55h13h0.5v-1h-0.5h-13h-0.5v1H110.8z M132.2,54.5l-9-4.5v9L132.2,54.5z"/>
	</defs>
	<clipPath id="SVGID_48_">
		<use xlink:href="#SVGID_47_"  style="overflow:visible;"/>
	</clipPath>
	<g class="st23">
		<defs>
			<rect id="SVGID_49_" x="-72" y="-1818" width="1024" height="2278"/>
		</defs>
		<clipPath id="SVGID_50_">
			<use xlink:href="#SVGID_49_"  style="overflow:visible;"/>
		</clipPath>
		<rect x="105.2" y="45" class="st24" width="32" height="19"/>
	</g>
</g>
<g>
	<defs>
		<path id="SVGID_51_" d="M243.2,53.8h13h0.5v-1h-0.5h-13h-0.5v1H243.2z M264.8,53.2l-9-4.5v9L264.8,53.2z"/>
	</defs>
	<clipPath id="SVGID_52_">
		<use xlink:href="#SVGID_51_"  style="overflow:visible;"/>
	</clipPath>
	<g class="st25">
		<defs>
			<rect id="SVGID_53_" x="-72" y="-1818" width="1024" height="2278"/>
		</defs>
		<clipPath id="SVGID_54_">
			<use xlink:href="#SVGID_53_"  style="overflow:visible;"/>
		</clipPath>
		<rect x="237.8" y="43.8" class="st26" width="32" height="19"/>
	</g>
</g>
<g>
	<defs>
		<path id="SVGID_55_" d="M375.8,53.8h13h0.5v-1h-0.5h-13h-0.5v1H375.8z M397.2,53.2l-9-4.5v9L397.2,53.2z"/>
	</defs>
	<clipPath id="SVGID_56_">
		<use xlink:href="#SVGID_55_"  style="overflow:visible;"/>
	</clipPath>
	<g class="st27">
		<defs>
			<rect id="SVGID_57_" x="-72" y="-1818" width="1024" height="2278"/>
		</defs>
		<clipPath id="SVGID_58_">
			<use xlink:href="#SVGID_57_"  style="overflow:visible;"/>
		</clipPath>
		<rect x="370.2" y="43.8" class="st28" width="32" height="19"/>
	</g>
</g>
<g>
	<defs>
		<path id="SVGID_59_" d="M508.2,53.8h13h0.5v-1h-0.5h-13h-0.5v1H508.2z M529.8,53.2l-9-4.5v9L529.8,53.2z"/>
	</defs>
	<clipPath id="SVGID_60_">
		<use xlink:href="#SVGID_59_"  style="overflow:visible;"/>
	</clipPath>
	<g class="st29">
		<defs>
			<rect id="SVGID_61_" x="-72" y="-1818" width="1024" height="2278"/>
		</defs>
		<clipPath id="SVGID_62_">
			<use xlink:href="#SVGID_61_"  style="overflow:visible;"/>
		</clipPath>
		<rect x="502.8" y="43.8" class="st30" width="32" height="19"/>
	</g>
</g>
<g>
	<defs>
		<path id="SVGID_63_" d="M193.4,46.8c0,0,5.2-2.6,7.2-6.2c1.2-2-0.9-4.3-3.1-3.5l-2.2,0.8c-0.4,0.2-0.8-0.3-0.5-0.7
			c1.4-1.5,3.5-4,4.4-6.7c0.7-2.1-1.7-4-3.7-2.8l-3.3,2.7c-0.3,0.2-0.8-0.1-0.6-0.4c1.5-2.8,3.3-10.7-2.1-10.7
			c-5.4,0-3.6,7.9-2.1,10.7c0.2,0.3-0.3,0.6-0.6,0.4l-3.3-2.7c-1.9-1.1-4.3,0.7-3.7,2.8c0.9,2.7,2.9,5.2,4.4,6.7
			c0.3,0.3,0,0.8-0.5,0.7l-2.2-0.8c-2.2-0.8-4.2,1.5-3.1,3.5c2,3.5,7.2,6.2,7.2,6.2l5,2.4L193.4,46.8z"/>
	</defs>
	<clipPath id="SVGID_64_">
		<use xlink:href="#SVGID_63_"  style="overflow:visible;"/>
	</clipPath>
	<g class="st31">
		<defs>
			<rect id="SVGID_65_" x="-72" y="-1818" width="1024" height="2278"/>
		</defs>
		<clipPath id="SVGID_66_">
			<use xlink:href="#SVGID_65_"  style="overflow:visible;"/>
		</clipPath>
		<rect x="173.3" y="14.4" class="st32" width="32.6" height="39.8"/>
	</g>
</g>
<g>
	<defs>
		<rect id="SVGID_67_" x="157" y="26.3" width="25.5" height="23.4"/>
	</defs>
	<clipPath id="SVGID_68_">
		<use xlink:href="#SVGID_67_"  style="overflow:visible;"/>
	</clipPath>
	<g class="st33">
		<defs>
			<rect id="SVGID_69_" x="-72" y="-1818" width="1024" height="2278"/>
		</defs>
		<clipPath id="SVGID_70_">
			<use xlink:href="#SVGID_69_"  style="overflow:visible;"/>
		</clipPath>
		<g class="st34">
			<g>
				<defs>
					<rect id="SVGID_71_" x="154" y="23" width="30" height="28"/>
				</defs>
				<clipPath id="SVGID_72_">
					<use xlink:href="#SVGID_71_"  style="overflow:visible;"/>
				</clipPath>
				<g class="st35">
					<defs>
						<path id="SVGID_73_" d="M182.2,41.8c0,0,1-5.6-0.6-9.4c-0.9-2.1-4-1.9-4.7,0.3l-0.7,2.2c-0.1,0.4-0.7,0.4-0.8-0.1
							c-0.3-2-1.1-5.2-2.7-7.5c-1.3-1.8-4.2-1.1-4.5,1.2l0.2,4.2c0,0.4-0.6,0.5-0.7,0.2c-1.4-2.9-6.6-9.1-9.9-4.9
							c-3.3,4.2,4.1,7.6,7.3,8.2c0.4,0.1,0.3,0.6,0,0.8l-4.2,0.9c-2.1,0.8-2.1,3.8,0,4.6c2.7,1,6,0.9,8.1,0.7c0.4,0,0.6,0.5,0.3,0.8
							l-2,1.2c-2,1.2-1.4,4.2,0.9,4.5c4.1,0.6,9.3-1.9,9.3-1.9l5-2.5L182.2,41.8z"/>
					</defs>
					<clipPath id="SVGID_74_">
						<use xlink:href="#SVGID_73_"  style="overflow:visible;"/>
					</clipPath>
					<g class="st36">
						<defs>
							<rect id="SVGID_75_" x="157" y="26" width="26" height="24"/>
						</defs>
						<clipPath id="SVGID_76_">
							<use xlink:href="#SVGID_75_"  style="overflow:visible;"/>
						</clipPath>
						<rect x="152" y="21.3" class="st37" width="35.5" height="33.4"/>
					</g>
				</g>
			</g>
		</g>
	</g>
</g>
<g>
	<defs>
		<path id="SVGID_77_" d="M197.9,51.1c0,0,5.5,1.7,9.5,0.7c2.2-0.6,2.4-3.7,0.3-4.6l-2.1-0.9c-0.4-0.2-0.3-0.8,0.2-0.8
			c2.1-0.1,5.3-0.4,7.9-1.7c2-1,1.6-4-0.6-4.5l-4.3-0.4c-0.4-0.1-0.5-0.6-0.1-0.7c3.1-0.9,10-5.3,6.2-9c-3.8-3.7-8.2,3-9.1,6.1
			c-0.1,0.3-0.7,0.2-0.8-0.1l-0.4-4.2c-0.6-2.2-3.6-2.6-4.6-0.6c-1.3,2.5-1.7,5.8-1.7,7.8c0,0.4-0.6,0.6-0.8,0.2l-0.9-2.1
			c-0.9-2.1-4.1-1.9-4.7,0.3c-1.1,3.9,0.7,9.4,0.7,9.4l-1,5.2L197.9,51.1z"/>
	</defs>
	<clipPath id="SVGID_78_">
		<use xlink:href="#SVGID_77_"  style="overflow:visible;"/>
	</clipPath>
	<g class="st38">
		<defs>
			<rect id="SVGID_79_" x="-72" y="-1818" width="1024" height="2278"/>
		</defs>
		<clipPath id="SVGID_80_">
			<use xlink:href="#SVGID_79_"  style="overflow:visible;"/>
		</clipPath>
		<rect x="186.5" y="23" class="st39" width="34.5" height="34.2"/>
	</g>
</g>
<g>
	<defs>
		<path id="SVGID_81_" d="M187.8,89.9c0.6,0.7,1.1,1.5,1.6,2.3c0.3-0.2,0.7-0.4,0.8-0.6c0.4-1.1,1.3-1.8,2.2-2.5
			c2-1.6,4.1-3.2,6.1-4.8c0.9-0.7,1.7-1.4,2.6-2.1c1.9-1.7,3.9-3.4,4.8-5.9c0.1-0.3,0.4-0.5,0.5-0.6c0-2-0.2-3.8-0.6-5.7
			c-0.4-1.8-1.1-3.4-2.3-4.6c-1-1-2.1-2-3.2-3c-0.8-0.6-1.7-1.1-2.5-1.6c-1.8-1.1-3.1-2.6-4.6-4.2c-1.3-1.4-2.4-2.7-2.1-4.9
			c0-0.3-0.2-1.1-1-0.8c-0.3,0.7-0.4,1.6-0.8,2.2c-1.3,1.8-2.6,3.8-4.6,5c-1.2,0.8-2,2.2-3.5,2.5c-0.3,0.5-3.4,3.4-4,3.8
			c-3,1.9-4.5,5.5-3.9,9.1c0.5,3,1.6,5.7,3.4,8c1,1.2,2,2.7,3.7,3.3c0.8,0.3,1.7,0.9,2.2,1.6c0.7,0.9,2,0.6,2.5,1.6
			c0.1,0.3,0.9,0,0.8,0.7C186.5,89,187.2,89.3,187.8,89.9"/>
	</defs>
	<clipPath id="SVGID_82_">
		<use xlink:href="#SVGID_81_"  style="overflow:visible;"/>
	</clipPath>
	<g class="st40">
		<defs>
			<rect id="SVGID_83_" x="-72" y="-1818" width="1024" height="2278"/>
		</defs>
		<clipPath id="SVGID_84_">
			<use xlink:href="#SVGID_83_"  style="overflow:visible;"/>
		</clipPath>
		<rect x="167.9" y="45.8" class="st41" width="43.3" height="51.4"/>
	</g>
</g>
<g>
	<defs>
		<rect id="SVGID_85_" x="170.1" y="49.6" width="36.7" height="44.2"/>
	</defs>
	<clipPath id="SVGID_86_">
		<use xlink:href="#SVGID_85_"  style="overflow:visible;"/>
	</clipPath>
	<g class="st42">
		<defs>
			<rect id="SVGID_87_" x="-72" y="-1818" width="1024" height="2278"/>
		</defs>
		<clipPath id="SVGID_88_">
			<use xlink:href="#SVGID_87_"  style="overflow:visible;"/>
		</clipPath>
		<g class="st43">
			<g>
				<defs>
					<rect id="SVGID_89_" x="169" y="48" width="39" height="46"/>
				</defs>
				<clipPath id="SVGID_90_">
					<use xlink:href="#SVGID_89_"  style="overflow:visible;"/>
				</clipPath>
				<g class="st44">
					<defs>
						<path id="SVGID_91_" d="M191,51.1c-1.2-1.7-3.2-2.1-4.8-0.7c-1.2,1.1-1.7,3-2.7,4.3c-1.2,1.7-2.5,3.2-4,4.7
							c-3.9,4-8.6,7.7-9.4,13.5c-0.7,4.9,2.5,8.1,6.3,11c2.3,1.7,4.7,3.2,7,4.8c1.5,1,4.2,2.6,4.4,4.5c0,0.4,0.7,0.7,1,0.4
							c5.4-5.4,16.8-9.1,17.9-17.7c0.6-4.3-1.5-8.3-4.3-11.4c-4-4.4-8.4-8-11.3-13.4c-0.4-0.7-1.5-0.2-1.1,0.5
							c2.2,4.3,5.4,7.6,8.9,11c3.5,3.4,7.1,7.3,6.7,12.6c-0.3,4.5-4.7,7.8-8,10.4c-3.1,2.3-6.7,4.3-9.5,7.1c0.3,0.1,0.7,0.2,1,0.4
							c-0.2-2.7-3.9-4.7-5.9-6c-3.6-2.5-8-4.8-10.5-8.5c-3.5-4.9,0.4-10.8,3.9-14.5c1.7-1.7,3.4-3.3,5.1-5c1.1-1.2,2.1-2.4,3-3.6
							c0.6-0.9,3.4-6.6,5.5-3.6C190.5,52.5,191.5,51.7,191,51.1"/>
					</defs>
					<clipPath id="SVGID_92_">
						<use xlink:href="#SVGID_91_"  style="overflow:visible;"/>
					</clipPath>
					<g class="st45">
						<defs>
							<rect id="SVGID_93_" x="170" y="49" width="37" height="45"/>
						</defs>
						<clipPath id="SVGID_94_">
							<use xlink:href="#SVGID_93_"  style="overflow:visible;"/>
						</clipPath>
						<rect x="165.1" y="44.6" class="st46" width="46.7" height="54.2"/>
					</g>
				</g>
			</g>
		</g>
	</g>
</g>
<g>
	<defs>
		<path id="SVGID_95_" d="M187.8,57.8c1.9,2.9,4.1,5.5,6.4,8c2.4,2.6,5.7,5.8,5,9.6c-0.7,4.4-6.8,6.9-10.2,9.1
			c-0.3,0.2-0.7,0.5-1,0.5c0.9-0.1,0.2-0.1-0.3-0.4c-1.5-1.1-3.3-1.9-4.9-3c-2-1.4-4.7-3.3-5.4-5.8c-1-3.9,2.6-7.5,5-10
			c0.5-0.6-0.3-1.4-0.9-0.9c-4.2,4.6-8,10-2.6,15.2c2.1,2,4.7,3.6,7.2,5.1c1,0.5,1.6,1.1,2.6,0.9c2-0.4,4.5-2.6,6.1-3.7
			c2-1.4,4.3-3.2,5.2-5.6c1-2.6-0.2-5.6-1.7-7.8c-2.9-4.1-6.9-7.4-9.6-11.7C188.5,56.5,187.4,57.1,187.8,57.8"/>
	</defs>
	<clipPath id="SVGID_96_">
		<use xlink:href="#SVGID_95_"  style="overflow:visible;"/>
	</clipPath>
	<g class="st47">
		<defs>
			<rect id="SVGID_97_" x="-72" y="-1818" width="1024" height="2278"/>
		</defs>
		<clipPath id="SVGID_98_">
			<use xlink:href="#SVGID_97_"  style="overflow:visible;"/>
		</clipPath>
		<rect x="171.4" y="51.9" class="st48" width="34.3" height="39.2"/>
	</g>
</g>
<g>
	<defs>
		<path id="SVGID_99_" d="M188.7,80.6c-1.8-1.3-5.5-3.3-6-5.5c-0.3-1.4,0.8-2.7,1.5-3.7c1.5-2,3.1-3.8,4.6-5.8c-0.3,0-0.6,0-1,0
			c1.5,2,3.2,3.8,4.6,5.8c0.8,1.1,1.9,2.4,1.4,3.9c-0.7,2.1-4.2,4.1-6,5.3c-0.6,0.5,0.2,1.4,0.8,0.9c2.1-1.4,6-3.7,6.5-6.3
			c0.2-1.2-0.4-2.4-1-3.4c-1.6-2.5-3.7-4.6-5.5-7c-0.2-0.3-0.7-0.2-1,0c-1.8,2.4-4.2,4.6-5.7,7.3c-0.5,0.9-1,2-0.7,3.1
			c0.6,2.6,4.5,4.9,6.6,6.3C188.7,82,189.4,81,188.7,80.6"/>
	</defs>
	<clipPath id="SVGID_100_">
		<use xlink:href="#SVGID_99_"  style="overflow:visible;"/>
	</clipPath>
	<g class="st49">
		<defs>
			<rect id="SVGID_101_" x="-72" y="-1818" width="1024" height="2278"/>
		</defs>
		<clipPath id="SVGID_102_">
			<use xlink:href="#SVGID_101_"  style="overflow:visible;"/>
		</clipPath>
		<rect x="176.4" y="59.6" class="st50" width="24" height="27.1"/>
	</g>
</g>
<g>
	<defs>
		<path id="SVGID_103_" d="M192.5,45.3c2.7-1.4,8.1-4.6,7.8-8.2c-0.1-1.3-1.1-2.4-2.4-2.7c-0.7-0.2-1.3,0-2,0.2
			c-0.5,0.1-1,0.5-1.5,0.6c-1,0.2,0,0.2,0.3-0.1c1.4-1.9,7.6-9.8,1.3-10.3c-1.4-0.1-2.4,0.8-3.4,1.7c-0.1,0.1-1.8,1.5-1.8,1.5
			c0.5,0.5,1.3-2.3,1.4-2.6c0.7-2.8,1.2-7.3-2.3-8.5c-3.4-1.1-5.5,1.6-5.6,4.7c-0.1,1.7,0.2,4,1,5.5c0.4,0.7,1.1,1.2,0.3,0.5
			c-0.8-0.7-1.6-1.4-2.4-2c-3.3-2.1-5.7,1.2-4.5,4.2c0.6,1.5,1.6,2.9,2.6,4.2c0.1,0.2,1.2,1.8,1.6,1.4c-0.1,0.1-1.2-0.5-1.5-0.6
			c-1.7-0.6-3.5-0.6-4.5,1.3c-1.9,3.8,4.8,7.8,7.4,9.2c0.7,0.4,1.4-0.6,0.7-1c-2.2-1.1-6.3-3.4-7-5.9c0.6-2.2,1.6-3.1,2.9-2.4
			l0.5,0.2c0.4,0.1,0.8,0.5,1.2,0.5c0.6,0,0.9-0.1,1.2-0.6c0.3-0.7-0.4-1.1-0.7-1.6c-0.9-1.2-1.8-2.1-2.6-3.4
			c-0.2-0.3-0.3-0.6-0.5-0.8c-1-1.5-0.3-2.7,2.1-3.8c1.6,0.4,2.3,2.8,4.2,2.7c0.2,0,0.4-0.2,0.5-0.4c0.4-1.3-0.8-2.9-1.1-4.2
			c-0.5-2.2-0.8-6,2.2-6.5c3.5-0.6,3.7,3.3,3.4,5.7c-0.2,1.3-1.6,3.6-1.2,4.9c0.1,0.3,0.3,0.5,0.5,0.5c0.9,0.1,0.9-0.1,1.5-0.6
			c0.5-0.3,2.1-2.2,2.6-2.2c0.8,1,1.6,2,2.4,3c-0.4,0.8-0.8,1.6-1.3,2.4c-0.5,0.8-1,1.5-1.6,2.1c-0.3,0.3-1.6,1.3-1.2,2.1
			c0.8,1.6,2.3-0.2,3.4-0.2c2.3,1.3,2.8,2.6,1.6,3.8c-0.4,0.5-0.8,0.9-1.3,1.3c-0.7,0.6-1.4,1.2-2.1,1.7c-0.9,0.6-1.8,1.2-2.7,1.7
			C191.2,44.6,191.7,45.7,192.5,45.3"/>
	</defs>
	<clipPath id="SVGID_104_">
		<use xlink:href="#SVGID_103_"  style="overflow:visible;"/>
	</clipPath>
	<g class="st51">
		<defs>
			<rect id="SVGID_105_" x="-72" y="-1818" width="1024" height="2278"/>
		</defs>
		<clipPath id="SVGID_106_">
			<use xlink:href="#SVGID_105_"  style="overflow:visible;"/>
		</clipPath>
		<rect x="171.5" y="11.7" class="st52" width="33.9" height="38.7"/>
	</g>
</g>
<g>
	<defs>
		<rect id="SVGID_107_" x="176.4" y="16.7" width="23.9" height="28.7"/>
	</defs>
	<clipPath id="SVGID_108_">
		<use xlink:href="#SVGID_107_"  style="overflow:visible;"/>
	</clipPath>
	<g class="st53">
		<defs>
			<rect id="SVGID_109_" x="-72" y="-1818" width="1024" height="2278"/>
		</defs>
		<clipPath id="SVGID_110_">
			<use xlink:href="#SVGID_109_"  style="overflow:visible;"/>
		</clipPath>
		<g class="st54">
			<g>
				<defs>
					<rect id="SVGID_111_" x="174" y="15" width="27" height="31"/>
				</defs>
				<clipPath id="SVGID_112_">
					<use xlink:href="#SVGID_111_"  style="overflow:visible;"/>
				</clipPath>
				<g class="st55">
					<defs>
						<path id="SVGID_113_" d="M192.5,45.3c2.7-1.4,8.2-4.7,7.8-8.2c-0.1-1.3-1.2-2.4-2.5-2.7c-0.9-0.2-1.7,0.1-2.5,0.4
							c-0.1,0.1-1.1,0.5-1.2,0.5c0.4,0.4,1.7-1.5,1.8-1.7c1.2-1.5,3-3.9,2.8-5.9c-0.2-1.8-1.8-3.1-3.6-2.8c-1.3,0.2-2.3,1.4-3.3,2.2
							c-0.3,0.3-0.6,0.5-0.9,0.8c-0.5,0.4,0.3,0.1,0.5-0.3c0.4-0.9,0.7-1.8,0.9-2.8c0.6-2.7,0.8-6.8-2.5-7.8
							c-3.7-1.1-5.7,2.1-5.6,5.3c0.1,1.6,0.3,3.8,1.2,5.2c0.5,0.8,0.7,0.8,0,0c-0.6-0.7-1.5-1.4-2.3-1.9c-3.3-2.1-5.7,1.3-4.5,4.3
							c0.6,1.5,1.6,2.9,2.6,4.1c0,0,1.4,1.8,1.5,1.4c0,0-1.4-0.6-1.5-0.6c-1.7-0.6-3.5-0.5-4.4,1.3c-1.8,3.8,4.8,7.8,7.5,9.2
							c0.7,0.4,1.3-0.7,0.6-1.1c-0.8-0.4-1.5-0.9-2.3-1.4c-0.9-0.6-1.7-1.2-2.5-2c-0.3-0.3-0.6-0.5-0.9-0.8
							c-1.7-1.3-1.3-2.8,1.1-4.3c1-0.1,2.8,1.9,3.5,0.2c0.3-0.7-0.4-1.1-0.7-1.5c-0.8-1.2-1.9-2.2-2.6-3.4c-0.2-0.3-0.3-0.6-0.5-0.8
							c-1.4-1.8-0.7-3,2-3.8c1.6,0.4,2.3,2.9,4.1,2.8c0.3,0,0.5-0.2,0.6-0.5c0.4-1.3-0.8-2.9-1.1-4.2c-0.5-2.3-0.8-6.5,2.7-6.5
							c3.3,0,3.2,3.9,2.8,6.2c-0.3,1.4-1.5,3.2-1.1,4.5c0.1,0.3,0.3,0.4,0.6,0.4c1.8,0.1,2.6-2.3,4.1-2.8c2.7,0.8,3.4,2,2,3.8
							c-0.2,0.3-0.3,0.6-0.5,0.8c-0.7,1.3-1.7,2.3-2.6,3.4c-0.3,0.5-1,0.9-0.7,1.5c0.6,1.7,2.5-0.2,3.5-0.2c2.1,1.7,2.4,3.2,1.1,4.3
							c-0.2,0.2-0.4,0.4-0.6,0.6c-0.9,0.8-1.8,1.6-2.8,2.2c-0.7,0.5-1.5,1-2.3,1.4C191.2,44.6,191.8,45.7,192.5,45.3"/>
					</defs>
					<clipPath id="SVGID_114_">
						<use xlink:href="#SVGID_113_"  style="overflow:visible;"/>
					</clipPath>
					<g class="st56">
						<defs>
							<rect id="SVGID_115_" x="176" y="16" width="25" height="30"/>
						</defs>
						<clipPath id="SVGID_116_">
							<use xlink:href="#SVGID_115_"  style="overflow:visible;"/>
						</clipPath>
						<rect x="171.4" y="11.7" class="st57" width="33.9" height="38.7"/>
					</g>
				</g>
			</g>
		</g>
	</g>
</g>
<g>
	<defs>
		<path id="SVGID_117_" d="M196.7,48.8c2.7,1.1,12.7,4.2,12.3-1.6c-0.1-1-0.7-1.8-1.5-2.4c-0.3-0.2-0.8-0.5-1.2-0.6
			c-1.2-0.6-0.7-0.3,0.4-0.1c2.3,0.4,7.2-0.1,8.4-2.5c0.9-1.7-0.1-3.6-1.9-4.3c-0.9-0.3-2-0.4-2.9-0.6c-0.3,0-0.6-0.1-0.9-0.2
			c-0.4-0.1-0.1,0.1-0.1,0.1c0.2-0.1,1.3-0.2,1.7-0.3c2.3-0.9,5.2-2.4,6.2-4.8c0.8-2.1-0.5-4.6-2.6-5.3c-2.7-0.9-5.3,1.5-6.8,3.3
			c-0.5,0.6-1.3,1.5-1.5,2.2c-0.2,0.5-0.2,1.6-0.1,0.7c0.1-1.2,0-2.5,0.1-3.7c0-0.8-1.2-0.9-1.2-0.2c0,1.4-0.6,3.9,0.4,5
			c0.2,0.2,0.5,0.3,0.7,0.2c1.2-0.5,1.5-2,2.2-3c1.5-2,5.7-6,7.5-1.8c1.1,2.7-2,4.6-4.1,5.6c-1.1,0.5-2.9,0.6-3.6,1.6
			c-0.2,0.2-0.2,0.5,0,0.7c1.1,1.5,3.4,0.5,4.8,1.4c1.1,2.5,0.6,3.9-1.7,3.9c-0.3,0.1-0.6,0.1-1,0.2c-1.4,0.2-2.9,0.1-4.3,0.2
			c-0.6,0-1.3-0.2-1.7,0.4c-0.9,1.4,1.6,1.9,2.3,2.6c2.9,2.8-0.9,3.7-2.9,3.6c-1.3-0.1-2.6-0.4-3.9-0.7c-1-0.3-1.9-0.6-2.8-1
			C196.4,47.4,196,48.5,196.7,48.8"/>
	</defs>
	<clipPath id="SVGID_118_">
		<use xlink:href="#SVGID_117_"  style="overflow:visible;"/>
	</clipPath>
	<g class="st58">
		<defs>
			<rect id="SVGID_119_" x="-72" y="-1818" width="1024" height="2278"/>
		</defs>
		<clipPath id="SVGID_120_">
			<use xlink:href="#SVGID_119_"  style="overflow:visible;"/>
		</clipPath>
		<rect x="191.3" y="21.1" class="st59" width="31.2" height="34.6"/>
	</g>
</g>
<g>
	<defs>
		<path id="SVGID_121_" d="M189,49.5v-9.4c0-0.8-1.2-0.8-1.2,0v9.4C187.8,50.3,189,50.3,189,49.5"/>
	</defs>
	<clipPath id="SVGID_122_">
		<use xlink:href="#SVGID_121_"  style="overflow:visible;"/>
	</clipPath>
	<g class="st60">
		<defs>
			<rect id="SVGID_123_" x="-72" y="-1818" width="1024" height="2278"/>
		</defs>
		<clipPath id="SVGID_124_">
			<use xlink:href="#SVGID_123_"  style="overflow:visible;"/>
		</clipPath>
		<rect x="182.8" y="34.5" class="st61" width="11.2" height="20.6"/>
	</g>
</g>
<g>
	<defs>
		<path id="SVGID_125_" d="M179.6,47.7c-1.1,0.5-2.2,0.8-3.4,1.1c-0.9,0.2-1.9,0.4-2.9,0.5c-2,0.2-6.2-0.8-3.2-3.5
			c0.8-0.7,3.1-1,2.2-2.6c-0.4-0.7-1.9-0.3-2.3-0.3c-1.2,0-2.5,0-3.7-0.2c-1.7-0.3-6.2-1.7-2.6-4.1c1.4-0.9,3.7,0.1,4.8-1.4
			c0.2-0.2,0.1-0.5,0-0.7c-0.7-1-2.2-1-3.3-1.5c-2.2-1-6.3-3.4-4.1-6.2c2.2-3,5.4-0.1,7.1,2c0.8,1,1.2,2.8,2.5,3.3
			c0.2,0.1,0.5,0,0.6-0.1c1.1-1.2,0.5-3.5,0.5-5c0-0.8-1.2-0.9-1.2-0.1c0,1,0,2,0,3c0.1,2,0,0.4-0.6-0.7c-1.4-2.1-3.7-4.8-6.4-4.9
			c-2.2-0.1-4.3,2-4.3,4.2c0,2.4,2.4,4.1,4.3,5.1c1.2,0.7,2.4,1,3.7,1.5c0.2,0.1,0.5-0.2-0.3-0.2c-0.7,0-1.5,0.3-2.2,0.4
			c-1.8,0.3-3.4,1.1-3.4,3.1c0,3,3.6,3.5,5.9,3.7c1.2,0.1,2.3,0.1,3.5,0.1c0.4,0,0.9-0.6,0.2-0.1c-0.9,0.7-2,0.9-2.7,1.9
			c-1.2,1.9,0.1,4.2,2.1,4.6c3.1,0.7,6.9-0.5,9.7-1.7C180.8,48.5,180.3,47.4,179.6,47.7"/>
	</defs>
	<clipPath id="SVGID_126_">
		<use xlink:href="#SVGID_125_"  style="overflow:visible;"/>
	</clipPath>
	<g class="st62">
		<defs>
			<rect id="SVGID_127_" x="-72" y="-1818" width="1024" height="2278"/>
		</defs>
		<clipPath id="SVGID_128_">
			<use xlink:href="#SVGID_127_"  style="overflow:visible;"/>
		</clipPath>
		<rect x="154.2" y="21.1" class="st63" width="31.3" height="34.6"/>
	</g>
</g>
<g>
	<g>
		<path d="M187.5,1c29.8,0,54,24.2,54,54s-24.2,54-54,54s-54-24.2-54-54S157.7,1,187.5,1 M187.5,0c-30.4,0-55,24.6-55,55
			s24.6,55,55,55s55-24.6,55-55S217.9,0,187.5,0L187.5,0z"/>
	</g>
</g>
<g>
	<defs>
		<path id="SVGID_129_" d="M323.6,38c0,0,4.3-2.2,6.1-5.2c1-1.7-0.8-3.6-2.6-2.9l-1.8,0.7c-0.4,0.1-0.6-0.3-0.4-0.6
			c1.2-1.2,3-3.3,3.7-5.6c0.6-1.8-1.4-3.3-3.1-2.4l-2.8,2.3c-0.3,0.2-0.7-0.1-0.5-0.4c1.3-2.4,2.8-9-1.8-9c-4.5,0-3,6.6-1.8,9
			c0.1,0.3-0.3,0.5-0.5,0.4l-2.8-2.3c-1.6-1-3.7,0.6-3.1,2.4c0.7,2.3,2.5,4.4,3.7,5.6c0.3,0.3,0,0.7-0.4,0.6l-1.8-0.7
			c-1.8-0.7-3.6,1.2-2.6,2.9c1.7,3,6.1,5.2,6.1,5.2l4.2,2L323.6,38z"/>
	</defs>
	<clipPath id="SVGID_130_">
		<use xlink:href="#SVGID_129_"  style="overflow:visible;"/>
	</clipPath>
	<g class="st64">
		<defs>
			<rect id="SVGID_131_" x="-72" y="-1818" width="1024" height="2278"/>
		</defs>
		<clipPath id="SVGID_132_">
			<use xlink:href="#SVGID_131_"  style="overflow:visible;"/>
		</clipPath>
		<rect x="305.8" y="10" class="st65" width="29.1" height="35.1"/>
	</g>
</g>
<g>
	<defs>
		<path id="SVGID_133_" d="M314.1,33.8c0,0,0.9-4.7-0.5-7.9c-0.8-1.8-3.4-1.6-3.9,0.3l-0.6,1.9c-0.1,0.4-0.6,0.3-0.7,0
			c-0.3-1.7-0.9-4.3-2.3-6.3c-1.1-1.5-3.6-0.9-3.8,1l0.1,3.5c0,0.3-0.5,0.5-0.6,0.2c-1.1-2.5-5.6-7.6-8.3-4.1
			c-2.8,3.5,3.5,6.4,6.2,6.9c0.3,0.1,0.3,0.5,0,0.6l-3.5,0.8c-1.8,0.7-1.8,3.2,0,3.8c2.3,0.8,5.1,0.7,6.8,0.6c0.4,0,0.5,0.4,0.2,0.6
			l-1.7,1c-1.7,1-1.2,3.5,0.8,3.8c3.4,0.5,7.9-1.6,7.9-1.6l4.2-2.1L314.1,33.8z"/>
	</defs>
	<clipPath id="SVGID_134_">
		<use xlink:href="#SVGID_133_"  style="overflow:visible;"/>
	</clipPath>
	<g class="st66">
		<defs>
			<rect id="SVGID_135_" x="-72" y="-1818" width="1024" height="2278"/>
		</defs>
		<clipPath id="SVGID_136_">
			<use xlink:href="#SVGID_135_"  style="overflow:visible;"/>
		</clipPath>
		<rect x="287.9" y="15.8" class="st67" width="31.5" height="29.6"/>
	</g>
</g>
<g>
	<defs>
		<path id="SVGID_137_" d="M327.4,41.6c0,0,4.7,1.5,8,0.6c1.9-0.5,2-3.1,0.3-3.9l-1.8-0.8c-0.3-0.1-0.2-0.7,0.1-0.7
			c1.7,0,4.5-0.3,6.7-1.4c1.7-0.9,1.4-3.4-0.5-3.8l-3.6-0.3c-0.3-0.1-0.4-0.5-0.1-0.6c2.6-0.8,8.4-4.4,5.2-7.6
			c-3.2-3.1-6.9,2.6-7.7,5.1c-0.1,0.3-0.6,0.2-0.6-0.1l-0.3-3.5c-0.5-1.8-3-2.1-3.9-0.5c-1.1,2.1-1.4,4.8-1.4,6.6
			c0,0.4-0.5,0.5-0.7,0.1l-0.8-1.8c-0.8-1.8-3.4-1.6-3.9,0.2c-0.9,3.3,0.6,7.9,0.6,7.9l-0.9,4.4L327.4,41.6z"/>
	</defs>
	<clipPath id="SVGID_138_">
		<use xlink:href="#SVGID_137_"  style="overflow:visible;"/>
	</clipPath>
	<g class="st68">
		<defs>
			<rect id="SVGID_139_" x="-72" y="-1818" width="1024" height="2278"/>
		</defs>
		<clipPath id="SVGID_140_">
			<use xlink:href="#SVGID_139_"  style="overflow:visible;"/>
		</clipPath>
		<rect x="317" y="17.2" class="st69" width="30.6" height="30.3"/>
	</g>
</g>
<g>
	<defs>
		<path id="SVGID_141_" d="M318.8,74.3c0.5,0.6,0.9,1.3,1.3,1.9c0.3-0.2,0.6-0.3,0.6-0.5c0.4-0.9,1.1-1.5,1.8-2.1
			c1.7-1.4,3.4-2.7,5.1-4c0.7-0.6,1.5-1.2,2.2-1.8c1.6-1.4,3.3-2.8,4-5c0.1-0.2,0.3-0.4,0.4-0.5c0-1.7-0.2-3.2-0.5-4.8
			c-0.3-1.5-0.9-2.8-2-3.9c-0.9-0.9-1.8-1.7-2.7-2.5c-0.6-0.5-1.4-0.9-2.1-1.4c-1.5-0.9-2.6-2.2-3.8-3.5c-1.1-1.2-2-2.3-1.8-4.1
			c0-0.3-0.1-0.9-0.8-0.7c-0.2,0.6-0.3,1.3-0.7,1.9c-1.1,1.5-2.2,3.2-3.9,4.2c-1,0.7-1.7,1.9-3,2.1c-0.3,0.4-2.8,2.9-3.4,3.2
			c-2.5,1.6-3.8,4.6-3.3,7.7c0.4,2.5,1.3,4.8,2.8,6.7c0.8,1,1.7,2.2,3.1,2.7c0.7,0.3,1.4,0.8,1.9,1.4c0.6,0.8,1.7,0.5,2.1,1.4
			c0.1,0.2,0.8,0,0.7,0.6C317.7,73.4,318.4,73.7,318.8,74.3"/>
	</defs>
	<clipPath id="SVGID_142_">
		<use xlink:href="#SVGID_141_"  style="overflow:visible;"/>
	</clipPath>
	<g class="st70">
		<defs>
			<rect id="SVGID_143_" x="-72" y="-1818" width="1024" height="2278"/>
		</defs>
		<clipPath id="SVGID_144_">
			<use xlink:href="#SVGID_143_"  style="overflow:visible;"/>
		</clipPath>
		<rect x="301.3" y="36.4" class="st71" width="38.1" height="44.8"/>
	</g>
</g>
<g>
	<defs>
		<path id="SVGID_145_" d="M321.6,41.6c-0.8-1.1-2.1-1.7-3.4-1c-1.1,0.6-1.6,2.1-2.2,3.1c-0.9,1.4-1.9,2.6-2.9,3.8
			c-3.3,3.6-7.9,6.7-8.9,11.8c-0.9,4.3,1.5,7,4.7,9.6c1.8,1.4,3.8,2.7,5.8,4c1.4,1,4.1,2.4,4.3,4.2c0,0.4,0.6,0.6,0.8,0.3
			c4.6-4.5,14-7.6,15.1-14.7c0.5-3.5-1.1-6.9-3.4-9.5c-3.4-3.9-7.3-6.8-9.7-11.5c-0.3-0.6-1.3-0.2-0.9,0.4c1.9,3.6,4.6,6.5,7.6,9.3
			c2.9,2.8,5.6,5.9,5.5,10.1c-0.2,7.2-10.3,10.6-14.8,15c0.3,0.1,0.6,0.2,0.8,0.3c-0.2-2.1-2.8-3.6-4.4-4.7c-3.2-2.2-7-4.2-9.3-7.3
			c-3.2-4.3,0.2-9.4,3.4-12.6c1.4-1.4,2.9-2.8,4.3-4.2c0.7-0.8,5.3-8.1,6.9-5.8C321.2,42.8,322,42.1,321.6,41.6"/>
	</defs>
	<clipPath id="SVGID_146_">
		<use xlink:href="#SVGID_145_"  style="overflow:visible;"/>
	</clipPath>
	<g class="st72">
		<defs>
			<rect id="SVGID_147_" x="-72" y="-1818" width="1024" height="2278"/>
		</defs>
		<clipPath id="SVGID_148_">
			<use xlink:href="#SVGID_147_"  style="overflow:visible;"/>
		</clipPath>
		<rect x="298.9" y="35.3" class="st73" width="40.9" height="47.2"/>
	</g>
</g>
<g>
	<defs>
		<path id="SVGID_149_" d="M318.9,47.2c1.4,2.2,3.1,4.2,4.9,6.1c2,2.2,4.6,4.5,4.8,7.6c0.3,4.3-5.3,6.6-8.4,8.6
			c-0.2,0.2-0.7,0.4-1,0.5c0.4-0.1,0.4,0.1-0.2-0.2c-1.4-0.8-2.7-1.5-4-2.4c-1.7-1.1-3.8-2.6-4.6-4.5c-1.5-3.4,1.8-6.7,4-9
			c0.4-0.5-0.3-1.2-0.7-0.7c-3.6,3.9-6.7,8.4-2.2,12.8c1.7,1.7,3.9,3,6,4.2c0.9,0.5,1.4,0.9,2.3,0.8c1.6-0.2,4-2.3,5.3-3.2
			c1.6-1.2,3.5-2.6,4.3-4.5c1-2.3-0.1-5-1.5-6.9c-2.5-3.4-5.7-6.1-8-9.7C319.4,46.2,318.5,46.7,318.9,47.2"/>
	</defs>
	<clipPath id="SVGID_150_">
		<use xlink:href="#SVGID_149_"  style="overflow:visible;"/>
	</clipPath>
	<g class="st74">
		<defs>
			<rect id="SVGID_151_" x="-72" y="-1818" width="1024" height="2278"/>
		</defs>
		<clipPath id="SVGID_152_">
			<use xlink:href="#SVGID_151_"  style="overflow:visible;"/>
		</clipPath>
		<rect x="304.2" y="41.5" class="st75" width="30.5" height="34.5"/>
	</g>
</g>
<g>
	<defs>
		<path id="SVGID_153_" d="M319.6,66.4c-1.5-1.1-4-2.5-4.8-4.1c-1.3-2.6,3.6-6.7,5-8.5c-0.3,0-0.5,0-0.8,0c1.4,1.9,6.3,5.9,4.8,8.6
			c-0.9,1.6-3.3,3-4.8,4c-0.5,0.4,0.1,1.2,0.7,0.8c1.7-1.2,4.9-3,5.5-5.1c0.2-0.9-0.1-1.9-0.6-2.7c-1.3-2.3-3.3-4.2-4.8-6.2
			c-0.2-0.3-0.6-0.2-0.8,0c-1.6,2.1-3.7,4-4.9,6.3c-0.4,0.8-0.7,1.7-0.5,2.6c0.6,2.1,3.8,3.9,5.5,5.1
			C319.6,67.6,320.2,66.8,319.6,66.4"/>
	</defs>
	<clipPath id="SVGID_154_">
		<use xlink:href="#SVGID_153_"  style="overflow:visible;"/>
	</clipPath>
	<g class="st76">
		<defs>
			<rect id="SVGID_155_" x="-72" y="-1818" width="1024" height="2278"/>
		</defs>
		<clipPath id="SVGID_156_">
			<use xlink:href="#SVGID_155_"  style="overflow:visible;"/>
		</clipPath>
		<rect x="308.5" y="48" class="st77" width="21.8" height="24.3"/>
	</g>
</g>
<g>
	<defs>
		<path id="SVGID_157_" d="M322.8,36.8c2.3-1.2,7.1-4,6.6-7c-0.1-1-0.9-1.8-1.8-2.1c-0.7-0.2-1.3-0.1-1.9,0.1
			c-0.3,0.1-0.7,0.3-1,0.4c-1,0.2-0.1,0.2,0.1-0.1c1.1-1.7,6.2-7.5,1.3-8.5c-1.1-0.2-1.8,0.3-2.7,0.9c-0.2,0.1-1.8,1.7-2,1.6
			c0.6,0.2,1-1.7,1.1-2.1c0.6-2.3,1-6-1.8-7.1c-2.9-1.1-4.8,1.2-4.9,3.9c0,1.4,0.2,3.1,0.8,4.3c0.5,0.9,1,1.2,0.1,0.5
			c-0.6-0.5-1.2-1.2-2-1.6c-2.9-1.6-4.6,1.3-3.6,3.8c0.5,1.1,1.2,2.2,1.9,3.2c0,0,1.2,1.5,1.3,1.3c0.4,0.1,0.3,0.1-0.2-0.1
			c-0.3-0.1-0.7-0.3-1-0.4c-1.3-0.4-2.6-0.2-3.4,1c-2.1,3.2,3.9,6.8,6.2,8c0.6,0.3,1.2-0.5,0.6-0.8c-1.7-0.9-3.4-2.1-4.7-3.5
			c-1.1-1.2-1.4-1.2-0.1-2.6c1.9-1.9,0.6-0.7,2.1-0.7c0.6,0,0.6,0.4,1.3,0.1c0.3-0.1,0.4-0.3,0.4-0.6c-0.1-0.9-0.8-1.4-1.4-2.1
			c-0.5-0.6-1.5-1.6-1.7-2.5c-0.7-0.8-0.5-1.5,0.7-2.1c0.3-1.3,0.8-1.6,1.3-1c1.3,0.3,1.7,2.1,3.2,2c0.2,0,0.3-0.2,0.4-0.3
			c0.7-2.3-3.9-7.9,0.8-9c3.6-0.8,3.2,3.9,2.7,5.9c-0.2,0.9-1.1,2.1-0.8,3c0.1,0.2,0.2,0.4,0.5,0.4c1.5,0.1,2-1.7,3.2-2.1
			c1.8-0.6,2.3,1.8,1.9,3.1c-0.3,0.8-0.9,1.5-1.4,2.2c-0.6,0.8-1.5,1.4-1.6,2.4c0,0.2,0.1,0.5,0.3,0.5c0.4,0.1,0.5,0.1,0.9,0.1
			c0.4,0,0.7-0.4,1.1-0.4c1.7-0.2,2.4,1.8,1.7,3.2c-1,1.6-3.3,2.9-4.9,3.8C321.7,36.2,322.2,37.1,322.8,36.8"/>
	</defs>
	<clipPath id="SVGID_158_">
		<use xlink:href="#SVGID_157_"  style="overflow:visible;"/>
	</clipPath>
	<g class="st78">
		<defs>
			<rect id="SVGID_159_" x="-72" y="-1818" width="1024" height="2278"/>
		</defs>
		<clipPath id="SVGID_160_">
			<use xlink:href="#SVGID_159_"  style="overflow:visible;"/>
		</clipPath>
		<rect x="304.3" y="7.7" class="st79" width="30.1" height="34.2"/>
	</g>
</g>
<g>
	<defs>
		<path id="SVGID_161_" d="M322.8,36.8c2.3-1.2,7.1-4,6.5-7.1c-0.2-1.2-1.3-2.1-2.5-2.1c-0.6,0-1.1,0.2-1.6,0.4
			c-1.7,0.5-0.3,0,0.5-1c1.3-1.7,4.4-7.4-0.2-7.4c-1.2,0-1.9,0.8-2.8,1.6c-0.3,0.3-0.7,0.6-1,0.9c-0.8,0.5,0.1,0,0.1,0.1
			c0-0.7,0.7-1.8,0.8-2.4c0.6-2.4,0.8-6-2.2-6.8c-3.2-0.9-4.7,1.9-4.6,4.6c0.1,1.6,0.6,3,1.1,4.6c0.1,0.2,0.1,0.2,0.4,0.2
			c-0.2,0-0.7-0.6-0.8-0.7c-0.5-0.5-1.2-1.2-1.8-1.5c-3-1.6-4.5,1.4-3.6,3.8c0.5,1.1,1.2,2.2,2,3.2c1,1.3,2,1.5,0.2,0.9
			c-1.3-0.4-2.7-0.4-3.6,0.9c-2,3.2,4,6.8,6.2,8c0.6,0.3,1.1-0.6,0.5-0.9c-1.6-0.8-4.1-2.1-4.9-3.8c-0.8-0.6-0.7-1.2,0.3-2
			c0-1.2,0.3-1.6,0.9-1.4c0.3-0.1,0.8,0.4,1.1,0.4c0.6,0.2,0.7,0.3,1.3,0.1c0.2-0.1,0.4-0.3,0.4-0.5c-0.1-0.8-0.4-0.9-0.9-1.6
			c-0.5-0.6-1.5-1.4-1.7-2.3c-0.7-0.8-0.6-1.6,0.4-2.5c0.1-1.6,0.5-2.1,1.1-1.5c1.3,0.3,1.7,2.2,3.2,2.1c0.2,0,0.4-0.2,0.5-0.4
			c0.6-2-4-9,1.4-9c5.4,0.1,0.7,6.9,1.4,9c0.1,0.2,0.3,0.4,0.5,0.4c1.4,0.1,2-1.7,3.2-2.1c1.5-0.5,2.2,2.2,1.7,3.5
			c-0.3,0.9-1.1,1.7-1.7,2.4c-0.6,0.7-1.1,1-1.2,1.9c0,0.2,0.2,0.4,0.4,0.5c0.6,0.2,0.6,0.1,1.1,0c0.4-0.1,0.8-0.4,1.2-0.5
			c1.5-0.1,1.8,2.5,1,3.6c-1,1.5-3.1,2.6-4.7,3.5C321.7,36.2,322.2,37.1,322.8,36.8"/>
	</defs>
	<clipPath id="SVGID_162_">
		<use xlink:href="#SVGID_161_"  style="overflow:visible;"/>
	</clipPath>
	<g class="st80">
		<defs>
			<rect id="SVGID_163_" x="-72" y="-1818" width="1024" height="2278"/>
		</defs>
		<clipPath id="SVGID_164_">
			<use xlink:href="#SVGID_163_"  style="overflow:visible;"/>
		</clipPath>
		<rect x="304.3" y="7.7" class="st81" width="30.1" height="34.1"/>
	</g>
</g>
<g>
	<defs>
		<path id="SVGID_165_" d="M326.4,39.7c2.3,0.9,11.6,3.5,10.3-1.8c-0.2-0.7-0.6-1.2-1.2-1.6c-1-0.8-2.3-0.8-0.4-0.6
			c1.9,0.2,5.7-0.1,6.8-1.9c0.9-1.4,0-3.1-1.4-3.7c-0.7-0.3-1.9-0.4-2.7-0.5c-0.8-0.1-0.6,0.1-0.5,0.1c0.5-0.2,1-0.3,1.5-0.5
			c3-1.2,8.2-5.8,3.1-8.3c-2.1-1-4.3,0.7-5.6,2.2c-0.7,0.8-2.1,2.6-1.8,3.1c-0.4-0.7,0-2.5,0-3.3c0-0.7-1-0.8-1-0.1
			c0,1.2-0.6,3.3,0.3,4.2c0.2,0.2,0.4,0.2,0.6,0.2c0.9-0.4,1.2-1.6,1.8-2.4c1.3-1.8,5.5-5.4,6.4-1.1c0.5,2.3-1.9,3.6-3.9,4.4
			c-0.9,0.4-2,0.4-2.6,1.2c-0.1,0.2-0.1,0.4,0,0.6c0.9,1.2,2.7,0.4,3.8,1.2c3,2-0.3,3.2-1.4,3.4c-0.9,0.2-1.8,0.3-2.7,0.3
			c-1.1,0-2-0.3-2.9,0.3c-0.2,0.1-0.2,0.4-0.2,0.6c0.2,0.4,0.3,0.4,0.5,0.7c0.2,0.2,0.6,0.2,0.8,0.4c0.2,0.1,0.3,0.2,0.5,0.3
			c1.3,0.6,0.7,1.7-1.8,3.2c-1.8,0.4-4.4-0.8-6-1.4C326.1,38.5,325.7,39.5,326.4,39.7"/>
	</defs>
	<clipPath id="SVGID_166_">
		<use xlink:href="#SVGID_165_"  style="overflow:visible;"/>
	</clipPath>
	<g class="st82">
		<defs>
			<rect id="SVGID_167_" x="-72" y="-1818" width="1024" height="2278"/>
		</defs>
		<clipPath id="SVGID_168_">
			<use xlink:href="#SVGID_167_"  style="overflow:visible;"/>
		</clipPath>
		<rect x="321.1" y="15.6" class="st83" width="28" height="30.6"/>
	</g>
</g>
<g>
	<defs>
		<path id="SVGID_169_" d="M319.9,40.3v-7.9c0-0.7-1-0.7-1,0v7.9C318.8,40.9,319.9,40.9,319.9,40.3"/>
	</defs>
	<clipPath id="SVGID_170_">
		<use xlink:href="#SVGID_169_"  style="overflow:visible;"/>
	</clipPath>
	<g class="st84">
		<defs>
			<rect id="SVGID_171_" x="-72" y="-1818" width="1024" height="2278"/>
		</defs>
		<clipPath id="SVGID_172_">
			<use xlink:href="#SVGID_171_"  style="overflow:visible;"/>
		</clipPath>
		<rect x="313.8" y="26.8" class="st85" width="11" height="18.9"/>
	</g>
</g>
<g>
	<defs>
		<path id="SVGID_173_" d="M311.9,38.8c-1.3,0.5-5.5,2.2-6.8,1.4c-0.4-1-0.8-2-1.2-3c0.1-0.1,0.3-0.2,0.4-0.2
			c0.2-0.3,0.7-0.3,0.9-0.5c0.4-0.3,0.4-0.2,0.6-0.8c0.1-0.2,0-0.5-0.2-0.6c-0.8-0.5-1.5-0.3-2.5-0.3c-0.7,0-1.5,0-2.2-0.1
			c-1.5,0.2-2.2-0.4-2.1-1.9c-0.8-1.1-0.8-1.6-0.1-1.7c1-0.8,2.8,0,3.7-1.1c0.1-0.2,0.1-0.4,0-0.6c-0.5-0.7-1.8-0.8-2.6-1.1
			c-2-0.9-4.8-2.4-3.7-4.8c2.6-5.7,6.2,3.2,8,3.9c0.2,0.1,0.4,0,0.5-0.1c0.9-1,0.4-2.9,0.4-4.2c0-0.7-1-0.8-1-0.1c0,0.9,0,1.8,0,2.6
			c0,0.8,0.2,0.6,0.2,0.5c-0.3-0.4-0.6-1-0.9-1.4c-1.2-1.7-3.1-3.9-5.4-3.8c-1.7,0-3.3,1.6-3.4,3.3c-0.1,2,1.7,3.4,3.3,4.3
			c1,0.6,2,1,3.1,1.3c0.4,0.1,1-0.2,0.1,0c-0.6,0.1-1.3,0.2-1.9,0.4c-1.4,0.3-2.7,1-2.7,2.7c0,2.4,3,2.9,4.9,3.1
			c0.8,0.1,1.7,0.2,2.6,0.1c0.5,0,0.8-0.3,0.7-0.2c-0.5,0.6-1.6,0.7-2.1,1.3c-1.3,1.6-0.4,3.7,1.5,4.2c2.6,0.7,5.9-0.4,8.3-1.4
			C313,39.5,312.5,38.5,311.9,38.8"/>
	</defs>
	<clipPath id="SVGID_174_">
		<use xlink:href="#SVGID_173_"  style="overflow:visible;"/>
	</clipPath>
	<g class="st86">
		<defs>
			<rect id="SVGID_175_" x="-72" y="-1818" width="1024" height="2278"/>
		</defs>
		<clipPath id="SVGID_176_">
			<use xlink:href="#SVGID_175_"  style="overflow:visible;"/>
		</clipPath>
		<rect x="289.7" y="15.6" class="st87" width="27.9" height="30.7"/>
	</g>
</g>
<g>
	<defs>
		<path id="SVGID_177_" d="M304.8,48.8c0,0,3-1.5,4.2-3.6c0.7-1.2-0.5-2.5-1.8-2l-1.3,0.5c-0.2,0.1-0.4-0.2-0.3-0.4
			c0.8-0.9,2-2.3,2.6-3.9c0.4-1.2-1-2.3-2.1-1.6l-1.9,1.6c-0.2,0.1-0.5-0.1-0.4-0.3c0.9-1.7,1.9-6.2-1.2-6.2c-3.1,0-2.1,4.6-1.2,6.2
			c0.1,0.2-0.2,0.4-0.4,0.3l-1.9-1.6c-1.1-0.7-2.5,0.4-2.1,1.6c0.5,1.6,1.7,3,2.6,3.9c0.2,0.2,0,0.5-0.3,0.4l-1.3-0.5
			c-1.3-0.5-2.5,0.9-1.8,2c1.2,2.1,4.2,3.6,4.2,3.6l2.9,1.4L304.8,48.8z"/>
	</defs>
	<clipPath id="SVGID_178_">
		<use xlink:href="#SVGID_177_"  style="overflow:visible;"/>
	</clipPath>
	<g class="st88">
		<defs>
			<rect id="SVGID_179_" x="-72" y="-1818" width="1024" height="2278"/>
		</defs>
		<clipPath id="SVGID_180_">
			<use xlink:href="#SVGID_179_"  style="overflow:visible;"/>
		</clipPath>
		<rect x="291" y="27.9" class="st89" width="23.2" height="27.3"/>
	</g>
</g>
<g>
	<defs>
		<rect id="SVGID_181_" x="283.6" y="36.9" width="14.9" height="13.6"/>
	</defs>
	<clipPath id="SVGID_182_">
		<use xlink:href="#SVGID_181_"  style="overflow:visible;"/>
	</clipPath>
	<g class="st90">
		<defs>
			<rect id="SVGID_183_" x="-72" y="-1818" width="1024" height="2278"/>
		</defs>
		<clipPath id="SVGID_184_">
			<use xlink:href="#SVGID_183_"  style="overflow:visible;"/>
		</clipPath>
		<g class="st91">
			<g>
				<defs>
					<rect id="SVGID_185_" x="282" y="35" width="17" height="16"/>
				</defs>
				<clipPath id="SVGID_186_">
					<use xlink:href="#SVGID_185_"  style="overflow:visible;"/>
				</clipPath>
				<g class="st92">
					<defs>
						<path id="SVGID_187_" d="M298.3,45.9c0,0,0.6-3.3-0.3-5.5c-0.5-1.2-2.3-1.1-2.7,0.2l-0.4,1.3c-0.1,0.2-0.4,0.2-0.5,0
							c-0.2-1.2-0.6-3-1.6-4.4c-0.8-1.1-2.5-0.6-2.6,0.7l0.1,2.5c0,0.2-0.3,0.3-0.4,0.1c-0.8-1.7-3.9-5.3-5.8-2.8
							c-1.9,2.4,2.4,4.4,4.3,4.7c0.2,0,0.2,0.4,0,0.4l-2.4,0.5c-1.2,0.5-1.2,2.2,0,2.7c1.6,0.6,3.5,0.5,4.7,0.4
							c0.3,0,0.4,0.3,0.2,0.4l-1.2,0.7c-1.2,0.7-0.8,2.5,0.5,2.6c2.4,0.3,5.4-1.1,5.4-1.1l2.9-1.4L298.3,45.9z"/>
					</defs>
					<clipPath id="SVGID_188_">
						<use xlink:href="#SVGID_187_"  style="overflow:visible;"/>
					</clipPath>
					<g class="st93">
						<defs>
							<rect id="SVGID_189_" x="283" y="36" width="16" height="15"/>
						</defs>
						<clipPath id="SVGID_190_">
							<use xlink:href="#SVGID_189_"  style="overflow:visible;"/>
						</clipPath>
						<rect x="278.6" y="31.9" class="st94" width="24.9" height="23.6"/>
					</g>
				</g>
			</g>
		</g>
	</g>
</g>
<g>
	<defs>
		<path id="SVGID_191_" d="M307.5,51.3c0,0,3.2,1,5.5,0.4c1.3-0.4,1.4-2.1,0.2-2.7l-1.2-0.5c-0.2-0.1-0.2-0.5,0.1-0.5
			c1.2,0,3.1-0.2,4.6-1c1.2-0.6,0.9-2.3-0.3-2.6l-2.5-0.2c-0.2-0.1-0.3-0.4-0.1-0.4c1.8-0.6,5.8-3.1,3.6-5.2
			c-2.2-2.2-4.8,1.8-5.3,3.6c-0.1,0.2-0.4,0.1-0.4-0.1l-0.2-2.4c-0.3-1.3-2.1-1.5-2.7-0.3c-0.8,1.5-1,3.3-1,4.5
			c0,0.3-0.4,0.3-0.5,0.1l-0.5-1.2c-0.5-1.2-2.4-1.1-2.7,0.2c-0.6,2.3,0.4,5.5,0.4,5.5l-0.6,3L307.5,51.3z"/>
	</defs>
	<clipPath id="SVGID_192_">
		<use xlink:href="#SVGID_191_"  style="overflow:visible;"/>
	</clipPath>
	<g class="st95">
		<defs>
			<rect id="SVGID_193_" x="-72" y="-1818" width="1024" height="2278"/>
		</defs>
		<clipPath id="SVGID_194_">
			<use xlink:href="#SVGID_193_"  style="overflow:visible;"/>
		</clipPath>
		<rect x="298.7" y="32.9" class="st96" width="24.3" height="24"/>
	</g>
</g>
<g>
	<defs>
		<path id="SVGID_195_" d="M301.5,73.9c0.3,0.4,0.6,0.9,0.9,1.3c0.2-0.1,0.4-0.2,0.4-0.3c0.3-0.6,0.8-1,1.3-1.4
			c1.2-0.9,2.4-1.9,3.6-2.8c0.5-0.4,1-0.8,1.5-1.2c1.1-1,2.3-2,2.8-3.4c0.1-0.2,0.2-0.3,0.3-0.3c0-1.2-0.1-2.2-0.3-3.3
			c-0.2-1-0.6-2-1.4-2.7c-0.6-0.6-1.2-1.2-1.9-1.7c-0.4-0.4-1-0.6-1.5-0.9c-1-0.6-1.8-1.5-2.7-2.4c-0.8-0.8-1.4-1.6-1.2-2.8
			c0-0.2-0.1-0.6-0.6-0.5c-0.2,0.4-0.2,0.9-0.5,1.3c-0.8,1.1-1.5,2.2-2.7,2.9c-0.7,0.5-1.2,1.3-2.1,1.5c-0.2,0.3-2,2-2.4,2.2
			c-1.7,1.1-2.6,3.2-2.3,5.3c0.3,1.7,0.9,3.3,2,4.6c0.6,0.7,1.2,1.5,2.2,1.9c0.5,0.2,1,0.5,1.3,0.9c0.4,0.5,1.2,0.3,1.5,1
			c0.1,0.2,0.5,0,0.5,0.4C300.8,73.3,301.2,73.5,301.5,73.9"/>
	</defs>
	<clipPath id="SVGID_196_">
		<use xlink:href="#SVGID_195_"  style="overflow:visible;"/>
	</clipPath>
	<g class="st97">
		<defs>
			<rect id="SVGID_197_" x="-72" y="-1818" width="1024" height="2278"/>
		</defs>
		<clipPath id="SVGID_198_">
			<use xlink:href="#SVGID_197_"  style="overflow:visible;"/>
		</clipPath>
		<rect x="287.9" y="46.1" class="st98" width="29.4" height="34"/>
	</g>
</g>
<g>
	<defs>
		<path id="SVGID_199_" d="M303.4,51.3c-2.3-2.7-3.9,1.6-5,3c-2.3,2.8-5.8,5-6.9,8.6c-0.8,2.7,0.1,4.6,2.1,6.4
			c1.3,1.2,2.8,2.1,4.3,3.1c1.1,0.8,3.5,1.9,3.7,3.4c0,0.3,0.4,0.4,0.6,0.2c3.2-3.1,9.7-5.3,10.4-10.2C313.5,59.9,306,56,303.4,51.3
			c-0.2-0.3-0.8,0-0.6,0.4c1.4,2.5,3.2,4.5,5.3,6.5c2.3,2.2,4.8,5.2,3.4,8.6c-1,2.6-4.1,4.4-6.2,5.9c-1,0.7-1.9,1.4-2.9,2.1
			c-0.8,0.6,0.3,0.7-0.5-0.1c-2.8-2.7-8.1-4.6-9.7-8.3c-1.5-3.4,1.8-6.6,4-8.8c0.8-0.8,1.5-1.5,2.3-2.3c0.5-0.5,3.2-5.1,4.4-3.6
			C303.2,52.1,303.7,51.6,303.4,51.3"/>
	</defs>
	<clipPath id="SVGID_200_">
		<use xlink:href="#SVGID_199_"  style="overflow:visible;"/>
	</clipPath>
	<g class="st99">
		<defs>
			<rect id="SVGID_201_" x="-72" y="-1818" width="1024" height="2278"/>
		</defs>
		<clipPath id="SVGID_202_">
			<use xlink:href="#SVGID_201_"  style="overflow:visible;"/>
		</clipPath>
		<rect x="286.2" y="45.4" class="st100" width="31.4" height="35.7"/>
	</g>
</g>
<g>
	<defs>
		<path id="SVGID_203_" d="M301.6,55.2c1.8,2.8,6.4,6,6.6,9.3c0.2,3-3.4,4.9-5.7,6.1c-0.8,0.4-0.4,0.3-0.7,0.2
			c-0.7-0.2-1.6-0.9-2.3-1.3c-1.3-0.8-2.9-1.8-3.6-3.2c-1.4-2.5,1-4.9,2.6-6.6c0.3-0.3-0.2-0.8-0.5-0.5c-2.2,2.4-4.6,5.5-1.9,8.4
			c1.2,1.3,4.3,4.1,6.1,3.9c2-0.2,6-3.6,6.7-5.4c1.6-4.2-4.6-8.5-6.6-11.4C302,54.4,301.3,54.8,301.6,55.2"/>
	</defs>
	<clipPath id="SVGID_204_">
		<use xlink:href="#SVGID_203_"  style="overflow:visible;"/>
	</clipPath>
	<g class="st101">
		<defs>
			<rect id="SVGID_205_" x="-72" y="-1818" width="1024" height="2278"/>
		</defs>
		<clipPath id="SVGID_206_">
			<use xlink:href="#SVGID_205_"  style="overflow:visible;"/>
		</clipPath>
		<rect x="289.8" y="49.7" class="st102" width="24.2" height="27"/>
	</g>
</g>
<g>
	<defs>
		<path id="SVGID_207_" d="M302.1,68.4c-1.1-0.7-2.7-1.7-3.3-2.8c-0.9-1.8,2.5-4.7,3.4-5.9c-0.2,0-0.4,0-0.6,0
			c1,1.3,4.4,4.1,3.3,5.9c-0.6,1.1-2.3,2-3.3,2.8c-0.4,0.3,0.1,0.8,0.5,0.5c1.2-0.8,3.4-2.1,3.8-3.5c0.2-0.6-0.1-1.3-0.4-1.9
			c-0.9-1.6-2.3-2.9-3.4-4.3c-0.1-0.2-0.4-0.1-0.6,0c-1.1,1.4-2.6,2.8-3.4,4.4c-0.3,0.5-0.5,1.2-0.3,1.8c0.4,1.4,2.6,2.7,3.8,3.5
			C302.1,69.3,302.5,68.7,302.1,68.4"/>
	</defs>
	<clipPath id="SVGID_208_">
		<use xlink:href="#SVGID_207_"  style="overflow:visible;"/>
	</clipPath>
	<g class="st103">
		<defs>
			<rect id="SVGID_209_" x="-72" y="-1818" width="1024" height="2278"/>
		</defs>
		<clipPath id="SVGID_210_">
			<use xlink:href="#SVGID_209_"  style="overflow:visible;"/>
		</clipPath>
		<rect x="292.8" y="54.2" class="st104" width="18.1" height="19.9"/>
	</g>
</g>
<g>
	<defs>
		<path id="SVGID_211_" d="M304.3,48c1.5-0.8,4.7-2.6,4.6-4.7c0-0.9-0.7-1.5-1.5-1.7c-0.3-0.1-0.7,0.1-1,0.1c-1,0.1-0.9,0.8-0.6,0.1
			c0.6-1.3,3.9-4.5,1.1-5.6c-0.7-0.3-1.3,0-1.9,0.3c-0.4,0.2-0.8,0.9-1.3,1.1c-0.8,0.3,0,0.2,0,0c0-0.4,0.3-0.9,0.4-1.3
			c0.4-1.6,0.7-4-1.2-4.8c-1.8-0.8-3.2,0.7-3.4,2.3c-0.1,1.2,0.3,2.2,0.5,3.3c0.2,0.6,0.7,0.7,0,0.2c-0.5-0.3-0.8-0.8-1.3-1.1
			c-1.6-0.7-3,0.3-2.7,2c0.1,0.9,0.9,2,1.5,2.7c0.8,1,1.4,0.8,0.2,0.7c-0.9-0.1-1.5-0.3-2.2,0.5c-1.9,2.2,2.5,4.9,4.1,5.7
			c0.4,0.2,0.8-0.4,0.4-0.6c-0.9-0.5-3.5-1.9-3.7-2.9c-0.6-3.6,1.6-1.4,2.7-1.7c0.2-0.1,0.3-0.2,0.3-0.4c0-0.5-0.3-0.6-0.6-1
			c-0.4-0.6-1.6-1.6-1.6-2.3l1.3-2c0.2,0.1,0.3,0.3,0.5,0.4c0.8,0.3,1,1.2,1.9,1.1c0.1,0,0.2-0.1,0.3-0.2c0.4-1.2-1.8-3.6-0.8-4.6
			c1.1,0,2.3,0,3.4,0c0,0.4,0,0.7,0,1.1c0.1,0.6-0.2,1.4-0.4,1.9c-0.2,0.5-0.6,1-0.4,1.6c0,0.1,0.2,0.3,0.3,0.3
			c0.9,0.1,1.1-0.9,1.9-1.2c0.9-0.3,0.1-1.5,0.9,1.1c0.5,1.9,0.3,1.5-0.7,2.9c-0.5,0.7-0.6,0.5-0.7,1.1c0,0.1,0.1,0.3,0.2,0.4
			c0.7,0.2,1-0.4,1.6-0.3c3.4,0.5-0.1,3.3-0.6,3.7c-0.6,0.5-1.2,0.8-1.9,1.2C303.6,47.5,303.9,48.2,304.3,48"/>
	</defs>
	<clipPath id="SVGID_212_">
		<use xlink:href="#SVGID_211_"  style="overflow:visible;"/>
	</clipPath>
	<g class="st105">
		<defs>
			<rect id="SVGID_213_" x="-72" y="-1818" width="1024" height="2278"/>
		</defs>
		<clipPath id="SVGID_214_">
			<use xlink:href="#SVGID_213_"  style="overflow:visible;"/>
		</clipPath>
		<rect x="289.9" y="26.3" class="st106" width="23.9" height="26.7"/>
	</g>
</g>
<g>
	<defs>
		<path id="SVGID_215_" d="M304.3,47.9c1.5-0.8,4.7-2.7,4.5-4.7c-0.1-0.8-0.7-1.5-1.6-1.7c-1.3-0.2-2.6,1.4-0.9-0.5
			c1-1.2,2.9-5-0.2-5c-0.8,0-1.2,0.5-1.8,0.9c-1.6,1.2-0.6,0.6-0.2-0.9c0.4-1.6,0.4-4.1-1.6-4.6c-2-0.6-3.1,1.1-3.2,2.8
			c0,1.2,0.8,2.4,0.7,3.5c0,0.2,0.2,0.1-0.3-0.4c-0.4-0.3-0.8-0.8-1.2-1c-1.9-0.9-3.1,0.8-2.5,2.5c0.3,0.8,0.8,1.6,1.3,2.3
			c0.1,0.1,0.8,0.7,0.8,0.9c0.1,0.5-0.2-0.2-0.7-0.2c-1,0-1.8-0.3-2.4,0.7c-1.2,2.3,2.7,4.6,4.3,5.4c0.4,0.2,0.8-0.4,0.4-0.6
			c-0.3-0.1-0.6-0.3-0.8-0.5c-1.5-1.2-2.5-1.1-2-3.1c0.6-2.4,0.5-0.6,1.9-1c0.1,0,0.3-0.2,0.3-0.3c0-0.2-0.1-0.4-0.1-0.6
			c-0.1-0.7-1.5-1.3-1.6-2c0.3-1,0.5-1.9,0.8-2.9c0.2,0.1,0.3,0.3,0.5,0.4c0.8,0.3,1,1.2,1.9,1.2c0.2,0,0.3-0.1,0.3-0.3
			c0.4-1.3-2.8-6.3,0.9-6.2c1.2,0,1.8,1.6,1.7,2.4c0,0.7-0.1,1.3-0.3,2c-0.2,0.6-0.7,1.2-0.5,1.8c0.1,0.2,0.2,0.2,0.3,0.3
			c0.9,0.1,1.1-0.9,1.9-1.2c0.9-0.3,0.1-1.5,0.9,1.1c0.6,2.2-0.1,1.6-1,3.2c-0.3,0.5-0.3,0.2-0.4,0.8c0,0.2,0.1,0.3,0.3,0.3
			c1.3,0.4,1.3-1.4,1.9,1c0.4,1.8-0.1,1.9-1.7,2.9c-0.4,0.2-0.7,0.4-1.1,0.6C303.5,47.5,303.9,48.2,304.3,47.9"/>
	</defs>
	<clipPath id="SVGID_216_">
		<use xlink:href="#SVGID_215_"  style="overflow:visible;"/>
	</clipPath>
	<g class="st107">
		<defs>
			<rect id="SVGID_217_" x="-72" y="-1818" width="1024" height="2278"/>
		</defs>
		<clipPath id="SVGID_218_">
			<use xlink:href="#SVGID_217_"  style="overflow:visible;"/>
		</clipPath>
		<rect x="289.9" y="26.3" class="st108" width="23.9" height="26.7"/>
	</g>
</g>
<g>
	<defs>
		<path id="SVGID_219_" d="M306.7,50c1.6,0.6,4.7,1.8,6.3,0.7c1.2-0.8,0.9-2.3-0.1-3.1c-0.2-0.1-0.4-0.2-0.6-0.3
			c-0.5-0.3-0.5-0.3,0-0.1c0.4-0.1,1.2,0,1.6,0c1.1-0.1,2.8-0.2,3.5-1.3c0.6-1.1-0.1-2.2-1.1-2.6c-0.4-0.2-0.9-0.2-1.3-0.3
			c-0.2,0-0.4-0.1-0.6-0.1c-0.4-0.1-0.4-0.1,0,0.1c0.8-0.5,1.8-0.6,2.6-1.2c1.5-0.9,2.7-2.6,1.4-4.2c-1.2-1.5-3-0.8-4.3,0.3
			c-0.8,0.7-1.2,1.6-1.8,2.4c0.1,0.4,0.1,0.5,0.1,0.1c0-0.3,0-0.6,0-0.8c0-0.4,0-0.8,0-1.2c0-0.4-0.7-0.5-0.7-0.1
			c0,0.8-0.4,2.3,0.2,2.9c0.1,0.1,0.3,0.2,0.4,0.1c0.8-0.3,4.1-6.4,5.5-3.2c0.5,1.1-0.2,2.4-1,3c-0.5,0.4-1.1,0.6-1.6,0.9
			c-0.6,0.2-1.3,0.2-1.6,0.7c-0.1,0.1-0.1,0.3,0,0.4c0.5,0.7,1.6,0.3,2.3,0.7c0.7,0.4,1.1-0.9-0.3,1.3c-1,1.7-1.3,1.1-3,1.3
			c-0.6,0.1-0.7-0.1-1.2,0.2c-0.1,0.1-0.2,0.3-0.1,0.4c0.5,1.3,1.9,0.2,0.5,2.1c-1.1,1.4-1.8,1-3.4,0.5c-0.4-0.1-0.8-0.3-1.2-0.4
			C306.6,49.2,306.3,49.8,306.7,50"/>
	</defs>
	<clipPath id="SVGID_220_">
		<use xlink:href="#SVGID_219_"  style="overflow:visible;"/>
	</clipPath>
	<g class="st109">
		<defs>
			<rect id="SVGID_221_" x="-72" y="-1818" width="1024" height="2278"/>
		</defs>
		<clipPath id="SVGID_222_">
			<use xlink:href="#SVGID_221_"  style="overflow:visible;"/>
		</clipPath>
		<rect x="301.5" y="31.8" class="st110" width="22.4" height="24.3"/>
	</g>
</g>
<g>
	<defs>
		<path id="SVGID_223_" d="M302.3,50.4v-5.5c0-0.5-0.7-0.5-0.7,0v5.5C301.5,50.8,302.3,50.8,302.3,50.4"/>
	</defs>
	<clipPath id="SVGID_224_">
		<use xlink:href="#SVGID_223_"  style="overflow:visible;"/>
	</clipPath>
	<g class="st111">
		<defs>
			<rect id="SVGID_225_" x="-72" y="-1818" width="1024" height="2278"/>
		</defs>
		<clipPath id="SVGID_226_">
			<use xlink:href="#SVGID_225_"  style="overflow:visible;"/>
		</clipPath>
		<rect x="296.5" y="39.5" class="st112" width="10.7" height="16.2"/>
	</g>
</g>
<g>
	<defs>
		<path id="SVGID_227_" d="M296.8,49.3c-0.6,0.2-1.2,0.4-1.8,0.6c-0.5,0.1-0.9,0.2-1.4,0.3c-1.1,0.5-1.8,0.2-1.8-1
			c-0.8-1.9,0.4-0.9,0.9-2.1c0.1-0.1,0-0.3-0.1-0.4c-0.5-0.3-0.5-0.1-1.2-0.2c-0.6,0-1.8,0.2-2.3-0.1c-0.5-0.8-1-1.6-1.5-2.4
			c0.2,0,0.3-0.1,0.5-0.1c0.7-0.4,1.7,0,2.3-0.7c0.1-0.1,0.1-0.3,0-0.4c-0.3-0.4-0.7-0.4-1.1-0.5c-0.7-0.2-1.3-0.5-1.9-0.9
			c-1.3-0.9-1.3-0.8-0.2-2.3c1.1-1.6,1.3-1.5,2.6-0.1c0.4,0.4,0.7,0.9,1,1.3c0.3,0.5,0.3,0.9,0.9,1.1c0.1,0,0.3,0,0.4-0.1
			c0.7-0.7,0.3-2,0.3-2.9c0-0.4-0.7-0.5-0.7-0.1c0,0.6,0,2.2,0.1,2.2c-0.1,0-1.5-2.3-1.8-2.5c-1.3-1.1-3-1.8-4.3-0.3
			c-1.1,1.4-0.3,2.9,0.9,3.8c0.9,0.7,2.2,0.8,3,1.4c0.4-0.1,0.4-0.2,0.1-0.1l-0.8,0.2c-0.4,0.1-0.8,0.1-1.2,0.2
			c-1.2,0.5-1.8,1.9-0.8,3c0.7,0.7,2.2,0.8,3.2,0.9c0.2,0,1.4-0.1,1.6,0c0.5-0.2,0.5-0.2,0,0.1c-0.2,0.1-0.4,0.2-0.6,0.3
			c-1,0.8-1.4,2.2-0.1,3.1c1.6,1.1,4.8-0.1,6.3-0.7C297.5,49.8,297.2,49.2,296.8,49.3"/>
	</defs>
	<clipPath id="SVGID_228_">
		<use xlink:href="#SVGID_227_"  style="overflow:visible;"/>
	</clipPath>
	<g class="st113">
		<defs>
			<rect id="SVGID_229_" x="-72" y="-1818" width="1024" height="2278"/>
		</defs>
		<clipPath id="SVGID_230_">
			<use xlink:href="#SVGID_229_"  style="overflow:visible;"/>
		</clipPath>
		<rect x="279.9" y="31.8" class="st114" width="22.4" height="24.3"/>
	</g>
</g>
<g>
	<defs>
		<path id="SVGID_231_" d="M344.1,50.6c0,0,3.4-0.3,5.3-1.7c1.1-0.8,0.5-2.5-0.9-2.5l-1.4,0c-0.3,0-0.3-0.4-0.1-0.5
			c1.1-0.5,2.8-1.4,3.9-2.6c0.9-1,0-2.5-1.3-2.3l-2.4,0.7c-0.2,0-0.4-0.2-0.2-0.4c1.5-1.2,4.2-5,1.3-6.2c-2.9-1.2-3.7,3.4-3.5,5.3
			c0,0.2-0.3,0.3-0.4,0.1l-1.2-2.2c-0.8-1-2.5-0.6-2.6,0.7c-0.1,1.7,0.4,3.5,0.8,4.6c0.1,0.2-0.2,0.4-0.4,0.3l-1-0.9
			c-1-0.9-2.6-0.1-2.4,1.2c0.3,2.3,2.5,4.9,2.5,4.9l2.2,2.4L344.1,50.6z"/>
	</defs>
	<clipPath id="SVGID_232_">
		<use xlink:href="#SVGID_231_"  style="overflow:visible;"/>
	</clipPath>
	<g class="st115">
		<defs>
			<rect id="SVGID_233_" x="-72" y="-1818" width="1024" height="2278"/>
		</defs>
		<clipPath id="SVGID_234_">
			<use xlink:href="#SVGID_233_"  style="overflow:visible;"/>
		</clipPath>
		<rect x="332.5" y="29.8" class="st116" width="23.7" height="26.5"/>
	</g>
</g>
<g>
	<defs>
		<path id="SVGID_235_" d="M339.2,45.4c0,0,1.8-2.8,1.8-5.2c0-1.3-1.7-1.9-2.6-0.9l-0.9,1c-0.2,0.2-0.5,0-0.4-0.2
			c0.3-1.2,0.6-3,0.2-4.6c-0.3-1.3-2-1.5-2.7-0.4l-0.9,2.3c-0.1,0.2-0.4,0.2-0.4,0c-0.1-1.9-1.5-6.3-4.2-4.8c-2.7,1.5,0.5,5,2.1,6
			c0.2,0.1,0,0.4-0.2,0.4l-2.5-0.4c-1.3,0-2,1.6-1,2.5c1.2,1.1,3,1.8,4.2,2.1c0.3,0.1,0.2,0.4,0,0.5l-1.3,0.2
			c-1.3,0.2-1.7,2-0.5,2.6c2.1,1.2,5.5,1,5.5,1l3.2-0.2L339.2,45.4z"/>
	</defs>
	<clipPath id="SVGID_236_">
		<use xlink:href="#SVGID_235_"  style="overflow:visible;"/>
	</clipPath>
	<g class="st117">
		<defs>
			<rect id="SVGID_237_" x="-72" y="-1818" width="1024" height="2278"/>
		</defs>
		<clipPath id="SVGID_238_">
			<use xlink:href="#SVGID_237_"  style="overflow:visible;"/>
		</clipPath>
		<rect x="322.2" y="27.4" class="st118" width="23.8" height="25.2"/>
	</g>
</g>
<g>
	<defs>
		<path id="SVGID_239_" d="M345.6,53.9c0,0,2.6,2.1,5,2.4c1.3,0.2,2.1-1.4,1.2-2.4l-0.9-1c-0.2-0.2,0-0.5,0.3-0.4
			c1.1,0.4,3,1,4.6,0.8c1.3-0.1,1.8-1.8,0.7-2.6l-2.2-1.1c-0.2-0.1-0.1-0.4,0.1-0.4c1.9,0.2,6.6-0.6,5.4-3.5
			c-1.2-2.8-5.1-0.2-6.3,1.3c-0.1,0.2-0.4,0-0.4-0.2l0.7-2.3c0.2-1.3-1.3-2.2-2.4-1.3c-1.3,1.1-2.2,2.7-2.7,3.8
			c-0.1,0.2-0.5,0.2-0.5-0.1l0-1.3c0-1.3-1.7-1.9-2.6-0.9c-1.5,1.9-1.8,5.2-1.8,5.2l-1.7,2.6L345.6,53.9z"/>
	</defs>
	<clipPath id="SVGID_240_">
		<use xlink:href="#SVGID_239_"  style="overflow:visible;"/>
	</clipPath>
	<g class="st119">
		<defs>
			<rect id="SVGID_241_" x="-72" y="-1818" width="1024" height="2278"/>
		</defs>
		<clipPath id="SVGID_242_">
			<use xlink:href="#SVGID_241_"  style="overflow:visible;"/>
		</clipPath>
		<rect x="337.1" y="37.8" class="st120" width="27.7" height="23.5"/>
	</g>
</g>
<g>
	<defs>
		<path id="SVGID_243_" d="M331.3,72.5c0.1,0.5,0.2,1,0.3,1.6c0.2-0.1,0.4-0.1,0.5-0.2c0.5-0.5,1.1-0.7,1.7-0.9
			c1.5-0.4,2.9-0.8,4.4-1.2c0.6-0.2,1.2-0.4,1.9-0.6c1.4-0.5,2.8-1,3.9-2.1c0.1-0.1,0.3-0.2,0.4-0.2c0.4-1.1,0.8-2.1,1-3.2
			c0.2-1,0.2-2.1-0.2-3c-0.3-0.8-0.7-1.6-1.1-2.3c-0.3-0.5-0.7-1-1-1.4c-0.7-1-1.1-2.1-1.5-3.2c-0.4-1-0.7-2,0-3.1
			c0.1-0.2,0.2-0.6-0.3-0.7c-0.3,0.3-0.6,0.8-1,1c-1.1,0.7-2.3,1.4-3.6,1.7c-0.8,0.2-1.6,0.8-2.5,0.6c-0.3,0.2-2.6,1.1-3,1.2
			c-2,0.4-3.7,1.9-4.2,4c-0.4,1.7-0.5,3.4,0,5c0.3,0.9,0.5,1.9,1.3,2.6c0.4,0.3,0.7,0.9,0.8,1.4c0.1,0.6,0.9,0.8,1,1.4
			c0,0.2,0.5,0.2,0.3,0.6C330.9,71.7,331.2,72,331.3,72.5"/>
	</defs>
	<clipPath id="SVGID_244_">
		<use xlink:href="#SVGID_243_"  style="overflow:visible;"/>
	</clipPath>
	<g class="st121">
		<defs>
			<rect id="SVGID_245_" x="-72" y="-1818" width="1024" height="2278"/>
		</defs>
		<clipPath id="SVGID_246_">
			<use xlink:href="#SVGID_245_"  style="overflow:visible;"/>
		</clipPath>
		<rect x="321.8" y="47" class="st122" width="28.8" height="32.1"/>
	</g>
</g>
<g>
	<defs>
		<path id="SVGID_247_" d="M341.9,52.4c-1-3.4-4.3,0-5.9,0.9c-3,1.6-6.9,2.3-9.3,4.9c-2,2.2-2.1,4.4-0.9,6.9
			c0.7,1.5,1.6,2.8,2.5,4.2c0.8,1.1,2.8,3.4,2.4,4.9c-0.1,0.3,0.2,0.6,0.5,0.4c4.1-1.6,11-1.2,13.6-5.5c1.2-1.9,1.1-4.3,0.5-6.4
			C344.1,59.2,342.2,56.2,341.9,52.4c0-0.5-0.8-0.3-0.7,0.1c0.3,2.9,1.2,5.3,2.3,8c1.2,2.9,2.3,6.6-0.2,9.2c-2,2-5.3,2.6-7.9,3.2
			c-1.1,0.2-2.4,0.3-3.4,0.8c-0.1,0.1-0.7,0.3-0.8,0.3c-0.4-0.2,0.7,0.9,0.2-0.1c-0.6-1-1-2.5-1.7-3.6c-1.4-2.2-3.3-4.4-3.9-7
			c-0.9-3.8,2.9-6.1,6-7.3c1.3-0.5,2.5-1,3.7-1.6c0.9-0.4,5.2-3.4,5.7-1.8C341.3,52.9,342,52.8,341.9,52.4"/>
	</defs>
	<clipPath id="SVGID_248_">
		<use xlink:href="#SVGID_247_"  style="overflow:visible;"/>
	</clipPath>
	<g class="st123">
		<defs>
			<rect id="SVGID_249_" x="-72" y="-1818" width="1024" height="2278"/>
		</defs>
		<clipPath id="SVGID_250_">
			<use xlink:href="#SVGID_249_"  style="overflow:visible;"/>
		</clipPath>
		<rect x="320" y="45.9" class="st124" width="30.6" height="33.8"/>
	</g>
</g>
<g>
	<defs>
		<path id="SVGID_251_" d="M338.7,55.3c0.6,3.2,4.4,9.5,1.9,12.4c-1.4,1.5-5.1,2.2-7.1,2.2c-1.2,0-2.1-1.6-3-3.1
			c-0.9-1.5-1.9-3.3-1-5.1c0.9-1.7,2.9-2.5,4.6-3.3c0.4-0.2,0.1-0.8-0.4-0.6c-3,1.4-6.3,3.3-5,7.1c0.6,1.6,2.4,5.3,4.1,5.8
			c0.9,0.3,3-0.4,3.9-0.6c1.4-0.3,3.3-0.8,4.4-1.9c3.1-3.3-1-9.5-1.7-13C339.3,54.6,338.6,54.8,338.7,55.3"/>
	</defs>
	<clipPath id="SVGID_252_">
		<use xlink:href="#SVGID_251_"  style="overflow:visible;"/>
	</clipPath>
	<g class="st125">
		<defs>
			<rect id="SVGID_253_" x="-72" y="-1818" width="1024" height="2278"/>
		</defs>
		<clipPath id="SVGID_254_">
			<use xlink:href="#SVGID_253_"  style="overflow:visible;"/>
		</clipPath>
		<rect x="323.3" y="49.8" class="st126" width="23.8" height="25.9"/>
	</g>
</g>
<g>
	<defs>
		<path id="SVGID_255_" d="M334,67.7c-0.7-1.1-1.9-2.7-2-4c-0.1-1,0.9-1.5,1.6-2c1.2-0.7,2.6-1.4,3.8-2.1c-0.2-0.1-0.3-0.2-0.5-0.3
			c0.4,1.4,0.8,2.7,1.2,4.1c0.2,0.7,0.5,1.8-0.1,2.5c-0.9,1-3.1,1.2-4.4,1.5c-0.4,0.1-0.3,0.8,0.1,0.7c1.4-0.3,4-0.6,4.9-1.9
			c0.4-0.5,0.4-1.3,0.4-1.9c-0.2-1.7-1-3.5-1.4-5.2c-0.1-0.2-0.3-0.4-0.5-0.3c-1.5,0.9-3.1,1.5-4.5,2.5c-0.6,0.4-1.2,1-1.3,1.7
			c-0.2,1.5,1.3,3.5,2.1,4.8C333.6,68.4,334.2,68.1,334,67.7"/>
	</defs>
	<clipPath id="SVGID_256_">
		<use xlink:href="#SVGID_255_"  style="overflow:visible;"/>
	</clipPath>
	<g class="st127">
		<defs>
			<rect id="SVGID_257_" x="-72" y="-1818" width="1024" height="2278"/>
		</defs>
		<clipPath id="SVGID_258_">
			<use xlink:href="#SVGID_257_"  style="overflow:visible;"/>
		</clipPath>
		<rect x="326.2" y="54" class="st128" width="17.8" height="19.2"/>
	</g>
</g>
<g>
	<defs>
		<path id="SVGID_259_" d="M344,49.6c1.7-0.2,5.9-0.8,6.1-3c0.1-0.7-0.3-1.4-1-1.8c-1.1-0.6-2.6,0.4-0.9-0.6
			c1.3-0.8,4.5-2.7,2.6-4.5c-0.7-0.7-1.4-0.5-2.3-0.3c0,0-1.5,0.5-1.5,0.5c0.2,0.3,1.3-1.3,1.4-1.4c1.1-1.6,2.1-4.2-0.3-5.1
			c-2.1-0.9-3.3,1.2-3.8,2.9c-0.1,0.6-0.2,1.2-0.3,1.8c-0.1,0.7,0.3,0.8,0,0.5c-0.7-0.6-0.6-1.8-1.5-2.3c-1.9-1.1-2.8,1-2.7,2.5
			c0,0.9,0.9,2.4,0.8,3.1c-0.1,0.4-0.2-0.3-0.7-0.6c-0.7-0.4-1.3-0.7-2.1-0.3c-2.5,1.4,0.5,5.4,1.6,6.8c0.3,0.4,0.8-0.1,0.5-0.5
			c-0.5-0.6-0.9-1.2-1.3-1.8c-0.4-0.6-2.3-4.4,0.8-3.7c0.6,0.1,0.7,0.9,1.4,0.9c0.2,0,0.3-0.1,0.4-0.2c0.1-0.2,0-0.4,0.1-0.6
			c0.2-0.7-0.9-1.7-0.7-2.5l1.9-2.4c0.1,0.2,0.2,0.3,0.3,0.5c0.6,0.5,0.4,1.5,1.3,1.8c0.2,0.1,0.3,0,0.4-0.1
			c0.7-0.8-0.3-3.5,0.8-4.1l3.2,1.3c-0.2,0.4-0.4,0.8-0.6,1.2c-0.3,0.5-0.9,0.9-1.2,1.5c-0.3,0.4-0.5,0.3-0.5,0.8
			c0,0.2,0.1,0.3,0.2,0.4c0.8,0.4,1.8-0.8,2.5-0.5c0.6,0.3,0.7,2,0.4,2.5c-0.3,0.6-1.4,0.9-2,1.3c-0.5,0.3-0.9,0.3-1.2,0.8
			c-0.1,0.2-0.1,0.4,0.1,0.5c1.1,0.9,1.7-0.8,1.3,1.6c-0.3,1.8-1.1,1.7-2.7,2.1c-0.4,0.1-0.8,0.1-1.3,0.2
			C343.4,48.9,343.5,49.6,344,49.6"/>
	</defs>
	<clipPath id="SVGID_260_">
		<use xlink:href="#SVGID_259_"  style="overflow:visible;"/>
	</clipPath>
	<g class="st129">
		<defs>
			<rect id="SVGID_261_" x="-72" y="-1818" width="1024" height="2278"/>
		</defs>
		<clipPath id="SVGID_262_">
			<use xlink:href="#SVGID_261_"  style="overflow:visible;"/>
		</clipPath>
		<rect x="331.9" y="28.1" class="st130" width="24.5" height="26.4"/>
	</g>
</g>
<g>
	<defs>
		<path id="SVGID_263_" d="M343.9,49.6c1.8-0.2,5.5-0.7,6.1-2.7c0.2-0.8-0.1-1.6-0.8-2c-0.2-0.2-0.5-0.1-0.8-0.2c-0.1,0-0.2,0-0.3,0
			c-0.6-0.2-0.8,0.2-0.7-0.1c0.1-0.1,2.1-1.1,2.3-1.3c0.4-0.3,1.1-0.8,1.3-1.2c0.4-0.8,0.5-1.6-0.1-2.3c-0.5-0.6-1.1-0.5-1.8-0.5
			c-0.6,0-1.2,0.5-1.8,0.5c-0.4,0,0.4-0.4,0.9-0.9c1.2-1.5,2.4-4,0.3-5.3c-1.9-1.2-3.4,0.4-4,2.1c-0.1,0.2-0.7,3.2-0.3,3.1
			c-0.1,0-1.1-2.2-1.6-2.5c-1.9-1.1-2.8,0.8-2.8,2.4c0,0.5,0.9,3,0.8,3.2c-0.2,0.3,0.2,0.1-0.3-0.2c-0.2-0.1-0.2-0.3-0.4-0.4
			c-0.8-0.5-1.8-0.6-2.5,0.1c-1.7,1.7,1,5.2,2.1,6.5c0.3,0.4,0.8-0.2,0.5-0.5c-0.6-0.7-4.3-6.4-0.4-5.4c0.6,0.1,0.7,0.8,1.4,0.9
			c0.2,0,0.3-0.1,0.3-0.3c0.2-0.5-0.1-0.6-0.2-1.2c-0.1-0.7-0.9-2.1-0.6-2.7c0.7-0.5,1.3-0.9,2-1.4c0.1,0.2,0.2,0.3,0.3,0.5
			c0.6,0.5,0.4,1.5,1.3,1.8c0.1,0,0.3,0,0.3-0.1c0.9-1-0.3-3.8,1.1-4.6c1.1,0.4,2.1,0.8,3.2,1.2c-0.2,0.4-0.3,0.8-0.5,1.2
			c-0.4,0.7-0.9,1.2-1.3,1.8c-0.4,0.5-0.7,0.5-0.7,1.1c0,0.1,0.1,0.3,0.2,0.3c0.9,0.4,1.6-0.6,2.4-0.4c0.4,0.1,1.1,1.6,0.9,2.2
			c-0.2,0.5-1.4,1.1-2,1.4c-0.6,0.3-1.2,0.4-1.5,1c-0.1,0.1-0.1,0.3,0.1,0.4c0.6,0.5,1.1,0,1.6,0.3c3,1.7-1.3,3-2,3.2
			c-0.7,0.2-1.5,0.3-2.2,0.4C343.5,48.9,343.5,49.6,343.9,49.6"/>
	</defs>
	<clipPath id="SVGID_264_">
		<use xlink:href="#SVGID_263_"  style="overflow:visible;"/>
	</clipPath>
	<g class="st131">
		<defs>
			<rect id="SVGID_265_" x="-72" y="-1818" width="1024" height="2278"/>
		</defs>
		<clipPath id="SVGID_266_">
			<use xlink:href="#SVGID_265_"  style="overflow:visible;"/>
		</clipPath>
		<rect x="331.9" y="28.1" class="st132" width="24.5" height="26.5"/>
	</g>
</g>
<g>
	<defs>
		<rect id="SVGID_267_" x="345.3" y="43.3" width="15.7" height="12.2"/>
	</defs>
	<clipPath id="SVGID_268_">
		<use xlink:href="#SVGID_267_"  style="overflow:visible;"/>
	</clipPath>
	<g class="st133">
		<defs>
			<rect id="SVGID_269_" x="-72" y="-1818" width="1024" height="2278"/>
		</defs>
		<clipPath id="SVGID_270_">
			<use xlink:href="#SVGID_269_"  style="overflow:visible;"/>
		</clipPath>
		<g class="st134">
			<g>
				<defs>
					<rect id="SVGID_271_" x="345" y="43" width="17" height="14"/>
				</defs>
				<clipPath id="SVGID_272_">
					<use xlink:href="#SVGID_271_"  style="overflow:visible;"/>
				</clipPath>
				<g class="st135">
					<defs>
						<path id="SVGID_273_" d="M345.4,52.4c1.2,1.2,3.7,3.5,5.6,3.1c1.6-0.4,1.4-1.7,1.1-2.9c-0.1-0.2-0.8-0.8-0.7-0.9
							c-0.1,0.3,2.2,1,2.3,1c0.8,0.2,2.1,0.6,2.9,0.1c1.4-0.8,1.1-2.2,0.1-3.1c-0.4-0.3-1.1-0.5-1.4-0.9c-0.3-0.5-0.4,0.2,0.4,0.1
							c1-0.2,1.9,0,2.9-0.3c1.5-0.4,2.8-1.5,2.3-3.2c-0.5-1.8-2.2-2-3.7-1.5c-1,0.3-1.9,1.3-2.9,1.6c-0.1,0-0.2,0.4,0.2-0.4
							c0.2-0.4,0.4-0.9,0.6-1.4c0.2-0.4-0.5-0.7-0.7-0.3c-0.4,0.8-1.2,1.9-0.9,2.8c0,0.1,0.2,0.2,0.3,0.2c0.5,0,0.4-0.2,0.9-0.4
							c0.7-0.3,1.3-0.9,2-1.2c0.4-0.1,0.8-0.2,1.1-0.4c2.3,1.5,2.7,2.6,1.4,3.1c-1.5,1.1-3.6-0.1-4.8,0.7c-0.1,0.1-0.2,0.2-0.1,0.3
							c0.2,0.9,1.2,0.8,1.7,1.5c0.5,0.7,1.1-0.4-0.3,1.2c-1.1,1.2-1.6,0.8-3.1,0.2c-0.6-0.2-1-0.6-1.6-0.5c-0.1,0-0.3,0.1-0.3,0.3
							c0,0.7,0.7,0.8,0.8,1.5c0.5,3.3-3.2,0.9-3.7,0.5c-0.6-0.4-1.2-0.9-1.7-1.4C345.6,51.6,345.1,52,345.4,52.4"/>
					</defs>
					<clipPath id="SVGID_274_">
						<use xlink:href="#SVGID_273_"  style="overflow:visible;"/>
					</clipPath>
					<g class="st136">
						<defs>
							<rect id="SVGID_275_" x="345" y="43" width="17" height="13"/>
						</defs>
						<clipPath id="SVGID_276_">
							<use xlink:href="#SVGID_275_"  style="overflow:visible;"/>
						</clipPath>
						<rect x="340.3" y="38.3" class="st137" width="25.7" height="22.2"/>
					</g>
				</g>
			</g>
		</g>
	</g>
</g>
<g>
	<defs>
		<path id="SVGID_277_" d="M341.1,51c0.7-1.7,1.4-3.4,2.1-5.1c0.2-0.4-0.5-0.6-0.7-0.2c-0.7,1.7-1.4,3.4-2.1,5.1
			C340.3,51.2,341,51.4,341.1,51"/>
	</defs>
	<clipPath id="SVGID_278_">
		<use xlink:href="#SVGID_277_"  style="overflow:visible;"/>
	</clipPath>
	<g class="st138">
		<defs>
			<rect id="SVGID_279_" x="-72" y="-1818" width="1024" height="2278"/>
		</defs>
		<clipPath id="SVGID_280_">
			<use xlink:href="#SVGID_279_"  style="overflow:visible;"/>
		</clipPath>
		<rect x="335.4" y="40.5" class="st139" width="12.9" height="15.7"/>
	</g>
</g>
<g>
	<defs>
		<path id="SVGID_281_" d="M336.5,48c-1.1,0-4,0-4.6-0.8c-2.2-2.9,0.8-2,1.6-2.8c0.1-0.1,0.2-0.3,0-0.5c-0.3-0.5-7-3.1-3.2-4.3
			c0.8-0.3,1.7,0.8,2.6,0.2c0.1-0.1,0.2-0.2,0.2-0.4c-0.1-0.4-0.2-0.3-0.4-0.6c-0.2-0.4-1-0.8-1.3-1.2c-0.2-0.2-0.4-0.5-0.6-0.8
			c-1.1-1.2-0.2-2,2.7-2.2c1.1,0.9,0.3,3.1,1.2,4c0.1,0.1,0.3,0.2,0.4,0.1c0.9-0.4,1-1.8,1.4-2.6c0.2-0.4-0.5-0.7-0.7-0.2
			c-0.2,0.4-0.3,0.8-0.5,1.1c-0.1,0.2-0.2,0.5-0.3,0.7c-0.2,0.4-0.2,0.4,0,0c-0.4-0.5-0.4-2.2-0.8-2.8c-0.6-1.3-1.7-2.5-3.2-2.1
			c-1.9,0.5-2.1,2.4-1.4,3.9c0.5,1.1,1.8,1.7,2.3,2.7c0.1,0.2,0.4,0-0.5-0.1c-0.4,0-1-0.3-1.4-0.3c-1.3,0.1-2.4,1-1.9,2.4
			c0.4,1,1.7,1.7,2.6,2.1c0.3,0.2,1.3,0.4,1.5,0.7c0.4,0.5,0.2-0.2-0.6,0.2c-1.1,0.5-2.3,1.4-1.4,2.7c1.1,1.6,4.4,1.8,6.1,1.8
			C336.9,48.7,337,48,336.5,48"/>
	</defs>
	<clipPath id="SVGID_282_">
		<use xlink:href="#SVGID_281_"  style="overflow:visible;"/>
	</clipPath>
	<g class="st140">
		<defs>
			<rect id="SVGID_283_" x="-72" y="-1818" width="1024" height="2278"/>
		</defs>
		<clipPath id="SVGID_284_">
			<use xlink:href="#SVGID_283_"  style="overflow:visible;"/>
		</clipPath>
		<rect x="323.1" y="27.7" class="st141" width="18.7" height="26"/>
	</g>
</g>
<g>
	<defs>
		<rect id="SVGID_285_" x="288.2" y="51.6" width="67.5" height="42.9"/>
	</defs>
	<clipPath id="SVGID_286_">
		<use xlink:href="#SVGID_285_"  style="overflow:visible;"/>
	</clipPath>
	<g class="st142">
		<defs>
			<rect id="SVGID_287_" x="-72" y="-1818" width="1024" height="2278"/>
		</defs>
		<clipPath id="SVGID_288_">
			<use xlink:href="#SVGID_287_"  style="overflow:visible;"/>
		</clipPath>
		<g class="st143">
			<g>
				<defs>
					<rect id="SVGID_289_" x="288" y="51" width="68" height="44"/>
				</defs>
				<clipPath id="SVGID_290_">
					<use xlink:href="#SVGID_289_"  style="overflow:visible;"/>
				</clipPath>
				<g class="st144">
					<defs>
						<path id="SVGID_291_" d="M343.9,51.6c-1.6,0-3,1.1-3.5,2.6c-2.2,7.3-9.6,12.7-18.5,12.7c-8.9,0-16.3-5.4-18.5-12.7
							c-0.5-1.5-1.9-2.6-3.5-2.6h-11.7l10,40.2c0.4,1.6,1.9,2.7,3.5,2.7h20.2h20.2c1.7,0,3.1-1.1,3.5-2.7l10-40.2H343.9z"/>
					</defs>
					<clipPath id="SVGID_292_">
						<use xlink:href="#SVGID_291_"  style="overflow:visible;"/>
					</clipPath>
					<g class="st145">
						<defs>
							<rect id="SVGID_293_" x="288" y="51" width="68" height="44"/>
						</defs>
						<clipPath id="SVGID_294_">
							<use xlink:href="#SVGID_293_"  style="overflow:visible;"/>
						</clipPath>
						<rect x="283.2" y="46.6" class="st146" width="77.5" height="52.9"/>
					</g>
				</g>
			</g>
		</g>
	</g>
</g>
<g>
	<defs>
		<path id="SVGID_295_" d="M340.8,49.1c-2.8,0.3-3.5,1.9-4.5,4.2c-1.5,3.7-4.2,6.7-7.8,8.7c-7.2,4-16.8,3-22.9-2.5
			c-1.3-1.2-2.5-2.6-3.4-4.2c-0.8-1.4-1.1-3.3-2.1-4.6c-1-1.2-2.3-1.5-3.9-1.6c-3.7-0.1-7.4,0-11.1,0c-0.4,0-0.7,0.4-0.6,0.8
			c2.3,9.1,4.5,18.2,6.8,27.3c1,4.1,1.9,8.3,3.1,12.3c1.1,4,4.3,3.8,7.8,3.8H331c3.6,0,10.3,1.4,11.9-2.8c1.2-2.9,1.6-6.3,2.4-9.4
			c2.6-10.4,5.2-20.8,7.8-31.2c0.1-0.4-0.2-0.8-0.6-0.8H340.8c-0.8,0-0.8,1.2,0,1.2h11.7c-0.2-0.3-0.4-0.5-0.6-0.8
			c-2.1,8.3-4.2,16.7-6.2,25c-1.1,4.4-2.2,8.9-3.3,13.3c-0.5,1.9-0.6,3.7-3.4,4.2c-1.5,0.3-3.3,0-4.8,0h-26.4
			c-3.6,0-10.3,1.4-12.2-2.7c-1.4-3.1-1.8-7.3-2.7-10.6c-2.4-9.7-4.8-19.4-7.3-29.2c-0.2,0.3-0.4,0.5-0.6,0.8c3.6,0,7.6-0.6,11.1,0
			c1.8,0.3,3.1,1.3,3.8,2.9c0.5,1.3,1.1,2.5,1.8,3.7c1.6,2.4,3.8,4.5,6.4,5.9c5.6,3.2,12.6,3.7,18.6,1.3c2.7-1,5.1-2.6,7.1-4.7
			c0.9-1,1.8-2.1,2.5-3.3c1.2-2,1.7-5.6,4.5-5.9C341.5,50.3,341.6,49,340.8,49.1"/>
	</defs>
	<clipPath id="SVGID_296_">
		<use xlink:href="#SVGID_295_"  style="overflow:visible;"/>
	</clipPath>
	<g class="st147">
		<defs>
			<rect id="SVGID_297_" x="-72" y="-1818" width="1024" height="2278"/>
		</defs>
		<clipPath id="SVGID_298_">
			<use xlink:href="#SVGID_297_"  style="overflow:visible;"/>
		</clipPath>
		<rect x="279.4" y="44.1" class="st148" width="78.7" height="54.4"/>
	</g>
</g>
<g>
	<g>
		<path d="M320,1c29.8,0,54,24.2,54,54s-24.2,54-54,54s-54-24.2-54-54S290.2,1,320,1 M320,0c-30.4,0-55,24.6-55,55s24.6,55,55,55
			c30.4,0,55-24.6,55-55S350.4,0,320,0L320,0z"/>
	</g>
</g>
<g>
	<defs>
		<rect id="SVGID_299_" x="415.2" y="34.9" width="79" height="43.5"/>
	</defs>
	<clipPath id="SVGID_300_">
		<use xlink:href="#SVGID_299_"  style="overflow:visible;"/>
	</clipPath>
	<g class="st149">
		<defs>
			<rect id="SVGID_301_" x="-72" y="-1818" width="1024" height="2278"/>
		</defs>
		<clipPath id="SVGID_302_">
			<use xlink:href="#SVGID_301_"  style="overflow:visible;"/>
		</clipPath>
		<g class="st150">
			<g>
				<defs>
					<rect id="SVGID_303_" x="415" y="34" width="80" height="45"/>
				</defs>
				<clipPath id="SVGID_304_">
					<use xlink:href="#SVGID_303_"  style="overflow:visible;"/>
				</clipPath>
				<g class="st151">
					<defs>
						<path id="SVGID_305_" d="M491.8,59c-1.1-1.2-2.4-1.6-3.6-2.5c-0.5-0.4-0.4-0.1-0.5-0.4c0,0,0.1-1.5,0.1-1.9
							c-0.1-0.7-0.2-1.3-0.3-2c-0.4-2.1-1.2-4.2-2.5-5.9c-2.3-3-5.7-4.4-9.3-4.7c0.1-2.5,0.7-6.2-2.3-6.5c-2.7-0.3-5.5,0-8.2,0
							h-31.7h-12.5c-1.5,0-4.5-0.5-5.4,1.1c-0.4,0.8-0.2,1.9-0.2,2.7v6v16.4v7.1c0,1-0.2,2.2,0.1,3.2c0.6,2,2.8,1.6,4.5,1.6h6.8
							c0.3,3,2.8,5.4,5.8,5.4c3.2,0,5.6-2.4,6-5.4h30.7c0.3,3,2.8,5.3,5.8,5.4c3.2,0.1,5.6-2.4,6-5.4h12.6c0.3,0,0.5-0.3,0.5-0.7
							c0-2.9,0.3-6-0.1-8.9C493.7,61.8,493,60.3,491.8,59z"/>
					</defs>
					<clipPath id="SVGID_306_">
						<use xlink:href="#SVGID_305_"  style="overflow:visible;"/>
					</clipPath>
					<g class="st152">
						<defs>
							<rect id="SVGID_307_" x="415" y="34" width="80" height="45"/>
						</defs>
						<clipPath id="SVGID_308_">
							<use xlink:href="#SVGID_307_"  style="overflow:visible;"/>
						</clipPath>
						<rect x="410.2" y="29.9" class="st153" width="89" height="53.5"/>
					</g>
				</g>
			</g>
		</g>
	</g>
</g>
<g>
	<defs>
		<path id="SVGID_309_" d="M478.9,70.2c-0.2-3.3-2.7-6.1-6.2-6.1c-3.3,0-6.1,2.8-6.1,6.1c0,3.3,2.7,6.1,6,6.1c3.4,0.1,6.1-2.7,6.2-6
			c0-0.8-1.2-1-1.2-0.2c-0.1,2.5-1.8,4.7-4.4,5c-2.9,0.3-5.4-2-5.4-4.8c0-6.4,9.4-6.3,9.8,0C477.7,71.1,478.9,71,478.9,70.2"/>
	</defs>
	<clipPath id="SVGID_310_">
		<use xlink:href="#SVGID_309_"  style="overflow:visible;"/>
	</clipPath>
	<g class="st154">
		<defs>
			<rect id="SVGID_311_" x="-72" y="-1818" width="1024" height="2278"/>
		</defs>
		<clipPath id="SVGID_312_">
			<use xlink:href="#SVGID_311_"  style="overflow:visible;"/>
		</clipPath>
		<rect x="461.6" y="59.1" class="st155" width="22.3" height="22.3"/>
	</g>
</g>
<g>
	<defs>
		<path id="SVGID_313_" d="M435.1,70.2c-0.2-3.3-2.8-6.1-6.2-6.1c-3.3,0-6,2.8-6.1,6.1c0,3.3,2.7,6.1,6,6.1c3.4,0.1,6-2.7,6.2-6
			c0-0.8-1.2-1-1.2-0.2c-0.3,6.3-9.8,6.5-9.8,0.1c0-6.4,9.4-6.2,9.8,0.1C433.9,71.1,435.2,71,435.1,70.2"/>
	</defs>
	<clipPath id="SVGID_314_">
		<use xlink:href="#SVGID_313_"  style="overflow:visible;"/>
	</clipPath>
	<g class="st156">
		<defs>
			<rect id="SVGID_315_" x="-72" y="-1818" width="1024" height="2278"/>
		</defs>
		<clipPath id="SVGID_316_">
			<use xlink:href="#SVGID_315_"  style="overflow:visible;"/>
		</clipPath>
		<rect x="417.9" y="59.1" class="st157" width="22.3" height="22.3"/>
	</g>
</g>
<g>
	<defs>
		<rect id="SVGID_317_" x="411" y="31.9" width="62.5" height="39"/>
	</defs>
	<clipPath id="SVGID_318_">
		<use xlink:href="#SVGID_317_"  style="overflow:visible;"/>
	</clipPath>
	<g class="st158">
		<defs>
			<rect id="SVGID_319_" x="-72" y="-1818" width="1024" height="2278"/>
		</defs>
		<clipPath id="SVGID_320_">
			<use xlink:href="#SVGID_319_"  style="overflow:visible;"/>
		</clipPath>
		<g class="st159">
			<g>
				<defs>
					<rect id="SVGID_321_" x="410" y="31" width="65" height="41"/>
				</defs>
				<clipPath id="SVGID_322_">
					<use xlink:href="#SVGID_321_"  style="overflow:visible;"/>
				</clipPath>
				<g class="st160">
					<defs>
						<path id="SVGID_323_" d="M423.4,69.6H418c-1.3,0-5,0.7-5.7-0.9c-0.3-0.6,0-2,0-2.6v-5.6v-15c0-3.4-0.6-7.3,0-10.6
							c0.4-2.2,2-1.6,3.8-1.6h10.8h30.2h11.8c0.6,0,1.6-0.2,2.2,0c1.8,0.6,1,4.3,1,5.9c0,0.8,1.2,0.9,1.2,0.1c0-2.5,1-6.9-2.4-7.2
							c-2.8-0.3-5.7,0-8.5,0h-32.7h-12.9c-1.5,0-4.6-0.6-5.5,1.1c-0.4,0.8-0.2,1.9-0.2,2.8v6.1v16.7V66c0,1-0.2,2.2,0.1,3.2
							c0.7,2.1,2.9,1.6,4.7,1.6h7.4C424,70.9,424.2,69.6,423.4,69.6"/>
					</defs>
					<clipPath id="SVGID_324_">
						<use xlink:href="#SVGID_323_"  style="overflow:visible;"/>
					</clipPath>
					<g class="st161">
						<defs>
							<rect id="SVGID_325_" x="411" y="31" width="63" height="40"/>
						</defs>
						<clipPath id="SVGID_326_">
							<use xlink:href="#SVGID_325_"  style="overflow:visible;"/>
						</clipPath>
						<rect x="406" y="26.9" class="st162" width="72.5" height="49"/>
					</g>
				</g>
			</g>
		</g>
	</g>
</g>
<g>
	<defs>
		<path id="SVGID_327_" d="M478.4,70.9h10.9c0.8,0,0.6-1.2-0.1-1.2h-10.9C477.4,69.6,477.6,70.9,478.4,70.9"/>
	</defs>
	<clipPath id="SVGID_328_">
		<use xlink:href="#SVGID_327_"  style="overflow:visible;"/>
	</clipPath>
	<g class="st163">
		<defs>
			<rect id="SVGID_329_" x="-72" y="-1818" width="1024" height="2278"/>
		</defs>
		<clipPath id="SVGID_330_">
			<use xlink:href="#SVGID_329_"  style="overflow:visible;"/>
		</clipPath>
		<rect x="472.7" y="64.6" class="st164" width="22.1" height="11.2"/>
	</g>
</g>
<g>
	<defs>
		<path id="SVGID_331_" d="M434.4,70.9h32.7c0.8,0,0.9-1.2,0.1-1.2h-32.7C433.8,69.6,433.6,70.9,434.4,70.9"/>
	</defs>
	<clipPath id="SVGID_332_">
		<use xlink:href="#SVGID_331_"  style="overflow:visible;"/>
	</clipPath>
	<g class="st165">
		<defs>
			<rect id="SVGID_333_" x="-72" y="-1818" width="1024" height="2278"/>
		</defs>
		<clipPath id="SVGID_334_">
			<use xlink:href="#SVGID_333_"  style="overflow:visible;"/>
		</clipPath>
		<rect x="428.9" y="64.6" class="st166" width="43.9" height="11.2"/>
	</g>
</g>
<g>
	<defs>
		<path id="SVGID_335_" d="M478.3,70.9h13.5c0.4,0,0.6-0.4,0.6-0.7c0-3,0.3-6.1-0.1-9.1c-0.3-1.7-1.1-3.3-2.2-4.6
			c-1.1-1.2-2.5-1.6-3.7-2.6c-0.6-0.4-0.4-0.1-0.5-0.5c0,0,0.1-1.6,0.1-2c-0.1-0.7-0.2-1.4-0.3-2.1c-0.4-2.1-1.3-4.2-2.6-6
			c-2.5-3.3-6.3-4.7-10.3-4.9c-0.4,0-0.6,0.4-0.6,0.7v25.5c0,0.8,1.2,0.7,1.2-0.1v-17v-6c0-0.6-0.1-1.4,0-2c0-0.1-0.1-0.3,0-0.4
			c-0.9,0.8,1.2,0.8,1.4,0.8c7.2,1.2,9.9,7.7,10,14.3c0,0.3,0.3,0.5,0.5,0.6c6.7,1.9,6.2,9.7,5.9,15.3c0-0.7,0.7-0.3-0.5-0.5
			c-0.8-0.1-1.7,0-2.6,0h-2.6h-7.3C477.4,69.6,477.5,70.9,478.3,70.9"/>
	</defs>
	<clipPath id="SVGID_336_">
		<use xlink:href="#SVGID_335_"  style="overflow:visible;"/>
	</clipPath>
	<g class="st167">
		<defs>
			<rect id="SVGID_337_" x="-72" y="-1818" width="1024" height="2278"/>
		</defs>
		<clipPath id="SVGID_338_">
			<use xlink:href="#SVGID_337_"  style="overflow:visible;"/>
		</clipPath>
		<rect x="467.1" y="33.6" class="st168" width="30.4" height="42.3"/>
	</g>
</g>
<g>
	<defs>
		<path id="SVGID_339_" d="M485.4,53.6h-12.6c-0.8,0-0.9,1.2-0.1,1.2h12.6C486.1,54.9,486.2,53.6,485.4,53.6"/>
	</defs>
	<clipPath id="SVGID_340_">
		<use xlink:href="#SVGID_339_"  style="overflow:visible;"/>
	</clipPath>
	<g class="st169">
		<defs>
			<rect id="SVGID_341_" x="-72" y="-1818" width="1024" height="2278"/>
		</defs>
		<clipPath id="SVGID_342_">
			<use xlink:href="#SVGID_341_"  style="overflow:visible;"/>
		</clipPath>
		<rect x="467.2" y="48.6" class="st170" width="23.8" height="11.2"/>
	</g>
</g>
<g>
	<defs>
		<path id="SVGID_343_" d="M476.8,59.2h4.5c0.8,0,0.9-1.2,0.1-1.2h-4.5C476.1,58,476,59.2,476.8,59.2"/>
	</defs>
	<clipPath id="SVGID_344_">
		<use xlink:href="#SVGID_343_"  style="overflow:visible;"/>
	</clipPath>
	<g class="st171">
		<defs>
			<rect id="SVGID_345_" x="-72" y="-1818" width="1024" height="2278"/>
		</defs>
		<clipPath id="SVGID_346_">
			<use xlink:href="#SVGID_345_"  style="overflow:visible;"/>
		</clipPath>
		<rect x="471.2" y="53" class="st172" width="15.7" height="11.2"/>
	</g>
</g>
<g>
	<g>
		<path d="M452.5,1c29.8,0,54,24.2,54,54s-24.2,54-54,54s-54-24.2-54-54S422.7,1,452.5,1 M452.5,0c-30.4,0-55,24.6-55,55
			s24.6,55,55,55c30.4,0,55-24.6,55-55S482.9,0,452.5,0L452.5,0z"/>
	</g>
</g>
<g>
	<defs>
		<path id="SVGID_347_" d="M554.2,34.2v8.4c0,2.4-0.2,2.6-2.4,4.4c-1.2,1-1.7,1.7-1.8,3.4c-0.4,7.8,0,15.7,0,23.5
			c0,0.6,0.3,2.2,0,2.7c-0.2,0.3-2.3,0.5-2.6,0.2c-0.1-0.1,0-0.6,0-0.8c-0.6-2.4,0-5.7,0-8.1c0-5.8,0.5-11.9,0-17.7
			c-0.3-3.3-4-3.3-4.2-6.5c-0.2-3.1,0-6.4,0-9.6c0-0.8-1.2-0.8-1.2,0c0,3.2-0.1,6.4,0,9.6c0,1.1,0,2.1,0.7,3c1.2,1.5,3,0.9,3.5,3.4
			c0.5,2.4,0,5.5,0,7.9V70c0,2.2-0.3,4.7,0,6.9c0.5,3.1,4.5,3.4,5.1,0.2c0.4-2.2,0-4.8,0-7.1V55.4v-3.3c0-2.1,0.8-3.1,2.4-4.4
			c1.2-1,1.8-1.7,1.9-3.3c0.2-3.4,0-6.8,0-10.2C555.5,33.4,554.2,33.5,554.2,34.2"/>
	</defs>
	<clipPath id="SVGID_348_">
		<use xlink:href="#SVGID_347_"  style="overflow:visible;"/>
	</clipPath>
	<g class="st173">
		<defs>
			<rect id="SVGID_349_" x="-72" y="-1818" width="1024" height="2278"/>
		</defs>
		<clipPath id="SVGID_350_">
			<use xlink:href="#SVGID_349_"  style="overflow:visible;"/>
		</clipPath>
		<rect x="536.8" y="28.6" class="st174" width="23.7" height="55.7"/>
	</g>
</g>
<g>
	<defs>
		<path id="SVGID_351_" d="M546,34.2v9.1c0,0.8,1.2,0.8,1.2,0v-9.1C547.2,33.5,546,33.4,546,34.2"/>
	</defs>
	<clipPath id="SVGID_352_">
		<use xlink:href="#SVGID_351_"  style="overflow:visible;"/>
	</clipPath>
	<g class="st175">
		<defs>
			<rect id="SVGID_353_" x="-72" y="-1818" width="1024" height="2278"/>
		</defs>
		<clipPath id="SVGID_354_">
			<use xlink:href="#SVGID_353_"  style="overflow:visible;"/>
		</clipPath>
		<rect x="541" y="28.6" class="st176" width="11.2" height="20.3"/>
	</g>
</g>
<g>
	<defs>
		<path id="SVGID_355_" d="M550.1,34.3v9.1c0,0.8,1.2,0.6,1.2-0.1v-9.1C551.3,33.4,550.1,33.5,550.1,34.3"/>
	</defs>
	<clipPath id="SVGID_356_">
		<use xlink:href="#SVGID_355_"  style="overflow:visible;"/>
	</clipPath>
	<g class="st177">
		<defs>
			<rect id="SVGID_357_" x="-72" y="-1818" width="1024" height="2278"/>
		</defs>
		<clipPath id="SVGID_358_">
			<use xlink:href="#SVGID_357_"  style="overflow:visible;"/>
		</clipPath>
		<rect x="545.1" y="28.6" class="st178" width="11.2" height="20.3"/>
	</g>
</g>
<g>
	<defs>
		<path id="SVGID_359_" d="M623.1,61.8v13.9c0,0.3,0.1,1,0,1.2c-1.8,0.9-2.6,0.9-2.6,0v-0.2c-0.2-0.6,0-1.7,0-2.3V57.5V34.3
			c-0.3,0.2-0.5,0.4-0.8,0.6c9,2.2,6.7,16.9,6.7,23.7c0.2-0.2,0.4-0.4,0.6-0.6C624,57.9,623.1,58.8,623.1,61.8
			c0,0.8,1.2,0.8,1.2,0.1c0-1.8,0.6-2.7,2.6-2.7c0.3,0,0.6-0.2,0.6-0.6c0-7.3,2.3-22.5-7.5-24.9c-0.4-0.1-0.8,0.1-0.8,0.6v21.1v15
			c0,2.2-1.2,8.3,2,9c2.4,0.5,3.1-1.6,3.1-3.5c0.1-4.7,0-9.4,0-14.1C624.4,61,623.1,61,623.1,61.8"/>
	</defs>
	<clipPath id="SVGID_360_">
		<use xlink:href="#SVGID_359_"  style="overflow:visible;"/>
	</clipPath>
	<g class="st179">
		<defs>
			<rect id="SVGID_361_" x="-72" y="-1818" width="1024" height="2278"/>
		</defs>
		<clipPath id="SVGID_362_">
			<use xlink:href="#SVGID_361_"  style="overflow:visible;"/>
		</clipPath>
		<rect x="614.1" y="28.6" class="st180" width="18.8" height="55.8"/>
	</g>
</g>
<g>
	<defs>
		<path id="SVGID_363_" d="M624.4,60.7v-8.7c0-0.8-1.2-0.7-1.2,0.1v8.7C623.1,61.6,624.4,61.4,624.4,60.7"/>
	</defs>
	<clipPath id="SVGID_364_">
		<use xlink:href="#SVGID_363_"  style="overflow:visible;"/>
	</clipPath>
	<g class="st181">
		<defs>
			<rect id="SVGID_365_" x="-72" y="-1818" width="1024" height="2278"/>
		</defs>
		<clipPath id="SVGID_366_">
			<use xlink:href="#SVGID_365_"  style="overflow:visible;"/>
		</clipPath>
		<rect x="618.1" y="46.4" class="st182" width="11.2" height="19.9"/>
	</g>
</g>
<g>
	<defs>
		<rect id="SVGID_367_" x="556.8" y="26" width="59.7" height="59.4"/>
	</defs>
	<clipPath id="SVGID_368_">
		<use xlink:href="#SVGID_367_"  style="overflow:visible;"/>
	</clipPath>
	<g class="st183">
		<defs>
			<rect id="SVGID_369_" x="-72" y="-1818" width="1024" height="2278"/>
		</defs>
		<clipPath id="SVGID_370_">
			<use xlink:href="#SVGID_369_"  style="overflow:visible;"/>
		</clipPath>
		<g class="st184">
			<g>
				<defs>
					<rect id="SVGID_371_" x="556" y="24" width="63" height="64"/>
				</defs>
				<clipPath id="SVGID_372_">
					<use xlink:href="#SVGID_371_"  style="overflow:visible;"/>
				</clipPath>
				<g class="st185">
					<defs>
						<path id="SVGID_373_" d="M558,55.8c0.2-11.7,7.2-22.3,18.3-26.6c11.4-4.4,24.7-0.9,32.5,8.4c7.7,9.3,8.7,22.8,2.3,33
							c-6.3,10.1-18.5,15.4-30.2,13c-13.3-2.7-22.6-14.6-22.8-28c0-0.8-1.2-0.6-1.2,0.2c0.2,12.5,8.1,23.9,20.2,28
							c11.8,4,25.2,0.2,33-9.5c7.7-9.6,8.6-23.3,2.3-33.9c-6.5-10.7-19.3-16.3-31.6-13.8c-13.8,2.8-23.7,15.1-23.9,29
							C556.8,56.4,558,56.6,558,55.8"/>
					</defs>
					<clipPath id="SVGID_374_">
						<use xlink:href="#SVGID_373_"  style="overflow:visible;"/>
					</clipPath>
					<g class="st186">
						<defs>
							<rect id="SVGID_375_" x="556" y="25" width="61" height="61"/>
						</defs>
						<clipPath id="SVGID_376_">
							<use xlink:href="#SVGID_375_"  style="overflow:visible;"/>
						</clipPath>
						<rect x="551.8" y="21" class="st187" width="69.7" height="69.4"/>
					</g>
				</g>
			</g>
		</g>
	</g>
</g>
<g>
	<defs>
		<path id="SVGID_377_" d="M571.4,58.6c0-10,8.1-18.1,18.2-18.1c10,0,18.2,8.1,18.2,18.1c0,10-8.1,18.1-18.2,18.1
			C579.6,76.7,571.4,68.6,571.4,58.6"/>
	</defs>
	<clipPath id="SVGID_378_">
		<use xlink:href="#SVGID_377_"  style="overflow:visible;"/>
	</clipPath>
	<g class="st188">
		<defs>
			<rect id="SVGID_379_" x="-72" y="-1818" width="1024" height="2278"/>
		</defs>
		<clipPath id="SVGID_380_">
			<use xlink:href="#SVGID_379_"  style="overflow:visible;"/>
		</clipPath>
		<rect x="566.4" y="35.6" class="st189" width="46.4" height="46.1"/>
	</g>
</g>
<g>
	<defs>
		<path id="SVGID_381_" d="M569.1,55.7c0.2-9.5,7.8-17.5,17.6-17.5c9.6,0,17.6,8,17.6,17.5c0,9.5-8,17.5-17.6,17.5
			C576.9,73.1,569.3,65.2,569.1,55.7c0-0.8-1.3-0.8-1.2,0c0.2,7.7,4.8,14.7,12.1,17.5c7.5,2.8,16.3,0.5,21.3-5.7
			c10.7-13.3-1.3-33.3-18.2-30.1c-8.9,1.7-15.1,9.5-15.3,18.4C567.9,56.5,569.1,56.5,569.1,55.7"/>
	</defs>
	<clipPath id="SVGID_382_">
		<use xlink:href="#SVGID_381_"  style="overflow:visible;"/>
	</clipPath>
	<g class="st190">
		<defs>
			<rect id="SVGID_383_" x="-72" y="-1818" width="1024" height="2278"/>
		</defs>
		<clipPath id="SVGID_384_">
			<use xlink:href="#SVGID_383_"  style="overflow:visible;"/>
		</clipPath>
		<rect x="562.9" y="32" class="st191" width="47.5" height="47.4"/>
	</g>
</g>
<g>
	<defs>
		<path id="SVGID_385_" d="M586.3,66.3c0.3,0.4,0.6,0.9,0.9,1.3c0.2-0.1,0.4-0.2,0.4-0.3c0.3-0.6,0.8-1,1.2-1.4
			c1.2-0.9,2.3-1.9,3.5-2.8c0.5-0.4,1-0.8,1.5-1.2c1.1-1,2.2-2,2.8-3.4c0.1-0.2,0.2-0.3,0.3-0.3c0-1.2-0.1-2.2-0.3-3.3
			c-0.2-1-0.6-2-1.3-2.7c-0.6-0.6-1.2-1.2-1.9-1.7c-0.4-0.4-1-0.6-1.4-0.9c-1-0.6-1.8-1.5-2.6-2.4c-0.8-0.8-1.4-1.6-1.2-2.8
			c0-0.2-0.1-0.6-0.6-0.5c-0.2,0.4-0.2,0.9-0.5,1.3c-0.8,1.1-1.5,2.2-2.6,2.9c-0.7,0.5-1.1,1.3-2,1.5c-0.2,0.3-1.9,2-2.3,2.2
			c-1.7,1.1-2.6,3.2-2.3,5.3c0.3,1.7,0.9,3.3,1.9,4.6c0.6,0.7,1.2,1.5,2.1,1.9c0.5,0.2,1,0.5,1.3,0.9c0.4,0.5,1.1,0.3,1.5,1
			c0.1,0.2,0.5,0,0.4,0.4C585.5,65.7,586,65.9,586.3,66.3"/>
	</defs>
	<clipPath id="SVGID_386_">
		<use xlink:href="#SVGID_385_"  style="overflow:visible;"/>
	</clipPath>
	<g class="st192">
		<defs>
			<rect id="SVGID_387_" x="-72" y="-1818" width="1024" height="2278"/>
		</defs>
		<clipPath id="SVGID_388_">
			<use xlink:href="#SVGID_387_"  style="overflow:visible;"/>
		</clipPath>
		<rect x="572.7" y="38.6" class="st193" width="29.2" height="34"/>
	</g>
</g>
<g>
	<defs>
		<path id="SVGID_389_" d="M588.1,43.8c-2.2-2.7-3.8,1.6-5,3c-2.2,2.8-5.8,4.9-6.8,8.5c-0.8,2.7,0.1,4.6,2.1,6.4
			c1.3,1.2,2.8,2.1,4.2,3.1c1.1,0.8,3.4,1.9,3.6,3.4c0,0.3,0.4,0.4,0.6,0.2c3.2-3.1,9.5-5.3,10.3-10.2
			C598.1,52.3,590.6,48.4,588.1,43.8c-0.2-0.3-0.8,0-0.6,0.4c1.3,2.5,3.2,4.5,5.2,6.5c2.3,2.2,4.7,5.2,3.4,8.6c-1,2.6-4,4.4-6.2,5.9
			c-1,0.7-1.9,1.4-2.9,2.1c-0.8,0.6,0.3,0.7-0.5-0.1c-2.7-2.7-8-4.6-9.5-8.2c-1.4-3.4,1.8-6.6,3.9-8.8c0.8-0.8,1.5-1.5,2.2-2.3
			c0.4-0.5,3.2-5.1,4.4-3.6C587.9,44.6,588.4,44.1,588.1,43.8"/>
	</defs>
	<clipPath id="SVGID_390_">
		<use xlink:href="#SVGID_389_"  style="overflow:visible;"/>
	</clipPath>
	<g class="st194">
		<defs>
			<rect id="SVGID_391_" x="-72" y="-1818" width="1024" height="2278"/>
		</defs>
		<clipPath id="SVGID_392_">
			<use xlink:href="#SVGID_391_"  style="overflow:visible;"/>
		</clipPath>
		<rect x="571.1" y="37.9" class="st195" width="31.1" height="35.7"/>
	</g>
</g>
<g>
	<defs>
		<path id="SVGID_393_" d="M586.3,47.6c1.8,2.8,6.3,5.9,6.6,9.3c0.2,2.8-3.3,5-5.7,6.1c-0.8,0.4-0.4,0.3-0.7,0.2
			c-0.7-0.2-1.6-0.9-2.2-1.3c-1.3-0.8-2.8-1.8-3.6-3.2c-1.4-2.5,1-4.9,2.5-6.6c0.3-0.3-0.2-0.8-0.5-0.5c-2.2,2.4-4.5,5.4-1.9,8.4
			c1.1,1.3,4.2,4.1,6,3.9c2-0.2,5.9-3.6,6.6-5.4c1.6-4.2-4.6-8.5-6.5-11.4C586.7,46.9,586.1,47.2,586.3,47.6"/>
	</defs>
	<clipPath id="SVGID_394_">
		<use xlink:href="#SVGID_393_"  style="overflow:visible;"/>
	</clipPath>
	<g class="st196">
		<defs>
			<rect id="SVGID_395_" x="-72" y="-1818" width="1024" height="2278"/>
		</defs>
		<clipPath id="SVGID_396_">
			<use xlink:href="#SVGID_395_"  style="overflow:visible;"/>
		</clipPath>
		<rect x="574.7" y="42.1" class="st197" width="24" height="26.9"/>
	</g>
</g>
<g>
	<defs>
		<path id="SVGID_397_" d="M586.8,60.9c-1.1-0.7-2.7-1.7-3.3-2.8c-0.9-1.8,2.5-4.6,3.4-5.9c-0.2,0-0.4,0-0.6,0
			c1,1.3,4.3,4.1,3.3,5.9c-0.6,1.1-2.2,2-3.3,2.8c-0.4,0.3,0.1,0.8,0.5,0.5c1.2-0.8,3.3-2.1,3.7-3.5c0.2-0.6-0.1-1.3-0.4-1.9
			c-0.9-1.6-2.2-2.9-3.3-4.3c-0.1-0.2-0.4-0.1-0.6,0c-1.1,1.4-2.5,2.8-3.3,4.4c-0.3,0.5-0.5,1.2-0.3,1.8c0.4,1.4,2.6,2.7,3.8,3.5
			C586.8,61.7,587.2,61.1,586.8,60.9"/>
	</defs>
	<clipPath id="SVGID_398_">
		<use xlink:href="#SVGID_397_"  style="overflow:visible;"/>
	</clipPath>
	<g class="st198">
		<defs>
			<rect id="SVGID_399_" x="-72" y="-1818" width="1024" height="2278"/>
		</defs>
		<clipPath id="SVGID_400_">
			<use xlink:href="#SVGID_399_"  style="overflow:visible;"/>
		</clipPath>
		<rect x="577.6" y="46.6" class="st199" width="18" height="19.9"/>
	</g>
</g>
<g>
	<g>
		<path d="M585,1c29.8,0,54,24.2,54,54s-24.2,54-54,54s-54-24.2-54-54S555.2,1,585,1 M585,0c-30.4,0-55,24.6-55,55s24.6,55,55,55
			c30.4,0,55-24.6,55-55S615.4,0,585,0L585,0z"/>
	</g>
</g>
</svg>
