<svg viewBox="0 0 106 114" xmlns="http://www.w3.org/2000/svg">
    <g fill-rule="nonzero" fill="none">
        <path fill="#DFAA58" d="M11.7 73.1h87.2v40.4H11.7z"/>
        <path
            d="M105.4 19.6v-.1-.2c0-.2-.1-.4-.3-.5-2.6-4-5.1-8-7.7-12.1 0-.1-.1-.1-.1-.2-4-5.1-12.4-3.4-18.2-3.4H55.4c-12.3 0-24.9-.9-37.2 0-7.4.5-11 10.4-14.5 15.9-.1.2-.2.4-.1.6C3.6 27 1.8 40.1 13 40c4.7-.1 7.1-2.4 8.2-5.7 1.2 3.3 3.6 5.8 8.4 5.7 4.7 0 7.1-2.4 8.2-5.7C39 37.6 41.3 40 46 40c4.8 0 7.2-2.4 8.4-5.7 1.2 3.3 3.5 5.7 8.3 5.7 4.8 0 7.2-2.4 8.4-5.7 1.2 3.4 3.6 5.8 8.4 5.7 4.7-.1 7-2.4 8.2-5.7 1.2 3.3 3.6 5.8 8.4 5.7 11-.1 9.3-12.9 9.3-20.4z"
            fill="#76B72E"/>
        <g fill="#1E1E1C">
            <path
                d="M17 17.7c0 6.2 2 19.6-8.2 18.4-8.5-1-6.5-12.5-6.5-18.5 0-1.3-2-1.1-2 .2 0 7.4-1.8 20.5 9.4 20.4 11.1-.1 9.2-13.1 9.2-20.6.1-1.4-1.9-1.2-1.9.1z"/>
            <path
                d="M33.7 17.7c0 6.2 2 19.6-8.2 18.4-8.5-1-6.5-12.5-6.5-18.5 0-1.3-2-1.1-2 .2 0 7.4-1.8 20.5 9.4 20.4 11.1-.1 9.2-13.1 9.2-20.6.1-1.4-1.9-1.2-1.9.1z"/>
            <path
                d="M50.3 17.5c0 6 2.1 17.5-6.5 18.5-10.2 1.2-8.2-12.1-8.2-18.4 0-1.3-2-1.4-2-.2 0 7.4-1.8 20.5 9.2 20.6 11.2.1 9.4-13 9.4-20.4.1-1.2-1.9-1.4-1.9-.1z"/>
            <path
                d="M67 17.5c0 6 2.1 17.5-6.5 18.5-10.2 1.2-8.2-12.2-8.2-18.4 0-1.3-2-1.4-2-.1 0 7.4-1.8 20.5 9.2 20.6 11.2.1 9.4-13 9.4-20.4.1-1.3-1.9-1.5-1.9-.2z"/>
            <path
                d="M83.6 17.7c0 6.2 2 19.6-8.2 18.3-8.5-1-6.4-12.5-6.4-18.5 0-1.3-2-1.1-2 .2 0 7.4-1.8 20.5 9.4 20.4 11.1-.1 9.2-13.2 9.2-20.6 0-1.3-2-1.1-2 .2z"/>
            <path
                d="M100.3 17.6c0 6.1 2 18.5-7.4 18.4-9.3-.1-7.3-12.4-7.3-18.6 0-1.3-2-1.1-2 .1 0 7.4-1.8 20.5 9.4 20.4 11.1-.1 9.3-13.1 9.3-20.6 0-1.1-2-.9-2 .3zM95.9 109.4V69c0-.6-.6-.9-1.1-.9H7.7c-.6 0-.9.6-.9 1.1v40.4c0 .6.6.9 1.1.9H95c1.3 0 1-2-.2-2H7.7c.4.3.7.6 1.1.9V69c-.3.4-.6.7-.9 1.1H95c-.4-.3-.7-.6-1.1-.9v40.4c0 1.3 2 1.1 2-.2z"/>
            <path
                d="M8.7 69.2V37.6c0-1.3-2-1.6-2-.3v31.6c0 1.3 2 1.6 2 .3zM95.9 69.2V37.6c0-1.3-2-1.5-2-.3v31.6c0 1.3 2 1.6 2 .3zM94.1 4.5c-4-5.1-12.4-3.4-18.2-3.4H52.2c-12.3 0-24.9-.9-37.2 0C7.6 1.6 4 11.5.5 17c-.4.6.1 1.5.8 1.5h99.9c.7 0 1.3-.8.9-1.5-2.6-4.1-5.3-8.2-7.9-12.4-.7-1.1-2.4-.1-1.8 1 2.6 4.1 5.3 8.2 7.9 12.4l.9-1.5H1.3c.3.5.5 1 .8 1.5 3.2-5 6.5-13.8 13-14.9 2.3-.4 5.1 0 7.4 0h59.9c3.6 0 7.4-.6 10 2.7 1 1.1 2.5-.3 1.7-1.3z"/>
        </g>
    </g>
</svg>
