<svg viewBox="0 0 127 112" xmlns="http://www.w3.org/2000/svg">
    <g fill-rule="nonzero" fill="none">
        <path
            d="M126.1 55.7c-.6-11.2-3.7-19.8-6.7-25.6-2.9-5.6-8.6-8.6-12.7-13.4C94.2 2.1 34-4.3 12.9 30.1c-3.4 5.5-6.4 14.4-6.7 25.6-.4 14 4.1 27.8 13 38.7.1.2.2.3.4.5 9.7 11.6 24.2 16.5 46.6 16.5 24.8-.1 62.3-13.1 59.9-55.7z"
            fill="#F08372"/>
        <path
            d="M122.2 52.2c-.5-7.8-2.1-15.5-5.3-22.7-3.2-7.1-8.9-11.3-14.3-16.7-5.5-5.5-12.9-8.2-20.3-9.9C61.5-1.9 36.2.4 18.8 13.6c-24 18.3-23.4 55.8-5.2 78 15.3 18.7 45.1 20.4 67.1 14.8 11-2.8 21.7-8.1 29.5-16.6 9.4-10.3 12.7-23.9 12-37.6-.1-1.2-1.9-.9-1.9.3.5 12.1-2 24.1-9.7 33.8-6.2 7.8-14.9 13.1-24.2 16.4-9.4 3.3-19.4 4.5-29.3 4.2-12.7-.4-26.3-2.5-36.4-10.8C-1.2 78-5 38.3 16.2 18.3 31.5 3.9 55.1.6 75.2 3.5c8.2 1.2 18 3.3 24.4 9 5.2 4.6 11.6 9.9 14.8 16.1 3.7 7.4 5.4 15.7 5.9 23.8.1 1.3 2 1 1.9-.2z"
            fill="#1E1E1C"/>
        <g fill="#1E1E1C">
            <path
                d="M60.8 84.7c-1 .5-1.6 1.2-2.1 2.2-.9 1.9-.3 3.3-1.9 5.1-1.9 2.1-3.6 2.4-6.4 2.7-8.8.9-16.4-2.9-22.5-8.9C15.7 74 8.7 50.9 19.4 36.1c1.6-2.2 3.6-3.7 6.1-4.5 1.6-.5 6.2-1.1 7.9.1.3.2.2 0 .6.9.4 1 .4 2.4.6 3.4.2.9.4 1.9.5 2.9.1.7.2 1 .3.4-.1.9-1 2-1.3 2.9-3.4 8.7-2.8 18.5 4.5 24.9 2.1 1.9 14.1 11.6 16.9 5.1-.6 0-1.2.1-1.8.1l6.6 13.8c.6 1.2 2.4.3 1.8-.9l-6.6-13.8c-.4-.8-1.5-.7-1.8.1-1.1 2.7-8-1.7-9.1-2.4-7.3-4.8-11.6-11.1-10.2-20 .5-3.1 2.6-6.1 3-9 .4-2.7-1.1-6.4-1.6-9.1-.1-.3-.3-.7-.6-.8-10.3-3.6-17.5 2.4-20.9 11.8-4.2 11.7-1.3 25.5 4.9 35.9 4.9 8.3 12.8 16 22.4 18.2 4.4 1 9.9 1.2 14.1-.6 1.6-.7 2.8-1.7 3.7-3.2.8-1.3.9-5.3 2.2-5.9 1.3-.4.4-2.2-.8-1.7z"/>
            <path
                d="M24.4 58.6c-.6.1-1.2.1-1.8.2-.5 0-.9.6-.8 1.1.1.6.6.9 1.1.8.6-.1 1.2-.1 1.8-.2.5 0 .9-.6.8-1.1-.1-.6-.6-.9-1.1-.8zM26.9 68.8c-.5.3-1.1.5-1.6.8-1.2.5-.4 2.4.8 1.8.5-.3 1.1-.5 1.6-.8 1.2-.5.4-2.4-.8-1.8zM32.3 77.3L31 78.6c-.4.4-.2 1.1.2 1.4.5.4 1 .2 1.4-.2l1.3-1.3c.4-.4.2-1.1-.2-1.4-.5-.3-1-.2-1.4.2zM38.9 83.1c-.3.5-.5 1.1-.8 1.6-.2.5.1 1.1.6 1.3.5.2 1.1-.1 1.3-.6.3-.5.5-1.1.8-1.6.2-.5-.1-1.1-.6-1.3-.5-.2-1 .1-1.3.6zM48.3 85.5c-.1.6-.1 1.2-.2 1.8 0 .5.3 1.1.8 1.1.5.1 1.1-.3 1.1-.8.1-.6.1-1.2.2-1.8 0-.5-.3-1.1-.8-1.1-.4-.1-1 .3-1.1.8zM28.8 38.9c-.6-.2-1.1-.4-1.7-.6-1.2-.4-1.9 1.4-.7 1.9.6.2 1.1.4 1.7.6 1.2.4 1.9-1.5.7-1.9zM25.1 48.4l-1.8-.3c-.5-.1-1 .4-1.1.9 0 .6.4 1 .9 1.1l1.8.3c.5.1 1-.4 1.1-.9.1-.6-.4-1-.9-1.1z"/>
        </g>
        <g fill="#1E1E1C">
            <path
                d="M64.6 24.4c1-.5 1.5-1.3 2-2.2 1.1-2.1.4-3.9 2.6-5.7 2.3-1.8 4-2 7.1-2.1 8.3-.4 15.4 3.4 21.1 9 12.1 11.9 19.3 34.9 8.4 49.8-1.8 2.5-4.3 4.2-7.3 4.8-1.6.3-5.4.6-6.8-.5-.6-.5-.9-2.9-1.2-4.4-.2-.9-.4-1.9-.5-2.9-.1-.8-.1-1-.2-.4.2-.9 1-2 1.3-2.9 3.5-9 2.6-18.8-5.1-25.3-2.2-1.9-13.7-11-16.4-4.6.6-.1 1.2-.1 1.8-.2L64.8 23c-.6-1.2-2.3-.2-1.7 1l6.6 13.8c.4.9 1.5.5 1.8-.2 1-2.4 7.7 1.6 9.2 2.6 7.4 4.9 11.6 11.4 10.1 20.4-.5 2.9-2.6 5.8-2.9 8.6-.3 2.7 1.1 6.4 1.6 9.1.1.4.4.6.7.7 10.3 3.6 17.4-2.5 20.8-11.9 4.2-11.6 1.2-25.5-5-35.9-5.2-8.7-13.6-16.7-23.8-18.5-4-.7-9.5-.9-13.3 1.1-1.5.8-2.7 1.9-3.4 3.5-.7 1.4-.6 4.7-2 5.4-1.1.5-.1 2.3 1.1 1.7z"/>
            <path
                d="M100.9 50.6c.6-.1 1.2-.1 1.8-.2 1.3-.1 1.1-2.1-.2-2-.6.1-1.2.1-1.8.2-1.3.1-1.1 2.1.2 2zM98.4 40.4c.5-.3 1.1-.5 1.6-.8 1.2-.5.4-2.4-.8-1.8-.5.3-1.1.5-1.6.8-1.1.5-.3 2.4.8 1.8zM93 31.9l1.3-1.3c.4-.4.3-1.1-.1-1.4-.4-.4-1-.3-1.4.1l-1.3 1.3c-.4.4-.3 1.1.1 1.4.4.4 1 .3 1.4-.1zM86.4 26.1c.3-.5.5-1.1.8-1.6.2-.5-.1-1.1-.6-1.3-.5-.2-1.1.1-1.3.6-.3.5-.5 1.1-.8 1.6-.2.5.1 1.1.6 1.3.6.2 1.1-.1 1.3-.6zM77 23.6c.1-.6.1-1.2.2-1.8.1-1.3-1.9-1.4-2-.1-.1.6-.1 1.2-.2 1.8-.1 1.3 1.9 1.4 2 .1zM96.4 70.3c.6.2 1.1.4 1.7.6.5.2 1.1.1 1.3-.4.2-.4.1-1.2-.4-1.3-.6-.2-1.1-.4-1.7-.6-.5-.2-1.1-.1-1.3.4-.3.4-.1 1.1.4 1.3zM100.1 60.7l1.8.3c1.3.2 1.6-1.7.4-2l-1.8-.3c-1.3-.2-1.6 1.8-.4 2z"/>
        </g>
    </g>
</svg>
