<svg viewBox="0 0 99 127" xmlns="http://www.w3.org/2000/svg">
    <g fill-rule="nonzero" fill="none">
        <path
            d="M59 49.8s8.4-4.3 11.7-10.1c1.9-3.3-1.5-7.1-5-5.7l-3.5 1.4c-.7.3-1.2-.6-.7-1.1 2.3-2.4 5.7-6.5 7.1-11 1.1-3.5-2.8-6.5-5.9-4.6l-5.3 4.5c-.5.3-1.3-.2-1-.7 2.5-4.7 5.3-17.6-3.4-17.6s-5.9 12.9-3.4 17.6c.3.5-.5 1-1 .7l-5.3-4.5c-3.2-1.9-7 1.1-5.9 4.6 1.4 4.5 4.8 8.6 7.1 11 .5.5-.1 1.4-.7 1.1L40.3 34c-3.5-1.4-6.9 2.4-5 5.7C38.6 45.5 47 49.8 47 49.8l8.1 3.9 3.9-3.9z"
            fill="#76B72E"/>
        <path
            d="M40.8 41.4s1.7-9.3-.9-15.4c-1.5-3.5-6.5-3.1-7.6.5l-1.1 3.6c-.2.7-1.2.6-1.3-.1-.5-3.3-1.7-8.5-4.4-12.4-2.1-3-6.9-1.8-7.3 1.9l.3 6.9c-.1.6-.9.9-1.2.4-2.2-4.8-10.7-14.9-16-8C-4 25.7 8 31.3 13.2 32.2c.6.1.5 1 0 1.2l-6.8 1.5c-3.4 1.4-3.4 6.3.1 7.5 4.4 1.6 9.7 1.4 13.1 1.1.7-.1 1 .9.4 1.3l-3.3 2c-3.2 2-2.3 6.9 1.5 7.5 6.6.9 15.2-3.1 15.2-3.1l8.1-4.1-.7-5.7zM66.4 56.8s9 2.9 15.4 1.1c3.6-1 3.9-6.1.5-7.6l-3.5-1.5c-.7-.3-.5-1.3.3-1.3 3.4-.1 8.7-.6 12.8-2.8 3.3-1.7 2.6-6.6-.9-7.5l-6.9-.6c-.6-.1-.8-1.1-.2-1.2 5.1-1.6 16.2-8.7 10.1-14.9-6.2-6.2-13.3 5-14.9 10.1-.2.6-1.1.4-1.2-.2l-.6-6.9c-.9-3.6-5.8-4.2-7.5-.9-2.2 4.2-2.7 9.5-2.8 12.8 0 .7-1 .9-1.3.3l-1.5-3.5c-1.5-3.5-6.6-3.1-7.6.5-1.8 6.4 1.1 15.4 1.1 15.4L56 56.6l10.4.2z"
            fill="#76B72E"/>
        <path
            d="M49.9 120.7c.9 1.2 1.7 2.5 2.6 3.8.5-.4 1.1-.6 1.2-1 .7-1.8 2.1-3 3.5-4.1 3.3-2.7 6.6-5.3 9.9-7.9 1.4-1.1 2.8-2.3 4.2-3.5 3.2-2.8 6.3-5.5 7.8-9.8.2-.5.6-.8.8-1 0-3.3-.3-6.3-.9-9.3-.6-2.9-1.8-5.5-3.8-7.6-1.6-1.7-3.4-3.4-5.2-4.9-1.3-1-2.7-1.8-4.1-2.7-2.9-1.8-5.1-4.4-7.4-6.8-2.1-2.3-3.9-4.5-3.4-8.1.1-.5-.3-1.8-1.6-1.4-.4 1.2-.6 2.6-1.4 3.6-2.2 3-4.3 6.2-7.4 8.3-2 1.3-3.2 3.7-5.7 4.1-.5.8-5.5 5.6-6.6 6.3-4.8 3.2-7.3 9-6.4 15 .8 4.9 2.5 9.4 5.5 13.1 1.6 2 3.3 4.4 6 5.4 1.4.5 2.8 1.5 3.6 2.7 1.1 1.5 3.2 1 4.1 2.7.2.5 1.5 0 1.3 1.2 1.3.2 2.5.8 3.4 1.9"
            fill="#CF92B5"/>
        <g fill="#1E1E1C">
            <path
                d="M55.2 56.7c-1.9-2.7-5.2-3.4-7.7-1.1-2 1.8-2.8 4.9-4.3 7.1-1.9 2.8-4.1 5.3-6.5 7.7C30.3 77 22.8 83 21.4 92.7c-1.1 8.1 4.1 13.4 10.2 18 3.7 2.8 7.6 5.3 11.4 8 2.4 1.7 6.8 4.2 7.1 7.5.1.7 1.1 1.1 1.6.6 8.8-8.8 27.2-15 29.1-29.1.9-7-2.5-13.7-7-18.8-6.5-7.3-13.7-13.1-18.3-22-.6-1.1-2.4-.3-1.8.8 3.6 7.1 8.8 12.6 14.4 18.1 5.6 5.6 11.5 12.1 10.8 20.6-.6 7.5-7.6 12.9-13.1 17.1-5.1 3.9-10.9 7.1-15.4 11.6.5.2 1.1.4 1.6.6-.4-4.4-6.3-7.7-9.5-9.9-5.9-4.1-13-8-17.1-13.9-5.6-8.1.6-17.8 6.4-23.8 2.7-2.8 5.6-5.4 8.2-8.3 1.7-1.9 3.4-3.9 4.8-6 1-1.4 5.6-10.8 8.9-5.9.6 1.2 2.2-.1 1.5-1.2z"/>
            <path
                d="M50 67.7c3 4.8 6.6 9 10.4 13.2 3.9 4.3 9.2 9.5 8.2 15.9-1.2 7.3-11 11.4-16.5 14.9-.4.3-1.2.8-1.7.9 1.5-.2.3-.1-.5-.7-2.5-1.8-5.4-3.1-7.9-4.9-3.2-2.3-7.7-5.5-8.8-9.5-1.7-6.5 4.2-12.3 8.1-16.5.9-.9-.5-2.4-1.4-1.4-6.9 7.5-13 16.4-4.2 24.9 3.4 3.3 7.6 6 11.7 8.3 1.6.9 2.6 1.8 4.3 1.4 3.2-.7 7.4-4.2 10-6.1 3.2-2.4 7.1-5.3 8.5-9.2 1.6-4.3-.3-9.3-2.8-12.9-4.8-6.8-11.1-12.1-15.6-19.2-.7-1.1-2.5-.1-1.8.9z"/>
            <path
                d="M51.5 105.3c-2.9-2.1-8.9-5.5-9.8-9.1-.5-2.2 1.2-4.4 2.5-6.1 2.4-3.2 5.1-6.3 7.5-9.5-.5 0-1.1.1-1.6.1 2.4 3.2 5.1 6.3 7.5 9.5 1.4 1.9 3.1 4 2.3 6.4-1.1 3.5-6.8 6.7-9.7 8.7-1.1.7.2 2.3 1.3 1.5 3.3-2.4 9.7-6 10.6-10.4.4-2-.6-4-1.6-5.6-2.5-4.1-6-7.6-8.9-11.5-.4-.5-1.2-.4-1.6.1-3 4-6.8 7.6-9.2 12-.8 1.5-1.6 3.4-1.2 5.1.9 4.3 7.4 8 10.7 10.4 1.1.8 2.2-.9 1.2-1.6z"/>
        </g>
        <path
            d="M57.5 47.3c4.4-2.3 13.2-7.6 12.7-13.4-.2-2.1-1.8-4-3.9-4.5-1.2-.3-2.2 0-3.3.3-.8.2-1.6.8-2.4.9-1.6.3 0 .4.4-.1 2.2-3.1 12.4-16.1 2-16.9-2.3-.2-3.8 1.4-5.5 2.7-.2.2-2.9 2.5-2.9 2.4.8.8 2.1-3.7 2.2-4.2C58 9.9 58.7 2.4 53 .6c-5.5-1.8-9 2.6-9.2 7.6-.1 2.8.4 6.5 1.7 9 .6 1.1 1.8 2 .4.8-1.2-1.1-2.5-2.4-3.9-3.3-5.3-3.5-9.2 2-7.3 7 .9 2.5 2.5 4.8 4.2 6.8.2.3 2 2.9 2.7 2.4-.2.2-2-.8-2.4-.9-2.8-.9-5.8-.9-7.3 2.1-3.1 6.2 7.7 12.8 12.1 15.1 1.1.6 2.3-1 1.1-1.6-3.6-1.9-10.2-5.7-11.4-9.8 1-3.7 2.6-5 4.7-4l.9.3c.6.1 1.4.8 2 .7.9 0 1.5-.1 1.9-1.1.5-1.1-.6-1.8-1.1-2.6-1.4-1.9-3-3.5-4.2-5.6-.3-.5-.5-.9-.8-1.4-1.6-2.5-.5-4.5 3.4-6.2 2.6.6 3.7 4.7 6.8 4.5.3 0 .7-.3.8-.6.7-2.1-1.2-4.7-1.7-6.9C45.6 9.3 45 3 49.9 2.2c5.7-1 6.1 5.5 5.5 9.3-.3 2.2-2.7 6-2 8.1.1.4.4.8.9.8 1.4.1 1.4-.2 2.5-1 .8-.6 3.4-3.6 4.2-3.5 1.3 1.6 2.6 3.3 3.9 4.9-.6 1.4-1.3 2.7-2.1 3.9-.8 1.2-1.7 2.4-2.7 3.5-.5.5-2.6 2.2-1.9 3.4 1.3 2.6 3.7-.3 5.5-.3 3.7 2.2 4.6 4.3 2.6 6.2-.6.8-1.3 1.5-2.1 2.2-1.1 1-2.2 1.9-3.4 2.8-1.4 1-2.9 1.9-4.4 2.8-.9.8 0 2.6 1.1 2z"
            fill="#1E1E1C"/>
        <path
            d="M57.6 47.3c4.3-2.3 13.3-7.7 12.7-13.5-.2-2.1-1.9-3.9-4-4.4-1.5-.3-2.7.2-4.1.7-.2.1-1.8.9-1.9.8.6.6 2.7-2.5 3-2.9 1.9-2.5 4.8-6.4 4.5-9.8-.3-2.9-3-5.1-5.9-4.6-2.1.4-3.8 2.3-5.3 3.6l-1.5 1.2c-.7.6.5.1.7-.5.6-1.5 1.1-3 1.4-4.6 1-4.4 1.3-11.2-4.1-12.9C47-1.5 43.9 3.9 44 9.1c.1 2.7.5 6.2 1.9 8.5.8 1.3 1.2 1.3 0 0-1-1.1-2.5-2.3-3.8-3.1-5.4-3.5-9.2 2.1-7.3 7.1 1 2.5 2.5 4.7 4.2 6.8 0 0 2.3 2.9 2.5 2.3 0 0-2.3-.9-2.4-.9-2.8-.9-5.8-.8-7.2 2.2-3 6.2 7.9 12.8 12.2 15.1 1.1.6 2.1-1.1 1-1.7-1.3-.7-2.5-1.4-3.7-2.3-1.4-1-2.8-2.1-4.1-3.3-.5-.4-1-.9-1.4-1.4-2.7-2.2-2.1-4.5 1.8-7.1 1.7-.1 4.5 3.1 5.6.3.4-1.1-.7-1.8-1.2-2.5-1.3-1.9-3-3.6-4.2-5.6-.3-.5-.5-.9-.8-1.4-2.2-2.9-1.1-5 3.3-6.2 2.6.6 3.7 4.8 6.7 4.6.5 0 .8-.3 1-.7.7-2.1-1.3-4.8-1.8-6.9-.8-3.9-1.2-10.7 4.4-10.7 5.4 0 5.2 6.4 4.5 10.2-.4 2.2-2.5 5.2-1.8 7.4.1.4.5.7 1 .7 3 .2 4.2-3.8 6.7-4.6 4.4 1.3 5.5 3.3 3.3 6.3-.3.5-.5.9-.8 1.4-1.2 2.1-2.8 3.7-4.2 5.6-.6.8-1.6 1.4-1.2 2.5.9 2.8 4.1-.4 5.6-.3 3.3 2.8 3.9 5.2 1.7 7.1l-.9.9c-1.4 1.4-3 2.6-4.6 3.7-1.2.8-2.4 1.6-3.7 2.3-.9.8.2 2.5 1.3 1.9z"
            fill="#1E1E1C"/>
        <path
            d="M64.4 53.1c4.4 1.9 20.7 6.9 19.9-2.6-.1-1.7-1.1-2.9-2.4-3.9-.6-.4-1.3-.7-1.9-1.1-1.9-1.1-1.1-.4.7-.2 3.8.6 11.7-.1 13.7-4.1 1.4-2.8-.2-6-3-7-1.4-.5-3.3-.7-4.8-.9l-1.5-.3c-.7-.2-.2.2-.2.2.3-.2 2.1-.3 2.8-.5 3.7-1.4 8.5-3.9 10-7.9 1.3-3.4-.7-7.6-4.2-8.8-4.4-1.5-8.6 2.4-11.1 5.5-.8 1-2 2.4-2.5 3.7-.3.8-.4 2.6-.2 1.1.2-2 .1-4 .1-6 0-1.3-2-1.5-2-.3 0 2.3-1 6.5.7 8.3.3.3.7.5 1.2.3 1.9-.8 2.4-3.3 3.6-4.9 2.4-3.3 9.3-9.9 12.2-2.9 1.9 4.5-3.2 7.6-6.7 9.3-1.8.9-4.7 1-5.8 2.7-.3.4-.3.8 0 1.2 1.7 2.4 5.6.8 7.8 2.3 1.8 4.2.9 6.4-2.7 6.5-.5.1-1 .2-1.6.3-2.3.4-4.7.1-7 .3-1 .1-2.1-.3-2.7.6-1.5 2.3 2.7 3.2 3.7 4.2 4.8 4.6-1.4 6.1-4.6 5.8-2.1-.1-4.3-.6-6.3-1.2-1.5-.4-3.1-1-4.6-1.6-1-.5-1.8 1.4-.6 1.9zM51.9 54.2V38.7c0-1.3-2-1.3-2 0v15.5c0 1.2 2 1.2 2 0zM36.6 51.2c-1.8.8-3.6 1.3-5.5 1.8-1.5.4-3.1.7-4.7.8-3.3.3-10.1-1.4-5.2-5.8 1.3-1.2 5-1.7 3.6-4.2-.6-1.1-3.1-.6-3.8-.6-2 0-4 0-6-.4-2.8-.5-10.1-2.8-4.2-6.8 2.2-1.5 6 .1 7.8-2.4.3-.4.2-.8-.1-1.2-1.1-1.6-3.6-1.6-5.3-2.4C9.6 28.4 3 24.4 6.5 19.8c3.6-4.9 8.8-.2 11.5 3.3 1.3 1.7 2 4.5 4 5.3.3.1.8.1 1-.2 1.8-1.9.8-5.7.8-8.2 0-1.3-2-1.5-2-.2 0 1.6 0 3.3.1 4.9.2 3.3.1.6-1-1.1-2.2-3.4-5.9-7.9-10.4-8.1-3.6-.2-7 3.2-7 6.9 0 3.9 3.9 6.7 7 8.5 1.9 1.1 3.9 1.6 6 2.4.3.1.8-.3-.5-.3-1.1 0-2.4.5-3.5.7-2.8.6-5.5 1.8-5.5 5.2-.1 4.9 5.8 5.8 9.5 6.2 1.9.2 3.8.2 5.7.1.6 0 1.4-1 .4-.2-1.5 1.1-3.3 1.5-4.3 3.2-2 3.2.1 6.8 3.5 7.6C26.8 57 33 55 37.6 53c1-.5.2-2.3-1-1.8z"
            fill="#1E1E1C"/>
    </g>
</svg>
