<svg viewBox="0 0 139 130" xmlns="http://www.w3.org/2000/svg">
    <g fill-rule="nonzero" fill="none">
        <path
            d="M136.9 52c-1.3-2-4-3.3-4.9-5.4-.8-1.8-.6-4.3-1.2-6.2-1.4-4.7-3.9-9-7.3-12.6-9.3-9.9-48.1-23.2-56.6-16.2-6.2-10.6-35.2 2.1-39.2 5.7-2 1.8-3.5 4.3-4.1 7-.7 2.9.3 4.4-1.9 6.5-4.7 4.4-8.6 8.2-10.6 14.5-2 6.5-1.4 13.3 1.1 19.5-10.2 6.7 8 49.6 20.5 44.9-1.6 13.6 31.5 20.4 38.3 19.6 1.6-.2 3.2-.7 4.6-1.4 1.8-.9 3.3-3.3 5.1-3.9 1.7-.6 4.9.8 6.7 1 2.3.2 4.7.2 7-.1 17.1-2.3 39.8-44.9 36.5-53.3 7.3-3.4 10.7-12.4 6-19.6z"
            fill="#76B72E"/>
        <g fill="#1E1E1C">
            <path
                d="M98.7 61.8c-.3 12.5-7.5 24-19.4 28.7-12.1 4.8-26.2 1.3-34.7-8.6C26 60.3 46 26.3 73.9 31.8 88.4 34.7 98.4 47.5 98.7 62c0 1.3 2 1 2-.2-.3-13.7-8.7-26.1-21.8-30.7-12.7-4.5-27.2-.6-35.9 9.7-8.7 10.2-10.2 25.3-3.7 37 6.8 12.2 21 18.9 34.8 16.3 15.4-3 26.2-16.5 26.5-32 .1-1.3-1.9-1.6-1.9-.3z"/>
            <path
                d="M83.9 17.7C83.2 5.5 69.4.3 60.6 8.6c.6.1 1.1.2 1.7.3-5.8-12.2-23.4-10.1-25.8 3.4.5-.2.9-.5 1.4-.7-5.1-2.5-11.1-2.2-15.4 1.7-1.8 1.6-3.1 3.6-3.9 5.9-1 3 0 5.4-2.3 7.6-4.5 4.3-8.3 7.8-10.4 14C3.6 47.7 4.2 55 7.1 61.6c.5 1.2 2.4.5 1.9-.7-5.6-12.8-1.2-26.8 10.8-34 .3-.2.5-.6.4-.9-1.8-9.9 7.6-17.2 16.8-12.7.6.3 1.3-.1 1.4-.7 2-11.4 16.8-13.8 21.9-3.1.3.7 1.1.9 1.7.3 7.6-7.2 19.2-2.3 19.7 7.9.3 1.5 2.3 1.3 2.2 0z"/>
            <path
                d="M84.3 89.4c7.4 8.5 20.5 5.5 23.7-5.2l-1.5.6c12.1 6.3 24.5-5.7 18.8-18l-.6 1.5c7.9-3.1 12-12.4 7.1-20-1.1-1.7-3.1-2.7-4.2-4.2-1.3-1.8-1.2-4.6-1.7-6.8-1.2-4.6-3.6-8.9-6.7-12.5-14.1-16.1-39.7-13-50.6 4.9-.7 1.1 1.1 2.1 1.7 1 9.6-15.7 31.5-19.6 45.2-6.8 2.8 2.6 5.1 5.7 6.7 9.2.9 1.9 1.6 4 2 6 .3 1.4-.1 4.3.7 5.4.6.8.6.4 1.7 1.3 2.4 1.9 4.3 4 5 7.1 1.4 5.9-2.1 11.3-7.5 13.4-.7.3-.9.8-.6 1.5 4.9 10.6-5.8 20.5-16.1 15.2-.6-.3-1.3 0-1.5.6-2.7 9.4-14 11.6-20.3 4.3-.8-.9-2.1.5-1.3 1.5z"/>
            <path
                d="M113.9 85.8c2.7 21.8-17.7 38.7-38.7 32-.4-.1-.9 0-1.2.3-6.2 9-19.4 6.1-21.2-4.7-.1-.8-1.3-1.3-1.8-.5-7 12.1-24.3 4.9-21.3-8.6.2-.7-.7-1.4-1.4-1-12 6.1-22.9-8-14-18 .5-.6 0-1.5-.7-1.6C1.6 82.3-1 66.3 9.8 61.6c8.6-3.7 18.3-.3 25.7 4.4 1.1.7 2.3-.9 1.2-1.6-8.2-5.3-19.9-9.3-29.2-3.9-11.6 6.8-6.9 23.7 5.8 25.1-.2-.5-.5-1.1-.7-1.6-10.2 11.5 2.8 27.9 16.4 21-.5-.3-.9-.7-1.4-1-3.5 15.4 16.8 23.9 24.9 10-.6-.2-1.2-.3-1.8-.5 1.2 7.3 7.4 12.8 15 11.9 2-.2 3.9-.9 5.6-2 1.3-.8 2.7-2.8 4.1-3.3 1.5-.5 5.2.9 6.7 1 2.3.2 4.7.2 7-.2 17.3-2.3 28.8-18.6 26.7-35.6 0-1.1-2-.8-1.9.5z"/>
            <path
                d="M45.6 40.4c25.1 3.6 31.2 37.5 8.6 49.4-1.1.6-.2 2.4.9 1.8 11.4-6 17.7-18.7 14.7-31.5-2.7-11.7-12.5-20-24.2-21.7-1.2-.1-1.3 1.9 0 2z"/>
            <path
                d="M69.9 61.4c8.7-5.8 18.8-7.4 28.9-4.7 1.2.3 1.8-1.6.6-1.9C88.8 52 78.1 53.7 69 59.7c-1.2.7-.2 2.4.9 1.7zM75.8 119c1.4-3.6 2-7.5 2-11.3 0-1.3-2-1.5-2-.2 0 3.6-.6 7.4-1.9 10.8-.4 1.2 1.4 1.9 1.9.7z"/>
        </g>
    </g>
</svg>
