<svg viewBox="0 0 44 130" xmlns="http://www.w3.org/2000/svg">
    <g fill-rule="nonzero" fill="none">
        <path
            d="M33.1 12.1V5.4c0-1.2-1-2.2-2.2-2.2h-13c-1.2 0-2.2 1-2.2 2.2v13.9S5.1 26.1 5.1 39.4v8.1c0 2.3.8 4.6 2.3 6.5l1.1 1.4v7.9l-1.1 1.4c-1.5 1.8-2.3 4.1-2.3 6.5v40.2c0 2.3.7 4.6 1.9 6.5.2.3.5.7.7 1 1.2 1.5 3.1 2.5 5 2.6 2 .1 3.9-.7 5.3-2.1 1.2-1.3 3-2 4.8-2H26c1.8 0 3.5.7 4.8 2 1.4 1.4 3.3 2.2 5.3 2.1 2-.1 3.8-1 5-2.6.3-.4.6-.8.8-1.2 1.2-1.9 1.8-4.1 1.8-6.3V71.2c0-2.3-.8-4.6-2.3-6.5l-1.1-1.4v-7.9l1.1-1.4c1.5-1.8 2.3-4.1 2.3-6.5v-8.1c0-13.4-10.6-20.1-10.6-20.1v-7.2z"
            fill="#AEDEF9"/>
        <g fill="#1E1E1C">
            <path
                d="M4.7 58.5c4.6 1.6 9.6 2 14.4 2.1 1.3 0 1.6-2 .3-2-4.6 0-9.5-.4-13.9-2-1.2-.3-2 1.5-.8 1.9zM4.7 67c2.4.8 5 1.3 7.5 1.6 1.3.2 1.5-1.8.2-2-2.3-.3-4.7-.7-7-1.5-1.2-.4-1.9 1.5-.7 1.9zM12.5 19.8h6.6c1.3 0 1.5-2 .2-2h-6.6c-1.2 0-1.4 2-.2 2z"/>
            <path
                d="M30 12.1c0 2.4-.7 5.6.6 7.6.6.9 2.2 1.8 3 2.6 2 2.1 3.7 4.4 5 7 2.7 5.5 2.6 11.4 2.6 17.3 0 3.5-.6 6.1-2.4 9.2-.9 1.4-1 1.4-1.1 3-.2 2-.4 4.9 0 6.8.3 1.6 1.4 2.4 2.2 3.8 2.2 3.9 1.4 9.6 1.4 13.9v23.1c0 3.6.1 7.2 0 10.8-.1 3.1-.7 5.9-2.9 8.2-4.9 5-8.4-1.1-13.3-2.1-1.7-.3-3.8-.3-5.5-.1-4.7.6-8.9 6.8-13.6 2.8-3.7-3.2-3.3-8.5-3.3-13V85.3v-7.5c0-2.6-.1-4.9.9-7.4.8-1.9 2.3-3.1 2.7-5 .4-1.9.4-5.5 0-7.4-.5-2.3-2.6-3.8-3.2-6.3-1.3-4.7-.8-12.2.2-16.9.8-3.8 2.6-7.4 5-10.4 1.3-1.7 3.3-2.9 4.6-4.5 1.6-2.1 1-5.1 1-7.9 0-1.3-2-1.2-2 .1 0 2 .3 4.2 0 6.1-.2 1.2.8-.9.1 0-.4.5-1.1.9-1.6 1.3-4.1 3.6-7.3 8.4-8.7 13.7C.4 38.1.6 43.4.7 48.5c.1 2.5.5 4.8 1.7 7 0 0 1.8 2.2 1.9 2.4.3 1 0 2.6 0 3.6 0 2.6.1 3.8-.9 5.6C1.9 69.7.9 71.8.7 74.9c-.1 3.1 0 6.2 0 9.4v29.1c0 3.7-.2 7.4 1.5 10.9 2.9 5.9 8.1 6.6 13.3 3.5 4.8-2.8 7.7-3.2 12.6-.5 2.7 1.5 4.4 3.1 7.7 2.3 5.3-1.2 7.4-7.2 7.6-12 .3-9.5 0-18.9 0-28.4v-7.5c0-2.3.1-4.6 0-6.9-.2-3.3-1.5-5.1-2.9-8-1-2-1-4.7-.7-7.2.3-2.5 1.6-3 2.7-5.7 1.9-4.6 1.3-11.5.7-16.3-.7-6.4-3.7-12.4-8.3-16.9-.7-.7-1.4-1.4-2.2-1.9-.4-.3-1-1.1-.7-.4.3.8.2-2.4.2-2.8v-3.3c-.2-1.5-2.2-1.5-2.2-.2z"/>
            <path
                d="M37 80.6c-2.9 1-6.2.2-8.1-2.4-.4-.6-1.3-.7-1.7-.1-2.7 3.9-7.9 4.1-10.8.1-.4-.6-1.3-.7-1.7-.1-1.9 2.7-4.8 3.6-8 2.5-1.2-.4-1.8 1.5-.6 1.9 4.2 1.4 7.8.2 10.3-3.4-.6 0-1.2 0-1.7-.1 3.7 5.3 10.5 5.4 14.2.1-.6 0-1.2 0-1.7-.1 2.5 3.6 6.1 4.9 10.3 3.5 1.2-.3.8-2.3-.5-1.9zM32 3.8C31.4 1 29.6.6 27.1.6H16.9c-2.5 0-4.8.2-5.2 3.1-.4 2.4 0 5 0 7.4 0 .6.6.9 1.1.9h18.4c.6 0 .9-.6.9-1.1-.1-2.3-.1-4.7-.1-7.1 0-1.3-2-1.1-2 .1V11c.3-.4.6-.7.9-1.1H12.5c.4.3.7.6 1.1.9 0-1.9-.3-4 0-5.9.4-2.3 1.3-2.5 3.4-2.5h7.3c1.4 0 5.2-.7 5.7 1.4.3 1.4 2.3 1.3 2 0z"/>
        </g>
    </g>
</svg>
