<svg viewBox="0 0 73 110" xmlns="http://www.w3.org/2000/svg">
    <g fill-rule="nonzero" fill="none">
        <path
            d="M44.3 50.6s8.4-4.3 11.7-10.1c1.9-3.3-1.5-7.1-5-5.7l-3.5 1.4c-.7.3-1.2-.6-.7-1.1 2.3-2.4 5.7-6.5 7.1-11 1.1-3.5-2.8-6.5-5.9-4.6L42.7 24c-.5.3-1.3-.2-1-.7 2.5-4.7 5.3-17.6-3.4-17.6s-5.9 12.9-3.4 17.6c.3.5-.5 1-1 .7l-5.3-4.5c-3.2-1.9-7 1.1-5.9 4.6 1.4 4.5 4.8 8.6 7.1 11 .5.5-.1 1.4-.7 1.1l-3.5-1.4c-3.5-1.4-6.9 2.4-5 5.7 3.3 5.8 11.7 10.1 11.7 10.1l8.1 3.9 3.9-3.9z"
            fill="#76B72E"/>
        <path
            d="M42.8 48.1c4.4-2.3 13.2-7.6 12.8-13.4-.2-2.1-1.8-4-3.9-4.5-1.2-.3-2.2 0-3.3.3-.8.2-1.6.8-2.4.9-1.4.2.6-.5 1.2-1.1 3.3-3 10.2-15.6 1-16-2.5-.1-4.2 1.8-5.9 3.3-.6.5-1.2 1.2-1.8 1.5-1.1.6.4.1.4.2.3-1.5 1.1-2.9 1.5-4.3 1.1-4.6 1.8-12.1-4.1-13.7-5.6-1.6-8.9 2.9-8.9 7.9-.1 3.2.7 6.5 1.9 9.5.1.3.4 1.3 1 .7l-1.5-1.2c-1-1-2.4-2.4-3.6-3-1.9-1.1-4.1-1.2-5.9.2-2.9 2.2-1.8 5.6-.5 8.4 1.1 2.2 2.6 4.8 4.4 6.5.7.6 2.5 1.3 1.2 1-.8-.2-1.6-.7-2.4-.9-2.7-.8-5.5-.3-6.7 2.6-2.8 6.2 8 12.7 12.4 15 1.1.6 1.9-1.3.7-1.9-1.5-.8-3-1.8-4.4-2.8-1-.7-2-1.5-2.9-2.3-.9-.8-1.8-1.7-2.5-2.6-2-2-1.1-4 2.7-6.1 1.6 0 4.5 2.9 5.5.2.4-1.2-1-2.2-1.6-2.9-1.1-1.3-2.2-2.6-3.1-4-.7-1-1.3-2.1-1.8-3.2-1.3-2.2 0-4 3.7-5.5 2.6.8 3.7 4.7 6.7 4.5.3 0 .7-.3.8-.6.7-2.2-1.2-4.7-1.7-6.9C31 10 30.5 3.1 36.2 3.2c5.5.1 5.2 6.4 4.4 10.3-.5 2.3-2.5 5.1-1.8 7.4.1.3.5.6.8.6 1.4.1 1.4-.2 2.5-1 .8-.6 3.4-3.6 4.2-3.5 1.3 1.6 2.6 3.2 4 4.9-.6 1.4-1.3 2.7-2.1 3.9-.8 1.2-1.7 2.4-2.7 3.5-.7.8-2.5 2.1-2 3.4 1.1 2.7 3.9-.3 5.5-.2 3.7 2.2 4.6 4.2 2.6 6.2-.6.8-1.3 1.5-2.1 2.2-1.1 1-2.2 1.9-3.4 2.8-1.4 1-2.8 2-4.4 2.8-.8.4-.1 2.3 1.1 1.6z"
            fill="#1E1E1C"/>
        <path
            d="M42.8 48.2c4.4-2.3 13.2-7.6 12.8-13.4-.2-2.1-1.8-4-3.8-4.5-1.2-.3-2.2 0-3.3.3-.8.2-1.6.8-2.4.9-1.3.2.5-.5 1.2-1.1 3.3-3 10.3-15.6 1-16-2.5-.1-4.2 1.8-5.9 3.3-.6.5-1.2 1.2-1.8 1.5-1.1.6.4.1.4.2.3-1.4 1.1-2.9 1.5-4.3 1.1-4.6 1.8-12.1-4-13.8-5.6-1.6-8.9 2.9-9 7.9-.1 3.2.7 6.5 1.9 9.5.1.3.4 1.4 1 .8l-1.5-1.2c-1-1-2.4-2.4-3.6-3-1.9-1.1-4.1-1.2-5.9.2-2.9 2.3-1.9 5.6-.5 8.4 1.1 2.2 2.5 4.8 4.4 6.5.6.6 2.6 1.3 1.2 1.1-.8-.2-1.6-.7-2.4-.9-2.7-.8-5.5-.3-6.7 2.5-2.8 6.2 8 12.7 12.4 15.1 1.1.6 1.9-1.2.8-1.8-1.5-.8-3-1.8-4.4-2.8-1-.7-2-1.5-2.9-2.3-.9-.8-1.8-1.7-2.5-2.6-2-2-1.1-4 2.6-6.2 1.6 0 4.5 2.9 5.5.2.4-1.2-.9-2.2-1.6-2.9-1.1-1.3-2.2-2.6-3.1-4-.7-1-1.3-2.1-1.8-3.2-1.3-2.2 0-4 3.7-5.6 2.6.8 3.7 4.7 6.7 4.5.3 0 .7-.3.8-.6.7-2.2-1.2-4.7-1.7-6.9-.9-3.9-1.3-10.8 4.4-10.8 5.5 0 5.2 6.4 4.5 10.3-.4 2.3-2.5 5.1-1.8 7.4.1.3.5.6.8.6 1.4.1 1.4-.2 2.5-1 .8-.6 3.3-3.6 4.2-3.5 1.3 1.6 2.7 3.2 4 4.8-.6 1.4-1.3 2.7-2.1 3.9-.8 1.2-1.7 2.4-2.7 3.5-.7.8-2.5 2.1-2 3.4 1 2.7 3.9-.3 5.5-.2 3.8 2.1 4.6 4.2 2.6 6.2-.5.7-1.1 1.3-1.7 1.8-1.2 1.2-2.4 2.2-3.7 3.1-1.4 1-2.8 2-4.4 2.8-1.1.6-.4 2.5.8 1.9z"
            fill="#1E1E1C"/>
        <path
            d="M39.2 43.6s-14.1.2-27.1 4.2c-4.4 1.4-6.8 6.1-5.4 10.5l15 46.9c.5 1.6 2 2.7 3.7 2.7H53c1.7 0 3.2-1.1 3.7-2.7l15-46.9c1.4-4.4-1-9.1-5.4-10.5-13-4-27.1-4.2-27.1-4.2z"
            fill="#924E16"/>
        <g fill="#1E1E1C">
            <path
                d="M13 59.2h3.5c1.3 0 1.2-2-.1-2h-3.5c-1.2 0-1.1 2 .1 2zM22.8 68.8h3.5c1.3 0 1.2-2-.1-2h-3.5c-1.3 0-1.2 2 .1 2zM36.3 57.2h-3.5c-1.3 0-1.3 2 0 2h3.5c1.4 0 1.3-2 0-2zM42.5 68.8H46c1.3 0 1.4-2 .1-2h-3.5c-1.3 0-1.4 2-.1 2zM56.2 57.2h-3.5c-1.3 0-1.3 2 0 2h3.5c1.3 0 1.3-2 0-2z"/>
            <path
                d="M34.5 43.2c-4.1.1-8.2.5-12.3 1-5.5.8-14.5 1.3-18.7 5.4-4.6 4.5-2.2 10.1-.6 15.2 2.6 8.1 5.2 16.3 7.8 24.4 1.7 5.4 3 11.6 5.4 16.8 2.6 5.6 12.5 3.4 17.5 3.4h7.9c2.7 0 7.1.8 9.6-.9 3.4-2.3 4.3-10.1 5.4-13.6 2.7-8.4 5.4-16.9 8.1-25.3 1.6-5.1 5.5-12.4 2.7-17.7-3.2-6-12.9-6.6-18.8-7.5-4.6-.6-9.3-1.1-14-1.2-1.3 0-1.1 2 .2 2 3.5.1 7 .4 10.5.8 6.2.8 18.7 1.3 20.9 8.1 1.4 4.3-2 10.8-3.3 14.8-2.3 7.1-4.6 14.3-6.9 21.4-1.5 4.6-2.4 10.4-4.7 14.7-2.4 4.5-11.8 2.5-16.1 2.5h-5.2c-3.3 0-9.9 1.4-12-2.1-1.8-2.9-2.4-7.5-3.4-10.8-2.3-7.3-4.7-14.6-7-21.9C6 68.1 4 63.3 3 58.6.8 48.1 15.1 47.3 22.4 46.3c4.1-.6 8.2-1 12.3-1 1.3-.1 1.1-2.1-.2-2.1z"/>
        </g>
    </g>
</svg>
