<svg viewBox="0 0 126 135" xmlns="http://www.w3.org/2000/svg">
    <g fill-rule="nonzero" fill="none">
        <path
            d="M65.2 42.1s7-3.6 9.8-8.5c1.6-2.8-1.3-5.9-4.2-4.8l-3 1.2c-.6.2-1-.5-.6-.9 2-2.1 4.8-5.5 6-9.3.9-3-2.3-5.5-5-3.9l-4.5 3.7c-.4.3-1.1-.2-.8-.6C65 15.1 67.4 4.2 60 4.2c-7.3 0-4.9 10.9-2.9 14.8.2.4-.4.9-.8.6l-4.5-3.7c-2.7-1.6-5.9.9-5 3.9 1.2 3.8 4 7.2 6 9.3.4.4-.1 1.1-.6.9l-3-1.2c-3-1.2-5.8 2-4.2 4.8 2.8 4.9 9.8 8.5 9.8 8.5l6.8 3.3 3.6-3.3z"
            fill="#76B72E"/>
        <path
            d="M50 35.1s1.4-7.8-.8-13c-1.2-2.9-5.5-2.6-6.4.4l-.9 3.1c-.2.6-1 .5-1.1-.1-.4-2.8-1.4-7.1-3.7-10.4-1.8-2.5-5.8-1.5-6.1 1.6l.2 5.8c-.1.5-.8.8-1 .3-1.9-4-9-12.6-13.5-6.8s5.6 10.5 10 11.3c.5.1.4.9 0 1L21 29.6c-2.9 1.1-2.9 5.3 0 6.3 3.7 1.4 8.2 1.2 11 .9.6-.1.9.7.4 1.1l-2.7 1.7c-2.7 1.6-1.9 5.8 1.2 6.3 5.6.8 12.7-2.6 12.7-2.6l6.8-3.4-.4-4.8zM71.4 48.1s7.6 2.4 13 .9c3.1-.8 3.3-5.1.4-6.4l-2.9-1.3c-.6-.2-.4-1.1.2-1.1 2.8-.1 7.3-.5 10.8-2.3 2.7-1.4 2.2-5.5-.8-6.3l-5.8-.5c-.5-.1-.6-.9-.2-1 4.3-1.3 13.6-7.3 8.5-12.5-5.2-5.2-11.2 4.2-12.5 8.5-.1.5-.9.3-1-.2l-.5-5.8c-.8-3-4.9-3.5-6.3-.8-1.8 3.5-2.3 8-2.3 10.8 0 .6-.8.8-1.1.2l-1.3-2.9c-1.3-2.9-5.5-2.6-6.4.4-1.5 5.4.9 13 .9 13L62.7 48l8.7.1z"
            fill="#76B72E"/>
        <path
            d="M57.6 101.7c.8 1 1.4 2.1 2.2 3.2.4-.3.9-.5 1-.8.6-1.5 1.8-2.5 3-3.4 2.8-2.2 5.6-4.4 8.3-6.7 1.2-1 2.4-1.9 3.5-3 2.7-2.3 5.3-4.7 6.5-8.2.1-.4.5-.7.7-.8 0-2.8-.2-5.3-.8-7.8-.5-2.5-1.5-4.7-3.2-6.4-1.4-1.4-2.9-2.8-4.4-4.1-1.1-.9-2.3-1.5-3.4-2.2-2.4-1.5-4.3-3.7-6.2-5.8-1.8-1.9-3.3-3.8-2.8-6.8.1-.4-.2-1.5-1.3-1.2-.4 1-.5 2.2-1.1 3.1-1.8 2.5-3.6 5.2-6.2 7-1.6 1.1-2.7 3.1-4.8 3.5-.4.7-4.6 4.7-5.5 5.3-4.1 2.7-6.2 7.6-5.4 12.6.7 4.1 2.1 7.9 4.6 11 1.4 1.7 2.8 3.7 5.1 4.5 1.1.4 2.3 1.2 3 2.2.9 1.3 2.7.8 3.4 2.3.2.4 1.3 0 1.1 1 .9.2 1.9.6 2.7 1.5"
            fill="#CF92B5"/>
        <g fill="#1E1E1C">
            <path
                d="M62.1 48.1c-1.3-1.8-3.4-2.9-5.5-1.8-1.5.8-2.1 2.5-2.9 3.9-1.5 2.7-3.4 5.1-5.4 7.4-5.4 6-12.8 11-14.4 19.4-1.4 7.1 2.2 11.5 7.5 15.8 2.8 2.2 5.7 4.1 8.6 6.1 2.2 1.5 7.4 4.2 7.7 7.4.1.7.9 1.1 1.5.6 7.4-7.4 23.1-12.7 24.4-24.6.6-5.7-2-11-5.6-15.2-5.7-6.5-12-11.4-15.9-19-.5-1-1.9-.1-1.4.9 3.1 6 7.5 10.6 12.3 15.4 4.8 4.8 9.7 10.3 8.8 17.7-1.3 11.3-16.7 16.5-23.9 23.6l1.5.6c-.3-3.5-4.3-5.8-6.9-7.6C47.2 95 40.7 91.6 37 86.2c-4.7-6.8.5-15 5.4-20 2.7-2.8 5.6-5.3 8.1-8.3 1-1.1 1.9-2.3 2.8-3.5 1-1.4 4.5-9.5 7.6-5.2.4.6 1.8-.2 1.2-1.1z"/>
            <path
                d="M57.7 57.2c2.3 3.6 5 6.9 7.9 10.1 3.3 3.7 7.4 7.3 7.8 12.5.5 7.1-8.7 10.9-13.6 14.2-.4.3-1.1.7-1.6.8.6-.1.7.1-.3-.4-2.2-1.2-4.4-2.5-6.5-4-2.6-1.8-5.9-4.1-7.3-7.1-2.6-5.7 2.8-11.2 6.3-15.1.7-.8-.4-2-1.1-1.2-5.9 6.4-10.9 13.8-3.5 21 2.8 2.7 6.2 4.9 9.6 6.9 1.4.8 2.3 1.5 3.7 1.3 2.4-.3 5.9-3.4 7.9-4.8 2.8-2 6.3-4.6 7.6-7.9 1.5-3.8-.1-8.2-2.4-11.3-4-5.6-9.2-10-13-15.9-.6-.8-2.1 0-1.5.9z"/>
            <path
                d="M58.9 88.8c-2.5-1.7-6.3-3.9-7.7-6.6-2.4-4.4 5.5-11.1 7.9-14.1h-1.3c2.3 3 10.2 9.8 7.9 14.1-1.4 2.6-5.3 4.9-7.7 6.6-.9.6.1 2 1 1.4 2.7-1.9 7.9-4.9 8.9-8.4.4-1.4-.1-3-.7-4.2-1.9-3.8-5.4-7.1-8-10.5-.3-.4-1-.5-1.3 0-2.5 3.3-5.6 6.3-7.7 9.9-.8 1.4-1.5 3.1-1.1 4.7.9 3.5 6.1 6.5 8.9 8.4.8.7 1.8-.7.9-1.3z"/>
        </g>
        <path
            d="M63.9 40.1c3.6-1.9 10.5-6 10.7-10.6.1-1.9-1.1-3.8-3-4.3-1.2-.3-2-.1-3.2.2-.5.2-1.1.5-1.6.6-1.5.3.3-.4.9-1 2.7-2.6 8.2-12 1.1-13.2-2.1-.3-3.4 1-4.8 2.2-.6.5-1.2 1-1.7 1.5-1 .8-.1.5-.1.4 0-1.1.9-2.4 1.2-3.5.9-3.8 1.5-9.9-3.1-11.5-4.8-1.6-7.7 2.3-7.8 6.6-.1 2.7.6 5.2 1.5 7.7.3 1 .8.7.7.7-.3 0-1.3-1.1-1.5-1.3-.8-.7-1.7-1.7-2.6-2.2-1.8-.9-3.8-.9-5.3.6-2 2.1-1 4.8.2 7 .9 1.7 2 3.6 3.3 4.9 2.3 2.3 1.1.7-1 .2-2-.5-4.1-.1-5.2 1.9-3 5.3 6.5 11.1 10.2 13 1 .5 1.6-1.1.6-1.6-2.3-1.2-7.7-4.1-8.3-6.6-.3-1 1.6-4.7 2.8-4.9.6-.1 1.3.7 2 .8.8.1.8.2 1.6-.1.4-.1.5-.6.5-.9-.1-1.5-1.3-2.3-2.2-3.4-.9-1.1-2.3-2.7-2.7-4-1.1-1.3-.8-2.5 1-3.4.5-2.1 1.2-2.7 2.1-1.7 2.1.5 2.8 3.5 5.2 3.4.3 0 .6-.3.7-.5.5-1.7-.8-3.3-1.2-5-.8-3.1-1.7-10.2 3.5-9.8 5 .4 4.4 6.2 3.5 9.7-.4 1.7-1.8 3.4-1.2 5.1.1.3.4.5.7.5 2.4.2 3.2-2.7 5.2-3.4 2.9-.9 3.8 2.9 3.1 5.1-.4 1.3-1.5 2.5-2.3 3.6-1 1.3-2.5 2.3-2.7 3.9 0 .3.2.8.5.9.7.2.9.2 1.5.1.6 0 1.2-.6 1.8-.7 2.3-.3 4 2.6 3.1 4.7-1.1 2.7-5.9 5.3-8.4 6.6-.9.7-.2 2.2.7 1.7z"
            fill="#1E1E1C"/>
        <path
            d="M64.1 40c3.6-1.9 11.5-6.7 10.5-11.6-.4-1.9-2.1-3.4-4-3.4-1.1 0-1.8.4-2.7.7-.2.1-1.6.6-1.6.6.2.5 2.5-2.5 2.4-2.3 2.2-2.9 7.1-11.3.2-12.1-2.3-.3-3.7 1.4-5.3 2.8-.2.2-1 1-1.3 1.1-1 .4.1.6.3-.1.4-1.4 1-2.7 1.3-4.1.8-3.8.9-9.4-3.7-10.7-4.9-1.4-7.4 2.8-7.4 7.1 0 2.7.8 5.1 1.7 7.6.2.7 1.4.6.4.2-.3-.1-1.1-.9-1.3-1.1-.8-.7-1.7-1.7-2.6-2.2-1.8-.9-3.9-.9-5.4.7-2 2-.9 4.7.2 6.9 1 2 2.3 3.7 3.7 5.4.5.6 2.2.9.6.6-.7-.1-1.3-.6-1.9-.8-2-.5-4.1-.2-5.3 1.8-3.1 5.3 6.5 11.1 10.2 13 1 .5 1.7-1 .7-1.5-2.5-1.3-6.7-3.6-8-6.2-1.3-1-1.1-2 .6-3.2.2-1.9.8-2.7 1.8-2.1.6-.1 1.3.7 2 .8.8.1.8.2 1.6-.1.3-.1.6-.5.6-.9-.1-1.5-1.3-2.3-2.2-3.4-.7-.9-1.5-1.9-2.1-2.9-1.8-1.7-1.7-3.2.4-4.6.5-2.1 1.2-2.7 2.1-1.8 2.1.5 2.8 3.6 5.2 3.4.4 0 .7-.3.8-.7.5-1.5-.9-3.4-1.3-5-.8-3.3-1.5-11 4.4-9.6 7.6 1.7.2 11 1.4 14.8.1.3.4.5.6.5 2.4.2 3.1-2.7 5.2-3.4 2.2-.7 3.8 2.4 3.5 4.5-.2 1.5-1.7 3-2.6 4.2-1 1.3-2.5 2.3-2.7 3.9 0 .5.2.8.7 1 .9.3 1 .1 1.8-.1.5-.1 1.5-.9 2-.8 1 1.5 1.9 3 2.9 4.4-.4.6-.8 1.1-1.3 1.6-2.1 2.3-4.9 4.2-7.7 5.7-1.3.5-.4 1.9.6 1.4z"
            fill="#1E1E1C"/>
        <path
            d="M69.8 44.9c3.7 1.6 10.7 4 14.5 1.8 3.3-1.9 2.3-5.7-.2-7.6l-1.5-.9c-.9-.5-.9-.5 0 0 1.2-.3 3 0 4.3-.1 2.5-.2 6.2-.5 7.8-2.8 2-2.8 0-5.7-2.8-6.6-1.1-.4-2.4-.4-3.5-.7-1.6-.4-1.4.2 0-.1 2.2-.6 4.3-1.8 6.1-3.1 3.1-2.3 5.2-6 2.4-9.4-3-3.7-7.3-1.8-10.2 1-.9.8-5 5.1-3.9 6.2-.6-.6.1-4.7.1-5.6 0-1.1-1.7-1.1-1.7-.1 0 2.1-.9 5.3.6 6.9.3.3.7.3 1 .2 1.4-.6 2-2.7 2.9-3.9 2.2-3 10.6-9.3 10.4-1-.1 3.5-3.5 5.3-6.4 6.5-1.4.6-3.3.6-4.2 1.9-.2.2-.2.6 0 .8 1.4 2 4.1.7 5.9 1.9 1.9 1.2.8 4.6-1.2 5.5-1.4.6-3.4.6-4.9.6-1.6.1-3.4-.5-4.8.4-.4.3-.5.7-.3 1.1.3.9.5.8 1.2 1.3.5.4 1.4.6 1.9 1.1 2.3 2.5.3 4.6-1.9 5-3.5.6-7.8-.9-11-2.3-1.1 0-1.5 1.6-.6 2zM59.3 45.8v-13c0-1.1-1.7-1-1.7.1v13c0 1 1.7.9 1.7-.1zM46.4 43.4c-2 .9-8.9 3.7-11 2.3-.6-1.7-1.3-3.3-1.9-5 .2-.1.5-.3.7-.4.4-.4 1.1-.5 1.5-.9.6-.6.6-.4 1-1.3.1-.3 0-.8-.3-1-1.3-.9-2.4-.4-4.1-.4-1.2 0-2.4-.1-3.6-.2-2.5.4-3.6-.7-3.3-3.2-1.3-1.7-1.4-2.7-.1-2.7 1.7-1.3 4.6.1 5.9-1.9.2-.3.2-.7 0-1-.8-1.2-2.9-1.3-4.2-1.9-3.3-1.5-7.8-3.9-5.9-8 4.3-9.4 10 5.3 13 6.5.3.1.6.1.8-.1 1.5-1.7.7-4.8.7-6.9 0-1.1-1.7-1.2-1.7-.2 0 1.4 0 2.9.1 4.3 0 1.3.4.9.3.7-.6-.7-.9-1.6-1.4-2.4-1.9-2.7-5.1-6.4-8.7-6.3-2.8 0-5.4 2.6-5.5 5.4-.2 3.2 2.8 5.7 5.3 7.1 1.6.9 3.2 1.6 4.9 2.2.7.2 1.6-.3.2 0-1 .2-2.1.4-3.1.6-2.3.6-4.4 1.6-4.4 4.4.1 4 4.8 4.7 7.9 5 1.3.1 2.8.3 4.1.1.8-.1 1.4-.5 1.2-.3-.7 1-2.5 1.2-3.3 2.2-2.1 2.6-.6 6.1 2.4 6.9 4.1 1.1 9.5-.7 13.4-2.3.8-.2.1-1.8-.9-1.3z"
            fill="#1E1E1C"/>
        <g>
            <path
                d="M34.9 59.9s4.9-2.5 6.8-5.9c1.1-1.9-.9-4.1-2.9-3.3l-2.1.8c-.4.2-.7-.3-.4-.6 1.3-1.4 3.3-3.8 4.1-6.4.6-2-1.6-3.8-3.5-2.7l-3.1 2.6c-.3.2-.7-.1-.6-.4 1.4-2.7 3.1-10.2-2-10.2s-3.4 7.5-2 10.2c.2.3-.3.6-.6.4l-3.1-2.6c-1.8-1.1-4.1.6-3.5 2.7.8 2.6 2.8 5 4.1 6.4.3.3 0 .8-.4.6l-2.1-.8c-2-.8-4 1.4-2.9 3.3 1.9 3.4 6.8 5.9 6.8 5.9l4.7 2.3 2.7-2.3z"
                fill="#76B72E"/>
            <path
                d="M24.3 55s1-5.4-.5-9c-.8-2-3.8-1.8-4.4.3l-.6 2.1c-.1.4-.7.4-.8 0-.3-1.9-1-4.9-2.6-7.2-1.2-1.8-4-1-4.2 1.1l.2 4c0 .3-.5.5-.7.2-1.3-2.8-6.2-8.7-9.3-4.7-3.1 4 3.9 7.3 6.9 7.8.3.1.3.6 0 .7l-3.9.9c-2 .8-2 3.6 0 4.4 2.6.9 5.7.8 7.6.6.4 0 .6.5.2.7L10.3 58c-1.9 1.1-1.3 4 .9 4.3 3.8.5 8.8-1.8 8.8-1.8l4.7-2.4-.4-3.1zM39.2 64s5.2 1.7 9 .6c2.1-.6 2.3-3.5.3-4.4l-2-.9c-.4-.2-.3-.7.1-.8 2 0 5-.4 7.5-1.6 1.9-1 1.5-3.8-.5-4.3l-4-.4c-.3-.1-.4-.6-.1-.7 2.9-.9 9.4-5.1 5.8-8.6-3.6-3.6-7.7 2.9-8.6 5.8-.1.3-.6.2-.7-.1l-.4-4c-.5-2.1-3.4-2.4-4.3-.5-1.3 2.4-1.6 5.5-1.6 7.5 0 .4-.6.5-.8.1l-.9-2c-.9-2-3.8-1.8-4.4.3-1 3.7.6 9 .6 9l-1 4.9 6 .1z"
                fill="#76B72E"/>
            <path
                d="M29.6 101.1c.5.7 1 1.5 1.5 2.2.3-.2.6-.4.7-.6.4-1 1.2-1.7 2-2.4 1.9-1.5 3.8-3.1 5.8-4.6.8-.7 1.6-1.3 2.4-2 1.8-1.6 3.7-3.2 4.5-5.7.1-.3.4-.5.5-.6 0-1.9-.2-3.7-.6-5.4-.4-1.7-1-3.2-2.2-4.4-1-1-2-2-3-2.8-.7-.6-1.6-1-2.4-1.5-1.7-1.1-3-2.5-4.3-4-1.2-1.3-2.2-2.6-2-4.7 0-.3-.2-1-.9-.8-.2.7-.4 1.5-.8 2.1-1.3 1.8-2.5 3.6-4.3 4.8-1.1.8-1.9 2.1-3.3 2.4-.3.5-3.2 3.2-3.8 3.7-2.8 1.9-4.3 5.2-3.7 8.7.5 2.8 1.5 5.5 3.2 7.6.9 1.2 1.9 2.5 3.5 3.1.8.3 1.6.9 2.1 1.5.6.9 1.9.6 2.4 1.6.1.3.9 0 .7.7.8.1 1.5.4 2 1.1"
                fill="#CF92B5"/>
            <g fill="#1E1E1C">
                <path
                    d="M32.7 63.9c-3.7-4.5-6.3 2.6-8.1 4.9-3.7 4.6-9.4 8.1-11.2 14.1-1.3 4.4.1 7.6 3.4 10.6 2.1 1.9 4.5 3.5 6.9 5.1 1.8 1.2 5.6 3.1 5.9 5.6.1.4.6.7.9.4 5.2-5 15.6-8.7 16.9-16.8C48.9 78 36.7 71.5 32.7 64c-.3-.7-1.4-.2-1.1.4 2 3.8 4.7 6.9 7.8 9.9 3.9 3.9 8.7 8.9 6.4 14.9-1.6 4.3-6.5 7.3-10.1 9.8-1.6 1.1-3.1 2.3-4.7 3.4-1.3 1 .4 1.2-.8 0C25.7 98 17 94.6 14.5 88.7c-2.2-5.2 2.3-10.3 5.7-13.7 1.5-1.5 3-2.9 4.4-4.6.7-.8 5.2-8.4 7.2-6 .4.8 1.3.1.9-.5z"/>
                <path
                    d="M29.7 70.3c3 4.6 10.4 9.8 10.7 15.3.3 4.8-5.5 8.1-9.3 10.1-1.3.7-.6.5-1.2.4-1.2-.3-2.6-1.5-3.7-2.1-2-1.3-4.6-3-5.8-5.2-2.2-4.1 1.6-8 4.2-10.8.5-.6-.3-1.4-.8-.8-3.6 4-7.4 9-3.1 13.8 1.8 2 6.9 6.7 9.8 6.4 3.3-.3 9.7-5.8 10.8-8.8 2.5-6.9-7.5-14-10.7-18.8-.3-.7-1.3-.1-.9.5z"/>
                <path
                    d="M30.5 92.1c-1.7-1.2-4.4-2.8-5.4-4.7-1.5-2.9 4.1-7.7 5.6-9.7-.3 0-.6.1-.9.1 1.5 2 7 6.7 5.5 9.6-1 1.9-3.7 3.5-5.4 4.6-.6.4-.1 1.5.5 1 2-1.4 5.5-3.4 6.2-5.8.3-1-.1-2.1-.5-2.9-1.4-2.7-3.8-4.9-5.6-7.3-.2-.3-.7-.2-.9.1-1.8 2.3-4.1 4.5-5.5 7.2-.4.9-.8 2-.5 3 .7 2.4 4.3 4.5 6.2 5.8.7.4 1.3-.6.7-1z"/>
            </g>
            <path
                d="M34.1 58.4c2.4-1.3 7.7-4.4 7.3-7.7-.1-1.4-1.1-2.5-2.5-2.7-.6-.1-1.2.3-1.7.3-.3 0-1.3.7-1.4.6.2.2 1.6-1.6 1.7-1.7 1.6-1.9 4.7-8.4-.4-8.3-1.3 0-2.1.9-3 1.7-.3.2-.9 1-1.2 1-.8-.1.4.3.2 0-.1-.2.9-3 1-3.2.5-2.8.3-6.6-3.1-7.2-3.3-.5-4.6 2.3-4.6 5.1 0 .4.8 5.9 1.6 5.5-.3.2-2.5-2.3-3.1-2.6-3.8-1.5-4.8 2.3-3.5 5.1.7 1.5 2 2.6 2.7 4 .6 1.3.3 0-1-.2-1.5-.2-2.8-.2-3.7 1.3-2 3.7 4.5 7.6 7 9 .7.4 1.2-.7.5-1-1.1-.6-2.1-1.2-3-2-.9-.7-6.2-5.3-1-6.1 1-.1 1.6.9 2.6.6.2-.1.4-.3.4-.6s-.2-.6-.2-.9c-.2-1.2-2.4-2-2.6-3.3.4-1.6.9-3.2 1.3-4.8.2.2.5.4.7.6 1.2.4 1.6 2 3.1 1.9.3 0 .5-.2.5-.5.3-.9-.3-1.3-.5-2.1-.2-1-.7-2-.7-3.1-.1-.3-.1-.6-.1-1-.2-2.2 1.6-2.9 5.4-2.1 1.7 2.7-1.8 5.8-1.1 8.3.1.3.3.4.6.4 1.5.1 2-1.8 3.2-2.1 5.5-1.5.7 5.7 0 6.8-.8 1.2-.9.6-1 1.7 0 .3.1.6.4.7 1.5.5 5.9-2.9 4.4 2.8-.5 1.8-4.3 3.8-5.9 4.7-.6.5 0 1.5.7 1.1z"
                fill="#1E1E1C"/>
            <path
                d="M34.1 58.4c2.4-1.3 7.6-4.4 7.3-7.7-.1-1.3-1.2-2.4-2.5-2.7-.6-.1-1.2.2-1.8.3-2 .2-1.1.5.3-1.2 1.5-1.9 4.7-8.3-.3-8.3-1.3 0-1.9.8-2.8 1.5-.3.2-.9.9-1.3 1.1-.8.4 0 .4 0 .2-.1-.6.7-2.1.9-2.7.6-2.7.7-6.7-2.6-7.6-3.2-.9-5 1.8-5.1 4.6 0 1.5 1.5 4.4 1.2 5.6-.1.4.9.3 0-.1-.4-.2-1-.8-1.3-1.1-.4-.3-.8-.9-1.3-1.1-3.7-1.5-4.8 2.1-3.6 4.9.7 1.6 1.9 2.6 2.7 4.1.9 1.6.4-.1-1-.1-1.5 0-2.8-.2-3.6 1.4-1.9 3.7 4.6 7.5 7.1 8.9.7.4 1.2-.7.5-1-1.1-.6-2.1-1.2-3-2-1-.8-6.3-5.3-1-6.1 1-.1 1.6.9 2.7.6.2-.1.4-.3.4-.6-.1-.9-.5-.9-1-1.7-.5-.7-1.7-1.6-1.8-2.5.4-1.6.9-3.2 1.3-4.8.2.2.5.4.7.6 1.2.4 1.6 2 3.1 1.9.3 0 .4-.2.5-.5.3-.9-.3-1.3-.5-2.1-.2-1-.6-2-.7-3.1-.1-.5-.1-.9 0-1.4-.2-2.4 1.6-2.7 5.6-.9 1.3 2.5-1.9 5.3-1.2 7.6.1.2.2.4.4.4 1.5.1 1.8-1.4 3.1-1.9s0-2 1.8 1.1c1.3 2.3.6 2.8-1 4.9-.6.8-1.4 1.3-1.5 2.3 0 .3.1.6.5.7 1.5.5 5.9-2.9 4.4 2.8-.5 1.8-4.3 3.8-5.9 4.7-1 .4-.4 1.4.3 1z"
                fill="#1E1E1C"/>
            <path
                d="M38 61.8c2.5 1 7.7 2.9 10.3 1.2 2.3-1.6 1.1-3.7-.4-5.1-1.1-1-1.7-.4-.1-.5 1.1-.1 2.3 0 3.4-.2 1.5-.2 3.4-.6 4.2-2 1.1-2-.3-3.7-2.1-4.3-.7-.2-1.6-.3-2.3-.5-1.4-.2-.8.2-.5 0 1.4-1 3.4-1.2 4.8-2.4 2-1.6 3.3-4.1 1.5-6.3-2-2.4-4.9-1.4-6.9.5-1.3 1.1-1.9 2.8-3 3.9.1.7.1.7.1.1v-1.4-2c0-.7-1.1-.9-1.2-.1 0 1.4-.6 3.7.4 4.8.2.2.4.3.7.2 1.3-.5 6.6-10.4 8.9-5.2.7 1.7-.7 4.3-2 5.2-.7.5-1.5.9-2.3 1.2-.9.4-2 .3-2.6 1.2-.2.2-.1.5 0 .7.9 1.3 2.9.4 4 1.2.4.3 1 2.8.5 3.4-.7.8-3.9.8-5 .8-1.2 0-2.1-.3-3.1.4-.2.1-.2.5-.2.7.9 2.3 3.5.3.9 3.5-1.9 2.3-2.9 1.7-5.7.8-.7-.2-1.4-.5-2-.7-.6-.5-1 .6-.3.9zM30.7 62.3v-9c0-.7-1.2-.6-1.2.1v9c.1.8 1.2.7 1.2-.1zM21.8 60.7c-.9.4-1.9.7-2.8 1-.7.2-1.5.4-2.3.5-1.9.9-2.9.3-3-1.6-1.2-3.1.6-1.4 1.4-3.5.1-.2 0-.5-.2-.7-.8-.6-.8-.2-1.9-.3-.9-.1-2.9.4-3.7-.2-.8-1.3-1.6-2.6-2.4-4 .3 0 .5-.1.8-.1 1.2-.7 2.8 0 3.7-1.2.2-.2.1-.5 0-.7-.5-.7-1.1-.6-1.8-.9-1.1-.4-2.1-.8-3.1-1.5-2.2-1.4-2.1-1.3-.4-3.8 1.8-2.6 2.1-2.4 4.2-.1.6.7 1.1 1.4 1.6 2.2.5.8.5 1.4 1.4 1.8.2.1.4 0 .6-.1 1.1-1.2.5-3.3.5-4.8 0-.7-1.2-.9-1.2-.1 0 .9 0 3.6.1 3.6-.2 0-2.5-3.7-3-4.2-2-1.8-4.9-2.9-6.9-.4-1.8 2.3-.5 4.7 1.5 6.3 1.4 1.1 3.5 1.3 4.8 2.4.7-.2.7-.3.1-.1-.5.1-.9.2-1.4.3-.6.1-1.4.1-1.9.4-2 .9-2.9 3.2-1.2 4.9 1.1 1.2 3.6 1.4 5.1 1.5.4 0 2.3-.1 2.7 0 .9-.4.9-.3 0 .1-.3.2-.6.4-1 .5-1.7 1.3-2.2 3.7-.2 5.1 2.6 1.7 7.7-.1 10.3-1.2.8-.3.3-1.4-.4-1.1z"
                fill="#1E1E1C"/>
        </g>
        <g>
            <path
                d="M98.5 62.8s5.5-.5 8.5-2.8c1.7-1.3.8-4.1-1.4-4.2h-2.2c-.4 0-.5-.6-.2-.8 1.8-.8 4.5-2.2 6.3-4.3 1.4-1.6 0-4.1-2.2-3.8l-3.9 1.2c-.3 0-.6-.4-.4-.6 2.4-2 6.8-8.3 2.1-10.2-4.7-1.9-6 5.6-5.7 8.7 0 .3-.5.4-.7.2l-1.9-3.6c-1.3-1.7-4-1-4.2 1.2-.2 2.7.7 5.7 1.4 7.5.2.4-.3.7-.6.4l-1.6-1.5c-1.6-1.5-4.2-.2-4 1.9.5 3.9 4 8 4 8l3.5 3.9 3.2-1.2z"
                fill="#76B72E"/>
            <path
                d="M90.6 54.3s3-4.6 2.9-8.5c0-2.2-2.8-3.1-4.2-1.4l-1.4 1.7c-.3.3-.8.1-.7-.3.5-1.9 1-4.9.4-7.6-.5-2.1-3.3-2.5-4.3-.6l-1.4 3.8c-.2.3-.7.3-.7-.1-.1-3.1-2.4-10.4-6.8-7.9s.8 8.2 3.4 9.9c.3.2 0 .7-.3.7l-4-.7c-2.1 0-3.2 2.6-1.6 4.1 2 1.9 4.9 2.9 6.8 3.5.4.1.4.7-.1.8l-2.2.3c-2.2.3-2.8 3.2-.9 4.3 3.4 2 8.8 1.7 8.8 1.7l5.2-.4 1.1-3.3zM100.8 68.2s4.2 3.5 8 4c2.2.3 3.5-2.4 1.9-4l-1.5-1.6c-.3-.3 0-.8.4-.6 1.8.7 4.8 1.6 7.5 1.4 2.1-.2 2.9-2.9 1.2-4.2l-3.6-1.9c-.3-.2-.2-.7.2-.7 3.1.3 10.6-1.1 8.7-5.7-1.9-4.6-8.2-.3-10.2 2.1-.2.3-.7 0-.6-.4l1.2-3.9c.3-2.1-2.2-3.5-3.8-2.2-2.1 1.8-3.6 4.5-4.3 6.3-.2.4-.7.3-.8-.2v-2.2c0-2.2-2.8-3.2-4.2-1.4-2.4 3.1-2.8 8.5-2.8 8.5l-2.8 4.2 5.5 2.5z"
                fill="#76B72E"/>
            <path
                d="M77.8 98.8c.2.8.4 1.7.5 2.6.4-.1.7-.1.9-.3.8-.8 1.8-1.1 2.8-1.4 2.4-.7 4.7-1.4 7.1-2 1-.3 2-.6 3-1 2.3-.8 4.6-1.6 6.3-3.5.2-.2.5-.3.6-.4.7-1.8 1.2-3.5 1.6-5.2.3-1.7.3-3.4-.3-4.9-.5-1.3-1.1-2.6-1.7-3.8-.4-.8-1.1-1.6-1.6-2.3-1.1-1.6-1.8-3.5-2.4-5.3-.6-1.7-1.1-3.3 0-5.1.1-.3.2-1-.5-1.1-.5.5-.9 1.3-1.5 1.6-1.8 1.1-3.7 2.4-5.8 2.8-1.3.3-2.6 1.3-4 .9-.5.3-4.2 1.8-4.9 1.9-3.3.6-5.9 3.2-6.7 6.6-.7 2.8-.7 5.6 0 8.2.4 1.5.8 3.1 2.1 4.2.6.6 1.2 1.4 1.3 2.2.2 1.1 1.5 1.2 1.6 2.4 0 .3.8.3.4.9.4.6 1 1.2 1.2 2"
                fill="#CF92B5"/>
            <g fill="#1E1E1C">
                <path
                    d="M94.8 65.6c-1.8-5.9-8.2 1-10.8 2.3-5 2.5-11 3.6-14.5 8.3-2.8 3.8-2.3 7.4-.3 11.4 1.8 3.6 8.4 10 7.4 14.2-.1.5.4.8.8.6 6.7-2.7 17.8-2.1 22-9 1.9-3.1 1.8-7.1.8-10.5-1.7-5.9-4.7-10.9-5.3-17.2-.1-.7-1.2-.6-1.2.2.4 4.7 2 8.8 3.8 13.1 1.9 4.5 3.7 10.1.3 14.5-3 3.8-9.1 4.8-13.4 5.8-1.7.4-3.5.6-5.1 1.2-.3.1-1.6.6-1.8.5 0 0 1 .9.3-.2-1.2-1.6-1.8-4.4-3-6.3-2.2-3.5-5.1-7-6-11.1-1.4-6.2 4.7-9.9 9.6-12 2-.9 4.1-1.6 6.1-2.6 1.5-.7 8.4-5.7 9.3-2.9.2.9 1.2.4 1-.3z"/>
                <path
                    d="M89.6 70.4c1 5.2 6.9 15.2 3.4 19.9-2.2 2.9-8.4 4.1-12 4.1-1.6 0-.4.4-1.3-.3-1.3-1.1-2.6-3.4-3.5-4.8-1.2-1.9-2.4-4.1-2.2-6.4.4-4.1 4.7-5.8 7.9-7.4.7-.3.2-1.4-.5-1-4.9 2.3-10.3 5.4-8.1 11.6.9 2.6 3.8 8.7 6.6 9.7 1.5.5 4.8-.6 6.3-.9 2.4-.5 5.4-1.3 7.1-3.1 5-5.4-1.6-15.8-2.7-21.4.1-.9-1.1-.7-1 0z"/>
                <path
                    d="M82 90.8c-1.1-1.7-3.2-4.5-3.2-6.6 0-1.4 1.2-2.1 2.2-2.8 2.1-1.4 4.4-2.4 6.6-3.7-.3-.2-.5-.3-.8-.5.6 2.3 1.4 4.5 1.9 6.8.3 1.2.8 3-.1 4.1-1.4 1.6-5.1 2-7.1 2.5-.7.2-.6 1.3.2 1.2 2.3-.5 6.5-1 8-3.1.6-.9.7-2.1.6-3.1-.3-2.9-1.6-5.7-2.3-8.5-.1-.3-.4-.7-.8-.5-2.4 1.4-5.1 2.6-7.3 4.2-.9.6-2 1.6-2.1 2.8-.4 2.5 2.2 5.9 3.5 7.9.2.7 1.1 0 .7-.7z"/>
            </g>
            <path
                d="M98.3 61.1c2.8-.3 9.4-1.3 9.8-4.9.1-1.1-.4-2-1.2-2.7-.5-.4-1-.4-1.6-.6-1.4-.5-2.3.7-.6-.4 2-1.4 8-4.4 4.8-7.6-1-1-2.1-.9-3.3-.6-.5.1-2.2 1-2.6.8.1.1 1.2-1 1.7-1.7 1.9-2.6 3.8-7.1-.1-8.9-3-1.3-5 1.1-5.9 3.7-.4 1.2-1.1 4.8-.5 4.9-1-.3-1.3-3.2-2.5-4-3-1.8-4.5 1.6-4.4 4 0 .2.8 5.8 1.5 5.6-.2.1-1.2-1.2-1.5-1.4-1.2-.8-2.5-1-3.7-.1-3.3 2.6 1.2 8.7 3.1 10.9.5.6 1.3-.2.8-.8-.8-.9-1.5-1.9-2.1-3-.7-1.2-3.8-7.3 1.4-6 1 .2 1.1 1.4 2.2 1.5.3 0 .5-.2.6-.4.3-.9-.1-1.1-.3-2-.2-.8-.9-2.2-.8-3 1-1.3 2-2.6 3.1-3.9.2.3.3.6.5.9 1 .9.7 2.5 2.1 2.9.2.1.4 0 .6-.1 1.4-1.7-.4-6.1 1.8-7.5 1.8.4 3.5.7 5.3 1.1-.1.6-.3 1.3-.4 1.9-.4 1.3-1.4 2.5-2.3 3.6-.7.8-1.4 1.1-1.5 2.1 0 .2.1.4.3.5 1.4.7 2.5-1 3.9-.7.6.1 1.9 2.6 1.4 3.6-.4.9-2.3 1.8-3.2 2.2-.9.5-2 .7-2.5 1.7-.1.2-.1.5.1.7 1.7 1.4 2.5-.8 2.8 2.4.3 3-1.8 3-4.5 3.6-.8.2-1.7.3-2.5.4-.8.2-.5 1.4.2 1.3z"
                fill="#1E1E1C"/>
            <path
                d="M98.2 61.1c2.9-.3 9-1.1 9.8-4.5.3-1.3-.2-2.6-1.4-3.3-.4-.2-.9-.2-1.3-.4-1.1-.4-2 .6-1.2-.1 1.7-1.6 8.7-4.3 5.5-7.8-.8-.9-1.7-1-2.8-.9-.7 0-1.6.5-2.2.7-1.7.6-.8.7-.3-.2 1.7-2.5 5.3-6.6 2-9.5-2.8-2.4-5.7-.2-6.8 2.6-.5 1.2-.3 4.6-.9 5.3-.2.2.9.4.2.1-.3-.1-.5-1-.7-1.3-.3-.6-.6-1.4-1-1.9-2-2.1-4.5-.8-5.2 1.7-.5 1.8.4 3.9.7 5.7.4 2 .9 1.1-.5.3-1.2-.7-2.1-1.3-3.5-.6-4.1 2.2.8 9 2.6 11.2.5.6 1.4-.1.9-.7-.3-.4-.7-.8-.9-1.2-1.5-2.4-2.9-3.3-1-5.9 2.3-3.3 1.1-.6 3.4-.4.3 0 .6-.1.7-.5.3-1-.1-.6-.3-2-.1-.7-2.3-10.1 2.6-6.2 1 .8.8 2.7 2.2 3.2.2.1.5.1.7-.2 1.6-1.9-.5-5.5 1.8-7.4.5-1.4 1.4-1.2 2.8.6 2.2.2 2.9 1 2 2.3 0 1.3-1.4 2.6-2.2 3.6-.6.7-1.4 1-1.5 2 0 .3.1.5.3.6 1.4.7 2.6-1 4-.7.7.2 1 3.4.4 4.4-.3.6-1.7 1.1-2.2 1.5-1 .6-1.9.7-2.4 1.7-.1.2 0 .5.2.7.9.7 1.8 0 2.7.5 4.8 2.8-2.4 5-3.3 5.2-1.2.3-2.4.5-3.6.6-1.1.1-1 1.3-.3 1.2z"
                fill="#1E1E1C"/>
            <path
                d="M100.6 65.7c2 2 6 5.8 9.1 5 2.5-.7 2.4-2.8 1.6-4.7-.4-.9-1.5-1.1-.8-1.2.6 0 2.7 1.2 3.4 1.4 1.5.4 3.7 1 5.1 0 1.8-1.3 1.5-3.3.1-4.7-.5-.5-1.3-.8-1.9-1.2-1.5-1.1-1.2-.1 0-.3 1.5-.2 3.1 0 4.6-.4 2.5-.7 4.6-2.4 3.8-5.3-.8-2.9-3.6-3.2-6.1-2.4-1.7.5-3.1 2.2-4.7 2.6-.2.1 0 .5.4-.8.3-.8.6-1.5 1-2.2.3-.7-.8-1-1.1-.3-.5 1.2-1.9 3.1-1.4 4.4.1.2.3.4.5.4.8 0 .7-.3 1.4-.7 1-.4 1.8-1.3 2.8-1.8.4-.2.9-.4 1.4-.5 2.2-1.1 3.3.5 3.2 4.8-2.2 1.9-5.8-.2-7.8 1.1-.2.1-.4.4-.3.6.3 1.4 1.9 1.3 2.7 2.4.9 1.2 2.5-.5-1.3 1.9-2.7 1.7-2.2 1.1-4.8.3-1.3-.4-1-.7-2.1-.5-.2.1-.4.3-.4.5 0 1.2 1.1 1.3 1.3 2.4.9 5.5-5.4 1.3-6.1.7-1-.7-1.9-1.5-2.7-2.4-.6-.4-1.4.4-.9.9zM93.7 63.5c1.2-2.8 2.3-5.6 3.5-8.3.3-.7-.8-1.2-1.1-.5-1.2 2.8-2.3 5.6-3.5 8.3-.3.8.8 1.2 1.1.5zM86.2 58.6c-1.7 0-6.5 0-7.5-1.3-3.6-4.8 1.3-3.3 2.5-4.5.2-.2.3-.5.1-.8-.6-.9-11.4-5.1-5.2-7 1.3-.4 2.8 1.2 4.2.4.2-.1.4-.4.3-.6-.1-.7-.4-.5-.7-1-.4-.7-1.6-1.3-2.1-2-.4-.4-.7-.8-1-1.3-1.7-2-.3-3.2 4.4-3.6 1.9 1.4.6 5.1 2 6.5.2.2.4.3.7.2 1.4-.6 1.7-3 2.2-4.3.3-.7-.8-1.1-1.1-.4-.2.6-.5 1.2-.7 1.9-.2.4-.3.8-.5 1.1-.3.7-.3.7.1 0-.7-.8-.7-3.6-1.2-4.7-1-2.1-2.7-4.1-5.2-3.5-3.2.8-3.5 3.9-2.3 6.4.8 1.7 3 2.8 3.7 4.4.1.3.7-.1-.8-.2-.7-.1-1.6-.5-2.3-.5-2 .1-3.8 1.7-3 3.9.6 1.6 2.8 2.7 4.1 3.4.6.3 2.1.7 2.4 1.1.7.8.2-.3-1 .2-1.8.8-3.7 2.2-2.3 4.5 1.7 2.7 7.1 2.9 9.9 2.9.9-.1 1-1.2.3-1.2z"
                fill="#1E1E1C"/>
        </g>
        <path
            d="M98.2 64.4c-2.7 0-4.9 1.8-5.6 4.3-3.5 12-15.6 20.9-29.9 20.9-14.3 0-26.4-8.8-29.9-20.9-.7-2.5-3-4.3-5.6-4.3h-19l16.2 66.1c.6 2.6 3 4.5 5.7 4.5h65.4c2.7 0 5.1-1.9 5.7-4.5l16.2-66.1H98.2z"
            fill="#DB6112"/>
        <path
            d="M93.1 60.4c-4.5.5-5.7 3-7.3 6.9-2.5 6.1-6.9 11.1-12.7 14.3-11.7 6.5-27.2 5-37.1-4.1-2.2-2-4-4.3-5.4-6.9-1.3-2.3-1.7-5.5-3.4-7.6-1.7-2-3.8-2.5-6.3-2.6-6-.2-12 0-18 0-.7 0-1.1.6-1 1.2 3.7 15 7.3 29.9 11 44.9 1.7 6.7 3.1 13.6 5 20.3 1.8 6.5 6.9 6.2 12.6 6.2h46.8c5.8 0 16.6 2.2 19.3-4.6 1.9-4.8 2.6-10.4 3.9-15.4 4.2-17.1 8.4-34.2 12.6-51.4.1-.6-.3-1.3-.9-1.3-6.4.1-12.8.1-19.1.1-1.3 0-1.3 2 0 2h19c-.3-.4-.6-.9-.9-1.3-3.4 13.7-6.7 27.5-10.1 41.2-1.8 7.3-3.6 14.6-5.4 21.8-.8 3.1-.9 6-5.5 6.9-2.4.4-5.3 0-7.7 0H39.8c-5.8 0-16.7 2.4-19.8-4.4-2.3-5.2-2.9-12-4.3-17.5-3.9-16-7.8-32-11.8-48-.3.4-.7.8-1 1.2 5.8 0 12.3-.9 18 0 2.9.5 5 2.1 6.1 4.8.8 2.1 1.7 4.1 2.9 6 2.6 4 6.2 7.3 10.3 9.7 9 5.3 20.4 6 30 2.2 4.3-1.7 8.3-4.3 11.4-7.7 1.5-1.6 2.9-3.4 4-5.4 1.9-3.2 2.7-9.2 7.3-9.8 1.4.1 1.5-1.9.2-1.7z"
            fill="#1E1E1C"/>
    </g>
</svg>
