<?xml version="1.0" standalone="no"?>
<!DOCTYPE svg PUBLIC "-//W3C//DTD SVG 20010904//EN"
 "http://www.w3.org/TR/2001/REC-SVG-20010904/DTD/svg10.dtd">
<svg version="1.0" xmlns="http://www.w3.org/2000/svg"
 width="260.000000pt" height="260.000000pt" viewBox="0 0 260.000000 260.000000"
 preserveAspectRatio="xMidYMid meet">
<metadata>
Created by potrace 1.11, written by Peter Selinger 2001-2013
</metadata>
<g transform="translate(0.000000,260.000000) scale(0.100000,-0.100000)"
fill="#000000" stroke="none">
<path d="M2182 2475 c3 -4 1 -25 -4 -48 -5 -23 -11 -51 -14 -61 -25 -127 -114
-268 -242 -387 -70 -66 -102 -89 -327 -240 -199 -134 -204 -137 -300 -234 -60
-60 -101 -112 -124 -155 -35 -68 -91 -229 -91 -263 0 -14 -5 -17 -17 -12 -110
42 -363 54 -520 25 -111 -20 -140 -28 -248 -67 -69 -25 -101 -39 -220 -94 -68
-31 -71 -28 72 -63 56 -14 127 -37 158 -51 80 -38 163 -120 241 -238 37 -56
87 -132 112 -170 175 -263 520 -382 772 -265 25 12 48 22 52 22 20 3 68 69 96
133 17 40 69 123 115 185 46 62 98 138 117 168 19 30 37 57 40 60 5 5 11 14
57 98 134 240 197 414 236 652 3 18 5 13 7 -15 22 -310 -94 -607 -383 -985
-44 -58 -98 -126 -119 -151 -21 -25 -38 -49 -38 -53 0 -16 242 2 314 23 277
82 486 277 596 555 82 209 96 440 44 741 -29 168 -136 459 -246 665 -63 119
-129 230 -136 230 -3 0 -3 -2 0 -5z"/>
</g>
</svg>
