<?xml version="1.0" encoding="UTF-8"?>
<svg width="157px" height="132px" viewBox="0 0 157 132" version="1.1" xmlns="http://www.w3.org/2000/svg" xmlns:xlink="http://www.w3.org/1999/xlink">
    <!-- Generator: Sketch 54.1 (76490) - https://sketchapp.com -->
    <title>Group 10</title>
    <desc>Created with Sketch.</desc>
    <defs>
        <polygon id="path-1" points="0 0.522980383 98.0491661 0.522980383 98.0491661 63 0 63"></polygon>
    </defs>
    <g id="Page-1" stroke="none" stroke-width="1" fill="none" fill-rule="evenodd">
        <g id="HP" transform="translate(-268.000000, -675.000000)">
            <g id="Group-10" transform="translate(42.000000, 490.000000)">
                <g transform="translate(226.000000, 185.000000)">
                    <path d="M132.105527,0 C128.080638,41.3569444 81.8944518,43.1171927 69.184277,72.8991712 C57.1037266,101.205386 67.4425123,125.356941 86.7196107,133.701821 C88.5143345,134.478227 90.373786,135.118317 92.2744279,135.622092 C105.272935,120.022855 127.656965,89.2036932 129.792981,59.688419 C133.76491,88.8303072 115.123321,114.481333 96.8759819,136.552594 C136.212796,142.254139 188.842335,93.2813053 132.105527,0" id="Fill-1" fill="#53792C"></path>
                    <path d="M73.099079,144 C66.3455986,144 59.259493,141.941557 52.6129278,138.053387 C44.9150293,133.549444 40.4721064,126.429929 36.1776769,119.544995 C30.1726033,109.927199 24.5060947,100.843074 10.4704973,97.6410516 L5,96.3977755 L10.0903542,94.0637007 C21.7619364,88.7152679 33.3028445,86 44.3923325,86 C68.4126269,86 84.0816518,98.3271992 90.7400965,109.868554 C95.9314262,118.864712 96.4006654,128.206876 92.0230796,135.490597 C91.7498517,135.953893 91.4291059,136.399596 91.0846012,136.839434 L90.3302546,137.777755 L90.3658931,137.824671 L90.163942,137.988878 L89.5046313,138.821638 L89.3739571,138.645703 L88.9641153,138.991709 C85.1329852,142.176138 79.3536216,144 73.099079,144" id="Fill-3" fill="#FEFEFE"></path>
                    <g id="Group-7" transform="translate(0.000000, 83.000000)">
                        <mask id="mask-2" fill="white">
                            <use xlink:href="#path-1"></use>
                        </mask>
                        <g id="Clip-6"></g>
                        <path d="M45.3941529,4.37040144 C81.2784824,4.37040144 101.863753,34.0411909 91.4699176,51.493899 C91.2377529,51.8910904 90.9639176,52.2764254 90.6662706,52.6499038 C82.9810235,42.0857986 72.4443176,29.0851909 52.8531882,24.4078177 C68.5034706,29.8914301 82.6357529,46.4608321 88.8149059,54.5410091 C85.5110235,57.3154206 80.3438706,59.1531718 74.1647176,59.1531718 C68.3070235,59.1531718 61.5385294,57.4991957 54.6152588,53.4087172 C37.0838471,43.0580282 37.2802941,18.1891048 11.8314706,12.3438703 C23.9992824,6.71798038 35.2979647,4.37040144 45.3941529,4.37040144 M45.3941529,0.522980383 L45.3941529,0.522980383 C34.0002235,0.522980383 22.1598235,3.32703301 10.2003647,8.85807129 L-0.00297647059,13.5710139 L10.9623412,16.0905115 C24.2374,19.1435498 29.7141059,27.9943967 35.5122706,37.3609995 C39.9472118,44.522301 44.5250235,51.9207316 52.6448353,56.7166694 C59.6097765,60.8249325 67.0509529,63.0005928 74.1647176,63.0005928 C80.3557765,63.0005928 85.9455882,61.3821861 90.0947882,58.4180713 L90.5472118,59.0346072 L92.6724118,56.3372627 L94.1189765,55.1219756 L93.8749059,54.8077794 C94.2261294,54.3453775 94.5297294,53.9007603 94.7916588,53.4561431 C99.5421059,45.4826742 99.0777765,35.333545 93.5236824,25.6231048 C86.5825529,13.4880187 70.2953059,0.522980383 45.3941529,0.522980383" id="Fill-5" fill="#FEFEFE" mask="url(#mask-2)"></path>
                    </g>
                    <path d="M52.8557208,108.11553 C72.3675735,112.811245 82.861642,125.862833 90.5157902,136.468365 C90.8122328,136.093422 91.08496,135.706576 91.3161852,135.313778 C104.579028,112.852905 67.1976143,70.2760411 12,96.0042749 C37.3458433,101.878382 37.1501912,126.838876 54.610661,137.230154 C68.7806179,145.663396 82.2628279,143.794633 88.677846,138.366886 C82.5177685,130.260975 68.4426733,113.620646 52.8557208,108.11553" id="Fill-8" fill="#76B72A"></path>
                </g>
            </g>
        </g>
    </g>
</svg>